<?xml version="1.0" encoding="UTF-8"?>
<svg id="Layer_1" data-name="Layer 1" xmlns="http://www.w3.org/2000/svg" xmlns:xlink="http://www.w3.org/1999/xlink" viewBox="0 0 512 263">
  <defs>
    <style>
      .cls-1 {
        fill: #aa6550;
      }

      .cls-1, .cls-2, .cls-3, .cls-4, .cls-5, .cls-6, .cls-7, .cls-8, .cls-9, .cls-10, .cls-11, .cls-12, .cls-13, .cls-14, .cls-15 {
        stroke-width: 0px;
      }

      .cls-2 {
        isolation: isolate;
        opacity: .7;
      }

      .cls-2, .cls-7 {
        fill: #fff;
      }

      .cls-4 {
        fill: #e0e0e0;
      }

      .cls-5 {
        fill: none;
      }

      .cls-16 {
        clip-path: url(#clippath-1);
      }

      .cls-6 {
        fill: #f7931e;
      }

      .cls-8 {
        fill: #fafafa;
      }

      .cls-9 {
        fill: #263238;
      }

      .cls-10 {
        fill: #01d191;
      }

      .cls-17 {
        clip-path: url(#clippath);
      }

      .cls-18 {
        opacity: .3;
      }

      .cls-11 {
        fill: #ebebeb;
      }

      .cls-12 {
        fill: #ffbe9d;
      }

      .cls-13 {
        fill: #eb996e;
      }

      .cls-14 {
        fill: #455a64;
      }

      .cls-15 {
        fill: #b78876;
      }
    </style>
    <clipPath id="clippath">
      <rect class="cls-5" x="0" y="-287.28" width="512" height="261.57" rx="42.76" ry="42.76"/>
    </clipPath>
    <clipPath id="clippath-1">
      <rect class="cls-5" x="0" y=".72" width="512" height="261.57" rx="42.76" ry="42.76"/>
    </clipPath>
  </defs>
  <g class="cls-17">
    <g id="freepik--background-simple--inject-32">
      <path class="cls-6" d="m211.93-273.59c29.78-7.92,63.75-7.84,92.72,4.54,9.98,4.31,19.55,9.5,28.6,15.51,69,45.49,71.62,113.19,59.58,145.99-6.89,18.76-25.71,29.99-41.72,40.14-14.17,8.98-39.04,19.77-45.55,36.62-8.79,22.73-20.89,54.54-58.09,43.28C210.28,1.23,181.31-10.03,151.87-62.69c-29.43-52.66-40.5-89.45-33.4-123.1,9.58-45.38,49-76.01,93.46-87.81Z"/>
      <path class="cls-2" d="m211.93-273.59c29.78-7.92,63.75-7.84,92.72,4.54,9.98,4.31,19.55,9.5,28.6,15.51,69,45.49,71.62,113.19,59.58,145.99-6.89,18.76-25.71,29.99-41.72,40.14-14.17,8.98-39.04,19.77-45.55,36.62-8.79,22.73-20.89,54.54-58.09,43.28C210.28,1.23,181.31-10.03,151.87-62.69c-29.43-52.66-40.5-89.45-33.4-123.1,9.58-45.38,49-76.01,93.46-87.81Z"/>
    </g>
  </g>
  <g class="cls-16">
    <g>
      <g id="freepik--Icons--inject-9">
        <path class="cls-10" d="m350.88,20.71c-.68-5.55-5.38-10.73-10.98-10.73-3.3,0-6.44,1.72-8.69,4.13-.8.82-1.54,1.69-2.21,2.62-.47-1.04-1.02-2.04-1.65-3-1.74-2.81-4.47-5.12-7.71-5.77-5.48-1.1-11.1,3.05-12.87,8.36-1.77,5.31-.3,11.26,2.61,16.04,2.91,4.78,7.91,11.02,17.11,14.12,6.34-.82,14.87-6.45,18.66-10.56,3.79-4.11,6.4-9.66,5.74-15.21Z"/>
        <path class="cls-8" d="m348.84,30.67c-.06,0-.12,0-.18,0l-.54-.04-2.07-.17-7.6-.7.14-.08c-.92,2.39-1.99,5.19-3.17,8.24l-.19.49-.13-.52c-.97-4.01-2.05-8.5-3.17-13.23-.35-1.46-.7-2.91-1.03-4.32l.32.06-5.8,7.98-.06.37h-.37l-12.49-1.3-3.55-.39-.94-.12c-.11,0-.22-.03-.32-.06.11-.01.22-.01.33,0l.94.07,3.55.31,12.5,1.18-.14.06,5.4-7.48.21-.3.08.36c.32,1.32.64,2.66.97,4.03l2.96,12.38h.54c1.26-3.21,2.41-6.14,3.39-8.64l.03-.1h.02l7.6,1.53,2.06.24.54.07c.05.01.1.04.15.06Z"/>
        <rect class="cls-10" x="209.78" y="54.98" width="3.75" height="18.73"/>
        <rect class="cls-10" x="202.29" y="62.47" width="18.73" height="3.75"/>
        <path class="cls-10" d="m226.74,64.77c-.02-.08-.03-.17-.03-.25,0-.18-.03-.43-.05-.74,0-.16,0-.35-.04-.55s-.06-.42-.1-.63c-.07-.54-.18-1.08-.33-1.61-.37-1.46-.95-2.85-1.74-4.13-3.81-6.39-11.63-9.16-18.61-6.61-.69.25-1.37.54-2.02.89-.66.36-1.3.77-1.9,1.22-.62.46-1.2.96-1.76,1.49-.54.56-1.05,1.16-1.51,1.79-.96,1.29-1.71,2.73-2.21,4.26-1.06,3.17-1.06,6.6,0,9.77.5,1.53,1.25,2.97,2.21,4.26.46.63.97,1.23,1.51,1.79.55.54,1.14,1.04,1.76,1.5.6.45,1.24.86,1.9,1.22.65.34,1.33.64,2.02.89,6.98,2.53,14.79-.23,18.61-6.6.79-1.28,1.37-2.68,1.74-4.14.15-.53.26-1.06.33-1.6.04-.24.08-.46.1-.63s0-.38.04-.55c0-.32.04-.56.05-.74,0-.09.02-.17.03-.25,0,.08,0,.17-.73.25v1.29c.73.2.67.42.65.63-.06.55-.16,1.09-.3,1.62-.35,1.48-.93,2.9-1.7,4.2-2.31,3.9-6.19,6.62-10.65,7.45-2.76.51-5.6.28-8.24-.67-.71-.26-1.39-.56-2.06-.9-1.36-.75-2.62-1.68-3.73-2.76-.56-.57-1.07-1.18-1.55-1.83-.99-1.32-1.75-2.79-2.26-4.35-.52-1.61-.8-3.29-.82-4.99.02-1.69.3-3.37.82-4.98.51-1.56,1.28-3.03,2.26-4.35.47-.64.99-1.26,1.55-1.83.56-.54,1.16-1.05,1.79-1.51,3.51-2.59,7.95-3.61,12.24-2.81,4.44.85,8.29,3.57,10.59,7.46.78,1.3,1.35,2.72,1.7,4.2.14.54.24,1.08.3,1.63,0,.23.07.46.66.63v1.29c-.55.09-.53.18-.52.28Z"/>
      </g>
      <g id="freepik--character-3--inject-9">
        <path class="cls-10" d="m419.74,193.92s18.54-4.44,19.16-5.2l-15.25-39.29c-3-8.18-9.54-14.55-17.79-17.34-5.78-2.01-11.89-2.96-18.01-2.78l-25.75-1.36c-7.09.44-14.01,2.35-20.32,5.62-8.66,4.51-15.42,11.97-19.07,21.02l-11.55,28.84,29.15,6.09,1.11,30.99-4.39,42.95h79.98l1.25-67.96h0l1.48-1.57Z"/>
        <g class="cls-18">
          <path class="cls-7" d="m435.72,183.59c0,.09-4.78,1.66-10.77,3.5-5.99,1.84-10.82,3.28-10.84,3.17s4.78-1.66,10.77-3.51c6-1.85,10.82-3.25,10.84-3.16Z"/>
        </g>
        <path class="cls-9" d="m351.58,155.97c-.19-.21-.35-.44-.49-.68-.29-.44-.74-1.08-1.32-1.84-.68-.88-1.41-1.73-2.19-2.53-.95-.99-1.96-1.92-3.02-2.79-1.07-.86-2.2-1.65-3.37-2.37-.96-.58-1.95-1.11-2.96-1.59-.86-.41-1.58-.72-2.08-.91-.27-.08-.53-.2-.77-.34.28.05.55.12.81.22.72.24,1.43.51,2.13.82,1.04.46,2.05.97,3.02,1.55,1.19.72,2.32,1.51,3.41,2.37,1.07.88,2.09,1.83,3.04,2.84.77.83,1.49,1.71,2.15,2.62.46.61.88,1.24,1.27,1.9.15.23.27.48.37.74Z"/>
        <path class="cls-9" d="m347.78,165.35c.09,0-.81,9.47-2.01,21.13-1.2,11.66-2.24,21.11-2.33,21.1s.8-9.47,2.01-21.13c1.2-11.66,2.26-21.11,2.33-21.1Z"/>
        <path class="cls-9" d="m411.09,147.84c-.17-.63-.31-1.26-.41-1.9-.32-1.54-.75-3.05-1.27-4.54-.54-1.48-1.17-2.93-1.9-4.32-.33-.56-.63-1.15-.9-1.74,0,0,.14.13.34.41s.46.7.77,1.22c.79,1.38,1.46,2.83,2,4.32.54,1.5.94,3.04,1.2,4.61.1.6.15,1.09.18,1.43.02.17.02.34,0,.51Z"/>
        <path class="cls-9" d="m412.81,180.89c-.08-.31-.13-.62-.15-.93-.08-.6-.18-1.47-.29-2.53-.21-2.15-.43-5.15-.54-8.45-.11-3.3-.11-6.31-.05-8.47.03-1.08.06-1.96.1-2.53,0-.32.03-.63.1-.94.04.31.05.62.04.94v2.55c0,2.16.03,5.15.15,8.45s.3,6.28.45,8.44c.07,1.03.13,1.9.18,2.53.04.31.05.63.03.94Z"/>
        <path class="cls-7" d="m373.32,175.05c-6.66.39-13.34.27-19.97-.38v2.65h19.97v-2.27Z"/>
        <g class="cls-18">
          <path class="cls-7" d="m394.44,131.54c.04.13.07.26.08.4l.18,1.17c.13,1.03.3,2.53.45,4.44.3,3.8.57,9.22.63,15.61v.24l-.22-.1c-4.04-1.97-8.57-4.11-13.31-6.47l-23.05-11.53-6.97-3.53-1.9-.97-.48-.27c-.06-.02-.11-.06-.16-.1.06.01.12.04.18.07l.5.23,1.9.92,7.01,3.43,23.12,11.45c4.71,2.36,9.24,4.51,13.31,6.49l-.22.13c-.07-6.38-.29-11.79-.54-15.6-.11-1.9-.27-3.4-.36-4.44-.06-.49-.1-.89-.13-1.17-.01-.13-.02-.27-.01-.4Z"/>
        </g>
        <g class="cls-18">
          <path class="cls-7" d="m345.53,186.29c-.11,0-.23-.02-.34-.06l-.94-.22-3.47-.88c-2.93-.75-6.97-1.77-11.45-2.86-4.47-1.08-8.54-2.02-11.49-2.69l-3.49-.8-.94-.23c-.11-.02-.22-.06-.32-.1.11-.02.22-.02.34,0l.96.17c.83.15,2.03.39,3.51.7,2.96.63,7.03,1.51,11.51,2.6s8.52,2.15,11.41,2.95c1.46.41,2.64.74,3.44.98l.93.29c.12.04.23.09.34.15Z"/>
        </g>
        <path class="cls-9" d="m390.41,126.75c0-.1,1.74.82,3.42,3.31s3.21,6.34,4.07,10.77c.4,2.09.65,4.21.74,6.34,0,.98.04,1.9,0,2.77s-.06,1.67-.13,2.41-.15,1.39-.22,1.98-.18,1.07-.25,1.48c-.04.44-.14.86-.3,1.27-.04-.42-.02-.85.05-1.27l.13-1.48c.04-.59.08-1.27.11-1.97s0-1.53.06-2.38-.04-1.77-.08-2.73c-.13-2.08-.39-4.16-.78-6.21-.66-3.73-1.95-7.32-3.8-10.63-.6-.98-1.3-1.88-2.11-2.69-.33-.3-.63-.62-.93-.96Z"/>
        <path class="cls-9" d="m361.59,126.93c-.39.67-.84,1.31-1.34,1.9-1.21,1.74-2.21,3.61-2.98,5.58-1.11,2.93-1.85,5.99-2.21,9.11-.46,3.51-.63,7.44-.92,11.55-.29,4.11-.22,8.03-.23,11.6,0,3.57,0,6.79,0,9.51s-.07,4.9-.15,6.41c0,.79-.07,1.57-.23,2.34-.13-.78-.19-1.56-.15-2.35-.04-1.54-.1-3.72-.16-6.4s-.16-5.92-.21-9.51-.06-7.52.15-11.66.48-8.05,1-11.62c.41-3.18,1.24-6.29,2.47-9.25.85-1.99,1.97-3.85,3.33-5.53.47-.63,1.02-1.19,1.63-1.67Z"/>
        <path class="cls-9" d="m404.2,179.9c-.1-.69-.15-1.39-.13-2.09-.04-1.35-.07-3.3-.1-5.7,0-1.21,0-2.53-.04-3.94s0-2.94-.08-4.5c-.04-1.61-.61-3.17-1.62-4.44-1.12-1.3-2.73-2.06-4.44-2.12-1.73,0-3.39.65-4.67,1.81-1.18,1.1-2,2.54-2.36,4.11-.39,1.51-.56,3.02-.79,4.44l-.63,3.89c-.38,2.38-.7,4.3-.94,5.63-.09.7-.23,1.38-.43,2.05,0-.7.06-1.4.18-2.09.16-1.34.41-3.27.73-5.66.16-1.2.35-2.5.54-3.9s.35-2.91.75-4.49c.37-1.7,1.26-3.25,2.53-4.44,1.38-1.27,3.19-1.98,5.06-2,1.91.05,3.7.9,4.94,2.35,1.09,1.37,1.7,3.06,1.74,4.8.1,1.62,0,3.12,0,4.54s-.03,2.74-.05,3.94c0,2.41-.07,4.36-.11,5.7.03.7,0,1.4-.09,2.1Z"/>
        <path class="cls-9" d="m398.09,150.93c-.21,2.22-.92,4.71-2.46,6.34,1.35-.29,2.75-.27,4.09.08-.96-1.9-1.12-4.25-1.09-6.39"/>
        <path class="cls-9" d="m404.22,165.35c-.12,0-.19-1.06-1-2.53-.47-.84-1.1-1.59-1.84-2.21-.9-.75-1.97-1.26-3.12-1.48-1.16-.19-2.34-.07-3.43.34-.91.33-1.74.84-2.45,1.48-1.23,1.12-1.64,2.13-1.74,2.07s.19-1.12,1.42-2.41c.72-.74,1.58-1.32,2.53-1.71,1.19-.49,2.49-.64,3.76-.43,1.26.24,2.44.82,3.4,1.67.78.68,1.42,1.52,1.86,2.45.78,1.62.67,2.76.61,2.75Z"/>
        <path class="cls-12" d="m421.18,237.14c3.8,0,7.15-2.72,8.92-6.05s2.23-7.2,2.4-10.97c.46-10-.76-20-3.62-29.59l-16.53,2.88,4.51,44.54,4.32-.82Z"/>
        <polygon class="cls-9" points="354.29 242.68 408.14 240.72 421.2 177.62 364.48 180.77 354.29 242.68"/>
        <path class="cls-14" d="m382.26,179.82l.81-1.61,4.3-.31s1.09-2.82,7.24-3.11c5.5-.25,5.7,2.53,5.7,2.53h2.97v1.35l-21.01,1.15Z"/>
        <path class="cls-12" d="m412.01,222.34l4.08-1.19c.77-.23,1.58-.26,2.36-.11h0c.96.19,1.84.65,2.53,1.34,1.35,1.33,3.53,3.53,3.84,4.19.46.96.46,2.62,0,3.23s1,3.76.82,4.8c-.1.89-.37,1.75-.82,2.53-.37.44,0,1.93-.91,3.06-.52.66-1.1,1.27-1.73,1.83,0,0-11.22.53-12.31,0s-3.01-2.53-3.01-2.53c0,0-1-1.83.54-2.01l-6.38-2.44c-.77-.28-1.18-1.12-.93-1.9.09-.28.3-.51.56-.63,0,0-2.86-.91-3.53-1.2-1.32-.58-1.83-3.66.92-3.27,1.44.21,3.4.63,3.4.63,0,0-1.05-1.7.42-2.71.89-.63,4.88.13,4.88.13l5.25-3.75h0Z"/>
        <path class="cls-13" d="m413.45,239.18c-1.13.03-2.25-.13-3.31-.49-1.1-.25-2.14-.72-3.05-1.38.04-.08,1.38.58,3.17,1.06s3.21.74,3.2.81Z"/>
        <path class="cls-13" d="m411.01,235.19c-1.76-.28-3.49-.67-5.2-1.16-1.74-.38-3.45-.88-5.12-1.48,3.49.67,6.94,1.55,10.32,2.64h0Z"/>
        <path class="cls-13" d="m412.35,231.22c-3.76-.65-7.47-1.52-11.13-2.6,3.76.65,7.47,1.52,11.13,2.6Z"/>
        <path class="cls-13" d="m416.49,226.11c-.46.2-.94.36-1.44.46l-1.58.41-.94.23c-.35.09-.72.12-1.08.1-.36-.03-.71-.08-1.05-.17l-.94-.22-1.58-.38c-.5-.09-.98-.24-1.45-.44.5.01,1.01.08,1.5.21l1.61.31c.64.15,1.29.27,1.95.35.64-.01,1.28-.11,1.9-.3l1.6-.34c.49-.13,1-.21,1.51-.23Z"/>
        <path class="cls-13" d="m417.21,228.26s.19.11.31.42c.16.4.18.85.04,1.27-.13.41-.39.77-.75,1.01-.27.18-.48.2-.49.16s.63-.43.93-1.27c.11-.53.1-1.07-.04-1.59Z"/>
        <path class="cls-13" d="m416.98,232.6c.08-.04.33.41.29,1.03s-.33,1.04-.41.99.05-.47.08-1.01-.06-.98.04-1.01Z"/>
        <path class="cls-13" d="m417.04,237.3c.08-.03.25.27.17.67s-.35.63-.42.55.04-.3.1-.63.06-.56.15-.59Z"/>
        <path class="cls-13" d="m418.27,225.86c-.36.04-.72.02-1.08-.05l-1.15-.15c-.45-.09-.92-.12-1.38-.07-.44.1-.85.29-1.22.55-.35.23-.63.5-.96.67-.3.22-.66.35-1.03.35,0-.06.39-.16.91-.55.63-.63,1.41-1.09,2.26-1.35.26-.03.52-.03.77,0,.26,0,.47.08.69.11l1.15.22c.36.04.71.13,1.04.27Z"/>
        <path class="cls-13" d="m424.74,237.34c.08-.27.17-.53.29-.78.52-1.2.59-2.55.21-3.8-.13-.56-.39-1.12-.53-1.78-.08-.69-.04-1.4.14-2.07.07-.7-.05-1.41-.37-2.03-.32-.64-.71-1.25-1.17-1.81-.44-.55-.86-1.09-1.27-1.57-.72-.88-1.62-1.59-2.66-2.07-.7-.31-1.47-.43-2.23-.34-.53.08-.81.22-.82.19s.06-.05.2-.12c.2-.09.42-.15.63-.2.79-.14,1.6-.05,2.34.25,1.08.47,2.04,1.19,2.79,2.09.44.49.87,1.02,1.32,1.57.47.59.88,1.22,1.21,1.9.34.69.48,1.46.39,2.22-.17.64-.22,1.31-.16,1.97.12.63.37,1.2.49,1.77.14.53.21,1.08.21,1.63-.03.79-.22,1.57-.56,2.28-.12.26-.27.49-.45.71Z"/>
        <path class="cls-12" d="m387.04,206.15l-44.21,7.02,1.96-23.07-24.59-4.75-2.99,34.16-.52,7.83c-.35,5.31,2.08,10.41,6.42,13.49h0c3.94,2.8,8.98,3.57,13.57,2.08l9.51-3.1,46.34-16.48"/>
        <path class="cls-12" d="m413.8,201.64c.12-.69-.35-1.34-1.04-1.46-.07-.01-.15-.02-.23-.02-2.49,0-9.22,0-11.6.7-2.94.83-13.9,5.53-13.9,5.53l4.65,17.11,16.81.18s6.14-2.82,6.22-4.04c0-.76-.06-1.53-.15-2.29l1.86-.99c2.76-1.75.99-5.11.99-5.11,0,0,1.9-1.06,2-2.99.09-1.15-.48-2.25-1.48-2.83,0,0,.76-2.71-.63-3.44s-3.8.2-3.8.2c.16-.14.27-.33.31-.55Z"/>
        <path class="cls-13" d="m414.77,201.65c-.16.09-.34.15-.52.18-.34.1-.84.2-1.45.31-1.27.22-2.95.41-4.85.63-1.61.15-3.22.39-4.8.74-1.21.28-1.9.63-1.9.63.14-.12.29-.22.46-.3.45-.22.91-.4,1.39-.54,1.58-.41,3.19-.69,4.82-.84,1.9-.2,3.62-.35,4.85-.51s1.98-.36,2-.32Z"/>
        <path class="cls-13" d="m417.93,205.09c-.36.26-.76.47-1.19.6-.99.38-2.02.68-3.06.89-1.22.25-2.33.42-3.17.53-.43.09-.87.12-1.31.1,0-.11,1.96-.46,4.39-.95,1.03-.21,2.05-.47,3.05-.79.42-.17.85-.3,1.29-.39Z"/>
        <path class="cls-13" d="m417.42,211.04c-2.31,1.07-4.83,1.64-7.38,1.67,0-.1,1.67-.31,3.7-.77,2.03-.46,3.68-.99,3.68-.9Z"/>
        <path class="cls-13" d="m416.42,216.13c-1.77.9-3.72,1.37-5.7,1.38,1.9-.45,3.81-.9,5.7-1.38Z"/>
        <path class="cls-13" d="m407.65,213.12s-.17.15-.51.18c-.45.04-.9-.09-1.27-.35-.37-.26-.64-.65-.75-1.08-.08-.34-.04-.54,0-.54s.18.82.94,1.36c.49.27,1.04.43,1.6.44Z"/>
        <path class="cls-13" d="m407.28,218.4c0,.09-.63.13-1.24-.39s-.63-1.19-.53-1.18.26.51.75.93,1.01.54,1.01.63Z"/>
        <path class="cls-13" d="m405.38,207.61c.04.09-.42.23-.86-.1s-.42-.81-.32-.8.2.31.52.54.61.27.66.35Z"/>
        <path class="cls-13" d="m387.04,206.15l.13-.08.4-.18,1.56-.69c1.37-.59,3.35-1.44,5.87-2.48,1.27-.51,2.64-1.07,4.16-1.64.78-.31,1.59-.56,2.41-.75.88-.16,1.78-.27,2.67-.33,1.84-.15,3.8-.21,5.82,1.03h2.33c.29-1.28.58-1.22.84-1.09.57.28.87.91.72,1.53-.04.09-.11.17-.19.22l-.19.12-.38.18c-.26.11-.53.2-.8.28-.09.02-.17-.03-.2-.11-.02-.08.03-.17.11-.2,0,0,0,0,0,0,.69-.2,1.39-.36,2.09-.47.73-.13,1.48-.16,2.22-.08.4.04.78.21,1.09.47.29.29.47.67.54,1.07.11.77.06,1.56-.15,2.31l-.08-.2c.36.21.68.49.93.82.64.86.82,1.98.48,3-.35.96-1.02,1.78-1.9,2.3l.06-.22c.46.9.64,1.92.53,2.93-.14,1-.72,1.87-1.58,2.4h0l-1.85.99.08-.16c.04.44.09.89.12,1.32,0,.22.88.63.88.63v.34s-.91.25-.98.36c-.27.35-.59.66-.96.91-.34.25-.7.48-1.05.7-1.35.8-2.75,1.53-4.18.87h-12.29l-3.38,1.06-.89-.03c-.1.01-.2.01-.3,0,.1,0,.3.22.3.22h16.51-.06c1.42-.81,2.8-1.54,4.14-2.34.34-.21.69-.44,1.02-.68.34-.23.63-.51.87-.83.05-.07,0-.22,0-.22v-.94c.07-.43.03-.87-.02-1.31,0-.06.02-.12.08-.15l1.85-1h0c.78-.47,1.31-1.27,1.44-2.17.09-.94-.08-1.89-.51-2.73-.04-.08,0-.17.07-.22.82-.48,1.44-1.23,1.77-2.12.3-.92.14-1.92-.44-2.7-.22-.29-.5-.54-.82-.72-.07-.04-.1-.12-.08-.19.19-.7.24-1.44.14-2.16-.08-.7-.65-1.23-1.36-1.27-.71-.08-1.42-.05-2.12.08-.69.1-1.38.25-2.05.45l-.08-.31c.26-.07.5-.15.75-.25.12-.05.25-.11.35-.16s.22-.17.26-.16c.02-.23-.01-.46-.1-.67-.11-.21-.28-.38-.49-.49-.21-.11-.45-.16-.69-.44h-2.32c-2.03.3-3.97.38-5.8.51-.89.06-1.77.16-2.64.31-.81.18-1.6.42-2.38.72-1.51.55-2.9,1.1-4.16,1.6l-5.9,2.39-1.58.63-.41.16-.23.03Z"/>
        <path class="cls-13" d="m343.01,213.12c-1.2.8-2.3,1.75-3.26,2.82-.88,1.15-1.61,2.4-2.18,3.73.03-.44.14-.87.33-1.27.78-1.96,2.16-3.62,3.95-4.75.35-.24.75-.42,1.17-.53Z"/>
        <path class="cls-12" d="m400.74,76.81c-.91-11.6-10.58-20.56-22.22-20.58h-1.16c-12.47.7-18.85,11.69-17.8,24.14l2.15,49.91c.03.83.52,1.57,1.27,1.94l28,13.14-.81-26.19s12-1.84,12.17-13.83c.05-5.79-.76-17.73-1.6-28.52Z"/>
        <path class="cls-13" d="m390.24,118.69c-5.57,0-11.02-1.61-15.7-4.63,0,0,3.68,8.63,15.64,7.6l.06-2.98Z"/>
        <path class="cls-9" d="m396.51,83.84c0,.93-.73,1.69-1.65,1.72-.9.07-1.68-.59-1.76-1.49,0-.02,0-.04,0-.06-.01-.93.72-1.69,1.65-1.72.9-.07,1.69.6,1.77,1.51,0,.01,0,.03,0,.04Z"/>
        <path class="cls-9" d="m398.16,82.25c-.22.22-1.51-.74-3.35-.74s-3.17.93-3.39.7c-.1-.1.11-.5.7-.93.8-.55,1.75-.84,2.72-.83.96,0,1.89.3,2.67.87.56.43.75.84.65.94Z"/>
        <path class="cls-9" d="m378.39,84.4c.01.93-.72,1.7-1.65,1.72-.9.07-1.69-.6-1.76-1.5,0-.02,0-.03,0-.05,0-.93.73-1.69,1.65-1.72.9-.07,1.69.6,1.76,1.5,0,.02,0,.03,0,.05Z"/>
        <path class="cls-9" d="m380.03,82.57c-.21.22-1.51-.74-3.35-.74s-3.17.92-3.4.69c-.1-.1.12-.5.71-.93.8-.55,1.75-.85,2.72-.84.96,0,1.89.31,2.66.87.58.42.77.83.65.94Z"/>
        <path class="cls-9" d="m386.71,96.23c0-.1,1.13-.3,2.99-.53.47-.05.92-.14.99-.46.04-.49-.07-.97-.31-1.39l-1.38-3.59c-1.9-5.07-3.31-9.3-3.11-9.37s1.9,4,3.85,9.11l1.32,3.61c.3.57.38,1.22.24,1.84-.14.34-.43.59-.78.68-.26.07-.53.11-.8.11-1.86.1-3.02.1-3.03,0Z"/>
        <path class="cls-9" d="m381.3,97.5c.3,0,.3,1.98,2.01,3.4,1.71,1.43,3.83,1.2,3.85,1.48,0,.13-.48.39-1.38.41-1.17.02-2.31-.38-3.22-1.13-.87-.71-1.42-1.74-1.55-2.85-.1-.84.13-1.33.29-1.32Z"/>
        <path class="cls-9" d="m380.54,75.34c-.18.5-2.02.26-4.18.52-2.16.26-3.91.84-4.2.39-.13-.22.18-.69.89-1.17.94-.6,2-.97,3.11-1.08,1.11-.13,2.23,0,3.27.39.79.32,1.19.72,1.12.95Z"/>
        <path class="cls-9" d="m397.49,76.92c-.33.41-1.6,0-3.12-.04-1.53-.04-2.81.27-3.11-.16-.13-.21.08-.63.63-1.03,1.55-.96,3.53-.9,5.02.16.54.43.72.86.58,1.07Z"/>
        <path class="cls-12" d="m361.36,88.82c-.2-.09-8.24-2.45-7.98,5.75.25,8.2,8.42,6.25,8.43,6.02s-.44-11.77-.44-11.77Z"/>
        <path class="cls-13" d="m359.93,97.56s-.14.1-.38.22c-.33.16-.72.18-1.06.06-.87-.3-1.65-1.65-1.73-3.12-.04-.7.07-1.4.34-2.05.14-.53.53-.95,1.05-1.13.33-.1.69.05.86.36.11.23.07.39.11.41s.18-.14.1-.48c-.06-.2-.18-.38-.34-.51-.23-.16-.51-.23-.79-.18-.68.15-1.23.65-1.46,1.31-.33.72-.47,1.51-.42,2.3.1,1.65.99,3.17,2.19,3.48.44.11.9.01,1.27-.26.28-.18.32-.39.29-.41Z"/>
        <path class="cls-9" d="m366.73,64.46l34.17.75c-1.16-2.32-2.89-4.32-5.02-5.8-4.44-3.44-9.86-5.39-15.48-5.57-5.57-.1-16.92,6.69-20.96,10.53-3.23,3.07-3.21,5.74-3.21,5.74-.51,4.44,1.96,9.47,2.95,13.82.51,2.24,1.49,9.03,1.49,9.03h0c1.9,0,2.58-1.5,2.29-3.37l-.35-7.31s6.4-4.55,3.37-12.88c-.47-.67-1.51-3.71.74-4.95Z"/>
        <path class="cls-13" d="m373.91,90.38c-.12,0-.21-.09-.22-.2h0c-.03-.11.04-.23.15-.26.12-.02.23.07.25.18.04.11-.03.23-.14.27-.01,0-.03,0-.04,0Z"/>
        <path class="cls-13" d="m377.44,89.59c-.11,0-.22-.07-.25-.21-.03-.12.03-.25.15-.29.13,0,.24.09.25.22.04.12-.03.25-.15.29Z"/>
        <path class="cls-13" d="m379.81,89.54c-.11,0-.22-.12-.25-.3s.05-.34.16-.35.22.12.24.3-.05.35-.16.35Z"/>
        <path class="cls-13" d="m375.64,92.59c-.11,0-.2-.06-.2-.13s.1-.13.2-.13.2.06.2.13-.09.13-.2.13Z"/>
        <path class="cls-13" d="m378.87,91.85c-.13.01-.24-.08-.25-.21-.01-.13.08-.24.21-.25h0c.12,0,.22.09.22.21h0c.02.12-.07.23-.18.25Z"/>
        <path class="cls-13" d="m395.67,89.88c-.11.02-.22-.06-.24-.17,0,0,0,0,0-.01-.03-.12.04-.23.15-.27.12-.02.23.07.25.18.03.11-.04.23-.15.26,0,0,0,0,0,0Z"/>
        <path class="cls-13" d="m398.07,89.66c-.14.04-.28-.03-.33-.17-.04-.14.03-.28.17-.33.14-.04.28.03.33.17,0,.02,0,.04.01.06.02.12-.05.24-.18.27Z"/>
        <path class="cls-13" d="m393.55,89.93c-.1.02-.2-.03-.23-.13-.02-.11.05-.22.16-.24s.22.05.24.16c.01.1-.06.2-.16.22Z"/>
        <path class="cls-13" d="m395.33,92.34c-.11.07-.26.04-.33-.07-.07-.11-.04-.26.07-.33.11-.07.26-.04.33.07,0,.01.01.02.02.04.06.11.02.24-.09.3Z"/>
        <path class="cls-13" d="m397.37,91.93c-.1-.02-.17-.11-.15-.22.05-.1.18-.14.28-.08.07.04.11.11.11.19-.04.09-.14.14-.24.11Z"/>
        <path class="cls-9" d="m359.23,64.83c-1.36-5.41,1.92-10.9,7.33-12.26.9-.23,1.83-.33,2.76-.3,1.6.06,3.17.51,4.77.34,2.96-.32,5.24-2.69,7.98-3.85,4.46-1.74,9.52-.22,12.29,3.69,1.04,1.55,1.72,3.47,3.31,4.44,1.38.84,3.11.77,4.66,1.27,3.13.94,5.27,4.26,5.11,7.53-.27,3.33-2.37,6.24-5.46,7.53-3.08,1.23-6.55,1-9.44-.63-2.58-1.44-4.89-3.88-7.84-3.8-3.05.09-5.7,2.97-8.72,2.37-1.57-.31-2.78-1.52-3.94-2.64s-2.47-2.25-4.07-2.34c-1.6-.1-2.43,2.1-1.86,3.6l-6.89-4.94"/>
        <path class="cls-14" d="m400.61,60.87s-.04.08-.06.12c-.06.11-.12.22-.2.33-.28.41-.61.79-.98,1.12-.6.52-1.29.92-2.03,1.18-1,.34-2.07.4-3.1.18-1.26-.27-2.4-.92-3.27-1.86-.93-1.02-1.49-2.4-2.36-3.6-.42-.62-.99-1.14-1.65-1.5-.7-.35-1.48-.52-2.27-.5-.81.02-1.61.24-2.33.63-.73.41-1.32,1.02-1.71,1.76-.41.75-.71,1.58-1.2,2.31-.48.77-1.29,1.26-2.19,1.33-.84.01-1.67-.23-2.38-.68-.67-.42-1.28-.92-1.81-1.5-1.06-1.06-2.1-2.13-3.39-2.41-1.21-.23-2.46.06-3.43.8-.82.6-1.48,1.4-1.9,2.33-.32.7-.56,1.44-.71,2.2-.13.63-.18,1.12-.22,1.45-.01.17-.04.34-.08.51,0-.04,0-.09,0-.13v-.39c.03-.49.08-.98.17-1.47.12-.77.33-1.53.63-2.25.41-.97,1.07-1.81,1.9-2.45,1.03-.8,2.35-1.13,3.63-.88,1.4.3,2.48,1.41,3.54,2.47.52.55,1.12,1.04,1.76,1.44.66.42,1.42.65,2.21.63.8-.07,1.52-.51,1.94-1.19.46-.68.76-1.5,1.19-2.28.42-.8,1.06-1.46,1.84-1.9.76-.41,1.61-.64,2.48-.67.84-.02,1.67.17,2.42.55.7.39,1.3.93,1.76,1.6.89,1.27,1.43,2.61,2.31,3.6.83.91,1.92,1.55,3.12,1.81.99.23,2.02.18,2.99-.13.73-.24,1.41-.61,2.01-1.1.53-.42.99-.92,1.39-1.46Z"/>
        <path class="cls-14" d="m406.44,61.02c.08.2.13.42.14.63.05.62,0,1.24-.17,1.83-.24.89-.68,1.71-1.27,2.41-.74.85-1.66,1.53-2.7,1.97-1.89.77-3.95,1-5.96.67-.6-.08-1.2-.2-1.79-.35-.22-.04-.43-.11-.63-.22,0-.05.93.18,2.45.34,1.96.26,3.96,0,5.8-.74.99-.42,1.88-1.06,2.6-1.86.57-.67,1.01-1.44,1.27-2.28.22-.78.31-1.59.26-2.4Z"/>
        <path class="cls-4" d="m348.12,193.03c.13,1.29.63,2.53,1.43,3.55.74.96,2.22,1.9,3.42,1.82,1.84.09,3.59-.78,4.61-2.31,1.46-2.32,1.82-7.15.63-10.01-.8-1.96-2.62-3.8-4.74-3.85-2.79-.06-4.54,1.95-5.13,3.99"/>
        <path class="cls-9" d="m348.35,186.22c.09-.48.27-.95.52-1.37.27-.51.63-.97,1.05-1.38.56-.54,1.23-.93,1.97-1.15.43-.13.88-.2,1.32-.22.49-.03.98.04,1.45.19,1.02.36,1.92,1,2.59,1.86.75.92,1.27,2.01,1.52,3.17.27,1.23.36,2.5.29,3.76-.13,1.98-.52,3.96-1.62,5.47-.54.71-1.27,1.26-2.1,1.58-.75.3-1.56.44-2.38.4h0c-.6,0-1.18-.14-1.71-.42-.46-.24-.89-.54-1.27-.9-.6-.59-1.08-1.3-1.4-2.08-.21-.49-.36-1.01-.44-1.54-.02-.14-.03-.28-.04-.42-.01-.05-.01-.1,0-.15.12.7.34,1.39.63,2.04.34.74.82,1.42,1.41,1.98.38.34.81.62,1.27.84.49.25,1.03.38,1.58.37h0c1.63.08,3.2-.63,4.21-1.9,1.02-1.41,1.41-3.36,1.54-5.3.13-2.53-.29-5.03-1.71-6.72-.63-.81-1.48-1.43-2.44-1.79-.44-.15-.9-.21-1.36-.2-.43,0-.86.07-1.27.18-.71.2-1.36.57-1.9,1.07-.42.37-.79.81-1.08,1.29-.24.42-.45.86-.63,1.31Z"/>
        <path class="cls-4" d="m346.64,193.16c.13,1.29.63,2.53,1.43,3.55.74.96,2.22,1.9,3.42,1.82,1.84.09,3.59-.78,4.61-2.31,1.46-2.33,1.82-7.15.63-10.01-.8-1.97-2.61-3.8-4.73-3.85-2.43-.02-4.55,1.63-5.13,3.99"/>
        <path class="cls-9" d="m346.88,186.34c.09-.48.27-.94.52-1.36.27-.51.62-.98,1.05-1.38.89-.86,2.06-1.35,3.3-1.37.49-.03.98.04,1.45.19,1.02.36,1.92,1,2.59,1.86.75.92,1.27,2.01,1.52,3.17.27,1.23.36,2.5.28,3.76-.13,1.98-.51,3.95-1.62,5.47-.54.71-1.27,1.26-2.1,1.58-.75.3-1.56.44-2.38.4h0c-.6,0-1.18-.14-1.71-.42-.46-.23-.89-.54-1.27-.89-.6-.59-1.08-1.3-1.4-2.08-.21-.49-.36-1.01-.44-1.53-.02-.14-.03-.28-.04-.42-.01-.05-.01-.1,0-.15.12.7.34,1.39.63,2.03.34.75.81,1.42,1.41,1.99.38.34.81.62,1.27.84.49.25,1.03.38,1.58.37h0c1.63.08,3.2-.63,4.21-1.9,1.02-1.42,1.41-3.36,1.53-5.3.14-2.53-.28-5.03-1.71-6.72-.63-.81-1.47-1.43-2.43-1.79-.44-.15-.9-.21-1.36-.2-.43,0-.85.07-1.27.18-.71.2-1.36.57-1.9,1.07-.42.38-.78.82-1.06,1.3-.24.42-.45.85-.65,1.29Z"/>
        <path class="cls-4" d="m349.32,185.63c-1.44-.18-2.83.62-3.4,1.96-.52,1.33-.52,2.81,0,4.14.22.69.58,1.32,1.06,1.86.49.54,1.17.87,1.9.92,1.08-.05,2.06-.63,2.64-1.55.99-1.41,1.32-3.19.89-4.86-.29-1.1-1.1-2.22-2.23-2.26"/>
        <path class="cls-9" d="m350.15,186.06h.25c.24.03.48.11.69.23.76.5,1.28,1.29,1.45,2.18.3,1.3.16,2.66-.39,3.88-.32.72-.81,1.36-1.42,1.86-.67.58-1.58.8-2.45.59-.83-.27-1.53-.84-1.96-1.6-.39-.68-.66-1.42-.81-2.19-.32-1.3-.09-2.68.63-3.8.52-.75,1.32-1.25,2.21-1.41.24-.04.48-.04.72,0,.16.03.24.06.24.07-.32-.01-.63,0-.94.06-.83.2-1.56.7-2.04,1.41-.66,1.09-.85,2.4-.53,3.63.15.73.42,1.44.79,2.08.39.69,1.02,1.2,1.77,1.44.76.19,1.56,0,2.15-.52.58-.47,1.04-1.06,1.34-1.74.55-1.15.7-2.45.44-3.7-.14-.84-.59-1.6-1.27-2.12-.27-.18-.58-.3-.89-.37Z"/>
        <path class="cls-9" d="m352.52,196.05s-.11-.2-.34-.46c-.29-.33-.66-.57-1.08-.69-.43-.12-.88-.19-1.33-.21-.35,0-.58-.06-.58-.1s.22-.1.58-.13c.48-.05.97,0,1.43.13.48.14.9.45,1.17.87.2.33.18.58.15.59Z"/>
        <path class="cls-9" d="m353.02,184.77s-.1.22-.39.46c-.39.3-.85.5-1.34.58-.48.09-.98.06-1.45-.08-.36-.12-.55-.26-.53-.3.63.1,1.27.11,1.9.05.63-.16,1.24-.4,1.81-.72Z"/>
      </g>
      <g id="freepik--character-1--inject-9">
        <path class="cls-9" d="m178.41,73.93c.08-2.76-2.47-4.89-5.07-5.91s-5.42-1.39-7.72-2.93c-2.03-1.37-3.39-3.5-5.11-5.23-6.6-6.68-17.36-6.76-24.05-.16-2.22,2.19-3.79,4.94-4.55,7.96-.98,3.93-.31,8.57,2.79,11.19,3.6,3.03,8.93,2.36,13.54,1.41,4.61-.94,9.83-1.9,13.68.83,2.32,1.64,3.65,4.29,5.07,6.75s3.17,4.96,5.88,5.89c2.71.93,6.34-.67,6.43-3.5"/>
        <path class="cls-9" d="m178.22,75.44c-.3,2.31,1.37,4.39,3.04,6.02,1.67,1.64,3.55,3.37,3.85,5.7.34,2.71-1.64,5.37-1.06,8.04.36,1.69,1.68,2.99,2.48,4.53,1.06,2.22,1.23,4.75.49,7.09-.68,2.33-1.78,7.53-3.4,9.35-4.48,5.01-11.61,9.33-18.16,10.83s-13.35,1.51-20.06,1.1c-5.49-.34-11.81-.08-16.38-7.64-2.37-3.92-3.54-9.11-4.8-13.51-1.09-3.8-2.03-7.84-.9-11.62.63-2.19,1.98-4.15,2.63-6.34.81-2.75.51-5.7.84-8.54,1.22-10.75,10.93-18.47,21.68-17.25,2.15.25,4.25.85,6.2,1.78"/>
        <path class="cls-12" d="m130,85.52c.51-7.88,5.75-17.54,13.61-16.69l24.5,6.25c2.38.26,4.17,2.3,4.13,4.7l-2.76,59.11.17.03s-5.58,16.67-21.79,11.58c-3.21-1.01-4.68-4.52-5.32-8.14h-.16v-1.27c-.32-2.7-.35-5.42-.1-8.12h0c-.04-4.77-.04-6.72-.04-6.68s-10.06-1.7-12.12-14.84c-1.05-6.48-.69-17.19-.12-25.94Z"/>
        <path class="cls-9" d="m133.36,92.84c-.01.91.7,1.67,1.62,1.7.89.07,1.67-.59,1.74-1.48,0-.01,0-.02,0-.03.01-.91-.71-1.67-1.62-1.7-.89-.07-1.66.59-1.73,1.48,0,.01,0,.03,0,.04Z"/>
        <path class="cls-9" d="m131.72,90.5c.21.22,1.49-.72,3.3-.72,1.81,0,3.17.92,3.34.7.1-.1-.12-.49-.7-.91-.78-.55-1.71-.84-2.67-.83-.94,0-1.86.29-2.63.84-.56.43-.75.82-.65.93Z"/>
        <path class="cls-9" d="m151.18,92.84c-.01.91.71,1.67,1.62,1.7.89.07,1.66-.59,1.73-1.48,0-.01,0-.03,0-.04.01-.91-.7-1.67-1.62-1.7-.89-.07-1.66.58-1.74,1.47,0,.02,0,.03,0,.05Z"/>
        <path class="cls-9" d="m149.54,90.88c.21.22,1.49-.72,3.3-.71,1.81,0,3.14.92,3.33.7.1-.1-.11-.49-.7-.92-.78-.54-1.71-.83-2.67-.83-.94,0-1.86.29-2.62.84-.56.42-.75.85-.65.92Z"/>
        <path class="cls-9" d="m142.93,104.31c0-.1-1.12-.3-2.94-.54-.46-.04-.9-.14-.98-.46-.04-.48.07-.96.32-1.37l1.38-3.52c1.9-5.01,3.3-9.14,3.09-9.21s-1.9,3.92-3.8,8.94c-.46,1.23-.9,2.41-1.32,3.54-.29.56-.38,1.2-.25,1.81.14.33.42.58.76.68.26.07.52.11.79.11,1.81.1,2.95.11,2.96,0Z"/>
        <path class="cls-13" d="m141.11,125.76c6.18.11,12.28-1.5,17.6-4.66,0,0-4.44,9.08-17.59,7.83v-3.17Z"/>
        <path class="cls-13" d="m143.69,108.68c.7-.88,1.81-1.34,2.93-1.2.81.07,1.55.47,2.06,1.11.49.62.54,1.48.13,2.15-.59.67-1.54.91-2.38.6-.85-.31-1.64-.78-2.31-1.39-.2-.14-.38-.32-.51-.53-.13-.21-.13-.47,0-.68"/>
        <path class="cls-9" d="m148.26,105.57c-.29,0-.3,1.95-1.99,3.34-1.69,1.39-3.8,1.17-3.8,1.45,0,.12.47.38,1.35.41,1.15.02,2.27-.37,3.17-1.1.86-.7,1.41-1.7,1.54-2.8.09-.82-.13-1.31-.27-1.3Z"/>
        <path class="cls-9" d="m148.72,87.7c.18.49,1.99.27,4.11.53,2.12.26,3.85.84,4.13.41.13-.21-.17-.68-.87-1.15-.92-.6-1.96-.97-3.05-1.08-1.09-.14-2.19,0-3.22.37-.78.32-1.17.7-1.1.93Z"/>
        <path class="cls-9" d="m132.4,85.26c.32.41,1.57,0,3.07,0s2.77.28,3.07-.15c.13-.21-.08-.63-.63-1.01-1.52-.96-3.48-.91-4.94.14-.53.4-.72.82-.56,1.02Z"/>
        <path class="cls-9" d="m176.69,117.7c-6.31,1.27-12.46-2.81-13.73-9.13-.25-1.24-.3-2.51-.14-3.77.41-3.23,2.15-6.51,1.03-9.56-1.48-4.04-7.14-5.28-8.64-9.31-.87-2.34-.09-5.07-1.08-7.37-.93-2.16-3.2-3.4-5.41-4.2s-4.58-1.35-6.43-2.79-3.01-4.16-1.81-6.19c9.81,1.17,19.44,3.51,28.7,6.97,2.15.8,4.4,1.76,5.67,3.67,1.34,2.02,1.27,4.62,1.17,7.04l-1.65,35.37"/>
        <path class="cls-14" d="m175.87,122.22s.08-.04.22-.13l.58-.44c.51-.4,1.27-.99,2.17-1.81,1.13-.98,2.17-2.06,3.09-3.24,1.26-1.57,2.1-3.43,2.46-5.41.51-2.44-.11-4.98-1.69-6.91-.95-.95-1.98-1.82-3.06-2.61-1.09-.83-1.92-1.96-2.39-3.24-.97-2.67-.54-5.77-.91-8.94-.37-3.31-1.66-6.44-3.73-9.05-1.06-1.31-2.39-2.39-3.89-3.17-1.47-.67-3.01-1.19-4.59-1.55-1.47-.37-2.85-1.05-4.04-1.99-1.12-.94-2.1-2.02-2.93-3.23-1.65-2.34-2.87-4.84-4.44-6.93-.74-1.02-1.61-1.94-2.59-2.74-.92-.73-1.95-1.3-3.07-1.67-1.93-.74-4.09-.52-5.84.58-1.22.95-1.98,2.38-2.07,3.93-.08.97.2,1.93.79,2.71.15.2.33.37.53.51.06.06.14.1.22.14-.05-.07-.11-.13-.18-.18-.18-.16-.34-.34-.48-.54-.52-.77-.74-1.7-.63-2.62.12-1.46.86-2.8,2.03-3.69,1.66-1.01,3.71-1.18,5.51-.46,1.06.37,2.05.92,2.92,1.63.93.79,1.77,1.69,2.48,2.69,1.52,2.05,2.72,4.54,4.39,6.97.85,1.25,1.86,2.38,3.02,3.35,1.23.97,2.65,1.67,4.16,2.06,1.55.35,3.05.86,4.49,1.52,1.43.75,2.7,1.78,3.71,3.04,2,2.52,3.26,5.55,3.62,8.75.39,3.06-.06,6.21.98,9.06.5,1.37,1.38,2.58,2.53,3.47,1.07.77,2.08,1.62,3.02,2.53,1.51,1.82,2.11,4.21,1.65,6.53-.32,1.92-1.12,3.74-2.31,5.28-.89,1.18-1.89,2.28-2.98,3.28-.89.84-1.62,1.45-2.1,1.9-.24.2-.47.41-.69.63Z"/>
        <path class="cls-9" d="m178.27,123.85c2.7-2.61,7.31-.34,9.58,2.65,2.27,2.99,3.87,6.86,7.31,8.37s7.91.21,10.77,2.6c3.98,3.31,1.74,10.97,6.05,13.85,1.7,1.14,3.96,1.1,5.79,2.04,4.3,2.22,4.25,8.29,3.59,13.09-.91,6.75-1.93,13.72-5.65,19.42-3.71,5.7-10.94,9.69-17.37,7.5-6.18-2.11-9.35-8.78-11.87-14.8-3.47-8.36-6.95-16.69-10.43-25.01-2.01-4.82-4.04-9.72-4.7-14.91s.22-10.77,3.52-14.84"/>
        <path class="cls-10" d="m180,118.1c1.96-.23,3.46,2.17,2.94,4.07s-2.34,3.17-4.21,3.8c-1.03.41-2.15.54-3.25.37-1.12-.17-2.06-.93-2.47-1.98-.43-.93-.03-2.03.9-2.47,1.27-.8,2.05-1.44,3.07-2,1.56-.86,1.46-.97,3.02-1.83"/>
        <polygon class="cls-10" points="134.86 139.4 142.48 133.63 171.19 131.79 172.34 135.65 163 193.92 170.37 263.46 130.31 263.46 134.86 139.4"/>
        <g class="cls-18">
          <path class="cls-3" d="m165.6,238.62c-.92-.98-2.42-2.33-3.76-2.36-9.59-.21-19.39-1.17-28.98-1.38l-.77,28.42c2.29-4.04,4.47-8.24,5.07-12.86.27-2.02.63-4.44,2.44-5.29,1.04-.49,2.26-.3,3.38-.07,3.47.68,6.91,1.58,10.43,1.8,3.52.22,7.22-.3,10.18-2.22,1.05-.62,1.9-1.53,2.43-2.63.52-1.12.35-2.45-.43-3.4Z"/>
        </g>
        <path class="cls-10" d="m141.07,140.63l-.89-8.33c-.15-1.45.9-2.76,2.36-2.91.01,0,.03,0,.04,0l26.43-2.39c.7-.05,1.31.47,1.36,1.17,0,.01,0,.02,0,.04l.3,9.92-7.66,12.99-7.86,2.5h-9.62l-5.53-5.91,1.08-7.07Z"/>
        <path class="cls-9" d="m166.75,134.71c-.35-.01-.71-.05-1.06-.11-.96-.09-1.92-.11-2.88-.05-1.43.1-2.84.31-4.23.63-1.58.33-3.3.79-5.11,1.24-1.71.45-3.45.76-5.2.93-1.44.14-2.9.04-4.32-.29-.95-.22-1.86-.6-2.69-1.12-.22-.14-.43-.3-.63-.47-.14-.11-.21-.18-.2-.19s.31.21.91.55c.84.46,1.74.8,2.68,1,1.39.29,2.82.36,4.23.22,1.74-.19,3.46-.5,5.15-.94,1.81-.44,3.54-.89,5.13-1.21,1.41-.3,2.84-.48,4.28-.55.97-.04,1.95,0,2.91.15.34.06.6.11.78.15.16.03.25.05.25.06Z"/>
        <g class="cls-18">
          <path class="cls-3" d="m141.7,136.02c-.71,1.95-.73,4.35.71,5.84,1.17,1.22,3.05,1.52,4.7,1.19,1.64-.42,3.19-1.12,4.59-2.07,3.64-2.16,7.34-4.4,11.47-5.32.27-.03.53-.14.74-.31.2-.18.21-.49.03-.69,0,0-.02-.02-.03-.03-.1-.06-.22-.09-.34-.1-3.66-.37-7.29.63-10.87,1.47s-7.41,1.38-10.87.13"/>
        </g>
        <path class="cls-9" d="m146.75,128.9c-.37.2-.68.5-.91.86-.42.67-.39,1.81-.36,3.04.07,2.47.48,4.44.38,4.44-.18-.4-.31-.83-.36-1.27-.2-1.05-.32-2.1-.35-3.17-.02-.59-.01-1.18.04-1.77.04-.5.19-.98.46-1.4.18-.29.44-.52.74-.67.22-.09.35-.09.36-.07Z"/>
        <path class="cls-9" d="m153.73,136.14c0-1.35-.06-2.69-.19-4.03-.3-2.21-1.04-3.89-.94-3.93.24.32.42.69.54,1.07.35.91.59,1.85.73,2.81.14.96.16,1.93.08,2.9,0,.4-.08.8-.22,1.18Z"/>
        <path class="cls-9" d="m162.24,127.39c.24.29.41.62.5.98.29.85.4,1.75.35,2.64-.06.9-.3,1.77-.7,2.58-.14.35-.36.65-.63.91,1.16-2.2,1.33-4.78.48-7.11h0Z"/>
        <path class="cls-11" d="m125.18,142.98s-9.01,6.03-11.41,16.93c-1.86,8.57-6.97,53.83-6.97,53.83l-8.93,17.38,5.83,13.87h0c4.99.35,9.95-1.06,14.01-4l3.92-2.85,7.19-10.67-3.64-84.49Z"/>
        <polygon class="cls-11" points="140.45 135.28 125.18 143.28 121.58 155.12 118.36 189.46 124.41 229.72 113.8 263.46 132.1 263.59 132.53 243.82 134.36 179.81 136.15 139.04 140.45 135.28"/>
        <path class="cls-9" d="m132.63,188.34c-.11-.15-.2-.31-.29-.48l-.76-1.4c-.32-.63-.63-1.41-1.02-2.31-.18-.46-.34-.96-.53-1.48s-.39-1.08-.55-1.68c-1.44-4.75-2.39-11.6-2.19-19.15,0-.58.04-1.16.08-1.74v-.1l.1-.04,2.67-1.13-.04.28-2.67-2.15-.06-.04v-.06c-.03-2.6.39-5.18,1.22-7.64.67-2.24,1.41-4.16,2.05-5.75.65-1.58,1.21-2.82,1.61-3.66.2-.42.36-.75.47-.96.05-.11.11-.22.18-.32-.03.12-.08.23-.13.34l-.42.98c-.37.85-.9,2.1-1.52,3.69s-1.33,3.52-1.98,5.75c-.8,2.43-1.19,4.98-1.16,7.53l-.06-.11,2.68,2.14.21.17-.25.11-2.67,1.13.1-.14c-.04.56-.06,1.14-.08,1.72-.2,7.52.71,14.34,2.08,19.07.15.6.34,1.15.51,1.68s.32,1.03.51,1.49c.37.9.63,1.69.96,2.31l.7,1.43c.09.17.17.34.23.51Z"/>
        <path class="cls-9" d="m121.07,212.39c-.06-.16-.11-.33-.15-.49-.09-.36-.21-.84-.36-1.44-.16-.63-.34-1.39-.51-2.29s-.41-1.9-.59-3.06-.42-2.38-.59-3.73-.34-2.79-.5-4.3c-.28-3.04-.46-6.39-.46-9.92s.21-6.88.49-9.91c.17-1.51.32-2.96.53-4.3s.39-2.59.6-3.73.42-2.15.63-3.05.37-1.67.53-2.29.27-1.08.37-1.44c.04-.17.09-.34.15-.5-.01.17-.04.35-.08.51l-.3,1.45c-.14.63-.31,1.4-.47,2.3s-.39,1.9-.56,3.06-.39,2.38-.55,3.72-.34,2.78-.49,4.29c-.27,3.04-.46,6.38-.47,9.89s.18,6.85.43,9.89c.16,1.51.29,2.95.48,4.29s.36,2.59.55,3.73.38,2.16.54,3.06.32,1.67.46,2.3.23,1.09.3,1.45c.04.17.05.34.05.51Z"/>
        <path class="cls-9" d="m125.2,243.3c-.18.54-.43,1.06-.74,1.54-.68,1.19-1.47,2.33-2.34,3.39-.87,1.07-1.83,2.06-2.86,2.96-.41.4-.87.75-1.36,1.03.37-.43.78-.83,1.2-1.2.98-.95,1.9-1.95,2.77-3,.86-1.06,1.66-2.16,2.4-3.3.28-.49.59-.97.94-1.42Z"/>
        <path class="cls-11" d="m195.4,142c6.52,2.53,11.35,8.14,12.89,14.96,5,22.03,13.55,51.33,13.69,60.79.16,12.04-5.07,20.28-11.97,21.8-5.44,1.2-54.7-1.5-54.7-1.5l-2.31-18.38,39.92-5.87-5.46-30.47,5.41-42.28,2.53.95Z"/>
        <path class="cls-11" d="m193.29,141.2l-11.03-4.51-11.63-6.82-.07,2h0c1.43,2.44,1.93,5.31,1.4,8.09l-9.7,50.48,2.19,36.89,4.51,36.12h34.99l-16.06-37.8,5.67-50.95-.27-33.51Z"/>
        <path class="cls-9" d="m203.16,240.14l-.24.03-.71.07c-.64.06-1.55.06-2.75.09-2.39,0-5.87-.05-10.19-.19-8.65-.29-20.68-.87-34.27-1.66h-.13v.19c-.3-2.23-.61-4.59-.93-6.98-.54-4.05-1.07-8-1.57-11.77v-.16h.17l33.07-4.53,9.71-1.29,2.61-.33.69-.08h-2.88l-.21.04-.64.11-2.42.38-9,1.37-30.67,4.58.13-.19c.47,3.73.96,7.62,1.46,11.62.3,2.36.59,4.69.86,6.9l-.15-.14c13.59.79,25.63,1.41,34.26,1.76,4.32.17,7.79.26,10.18.29,1.19,0,2.13,0,2.75-.04l.71-.04.18-.04Z"/>
        <path class="cls-9" d="m187.14,180.21c.04.11.07.22.09.34.05.26.11.58.19.98.16.89.39,2.12.63,3.61.54,3.09,1.27,7.28,2.08,11.91.81,4.63,1.47,8.83,1.99,11.93.23,1.5.42,2.72.56,3.62.06.4.1.73.14.99.01.12.01.23,0,.35-.05-.11-.08-.22-.1-.34-.05-.26-.11-.58-.2-.98-.16-.9-.39-2.12-.67-3.61-.55-3.05-1.27-7.26-2.08-11.91s-1.5-8.87-1.98-11.93c-.23-1.5-.42-2.73-.56-3.62-.05-.4-.1-.73-.13-.99,0-.12,0-.23.03-.35Z"/>
        <path class="cls-9" d="m175.44,133.75s0,.04.04.13l.1.37c.08.33.22.8.35,1.44.39,1.79.67,3.61.84,5.43.26,2.76.33,5.52.21,8.29-.11,3.17-.44,6.64-.91,10.33v.11h-.11l-3.63.67.12-.22c.21.56.42,1.15.58,1.77,1,4.04.86,8.27-.41,12.24-1,3.21-2.43,6.28-4.23,9.13-1.51,2.45-2.86,4.32-3.8,5.62l-1.1,1.48c-.11.16-.22.28-.29.38-.03.05-.07.09-.11.13,0,0,0-.05.08-.15l.27-.4c.25-.37.63-.87,1.04-1.52.91-1.32,2.24-3.21,3.71-5.67,1.76-2.84,3.16-5.89,4.14-9.09,1.05-3.59,1.54-7.86.39-12.04-.16-.59-.35-1.17-.57-1.74l-.07-.18.2-.04,3.61-.67-.13.14c.48-3.68.83-7.15.95-10.3.13-2.75.09-5.5-.13-8.24-.15-1.82-.4-3.64-.74-5.43-.11-.63-.24-1.12-.3-1.44-.03-.15-.06-.27-.08-.37-.01-.05-.01-.11,0-.16Z"/>
        <path class="cls-10" d="m174.83,185.04v-8.04c.45,0,.56-1.98-1.12-1.57s-1.36,3.56-1.36,3.56c0,0-.31,12.24.42,12.14s1.01-1.05.81-1.05v-4.71l1.25-.33Z"/>
        <path class="cls-9" d="m182.24,185.54c-1.43.17-2.88.22-4.32.16-1.44.06-2.88,0-4.32-.16,1.43-.16,2.88-.22,4.32-.16,1.44-.05,2.88,0,4.32.16Z"/>
        <path class="cls-9" d="m198.15,146.78c-.29.14-.59.25-.9.34-.82.29-1.62.64-2.4,1.03-2.56,1.32-4.77,3.2-6.48,5.52-.48.65-.91,1.35-1.27,2.07-.31.69-.57,1.4-.76,2.13-.33,1.25-.54,2.52-.63,3.8-.09,1.1-.11,2-.11,2.61.02.32.02.64,0,.96-.08-.3-.12-.61-.13-.93-.05-.88-.05-1.75,0-2.63.06-1.3.26-2.6.58-3.87.19-.75.45-1.49.77-2.19.37-.75.8-1.46,1.3-2.13,1.73-2.36,4.01-4.26,6.64-5.53.79-.38,1.61-.7,2.45-.95.3-.11.62-.19.94-.24Z"/>
        <polygon class="cls-9" points="56.16 214.16 113.8 235.51 162.39 242.93 104.62 214.77 56.16 214.16"/>
        <path class="cls-12" d="m80.83,236.76c-.46-3.08-1.51-6.04-3.08-8.73-.34-.51-.6-1.06-.79-1.64-.18-.59-.06-1.23.32-1.72.74-.8,2.09-.45,3,.16,1.85,1.35,3.21,3.25,3.88,5.44.66,2.17,1.09,4.4,1.27,6.66"/>
        <path class="cls-12" d="m103.29,231h-2.86c-.7-.7-1.58-1.2-2.53-1.44-.72-.12-1.45.16-1.9.74,1.27-2.11,2.66-4.44,2.93-5.07.51-1.24-.63-2.16-2.48-2.16s-10.01,11.55-10.01,11.55c0,0,5.07-9.3,5.56-10.72,1.23-3.55-2.66-3.8-4.06-2.1-1.75,2.12-8.82,12.81-8.82,12.81,0,0-1.34,2.17-.42,4.23s3.61,1.27,3.61,1.27c.08,1.22.8,2.31,1.9,2.86,2.07,1.15,4.79-.18,4.79-.18l10.56,2.37,3.8-.38c5.34-.53,9.63-4.63,10.42-9.94h0l-10.49-3.85Z"/>
        <path class="cls-13" d="m96.19,230.41c.12.08-1.27,2.28-3.11,4.93-.91,1.32-1.76,2.53-2.38,3.36-.31.48-.67.92-1.06,1.33.24-.52.54-1.01.87-1.46.58-.88,1.39-2.09,2.3-3.42s1.75-2.53,2.36-3.37l.74-1.01c.08-.13.18-.25.29-.36Z"/>
        <path class="cls-13" d="m95.55,242.17c.26-.6.57-1.18.94-1.72.63-1.04,1.51-2.45,2.48-4.02.49-.78.96-1.53,1.34-2.22.34-.6.42-1.3.23-1.96-.19-.61-.49-1.18-.9-1.68,0,0,.17.09.41.34.33.36.58.8.72,1.27.24.72.17,1.5-.18,2.16-.38.72-.84,1.47-1.32,2.26-.98,1.57-1.9,2.97-2.57,3.97-.34.56-.72,1.1-1.13,1.6Z"/>
        <path class="cls-13" d="m101.1,243.22c.11-.57.3-1.12.56-1.64l.75-1.72c.31-.69.57-1.4.77-2.12.19-.7.07-1.46-.34-2.06-.2-.24-.46-.42-.75-.54-.24-.13-.51-.2-.79-.22-.4.06-.79.19-1.13.4-.13.08-.28.14-.43.18,0,0,.12-.12.37-.29.15-.1.31-.2.48-.29.22-.13.47-.21.72-.23.31,0,.62.08.9.2.34.12.64.33.87.6.49.67.64,1.53.42,2.33-.2.75-.48,1.48-.82,2.18-.3.63-.58,1.21-.82,1.69-.23.53-.49,1.04-.77,1.55Z"/>
        <path class="cls-13" d="m103.05,233.24c.16.01.31.06.44.13.39.17.76.38,1.1.63,2.38,1.78,3.1,5.02,1.7,7.64-.19.38-.43.74-.72,1.06-.2.22-.34.32-.35.31s.42-.52.86-1.47c1.21-2.54.53-5.58-1.64-7.36-.45-.34-.92-.66-1.4-.95Z"/>
        <path class="cls-13" d="m84.48,227.18c-.7,1.32-1.5,2.59-2.39,3.8-.79,1.29-1.68,2.52-2.66,3.68.7-1.32,1.5-2.6,2.38-3.8.8-1.29,1.69-2.52,2.66-3.68Z"/>
        <path class="cls-12" d="m152.86,220.39l-6.59-1.49-6.34-5.96c-.77-.72-1.77-1.15-2.83-1.22l-11.51-.63c-1.15-.07-2.29.31-3.17,1.05l-8.24,6.97,35.94,17.46,4.93.44-2.19-16.62Z"/>
        <path class="cls-13" d="m133.33,217.31c0,.05-.85-.1-2.22-.28s-3.32-.34-5.22.54c-.88.43-1.72.95-2.48,1.55-.73.54-1.38,1.05-1.96,1.44-.45.31-.93.59-1.43.83-.18.1-.37.17-.56.21,0-.05.75-.4,1.86-1.23.55-.41,1.19-.93,1.9-1.5.78-.63,1.63-1.17,2.53-1.61.93-.41,1.93-.62,2.94-.63.82-.01,1.63.05,2.44.19.69.11,1.27.23,1.61.33.2.02.4.07.58.15Z"/>
        <path class="cls-13" d="m135.69,223.73c0,.05-.47-.16-1.27-.23-1.01-.09-2.02.05-2.96.41-.95.37-1.86.84-2.71,1.39-.35.25-.72.47-1.12.63.29-.32.62-.6.99-.82.84-.62,1.76-1.13,2.73-1.5.99-.38,2.06-.5,3.11-.34.45.03.88.19,1.24.46Z"/>
        <path class="cls-13" d="m150.52,224.79c-.08.05-1.01-1.33-2.23-2.97s-2.28-2.92-2.21-2.98c.94.82,1.76,1.76,2.47,2.79.79.97,1.45,2.03,1.97,3.16Z"/>
        <path class="cls-10" d="m132.38,211.74l14.58-13.59c.56-.52.6-1.41.07-1.97-.05-.06-.11-.11-.17-.16h0c-.53-.41-1.28-.38-1.78.07l-17.11,15.35"/>
        <g class="cls-18">
          <path class="cls-3" d="m132.38,211.74l14.58-13.59c.56-.52.6-1.41.07-1.97-.05-.06-.11-.11-.17-.16h0c-.53-.41-1.28-.38-1.78.07l-17.11,15.35"/>
        </g>
      </g>
      <g id="freepik--character-2--inject-9">
        <path class="cls-15" d="m251.67,80.72c-.23-.09-9.07-2.41-8.54,6.53s9.4,6.56,9.4,6.3-.87-12.83-.87-12.83Z"/>
        <path class="cls-1" d="m249.6,90.33s-.15.11-.41.25c-.36.18-.78.21-1.17.09-.96-.29-1.85-1.74-1.99-3.35-.07-.75.03-1.51.28-2.22.14-.58.55-1.05,1.1-1.27.36-.12.76.04.94.37.13.24.09.42.13.44s.18-.16.09-.53c-.06-.22-.2-.41-.39-.54-.26-.17-.57-.24-.87-.18-.74.19-1.32.75-1.54,1.48-.34.8-.48,1.67-.39,2.53.16,1.8,1.19,3.43,2.5,3.73.5.11,1.02,0,1.41-.32.29-.28.32-.48.29-.49Z"/>
        <path class="cls-9" d="m273.99,48.79c4.54,0,9.17,0,14.85,2.97,3.59,1.9,5.82,4.84,7.69,8.42,1.49,2.92,2.22,6.16,2.12,9.44-.16,3.09-.18,5.25-1.41,8.09"/>
        <path class="cls-15" d="m272.17,49.49c13.27-.95,24.79,9.04,25.73,22.31.01.16.02.31.03.47.58,11.2,1.1,23.31.98,29.4-.27,13.09-13.38,15.03-13.38,15.03,0,0,.29,3.88.63,8.69.63,9.51-6.57,17.72-16.07,18.35-.16.01-.32.02-.48.03h0c-9.51.36-17.52-7.05-17.88-16.57,0,0,0-.02,0-.02l-1.95-52.76c-.49-13,9.43-24.04,22.41-24.94h-.02Z"/>
        <path class="cls-1" d="m285.53,116.7s-8.05.42-16.79-5.18c0,0,3.96,9.51,17.03,8.45l-.23-3.28Z"/>
        <path class="cls-9" d="m292.91,79.55c.02,1.02-.79,1.87-1.81,1.9-.98.07-1.83-.67-1.9-1.65,0-.01,0-.03,0-.04,0-1.02.8-1.85,1.81-1.9.98-.06,1.84.68,1.9,1.67,0,.01,0,.02,0,.03Z"/>
        <path class="cls-9" d="m294.73,76.9c-.23.24-1.64-.82-3.66-.83-2.02-.01-3.49.99-3.71.74-.11-.11.13-.55.78-1.01.87-.6,1.91-.91,2.97-.89,1.05,0,2.06.34,2.9.96.61.48.82.92.71,1.03Z"/>
        <path class="cls-9" d="m273.18,79.55c.02,1.03-.79,1.88-1.82,1.9-.98.06-1.84-.68-1.9-1.67,0-.01,0-.02,0-.03,0-1.02.8-1.86,1.82-1.9.99-.06,1.84.69,1.9,1.68,0,0,0,.01,0,.02Z"/>
        <path class="cls-9" d="m274.95,77.12c-.23.24-1.65-.82-3.66-.83s-3.49.98-3.71.74c-.1-.11.13-.55.79-1.01.88-.6,1.91-.91,2.97-.89,1.04,0,2.06.34,2.9.96.6.48.82.92.71,1.03Z"/>
        <path class="cls-9" d="m282.13,92.08c0-.11,1.27-.32,3.27-.56.51-.05,1-.15,1.09-.49.05-.53-.06-1.06-.33-1.53-.47-1.27-.97-2.53-1.49-3.92-2.07-5.59-3.56-10.18-3.33-10.26s2.08,4.38,4.14,9.97c.5,1.38.98,2.69,1.43,3.95.32.62.41,1.33.25,2.02-.16.37-.47.64-.86.75-.28.07-.58.11-.87.11-2.04.11-3.31.11-3.31-.03Z"/>
        <path class="cls-9" d="m276.2,93.44c.33,0,.31,2.17,2.17,3.73,1.86,1.57,4.19,1.34,4.2,1.65,0,.14-.53.42-1.51.44-1.28,0-2.52-.45-3.5-1.27-.94-.79-1.54-1.91-1.68-3.13-.08-.89.17-1.44.32-1.43Z"/>
        <path class="cls-9" d="m275.53,69.26c-.2.55-2.21.27-4.57.54-2.36.27-4.28.89-4.59.4-.13-.23.2-.75.98-1.27,2.09-1.3,4.66-1.56,6.97-.71.87.32,1.3.75,1.21,1.04Z"/>
        <path class="cls-9" d="m294.44,69.74c-.35.46-1.74-.03-3.4-.06s-3.08.28-3.4-.2c-.14-.23.08-.69.7-1.12,1.7-1.05,3.87-.96,5.49.22.58.48.77.94.61,1.17Z"/>
        <path class="cls-9" d="m249.91,78.51s.57,3.03.72,4.39c.06.5,0,6.05,1.34,6.34,1.16.24,3.46-.82,4.49-3.11,1.03-2.29,2.98-7.8,2.76-10.3-.29-3.41-.44-6.88.24-10.24.68-3.36,2.29-6.63,4.98-8.75,2.69-2.12,6.59-2.85,9.66-1.31,1.9.95,3.3,2.63,5.07,3.8,1.57,1.11,3.49,1.61,5.4,1.4,1.93-.24,3.56-1.57,4.18-3.42.56-2-.47-4.18-2.07-5.51-1.6-1.32-3.66-1.93-5.7-2.34-5.66-1.22-11.56-.8-17,1.19-5.37,2.08-10.14,6.09-12.42,11.37-2.65,6.1-2.34,9.85-1.64,16.48"/>
        <path class="cls-9" d="m279.84,79.63c-.06-.73-.18-1.45-.34-2.15-.51-1.93-1.65-3.62-3.24-4.82-1.09-.82-2.35-1.38-3.69-1.62-1.54-.28-3.13-.15-4.6.39-.79.28-1.54.69-2.21,1.2-.71.51-1.34,1.14-1.85,1.86-2.26,3.07-2.26,7.25,0,10.32.51.71,1.14,1.34,1.85,1.86.67.51,1.41.91,2.21,1.19,1.47.54,3.06.67,4.6.39,1.34-.24,2.61-.8,3.69-1.63,1.59-1.2,2.73-2.89,3.24-4.82.16-.71.27-1.43.34-2.16,0,.05,0,.1-.15.15v.42c.15.23.13.46.09.69-.03.31-.09.62-.16.93-.47,1.98-1.61,3.74-3.23,4.98-2.43,1.87-5.65,2.38-8.54,1.33-.82-.29-1.6-.7-2.29-1.22-.73-.53-1.37-1.17-1.9-1.9-2.35-3.18-2.35-7.53,0-10.71,1.06-1.45,2.53-2.55,4.21-3.17,1.52-.54,3.16-.67,4.75-.37,1.38.26,2.69.85,3.8,1.71,1.61,1.24,2.75,3,3.23,4.97.08.31.13.62.16.93.04.23.06.45,1.13.68v.42c-1.09.11-1.1.15-1.1.15Z"/>
        <path class="cls-9" d="m302.88,79.63c-.07-.72-.18-1.44-.34-2.15-.51-1.93-1.65-3.63-3.24-4.82-1.09-.82-2.35-1.38-3.69-1.62-1.54-.28-3.12-.15-4.59.39-1.62.6-3.03,1.66-4.06,3.05-2.26,3.07-2.26,7.25,0,10.32.51.71,1.13,1.34,1.84,1.86.67.51,1.42.91,2.21,1.19,1.47.54,3.06.67,4.59.39,1.34-.24,2.61-.8,3.69-1.63,1.59-1.2,2.73-2.89,3.24-4.82.16-.71.28-1.43.34-2.16,0,.05,0,.1-.72.15v.42c.73.23.71.46.67.69-.03.31-.09.62-.17.93-.47,1.98-1.61,3.74-3.23,4.98-1.12.86-2.42,1.44-3.8,1.7-1.59.3-3.23.18-4.75-.37-1.69-.61-3.15-1.71-4.21-3.17-2.36-3.18-2.36-7.53,0-10.71.53-.73,1.17-1.37,1.9-1.9.7-.52,1.47-.94,2.29-1.23,1.52-.54,3.16-.67,4.75-.37,1.38.26,2.69.85,3.8,1.71,1.62,1.24,2.76,2.99,3.23,4.97.08.31.14.62.17.93.04.23.05.46.59.68v.42c-.53.05-.53.11-.52.16Z"/>
        <path class="cls-9" d="m285.3,78.68c0,.05-.32-.11-.82-.28-.65-.22-1.35-.31-2.03-.27-.68.05-1.35.23-1.96.52-.48.23-.74.44-.77.39s.19-.3.63-.6c1.27-.76,2.83-.87,4.18-.28.55.24.8.48.78.51Z"/>
        <path class="cls-9" d="m288.87,56.59c.13-.68-.1-1.06.29-1.34s1.27.52,1.56.85c.1.11.41-.31.53-.39.13-.27.21-.57.23-.87-.06-.48-.8-.63-1.15-.93-.36-.32-.78-.56-1.24-.7-.38-.19-.83-.16-1.18.07-.21.25-.3.57-.27.89,0,.32.06.63.18.93.12.3.35.54.63.67"/>
        <path class="cls-11" d="m249.42,71.56s6.42,2.35,9.76,3.77l-.19-3.28-9.33-3.69s-.24,2.44-.23,3.21Z"/>
        <path class="cls-11" d="m250.02,66.45c1.55.48,3.07,1.06,4.54,1.74,1.52.58,3.01,1.26,4.44,2.05-1.55-.48-3.07-1.06-4.54-1.74-1.52-.58-3.01-1.26-4.44-2.05Z"/>
        <path class="cls-10" d="m251.46,135.61l-.49-15.53s3.09,14.21,19.25,14.03c15.44-.18,15.17-12.52,15.17-12.52l.55,6.26v25.29l-10.08,41.26-12.87,1.61-14.22-56.4,2.69-4Z"/>
        <path class="cls-9" d="m284.44,130.64c-.05.12-.11.23-.18.33-.19.31-.4.61-.63.9-.81,1.07-1.78,2.01-2.88,2.79-1.62,1.16-3.44,2.02-5.37,2.53-2.36.63-4.83.8-7.26.5-2.42-.33-4.77-1.04-6.97-2.1-1.79-.85-3.48-1.88-5.07-3.07-1.07-.79-2.1-1.63-3.08-2.53-.35-.32-.6-.58-.78-.76-.09-.08-.18-.18-.25-.28.11.07.21.15.3.23l.82.71c.71.63,1.76,1.48,3.13,2.46,1.59,1.15,3.29,2.15,5.07,2.98,2.17,1.03,4.49,1.71,6.88,2.04,2.38.3,4.8.14,7.13-.46,1.9-.49,3.7-1.31,5.32-2.42,1.09-.75,2.07-1.65,2.91-2.67.61-.76.89-1.2.92-1.18Z"/>
        <path class="cls-11" d="m273.45,263.46l-.23-73.32-20.82-53.49-.7-16.1-12.67,9.59s-18.46,63.54-18.77,61.35,0,71.97,0,71.97h53.2Z"/>
        <path class="cls-9" d="m272.73,263.05c-.09,0-.16-16.52-.16-36.9s.08-36.9.16-36.9.16,16.52.16,36.9-.08,36.9-.16,36.9Z"/>
        <polygon class="cls-4" points="238.97 139.87 241.54 141.82 239.73 153.69 270.13 185.52 242.52 149.27 244.87 139.87 238.97 139.87"/>
        <path class="cls-11" d="m274.37,225.69l-46.65-13.68-1.55-35.43,12.79-46.68s-30.49,15.22-32.57,24.91-7.08,33.22-7.6,50.24c-.48,15.21-.54,25.35,2.93,30.24,9.95,13.9,75.5,16.39,101.69,0"/>
        <path class="cls-9" d="m270.72,186.79s-.06-.05-.15-.17-.25-.3-.42-.52l-1.58-2.03c-1.38-1.79-3.35-4.35-5.78-7.5l-18.97-24.82-1.43-1.9-.15-.06v-.08c.91-3.24,1.7-6.39,2.46-9.4l.15-.44h-6.35v.49-10.53l.34-.04,9.17-6.97,2.53-1.9.63-.49c.07-.06.15-.11.23-.15l-.21.18-.63.51-2.48,1.94-9.1,7.06.75-.1v10.47l-.85-.47h6.16l-.05.53-2.34,9.4-.03-.14,1.43,1.87,18.88,24.89,5.7,7.56c.63.89,1.17,1.58,1.53,2.07.16.23.29.41.39.54l.15.21Z"/>
        <path class="cls-11" d="m291.35,127.34c-3.69-6.5-5.61-5.83-5.61-5.83l.2,2.32v4.87l-1.69,20.91-10.79,45.43.22,68.4h41.93l5.28-83.5-.48-35.98-29.06-16.64Z"/>
        <path class="cls-11" d="m320.78,143.78s11.06,8.16,12.04,21.3c.78,10.67,2.53,39.87,2.88,46.23.51,9.9-7.21,33.09-27.28,26.52-12.04-3.94-56.52-19.06-56.52-19.06l2.96-18.89,52.79,3.17,1.05-44.03,12.07-15.24Z"/>
        <path class="cls-15" d="m253.7,202.05s-14.94-1.62-18.38-.78c-3.33.8-8.06,4.87-8.06,4.87l.07,5.9,24.04,6.72,2.33-16.72Z"/>
        <path class="cls-9" d="m273.09,188.02c.02-.07.04-.14.07-.2.05-.15.13-.34.22-.58.21-.53.51-1.27.89-2.23l3.35-8.19,4.99-12.13c.48-1.13.94-2.32,1.53-3.48s1.23-2.32,1.9-3.48c1.46-2.36,3.04-4.65,4.74-6.84.86-1.11,1.73-2.19,2.63-3.23v.17l-1.86-4.73-.06-.16.16-.06,7.78-2.63-.08.22c-3.61-6.03-6.66-11.13-8.83-14.74-1.06-1.79-1.98-3.22-2.95-3.8-.37-.22-.76-.38-1.18-.48-.15-.03-.29-.06-.44-.11.15,0,.3.03.44.06.43.08.84.23,1.22.45.59.38,1.1.88,1.5,1.45.56.75,1.08,1.53,1.55,2.33l8.94,14.69.1.16-.18.06-7.78,2.67.1-.21,1.87,4.73.04.09-.07.08c-.89,1.03-1.76,2.11-2.61,3.22-1.69,2.18-3.27,4.45-4.73,6.79-.68,1.15-1.34,2.29-1.9,3.45s-1.05,2.31-1.53,3.45c-1.9,4.55-3.62,8.65-5.07,12.1-1.44,3.45-2.62,6.2-3.44,8.14-.41.94-.73,1.69-.95,2.21-.11.24-.19.42-.26.57-.03.07-.06.13-.1.19Z"/>
        <path class="cls-9" d="m326.85,234.15c-.05.07-.12.14-.18.2l-.57.55c-.75.69-1.56,1.3-2.43,1.84-1.38.84-2.87,1.47-4.44,1.86-2.07.51-4.22.65-6.34.41-1.24-.14-2.46-.4-3.64-.77-1.27-.39-2.48-.88-3.8-1.34-2.6-.95-5.41-1.9-8.35-2.97-5.89-2.07-12.39-4.27-19.23-6.52-13.69-4.49-26.17-8.28-35.22-10.99l-10.72-3.17-2.92-.87-.75-.23c-.09-.02-.17-.06-.25-.1l.27.06.76.2,2.93.8c2.53.71,6.22,1.76,10.77,3.07,9.06,2.64,21.55,6.4,35.25,10.9,6.85,2.24,13.35,4.44,19.23,6.54,2.94,1.05,5.74,2.04,8.34,3,1.31.47,2.53.96,3.8,1.36,1.17.37,2.37.63,3.59.78,2.1.26,4.23.14,6.29-.35,1.56-.38,3.05-.99,4.44-1.79.86-.52,1.68-1.12,2.45-1.78l.59-.53c.04-.06.08-.12.13-.17Z"/>
        <path class="cls-9" d="m227.84,212.15c0,.07-.84-.11-2.18-.06-.78.03-1.56.16-2.31.38-.92.27-1.79.67-2.6,1.19-1.46.96-2.69,2.23-3.62,3.71-.7,1.14-1.01,1.9-1.07,1.9.03-.2.09-.38.18-.56.19-.5.42-.99.7-1.46.89-1.56,2.14-2.89,3.64-3.87.84-.53,1.74-.93,2.69-1.2.78-.21,1.58-.32,2.38-.32.54,0,1.08.04,1.61.15.2.02.39.07.58.15Z"/>
        <path class="cls-9" d="m213.15,207.53s0-.06.06-.17c.08-.15.17-.29.29-.41.45-.44,1.03-.73,1.66-.82.91-.15,1.83-.15,2.74,0,1.11.15,2.2.41,3.25.79,1.92.68,3.68,1.76,5.15,3.17.44.43.84.9,1.2,1.4.14.18.26.37.35.58-.06.04-.58-.77-1.7-1.81-1.49-1.33-3.22-2.35-5.11-3.01-1.03-.37-2.09-.64-3.17-.8-.88-.16-1.78-.18-2.66-.08-.59.07-1.15.31-1.6.68-.32.27-.42.49-.45.48Z"/>
        <path class="cls-9" d="m230.56,166.86c-.1-.31-.18-.63-.22-.96-.1-.3-.23-.67-.37-1.08s-.4-.87-.69-1.36c-.68-1.13-1.48-2.2-2.38-3.17-1.11-1.18-2.33-2.25-3.64-3.21-2.38-1.74-5.09-2.99-7.97-3.66-.87-.19-1.76-.3-2.66-.34-.33,0-.66-.02-.98-.08.33-.05.66-.06.99-.05.9-.01,1.81.07,2.69.24,2.93.61,5.7,1.85,8.11,3.62,1.33.96,2.57,2.05,3.68,3.26.9,1,1.69,2.09,2.36,3.26.29.5.47.99.63,1.4s.25.81.33,1.12c.06.33.1.66.11.99Z"/>
        <path class="cls-9" d="m319.13,221.01c0-.08.51-.23.51-.23v-1.02c0-.58-.04-1.44-.13-2.53-.23-3.11-.87-6.18-1.91-9.13-.31-.98-.74-1.91-1.27-2.79-.6-.93-1.46-1.66-2.48-2.1-2.13-.91-4.7-.79-7.31-.94l-17.1-.72c-14.13-.63-26.7-1.14-34.6-1.56l.11-.09c-.48,2.89-.86,5.18-1.12,6.77-.13.77-.24,1.36-.31,1.79-.03.19-.06.34-.08.46l-.04.15c0-.05,0-.11,0-.16l.06-.46c.06-.42.15-1.03.25-1.8.24-1.59.59-3.88,1.03-6.78v-.09h-.07l34.42,1.79,17.01.77c1.31.06,2.58.1,3.8.2,1.22.07,2.42.34,3.55.8,1.06.45,1.97,1.2,2.6,2.17.54.9.96,1.85,1.27,2.85,1.02,2.97,1.62,6.06,1.8,9.19.07,1.1.07,1.96-.71,2.53v.67c.74.18.74.26.74.26Z"/>
        <path class="cls-9" d="m309.06,179.68c.09,0,.16,5.11.16,11.41s-.08,11.41-.16,11.41-.16-5.11-.16-11.41.08-11.41.16-11.41Z"/>
        <path class="cls-9" d="m206.67,153.65s-.04.15-.13.42-.25.68-.38,1.27c-.31,1.1-.7,2.73-1.14,4.87-.88,4.27-1.96,10.52-3.17,18.34-.6,3.92-1.27,8.24-1.9,12.87-.32,2.33-.53,4.75-.69,7.26s-.3,5.07-.4,7.76c-.19,5.33-.3,10.96-.15,16.82.05,1.46.1,2.95.22,4.44.04.75.16,1.48.25,2.22.14.74.32,1.47.54,2.19.45,1.45,1.16,2.81,2.1,4.01.94,1.22,2.18,2.17,3.6,2.78h0c3.02,1.48,6.16,2.68,9.4,3.59,3.28.98,6.66,1.77,10.1,2.48,7.47,1.54,15.06,2.47,22.69,2.76,3.61.09,7.23,0,10.83-.28,3.53-.25,6.97-.63,10.3-1.11,6.27-.89,12.46-2.33,18.48-4.3,5.16-1.7,10.16-3.85,14.94-6.41v.21l-20.44-7.27-5.52-1.97-1.43-.52c-.32-.12-.48-.19-.48-.19l.49.16,1.44.49,5.54,1.9,20.53,7.16.25.08-.23.13c-4.8,2.58-9.81,4.75-14.97,6.47-6.04,1.99-12.23,3.44-18.52,4.34-3.33.5-6.78.87-10.32,1.12-3.61.28-7.24.38-10.86.29-7.64-.29-15.25-1.22-22.74-2.76-3.45-.71-6.84-1.5-10.14-2.48-3.25-.92-6.42-2.13-9.46-3.62h0c-1.48-.62-2.77-1.61-3.75-2.88-.96-1.23-1.69-2.63-2.15-4.12-.23-.73-.41-1.48-.55-2.23-.1-.76-.22-1.51-.25-2.26-.12-1.5-.17-2.98-.22-4.44-.15-5.88,0-11.51.18-16.84.1-2.66.24-5.25.41-7.76.17-2.53.38-4.94.71-7.27.63-4.66,1.31-8.96,1.9-12.87,1.27-7.82,2.37-14.06,3.29-18.33.46-2.14.86-3.77,1.19-4.87.14-.55.32-.96.41-1.23s.22-.41.22-.41Z"/>
        <path class="cls-4" d="m227.77,207.77c7.8-8.64,7.46-23.99,2.98-34.89-.41,11.8-1.81,22.27-2.87,33.74"/>
        <path class="cls-9" d="m230.77,175.09c.01.13.01.25,0,.38,0,.29-.04.63-.07,1.08-.08.98-.18,2.33-.31,3.96-.28,3.38-.63,7.98-1.07,13.06l-1.03,13.07c-.12,1.64-.22,2.98-.3,3.96l-.1,1.07c0,.13-.02.25-.05.37-.02-.12-.02-.25,0-.37,0-.29,0-.63.03-1.08.03-.94.1-2.29.19-3.97.2-3.35.51-7.97.93-13.07.42-5.1.84-9.71,1.17-13.05.17-1.64.31-2.97.41-3.95.06-.44.1-.79.13-1.07,0-.13.02-.25.05-.37Z"/>
        <path class="cls-9" d="m250,159.49c.17,2.23.22,4.46.16,6.7.06,2.23,0,4.47-.16,6.7-.09,0-.16-3-.16-6.7s.08-6.7.16-6.7Z"/>
        <path class="cls-4" d="m244.92,181.74c.13,1.3.63,2.53,1.44,3.55.74.96,2.22,1.9,3.42,1.82,1.84.09,3.59-.78,4.61-2.31,1.46-2.32,1.82-7.15.63-10.01-.8-1.96-2.61-3.8-4.73-3.85-2.79-.06-4.54,1.95-5.13,3.99"/>
        <path class="cls-9" d="m245.16,174.93c.09-.48.27-.95.51-1.37.28-.51.63-.97,1.05-1.38.56-.54,1.24-.93,1.98-1.15.43-.13.88-.2,1.32-.22.49-.03.98.04,1.45.19,1.02.36,1.92,1.01,2.59,1.86.75.92,1.28,2.01,1.53,3.17.26,1.23.36,2.5.28,3.76-.13,1.98-.52,3.96-1.62,5.47-.55.71-1.27,1.26-2.1,1.58-.76.3-1.57.44-2.38.4h0c-.59,0-1.18-.14-1.7-.42-.46-.24-.89-.54-1.27-.9-.6-.59-1.07-1.3-1.39-2.08-.22-.49-.37-1.01-.44-1.54-.02-.14-.03-.28-.04-.42,0-.05,0-.1,0-.15.13.7.34,1.39.63,2.04.34.74.82,1.42,1.41,1.98.38.34.81.62,1.27.84.49.25,1.03.38,1.58.37h0c1.63.08,3.2-.63,4.21-1.9,1.02-1.41,1.41-3.36,1.53-5.3.14-2.53-.29-5.03-1.71-6.72-.64-.81-1.49-1.42-2.46-1.77-.44-.15-.9-.21-1.36-.2-.43,0-.86.07-1.27.18-.71.2-1.36.57-1.9,1.07-.41.38-.77.82-1.06,1.3-.24.41-.45.84-.63,1.28Z"/>
        <path class="cls-4" d="m243.43,181.87c.13,1.3.63,2.53,1.44,3.55.73.96,2.22,1.9,3.42,1.82,1.84.09,3.58-.79,4.61-2.31,1.46-2.33,1.82-7.15.63-10.01-.8-1.97-2.61-3.8-4.73-3.85-2.43-.02-4.55,1.63-5.13,3.99"/>
        <path class="cls-9" d="m243.68,175.05c.09-.48.27-.94.51-1.36.28-.51.63-.97,1.05-1.38.89-.86,2.07-1.35,3.3-1.37.49-.03.98.04,1.45.19,1.02.36,1.92,1.01,2.59,1.86.75.92,1.28,2.01,1.52,3.17.27,1.23.36,2.5.29,3.76-.13,1.98-.52,3.95-1.62,5.47-.55.71-1.27,1.26-2.1,1.58-.76.3-1.57.44-2.38.4h0c-.59,0-1.18-.14-1.7-.42-.46-.24-.89-.54-1.27-.89-.6-.59-1.07-1.3-1.39-2.08-.22-.49-.37-1-.44-1.53,0-.18-.04-.32-.04-.42,0-.05,0-.1,0-.15.13.7.34,1.38.63,2.03.33.75.81,1.42,1.41,1.99.38.34.81.62,1.27.84.49.25,1.03.38,1.58.37h0c1.63.08,3.19-.63,4.21-1.9,1.03-1.42,1.42-3.36,1.54-5.3.14-2.53-.29-5.03-1.71-6.72-.63-.81-1.47-1.43-2.44-1.79-.44-.15-.9-.21-1.36-.2-1.18.02-2.3.47-3.17,1.27-.41.38-.77.82-1.06,1.3-.24.41-.46.84-.65,1.28Z"/>
        <path class="cls-4" d="m246.13,174.34c-1.44-.18-2.84.62-3.4,1.96-.53,1.33-.53,2.81,0,4.14.22.69.58,1.32,1.06,1.86.49.54,1.17.87,1.9.92,1.07-.06,2.05-.64,2.62-1.55.99-1.41,1.32-3.19.89-4.86-.29-1.1-1.1-2.22-2.24-2.26"/>
        <path class="cls-9" d="m246.95,174.82h.25c.24.03.48.11.69.23.75.5,1.28,1.29,1.44,2.18.31,1.3.17,2.67-.39,3.88-.32.73-.8,1.37-1.42,1.86-.67.58-1.58.8-2.45.59-.83-.26-1.53-.84-1.95-1.6-.39-.68-.66-1.42-.81-2.19-.32-1.3-.09-2.68.63-3.8.52-.74,1.31-1.25,2.21-1.41.24-.04.49-.04.73,0,.16.03.24.06.24.07-.32-.01-.63,0-.94.06-.84.19-1.57.7-2.04,1.41-.66,1.09-.85,2.4-.53,3.63.15.73.42,1.44.79,2.08.38.69,1.01,1.2,1.76,1.44.76.19,1.57,0,2.16-.52.58-.47,1.03-1.06,1.34-1.74.55-1.15.7-2.45.44-3.7-.13-.84-.59-1.6-1.27-2.12-.27-.18-.58-.3-.89-.37Z"/>
        <path class="cls-9" d="m249.32,184.76c-.05,0-.12-.2-.34-.46-.29-.33-.67-.57-1.08-.69-.43-.12-.88-.19-1.33-.21-.35,0-.58-.06-.58-.1s.22-.1.58-.13c.48-.05.97,0,1.43.13.48.14.9.45,1.17.87.2.33.18.58.15.59Z"/>
        <path class="cls-9" d="m249.82,173.48s-.1.22-.39.46c-.39.3-.85.5-1.34.58-.49.09-.98.06-1.46-.08-.35-.12-.54-.26-.53-.3.63.1,1.27.12,1.9.05.63-.16,1.24-.4,1.81-.72Z"/>
        <path class="cls-9" d="m293.37,128.08s.08,0,.21.08c.19.09.38.18.56.29.68.38,1.32.84,1.9,1.36,1.95,1.72,3.36,3.96,4.08,6.45.75,2.45,1.27,4.97,1.55,7.52.11.98.17,1.77.21,2.31.03.28.03.57,0,.86-.07-.28-.12-.56-.14-.84-.08-.6-.19-1.38-.31-2.29-.35-2.52-.9-5.02-1.64-7.45-.7-2.44-2.06-4.64-3.92-6.38-.79-.69-1.63-1.33-2.51-1.89Z"/>
        <path class="cls-9" d="m285.47,197.84c1.84-.07,3.31-1.9,5.15-1.8,1.4.12,2.44,1.35,2.32,2.75s-1.35,2.44-2.75,2.32h0c-1.93-.22-3.06-2.48-4.95-2.92"/>
        <path class="cls-9" d="m301.05,199.4c-.58,0-1.15-.05-1.72-.14l.1-.63c2.27.36,4.18,0,5.67-1.11,1.9-1.38,3.09-3.84,3.31-7.33v-.13c.5-1.38.78-28.49.78-33.63,0-8.04-7.05-9.14-7.36-9.18s-6.7-1.12-10.1,7.66c-3.56,9.2-9.26,26.91-9.63,28.99-.05.25-.12.57-.2.93-.6,2.66-1.83,8.19,1.86,11.38,4.11,3.56,7.36,2.18,7.49,2.12l.26.58c-.15.06-3.73,1.62-8.16-2.22-3.98-3.43-2.69-9.21-2.07-12,.08-.35.15-.63.19-.91.38-2.09,6.1-19.89,9.67-29.11,3.57-9.22,10.72-8.07,10.77-8.05s7.88,1.2,7.88,9.8c0,4.24-.28,32.26-1.39,33.73v.13c.36,3.66-.94,6.27-2.96,7.75-1.28.92-2.82,1.4-4.4,1.37Z"/>
        <path class="cls-9" d="m309.52,161.62c-.28-1.12-.73-2.18-1.32-3.17-.67-1.04-1.52-1.96-2.5-2.71-1.21-.91-2.6-1.56-4.07-1.9-2.71-.6-5.55-.23-8.02,1.05-1.01.55-1.95,1.22-2.79,2,.04-.07.09-.13.15-.19.14-.18.3-.35.48-.51.62-.59,1.31-1.1,2.06-1.5,2.5-1.37,5.42-1.78,8.21-1.17,1.52.36,2.95,1.04,4.18,2,1.01.78,1.87,1.74,2.53,2.83.45.73.78,1.53.98,2.36.06.22.1.45.13.68,0,.14,0,.23,0,.23Z"/>
        <path class="cls-9" d="m325.66,212.28c-.23-.92-.53-1.82-.87-2.7-.9-2.1-2.39-3.89-4.3-5.16-1.07-.65-2.25-1.08-3.49-1.27-1.02-.16-2.04-.26-3.07-.32l-2.08-.15c-.26,0-.51-.04-.76-.1.25-.03.51-.03.77,0l2.09.04c1.04.02,2.08.11,3.11.25,1.28.17,2.51.6,3.62,1.27,1.96,1.3,3.47,3.16,4.33,5.35.26.65.46,1.33.58,2.02.06.25.08.5.08.76Z"/>
        <path class="cls-15" d="m293.69,201.71s6.24-9.44,7.83-10.67c1.59-1.24,15.21-7.38,16.79-6.39,1.58.99.63,3.13.63,3.13,0,0,5.75-2.02,6.37-1.22.68.98.68,2.27,0,3.24,0,0,3.17-.49,3.17.49-.03,1.34-.71,2.58-1.84,3.31-1.47,1.1-11.03,7.47-11.8,9.23l-3.1-.19-18.05-.93Z"/>
        <path class="cls-1" d="m311.62,199c.07-.21.17-.41.29-.6.3-.52.65-1.01,1.03-1.47,1.27-1.52,2.8-2.81,4.52-3.8,1.71-1,3.5-1.85,5.35-2.53.7-.27,1.27-.48,1.68-.63.2-.08.42-.14.63-.18-.18.13-.38.23-.59.3l-1.64.7c-1.81.74-3.57,1.6-5.26,2.58-1.68.98-3.21,2.22-4.51,3.67-.99,1.17-1.43,2-1.49,1.96Z"/>
        <path class="cls-1" d="m303.72,198.85c.07-.24.18-.47.3-.69.22-.44.53-1.06.96-1.83.5-.89,1.07-1.74,1.72-2.53.38-.48.82-.92,1.31-1.3.53-.35,1.08-.68,1.65-1.03,1.95-1.16,3.98-2.17,6.08-3.03.64-.25,1.29-.46,1.95-.63.24-.07.49-.11.75-.13,0,.06-1.03.3-2.61,1.01-2.06.91-4.07,1.95-6.01,3.1-.57.34-1.12.67-1.64,1.01-.47.36-.89.77-1.27,1.22-.65.77-1.23,1.6-1.75,2.47l-1.05,1.76c-.11.21-.24.42-.4.6Z"/>
      </g>
    </g>
  </g>
</svg>