<?xml version="1.0" encoding="UTF-8"?>
<svg id="Layer_1" data-name="Layer 1" xmlns="http://www.w3.org/2000/svg" xmlns:xlink="http://www.w3.org/1999/xlink" viewBox="0 0 512 263">
  <defs>
    <style>
      .cls-1 {
        fill: #00d595;
      }

      .cls-1, .cls-2, .cls-3, .cls-4, .cls-5, .cls-6, .cls-7, .cls-8, .cls-9, .cls-10, .cls-11, .cls-12, .cls-13, .cls-14 {
        stroke-width: 0px;
      }

      .cls-15 {
        opacity: .5;
      }

      .cls-2 {
        fill: #e6e6e6;
      }

      .cls-3 {
        fill: #e0e0e0;
      }

      .cls-4 {
        fill: #f5f5f5;
      }

      .cls-5 {
        fill: #f0f0f0;
      }

      .cls-6 {
        fill: none;
      }

      .cls-7 {
        opacity: .3;
      }

      .cls-7, .cls-9 {
        isolation: isolate;
      }

      .cls-8 {
        fill: #fff;
      }

      .cls-9 {
        opacity: .2;
      }

      .cls-10 {
        fill: #fafafa;
      }

      .cls-11 {
        fill: #263238;
      }

      .cls-16 {
        clip-path: url(#clippath);
      }

      .cls-17 {
        opacity: .1;
      }

      .cls-12 {
        fill: #ffc3bd;
      }

      .cls-13 {
        fill: #ed847e;
      }

      .cls-14 {
        fill: #ebebeb;
      }
    </style>
    <clipPath id="clippath">
      <rect class="cls-6" y=".72" width="512" height="261.57" rx="42.76" ry="42.76"/>
    </clipPath>
  </defs>
  <g class="cls-16">
    <g>
      <g id="freepik--background-complete--inject-18">
        <rect class="cls-5" x="441.51" y="230.42" width="17.54" height="97.95"/>
        <rect class="cls-4" x="257.31" y="230.42" width="184.2" height="97.95"/>
        <rect class="cls-5" x="442.97" y="224.58" width="17.54" height="4.39"/>
        <rect class="cls-10" x="254.39" y="224.58" width="188.58" height="4.39"/>
        <path class="cls-3" d="m435.66,265.51h-172.5v-26.31h172.5v26.31Zm-171.04-1.46h169.58v-23.39h-169.58v23.39Z"/>
        <path class="cls-3" d="m410.06,243.58h-122.4c-.87.41-1.57-.3-1.11-1.17v-.68c-.46-.87.24-1.57,1.11-2.54h122.4c.87.97,1.57,1.67,2.21,2.54v.68c-.64.87-1.35,1.57-2.21,1.17Z"/>
        <rect class="cls-2" x="92.12" y="208.49" width="7.31" height="125.72"/>
        <rect class="cls-5" x="89.19" y="208.49" width="5.85" height="125.72"/>
        <rect class="cls-5" x="87.73" y="208.49" width="87.71" height="8.77"/>
        <rect class="cls-2" x="178.37" y="217.27" width="7.31" height="116.95"/>
        <rect class="cls-5" x="175.44" y="217.27" width="5.85" height="116.95"/>
        <rect class="cls-2" x="225.15" y="217.27" width="7.31" height="116.95"/>
        <rect class="cls-5" x="222.22" y="217.27" width="5.85" height="116.95"/>
        <rect class="cls-2" x="138.9" y="217.27" width="7.31" height="116.95"/>
        <rect class="cls-5" x="135.97" y="217.27" width="5.85" height="116.95"/>
        <rect class="cls-2" x="175.44" y="208.49" width="57.01" height="8.77"/>
        <polygon class="cls-14" points="168.55 138.32 96.78 138.32 103.13 82.77 162.19 82.77 168.55 138.32"/>
        <rect class="cls-4" x="128.66" y="138.32" width="7.31" height="70.17"/>
        <path class="cls-5" d="m149.13,208.49h-32.2c0-2.12,1.5-3.62,3.35-2.92h24.76c1.85-.71,3.36.78,4.09,2.63v.3Z"/>
        <polygon class="cls-3" points="135.97 144.39 128.66 140.71 128.66 138.32 135.97 138.32 135.97 144.39"/>
        <polygon class="cls-2" points="165.79 208.49 199.16 208.49 203.29 163.18 169.92 163.18 165.79 208.49"/>
        <polygon class="cls-5" points="164.07 208.49 197.44 208.49 201.56 163.18 168.2 163.18 164.07 208.49"/>
        <polygon class="cls-8" points="192.82 202.65 196.02 167.56 172.82 167.56 169.62 202.65 192.82 202.65"/>
        <polygon class="cls-2" points="439.77 176.33 372.26 176.33 359.13 223.11 426.64 223.11 439.77 176.33"/>
        <polygon class="cls-2" points="426.67 221.65 426.41 224.58 358.8 224.58 359.07 221.65 426.67 221.65"/>
        <polygon class="cls-5" points="437.7 176.33 370.18 176.33 357.05 223.11 424.57 223.11 437.7 176.33"/>
        <path class="cls-8" d="m423.73,219.28l10.84-40.4c.15-.58-.14-1.08-.63-1.08h-61.91c-.51.06-.92.44-1.02.94l-10.83,40.38c-.16.58.13,1.08.62,1.08h61.91c.5-.05.91-.42,1.02-.91Z"/>
        <polygon class="cls-5" points="406.98 221.65 406.7 224.58 332.27 224.58 332.55 221.65 406.98 221.65"/>
        <rect class="cls-5" x="289.47" y="53.53" width="163.73" height="100.87"/>
        <rect class="cls-8" x="293.86" y="57.92" width="154.96" height="92.1"/>
        <rect class="cls-2" x="453.2" y="53.53" width="1.46" height="100.87"/>
      </g>
      <g id="freepik--question-marks--inject-18">
        <path class="cls-1" d="m236.88,37.81c4.42-3.93,10.14-6.51,17.16-7.73s14.45-.44,22.28,2.32c7.8,2.76,14.94,7.76,21.41,14.98,6.02,6.72,10.08,13.75,12.19,21.1,2.11,6.8,2.3,14.05.56,20.95-1.66,6.4-5.18,12.16-10.13,16.54-3.52,3.3-7.81,5.66-12.49,6.86-4.17,1.04-8.48,1.44-12.77,1.17-4.12-.27-11.27-.97-21.45-2.11-2.38-.26-4.78-.39-7.18-.4-1.64-.01-3.28.18-4.88.56-1.27.32-2.5.77-3.67,1.34-1.14.56-3.06,1.59-5.78,3.11-5.6,3.43-10.48,2.83-14.62-1.8-2.08-2.21-3.19-5.16-3.08-8.19.11-3.05,1.71-5.96,4.81-8.74,6.31-6.05,14.77-9.34,23.51-9.16,4.98.17,9.94.58,14.87,1.25,5.24.63,9.12,1.03,11.62,1.16,2.48.14,4.97-.07,7.39-.62,2.42-.54,4.65-1.69,6.49-3.36,3.63-3.15,5.7-7.72,5.68-12.53.08-5.05-1.82-9.74-5.68-14.08-4.56-5.09-9.21-7.69-13.93-7.79-4.72-.1-10.34,1.26-16.86,4.07-6.63,3.11-11.92,2.48-15.86-1.89-2.27-2.43-3.4-5.7-3.13-9.01.06-3.04,1.33-5.93,3.54-8.03Zm-45.77,101.96c-2.47-2.69-3.85-6.2-3.87-9.86-.06-3.74,1.56-7.08,4.84-10.03,2.73-2.53,6.39-3.79,10.1-3.49,3.75.23,7.25,1.97,9.69,4.83,5.12,5.55,4.78,14.2-.77,19.32-.11.1-.21.19-.32.29-3.24,2.9-6.71,4.13-10.41,3.71-3.58-.36-6.89-2.07-9.26-4.77Z"/>
        <g class="cls-15">
          <path class="cls-1" d="m321.53,101.29c1.33-3.16,3.53-5.87,6.35-7.82,3.31-2.36,7.18-3.82,11.23-4.24,4.71-.51,9.48.19,13.85,2.03,4.13,1.53,7.86,3.97,10.91,7.15,2.64,2.75,4.48,6.17,5.3,9.89.76,3.48.46,7.11-.85,10.41-.89,2.43-2.38,4.59-4.34,6.29-1.75,1.5-3.71,2.73-5.83,3.64-2.03.86-5.63,2.25-10.78,4.15-1.21.44-2.38.95-3.53,1.53-.79.39-1.53.87-2.2,1.44-.53.46-1.01.97-1.44,1.52-.41.54-1.08,1.5-2.02,2.84-1.89,2.99-4.37,3.88-7.43,2.65-1.53-.56-2.77-1.7-3.45-3.18-.68-1.73-.61-3.67.21-5.34,1.57-4.41,4.82-8.02,9.05-10.04,2.42-1.13,4.89-2.13,7.41-3.01,2.66-.95,4.61-1.69,5.84-2.22,1.22-.53,2.36-1.23,3.39-2.07,1.03-.84,1.82-1.93,2.3-3.17.98-2.38.87-5.06-.29-7.36-1.27-2.49-3.45-4.4-6.09-5.32-3.41-1.34-6.25-1.47-8.52-.39-2.76,1.47-5.17,3.51-7.08,5.98-2.44,3.09-5.13,4.03-8.07,2.84-1.67-.62-3-1.92-3.66-3.57-.7-1.45-.8-3.11-.27-4.63Zm2.58,59.83c-1.83-.69-3.33-2.04-4.22-3.79-.92-1.86-.96-4.03-.11-5.92.69-1.87,2.14-3.37,3.99-4.12,1.85-.79,3.95-.79,5.8,0,3.79,1.43,5.7,5.65,4.28,9.44-.03.07-.05.14-.08.21-.66,1.97-2.17,3.54-4.11,4.28-1.79.67-3.77.63-5.54-.1h0Z"/>
        </g>
        <g class="cls-17">
          <path class="cls-1" d="m385.21,95.72c-.86-1.35-1.31-2.91-1.32-4.51-.03-1.89.43-3.76,1.34-5.42,1.05-1.93,2.58-3.56,4.44-4.73,1.68-1.18,3.6-1.96,5.62-2.29,1.75-.28,3.55-.08,5.2.59,1.54.62,2.86,1.7,3.79,3.08.7.98,1.13,2.13,1.27,3.32.11,1.07.06,2.14-.15,3.19-.21,1.02-.63,2.76-1.27,5.23-.14.58-.26,1.17-.34,1.76-.11.73-.05,1.47.17,2.18.1.3.29.81.58,1.53.72,1.23.31,2.82-.92,3.54,0,0-.02,0-.02.01-.62.43-1.38.6-2.12.47-.85-.19-1.57-.73-2-1.49-.67-.94-1.14-2.01-1.38-3.14-.2-.98-.22-1.99-.07-2.97.2-1.23.47-2.44.8-3.64.34-1.28.57-2.22.69-2.84.12-.62.15-1.26.1-1.89-.05-.62-.27-1.21-.62-1.72-.65-1-1.71-1.67-2.9-1.83-1.3-.18-2.62.16-3.67.95-1.21.67-2.08,1.82-2.4,3.16-.16,1.45-.02,2.91.43,4.3.54,1.75.19,3.03-1.03,3.85-.68.47-1.52.64-2.33.46-.76-.11-1.44-.53-1.89-1.16Zm23.62,14.83c-.75.51-1.66.73-2.57.62-.96-.14-1.81-.7-2.31-1.54-.53-.76-.73-1.71-.53-2.61.19-.92.74-1.73,1.52-2.23.76-.53,1.7-.72,2.6-.54.91.17,1.71.71,2.21,1.49.58.78.78,1.77.56,2.71-.21.87-.74,1.62-1.49,2.12Z"/>
        </g>
      </g>
      <g id="freepik--Character--inject-18">
        <path class="cls-1" d="m235.85,174.87s-13.1,62.27-16.59,82.65c-3.79,22.32-12.11,86.24-12.11,86.24l12.17,4.42s19.04-67.78,21.93-89.24c6.05-20.98,21.38-84.07,21.38-84.07h-26.77Z"/>
        <path class="cls-7" d="m252.68,195.92c-4.25,10.21-5.79,28.79-5.06,39.91,3.37-13.12,7.11-28.11,10.01-39.85-.94-3.23-2.22-6.62-4.95-.06Z"/>
        <path class="cls-12" d="m245.99,121.93c-.63,1.53-1.24,2.9-1.89,4.3s-1.35,2.77-2.06,4.15c-1.44,2.74-2.95,5.43-4.62,8.07-3.32,5.47-7.33,10.49-11.93,14.93l-.17.17c-.24.22-.51.41-.8.56-.79.43-1.65.69-2.55.77-.51.04-1.02.04-1.53,0-.76-.05-1.52-.15-2.27-.31-1.34-.28-2.54-.63-3.71-1-3.47-1.1-6.59-2.56-9.75-3.87-.06-.03-.12-.05-.18-.09-3.4-1.78-6.68-3.38-9.91-5.41-.01,0-.02-.02-.03-.04-.95-2.43.88-4.04,2.58-3.64h0c4.39,1.06,8.78,2.24,13.09,3.29,2.15.54,4.3,1.01,6.36,1.41.97.2,1.96.34,2.94.43.37.02.75.02,1.12,0,.14,0,.2,0,.16,0-.34,0-.66.11-.95.29l-.95.73c1.83-2.03,3.53-4.17,5.08-6.42,1.59-2.3,3.1-4.73,4.54-7.18s2.84-5.01,4.16-7.57,2.62-5.21,3.79-7.68l1.09-2.37s.04-.06.08-.07c6.23-2.79,10.18,2.42,8.36,6.53l-.05.03Z"/>
        <path class="cls-3" d="m244.54,112.25c-6.1.17-10.28,6.79-14.28,15.03,3.06,5.29,7.45,9.7,12.73,12.78,0,0,16.02-28.22,1.54-27.82Z"/>
        <path class="cls-12" d="m195.13,145.06l-5.49-1.4,4.28-5.5s4.73.75,6.53,4.73l-1.95,1.39c-.96.74-2.19,1.02-3.37.78Z"/>
        <path class="cls-12" d="m188.31,138.04l1.06-.95c.9-.78,2.23-.81,3.15-.07l1.4,1.13-4.28,5.5-1.75-2.73c-.6-.93-.42-2.16.42-2.89Z"/>
        <path class="cls-1" d="m250.51,176.35s1.65,62.51,2.84,83.1c1.32,22.56,12.53,89.38,12.53,89.38h13.71s-3.01-67.68-5.27-89.81c.95-24.24,1.57-82.7,1.57-82.7l-25.36.02Z"/>
        <path class="cls-3" d="m239.17,116.91c.82-2.47,2.92-4.3,5.48-4.77,1.83-.43,3.69-.74,5.56-.94,5.62-.31,11.26-.31,16.88,0,2.95.13,5.95.48,8.34.82h.08c2.5.29,4.29,2.55,4,5.05,0,.08-.02.16-.03.24-1.87,9.56-3.1,19.23-3.67,28.95-.58,14.13.21,25.21-.08,28.62h-39.69c-2.41-34.45.7-50.11,3.12-57.97Z"/>
        <path class="cls-11" d="m269.91,90.08c2.23,1.61,2.73,4.72,1.12,6.95-.48.67-1.13,1.21-1.87,1.57,1.62,2.68-2.69,7.41-7.02,4.44s1.79-15.49,7.77-12.96Z"/>
        <path class="cls-11" d="m251.98,87.2c-1.9.06-3.48-1.44-3.54-3.33-.02-.57.11-1.14.37-1.65-2.02-.79-1.66-5.19,1.98-5.38,3.64-.19,5.51,9.25,1.19,10.36Z"/>
        <path class="cls-12" d="m250.79,115.02c-.86-.79-.92-2.13-.13-3,.24-.26.54-.46.88-.57,3.65-1.34,4.32-4,4.02-6.88-.08-.81-.22-1.62-.4-2.41l6.2-4.95,4.56-3.64c-1.14,4.73-2.4,12.98,0,17.16.56.9.37,2.08-.44,2.76-1.57,1.39-4.79,3.19-10.09,2.91-2.43-.12-3.79-.68-4.61-1.37Z"/>
        <path class="cls-11" d="m236.95,116.51c.92-2.77,3.22-4.86,6.07-5.51,1.8-.29,3.61-.47,5.42-.57.63-.09,1.22.35,1.31.98.02.16.01.32-.03.47-3.17,11.78-7.7,35.34-6.3,64.53.03.74-.55,1.36-1.29,1.38-.03,0-.05,0-.08,0h-7.95c-.72.01-1.32-.54-1.37-1.25-2.4-35.66,1.84-53.43,4.21-60.03Z"/>
        <path class="cls-11" d="m275.39,110.71c-2.55-.36-5.11-.6-7.68-.7h0c-.96-.07-1.83.56-2.06,1.5-2.94,12.97-5.57,41.79-5.68,64.98.02.74.63,1.33,1.37,1.32,0,0,0,0,0,0h14.2c.73.02,1.34-.56,1.37-1.29.09-4.67-.55-15.6,0-29.18.52-9.67,1.74-19.3,3.64-28.8.49-2.66-2.35-7.42-5.16-7.82Z"/>
        <path class="cls-12" d="m280.38,115.53c3.04,4.58,5.8,9.17,8.42,13.99,1.29,2.41,2.56,4.87,3.7,7.44.57,1.29,1.13,2.6,1.65,4,.57,1.51,1.02,3.06,1.33,4.64.23,1.15.28,2.33.15,3.5-.15.95-.4,1.87-.73,2.77-.54,1.47-1.2,2.89-1.98,4.24-1.39,2.46-2.95,4.82-4.65,7.08-3.27,4.37-6.86,8.5-10.72,12.36-1,1.01-2.63,1.01-3.64,0-.85-.84-1-2.16-.52-3.18v-.06c2.9-4.44,5.68-8.97,8.2-13.45,1.25-2.23,2.44-4.51,3.4-6.7s1.66-4.6,1.16-4.67c-.3-1.01-.67-1.99-1.1-2.95-.47-1.08-1.01-2.2-1.58-3.3-1.16-2.22-2.4-4.49-3.69-6.71-2.59-4.47-5.36-8.98-7.85-13.34v-.06c-1.79-2.4-1.1-5.6,1.3-7.15,2.4-1.55,5.6-.86,7.15,1.54h0Z"/>
        <path class="cls-3" d="m274.49,111.29c6.1-.11,9.33,5.05,13.32,13.25-4.53,8.38-13.16,12-13.16,12,0,0-12.15-25.05-.16-25.26Z"/>
        <path class="cls-12" d="m271.37,172.15l-3.51,1.12,6.5,4.94s5.32-2.76,3.65-5.27l-1.08-.48c-1.76-.78-3.74-.88-5.57-.3Z"/>
        <path class="cls-12" d="m265.88,177.6l3.95,3.97c.51.5,1.32.49,1.82-.02.03-.03.05-.05.07-.08l2.62-3.26-6.5-4.94-2.03,2.77c-.39.46-.36,1.14.07,1.56Z"/>
        <path class="cls-9" d="m255.17,102.19c.18.8.31,1.6.4,2.41,2.35.6,5.68-2.09,5.99-4.37.04-1-.02-2-.19-2.99l-6.2,4.95Z"/>
        <path class="cls-12" d="m269.82,86.85c-1.6,6.99-2.17,11.15-6.47,14.27-4.39,3.21-10.56,2.26-13.77-2.14-1.05-1.44-1.69-3.13-1.86-4.9-.55-6.55,2.16-16.88,9.81-18.72s13.89,4.49,12.29,11.48Z"/>
        <path class="cls-11" d="m266.59,92.96c-2.03.1-4.18-7.04.28-10.49-.71.39-2.65-.32-2.31-1.66-1.32.55-7.07.31-5.68-2.03-2.93.76-9.31-.51-9.99-3.3s2.61-2.89,3.12-2.52c-1.45-2.03-1.42-5,2.42-6.08,3.84-1.08,9.64,4.48,9.64,4.48-.61-1.47,1.52-2.65,3.73-1.39,2.21,1.26,3.24,4.84,3.24,4.84,0-1.08,5.15.37,2.71,4.89,2.53.95,3.68,2.29,3.52,4.63s-1.76,2.47-1.76,2.47c.7,1.73.12,3.72-1.39,4.81-2.62,2.11-4.91-.37-7.54,1.34Z"/>
        <path class="cls-12" d="m270.6,93.5c-.89,1.3-2.21,2.26-3.72,2.7-1.95.52-2.61-1.22-1.82-3.04.72-1.64,2.59-3.89,4.43-3.61s2.21,2.32,1.11,3.95Z"/>
        <path class="cls-11" d="m258.24,86.56c-.09.57-.49.99-.88.95s-.63-.56-.54-1.14.49-.95.88-.95.59.56.54,1.14Z"/>
        <path class="cls-11" d="m251.31,85.3c-.09.58-.48,1-.87.95s-.63-.56-.54-1.14.48-.95.87-.95.63.57.54,1.14Z"/>
        <path class="cls-13" d="m254.05,86.59c-1.01,1.67-2.24,3.19-3.66,4.52.75.7,1.76,1.05,2.77.95l.89-5.46Z"/>
        <path class="cls-11" d="m254.39,94.87c1.39.16,2.79-.25,3.87-1.14.06-.07.06-.18,0-.25-.07-.06-.18-.06-.25,0-1.2.95-2.76,1.3-4.25.95-.09-.02-.18.03-.21.12,0,0,0,0,0,0-.02.09.03.17.12.2,0,0,.01,0,.02,0,.23.05.46.09.7.1Z"/>
        <path class="cls-11" d="m258.53,82.62c-.06.02-.11.04-.15.09-.13.13-.14.34-.01.47,0,0,0,0,.01.01.75.84,1.86,1.25,2.97,1.12.18-.02.32-.18.3-.36,0,0,0-.02,0-.03-.03-.19-.22-.32-.41-.28,0,0,0,0,0,0-.88.08-1.74-.27-2.32-.95-.11-.09-.26-.12-.39-.07Z"/>
        <path class="cls-11" d="m249.35,80.91c.11.05.23.05.33,0,.82-.41,1.78-.43,2.61-.07.17.1.38.04.48-.12.09-.17.02-.38-.14-.47h0c-1.04-.5-2.24-.5-3.28,0-.16.07-.24.26-.17.42,0,.01,0,.02.02.03.02.08.07.16.14.21Z"/>
      </g>
    </g>
  </g>
</svg>