<?xml version="1.0" encoding="UTF-8"?>
<svg id="Layer_1" data-name="Layer 1" xmlns="http://www.w3.org/2000/svg" xmlns:xlink="http://www.w3.org/1999/xlink" viewBox="0 0 512 263">
  <defs>
    <style>
      .cls-1 {
        opacity: .8;
      }

      .cls-1, .cls-2, .cls-3, .cls-4, .cls-5, .cls-6, .cls-7, .cls-8, .cls-9, .cls-10, .cls-11, .cls-12, .cls-13, .cls-14 {
        stroke-width: 0px;
      }

      .cls-1, .cls-7 {
        fill: #fff;
      }

      .cls-1, .cls-10 {
        isolation: isolate;
      }

      .cls-2 {
        fill: #ff7549;
      }

      .cls-4 {
        fill: #37474f;
      }

      .cls-5 {
        fill: none;
      }

      .cls-6 {
        fill: #c7c7c7;
      }

      .cls-8 {
        fill: #263238;
      }

      .cls-15 {
        clip-path: url(#clippath);
      }

      .cls-16, .cls-10 {
        opacity: .1;
      }

      .cls-9 {
        fill: #a6a6a6;
      }

      .cls-11 {
        fill: #dbdbdb;
      }

      .cls-12 {
        fill: #ebebeb;
      }

      .cls-13 {
        fill: #dd6a57;
      }

      .cls-14 {
        fill: #455a64;
      }
    </style>
    <clipPath id="clippath">
      <rect class="cls-5" y=".72" width="512" height="261.57" rx="42.76" ry="42.76"/>
    </clipPath>
  </defs>
  <g class="cls-15">
    <g>
      <g id="freepik--background-complete--inject-64">
        <rect class="cls-12" x="75.73" y="84.37" width="61.27" height="114.29"/>
        <rect class="cls-11" x="72.19" y="80.84" width="67.16" height="3.53"/>
        <rect class="cls-12" x="139.35" y="80.84" width="21.21" height="3.53"/>
        <rect class="cls-11" x="137" y="84.37" width="21.21" height="114.29"/>
        <path class="cls-6" d="m129.93,123.25h-48.31v-27.1h48.31v27.1Zm-48.31,0h48.31v-27.1h-48.31v27.1Z"/>
        <rect class="cls-6" x="99.29" y="104.4" width="9.43" height="5.89"/>
        <path class="cls-6" d="m111.05,109.11h-9.4v-4.71h9.43l-.02,4.71Zm-9.4,0h9.43v-4.71h-9.43v4.71Z"/>
        <path class="cls-6" d="m129.93,157.42h-48.31v-27.1h48.31v27.1Zm-48.31,0h48.31v-27.1h-48.31v27.1Z"/>
        <rect class="cls-6" x="99.29" y="138.57" width="9.43" height="5.89"/>
        <path class="cls-6" d="m111.05,143.28h-9.4v-4.71h9.43l-.02,4.71Zm-9.4,0h9.43v-4.71h-9.43v4.71Z"/>
        <path class="cls-6" d="m129.93,191.59h-48.31v-27.1h48.31v27.1Zm-48.31,0h48.31v-27.1h-48.31v27.1Z"/>
        <rect class="cls-6" x="99.29" y="172.74" width="9.43" height="5.89"/>
        <path class="cls-6" d="m111.05,177.45h-9.4v-4.71h9.43l-.02,4.71Zm-9.4,0h9.43v-4.71h-9.43v4.71Z"/>
        <rect class="cls-12" x="389.14" y="117.36" width="61.27" height="81.3"/>
        <rect class="cls-11" x="385.61" y="113.83" width="67.16" height="3.53"/>
        <rect class="cls-12" x="453.94" y="113.83" width="21.21" height="3.53"/>
        <rect class="cls-11" x="450.41" y="117.36" width="21.21" height="81.3"/>
        <rect class="cls-9" x="395.03" y="129.14" width="48.31" height="27.1"/>
        <rect class="cls-6" x="402.1" y="123.25" width="36.53" height="25.92"/>
        <polygon class="cls-6" points="415.4 119.72 402.1 119.72 402.1 122.07 416.15 122.07 415.4 119.72"/>
        <polygon class="cls-9" points="439.31 149.17 402.09 149.17 399.21 124.43 436.44 124.43 439.31 149.17"/>
        <polygon class="cls-9" points="411.82 122.07 399.73 122.07 400 124.43 412.79 124.43 411.82 122.07"/>
        <rect class="cls-12" x="372.65" y="129.14" width="48.31" height="27.1"/>
        <path class="cls-6" d="m420.95,156.24h-48.31v-27.1h48.31v27.1Zm-48.31,0h48.31v-27.1h-48.31v27.1Z"/>
        <rect class="cls-6" x="390.32" y="137.39" width="9.43" height="5.89"/>
        <path class="cls-6" d="m402.1,142.1h-9.43v-4.71h9.43v4.71Zm-9.43,0h9.43v-4.71h-9.43v4.71Z"/>
        <rect class="cls-11" x="420.95" y="133.86" width="23.56" height="23.56"/>
        <path class="cls-6" d="m443.34,190.41h-48.31v-27.1h48.31v27.1Zm-48.31,0h48.31v-27.1h-48.31v27.1Z"/>
        <rect class="cls-6" x="412.71" y="171.56" width="9.43" height="5.89"/>
        <path class="cls-6" d="m425.67,176.27h-9.43v-4.71h9.43v4.71Zm-9.43,0h9.43v-4.71h-9.43v4.71Z"/>
      </g>
      <g id="freepik--Floor--inject-64">
        <polygon class="cls-8" points="68.86 197.48 120.03 198.66 171.18 197.48 273.5 198.66 375.82 197.48 426.98 198.66 478.15 197.48 426.98 198.66 375.82 197.48 273.5 198.66 171.18 197.48 120.03 198.66 68.86 197.48"/>
      </g>
      <g id="freepik--Shadow--inject-64">
        <ellipse class="cls-12" cx="273.5" cy="235.58" rx="180.01" ry="19.73"/>
      </g>
      <g id="freepik--Plant--inject-64">
        <path class="cls-2" d="m461.56,153.63c-.59,2.15-.98,4.35-1.16,6.57.06.11.05.51,0,.4,0,.36-.56.3-.56-.06v-.69c-1.26-1.59-3.14-2.61-4.65-3.99-1.21-1.09-2.09-2.49-2.55-4.06-1.26-4.31-.08-8.87-1.58-13.18-1.29-3.7-3.62-6.91-5.58-10.27-2.07-3.55-3.6-7.28-3.77-11.43-.12-3.18.26-7.42,2.68-9.8,2.57-2.51,5.75-.63,7.72,1.62,5.7,6.54,8.34,14.81,9.42,23.27.59,4.68,1.2,9.42,1.06,14.11-.09,2.53-.44,5.05-1.03,7.51Z"/>
        <path class="cls-8" d="m459.99,161.91c.31-4.41.26-8.85-.16-13.25v-.05c.07-3.58.35-7.15.21-10.74-.17-3.88-.7-7.74-1.58-11.52,0-.04-.08,0-.07,0,.7,3.72,1.12,7.48,1.26,11.26.08,2.03.06,4.06-.04,6.08-.04.66-.1,1.32-.14,1.98h0c-1.49-10.06-5.13-19.68-10.67-28.21-.08-.12-.28,0-.21.13,3.95,6.48,6.88,13.54,8.68,20.92-2.74-5.08-6.91-9.25-9.96-14.14,0,0-.06,0-.04.03,2.76,5.44,7.32,9.72,10.23,15.07.5,2.18.92,4.39,1.22,6.6.41,3.04.63,6.1.66,9.17-1.67-3.14-3.4-6.11-4.77-9.42,0-.09-.16,0-.13.06,1.16,3.43,2.72,7.13,4.92,10.04,0,2.17-.06,4.34-.18,6.51-.34,5.79-1.33,11.5-1.79,17.27,0,.07.04.14.12.15s.14-.04.15-.12c1.17-5.88,1.95-11.84,2.31-17.82Z"/>
        <path class="cls-8" d="m454.15,117.3s-.03-.02-.05-.01c0,0,0,0-.01.01,1.05,2.92,1.65,5.88,2.42,8.88.02.06.08.09.14.07.05-.02.08-.06.08-.11-.43-3.06-1.3-6.04-2.57-8.85Z"/>
        <path class="cls-2" d="m480.63,129.53c-.7,1.72-1.51,3.4-2.43,5.02-1.88,3.45-3.89,6.62-4.25,10.67-.06,1.8-.31,3.59-.77,5.34-.5,1.49-1.21,2.9-2.12,4.17-2.07,3.01-4.65,5.59-6.55,8.71-1.99,3.25-3.46,6.8-4.36,10.5-.05.2-.36.14-.32-.06,0-.01,0-.03,0-.04v-.04c-.3-8.63.39-17.33,3.02-25.6,1.16-3.64,2.56-7.21,4.18-10.67,1.33-3.05,3.25-5.81,5.65-8.12,1.61-1.45,5.09-4.19,7.38-2.74,1.09.67,1,1.77.57,2.85Z"/>
        <path class="cls-8" d="m472.33,149.09c-1.52,2.5-3.2,4.91-5.02,7.21-.84,1.09-1.69,2.17-2.51,3.26-.4.52-.84,1.04-1.2,1.59.23-.91.45-1.82.68-2.72,1.12-4.36,2.18-8.76,3.85-12.95,1.7-4.06,3.7-7.99,5.99-11.75.06-.1-.1-.17-.16-.08-1.82,3-3.67,6-5.2,9.16-.85,1.76-1.59,3.58-2.21,5.43.7-3.93,1.68-7.81,2.94-11.61,0-.03-.04-.06-.05,0-1.64,3.83-2.67,7.9-3.05,12.05h0c-.38,1.12-.72,2.25-1.04,3.39-1.36,4.83-2.56,9.71-3.66,14.61-.02-3.22.26-6.43.83-9.6,0-.03-.03-.06-.06-.06-.03,0-.06.03-.06.06-.84,3.3-1.13,6.72-.83,10.11-.42,1.86-.83,3.73-1.22,5.59-.85,3.98-1.88,8.03-2.39,12.07,0,.05.04.08.08.08.03,0,.06-.02.08-.05.63-2.18.95-4.44,1.44-6.64s.99-4.39,1.5-6.62c.75-3.21,1.52-6.42,2.34-9.62.53-1.17,1.56-2.21,2.34-3.2s1.7-2.16,2.51-3.26c1.55-2.03,2.94-4.18,4.16-6.43.04-.04-.03-.08-.06-.03Z"/>
        <path class="cls-8" d="m472.69,145.4c-1.9,2.42-3.54,5.04-4.91,7.8,0,.04.04.08.06.04,1.65-2.59,3.28-5.2,4.92-7.79.03-.04-.04-.09-.08-.04Z"/>
        <path class="cls-2" d="m436.31,137.71c1.12,1.93,2.4,4.24,1.88,6.55-.3,1.46-1.37,2.66-1.57,4.15-.43,3.3,2.86,5.47,5.24,7.03,5.93,3.89,14.05,7.36,15.13,15.3.04.28.53.21.49-.07,0-.02,0-.03,0-.05v-.04c.78-4.01.74-8.13-.11-12.13-.88-4.09-2.67-7.77-4.78-11.37-3.57-6.08-7.35-12.32-12.74-16.95-1.49-1.29-4.55-3.61-5.74-.7s.83,5.93,2.2,8.27Z"/>
        <path class="cls-8" d="m441.38,150.61c3.92,4.26,10.18,6.64,13.55,11.41-1.89-7.25-5.46-13.96-10.42-19.57-.13-.14.08-.36.22-.22,3.62,3.52,6.51,7.71,8.51,12.34-.93-3.23-2.16-6.37-3.67-9.38-.03-.05-.01-.11.04-.14.05-.03.11-.01.14.04,1.86,3.28,3.18,6.83,3.93,10.52,4.45,10.79,4.87,23.44,3.93,34.82,0,.16-.26.17-.25,0,.25-8.96.11-18.08-2.04-26.83-.04-.18-.09-.36-.14-.55-3.68-5.13-9.9-7.53-13.9-12.38-.01-.02.05-.08.09-.04Z"/>
        <path class="cls-8" d="m440.46,146.95c2.07,1.88,4.09,3.83,6.16,5.72m0,.04c-2.35-1.58-4.46-3.48-6.28-5.65-.08-.08.03-.19.11-.11l6.16,5.76Z"/>
        <path class="cls-8" d="m440.13,138.75c1.83,2.99,3.89,5.83,6.18,8.49.01.02.01.04,0,.05-.02.01-.04.01-.05,0-2.56-2.43-4.67-5.3-6.23-8.48-.02-.03-.01-.07.02-.09.03-.02.07-.01.09.02h0Z"/>
        <polygon class="cls-14" points="449.26 198.66 467.65 198.66 465.17 173.92 452.09 173.92 449.26 198.66"/>
        <polygon class="cls-8" points="451.75 177.45 465.45 177.45 465.06 173.92 452.2 173.92 451.75 177.45"/>
        <rect class="cls-14" x="450.41" y="171.56" width="16.5" height="3.53"/>
      </g>
      <g id="freepik--Character--inject-64">
        <path class="cls-13" d="m177.16,241.88c-1.47.48-43.46-.06-45.05-1.09-.63-.38-.89-6.46-1.01-13.81v-.24s.36-3.08,1.18-4.65v-.63c-.88-10.61-.71-21.61-.71-21.61l27.67.28-.84,21.41-.03.85-.17,4.43v.46s15.98,7.34,17.6,8.65,2.84,5.5,1.35,5.96Z"/>
        <path class="cls-2" d="m164.71,230.09c-.11-.03-.16-.07-.17-.1l.17.1Z"/>
        <path class="cls-2" d="m177.22,241.86c-1.46.47-43.13-.06-44.71-1.1-.53-.33-.82-5.17-.95-11.41,7.63,1.59,37.23,7.58,38.04,5.02.32-.99-2.21-2.71-3.81-3.69,4.39,2.08,9.22,4.47,10.04,5.17,1.61,1.34,2.87,5.53,1.39,6Z"/>
        <path class="cls-10" d="m151.08,241.8c-9.38-.23-17.84-.58-18.53-1.04-.53-.33-.82-5.17-.95-11.41,1.09.22,2.61.54,4.44.9l15.05,11.54Z"/>
        <path class="cls-4" d="m122.97,79.65s6.29,70.6,7.29,75.99c.23,1.23.38,7.9.48,16.47.21,18.72.09,52.47.09,52.47h29.45s-.87-58.48-2.18-69.24c-1.3-10.76-9.64-75.69-9.64-75.69h-25.5Z"/>
        <path class="cls-8" d="m158.9,219.2c-4.58-.09-3.26-.13-7.85-.18-2.24,0-16.99-.15-19.09.19-.04,0-.04.09,0,.09,2.1.35,16.84.22,19.09.19,4.58-.04,3.26-.08,7.85-.18.04-.01.06-.05.05-.09,0-.02-.02-.04-.05-.05Z"/>
        <path class="cls-8" d="m135.82,185.85v-12.78c.5-4.12.53-8.26.31-12.38-.4-8.34-2.1-16.55-3.3-24.8-1.2-8.25-2.21-16.55-3.14-24.84-1.02-9.3-1.93-18.63-2.88-27.94,0-.06-.11-.06-.1,0,1.39,16.63,2.93,33.27,5.23,49.78.58,4.11,1.21,8.21,1.88,12.31.69,4.14,1.37,8.29,1.7,12.49s.38,8.22.3,12.34v12.77c.33,9.46.43,24.02.52,33.47,0,.08.06.14.14.14s.14-.06.14-.14c-.06-8.44-.12-21.98-.81-30.42Z"/>
        <path class="cls-8" d="m116.82,79.66s12.45,70.42,13.47,75.79c.23,1.22.38,7.88.48,16.43h0l14.03-92.22h-27.98Z"/>
        <path class="cls-13" d="m142.63,244.35c-1.49.37-43.02-3.14-44.52-4.26-.57-.42-.42-6.5,0-13.81v-.23c.08-1.51.17-3.07.28-4.65,0-.22,0-.43.04-.63.69-10.58,1.64-21.56,1.64-21.56l27.78,2.21-2.37,21.29-.09.85-.48,4.39-.06.46s15.3,8.44,16.81,9.87,2.45,5.71.96,6.06Z"/>
        <path class="cls-2" d="m143.12,244.35c-1.49.37-43.02-3.14-44.52-4.26-.49-.36-.45-4.85-.18-10.72,6.43,1.64,37.43,9.42,38.38,6.91.19-.55-.46-1.35-1.36-2.13,3.21,1.88,6.11,3.6,6.73,4.17,1.49,1.41,2.42,5.68.94,6.04Z"/>
        <path class="cls-4" d="m126.6,225.84l-29.35-1.26s8.01-64.4,8.16-68.36c.22-5.88,3.04-30.17,5.41-49.83,0,0-4.5-10.67,3.92-26.73h33.73s-2.26,15.31-6.13,25.01c-2.6.91-5.11,2.05-7.5,3.42,0,0-3.36,43.85-3.48,49.31-.23,10.82-4.75,68.44-4.75,68.44Z"/>
        <path class="cls-8" d="m125.83,220.53c-4.57-.29-3.26-.27-7.83-.51-2.24-.12-16.95-.87-19.07-.63-.04,0-.05.08,0,.09,2.08.44,16.81.94,19.05,1.01,4.58.15,3.26.06,7.85.15.08.03.09-.11,0-.11Z"/>
        <path class="cls-8" d="m116.97,81.17c-1.74,3.77-3.36,7.73-3.97,11.86-.44,4.43.05,8.91,1.45,13.13,0,0-.24,3.47-.51,5.69s-.52,4.46-.78,6.69c-.51,4.5-1.03,9.01-1.56,13.51-1.03,8.96-2.06,17.92-3.08,26.89s-2.04,17.93-3.04,26.89c-1,8.94-2.07,17.87-2.95,26.83-.11,1.12-.22,2.23-.33,3.35,0,.11.18.13.19,0,1.19-8.93,2.21-17.89,3.28-26.84,1.07-8.95,2.09-17.82,3.14-26.74,1.05-8.91,2.08-17.92,3.11-26.88,1.02-8.83,2.16-17.67,3.03-26.51.1-1.02.13-2.05.08-3.08,0,0-1.88-6.28-1.65-10.35.23-4.25,1.26-7.48,2.77-11.39.38-.98.77-1.96,1.15-2.93.08-.17-.24-.3-.33-.11Z"/>
        <path class="cls-8" d="m143.62,104.11c-3.04,1.1-5.98,2.47-8.79,4.09-.05.03-.06.09-.03.14.02.04.07.06.12.04,2.96-1.26,5.97-2.51,8.86-3.92.09-.06.11-.18.05-.27-.04-.07-.13-.1-.2-.08Z"/>
        <path class="cls-8" d="m139.49,99.2c.29-1.76.53-3.53.68-5.31.31-3.31.27-6.65-.11-9.96-.01-.05-.06-.07-.11-.06-.03,0-.05.03-.06.06.07,4.6-.19,9.19-.8,13.75-.33,2.19-1.44,5.49.85,5.82s3.84-5.17,4.12-6.69c.73-4.3.9-8.68.5-13.03,0-.11-.19-.13-.19,0,0,3.3-.17,6.6-.5,9.88-.14,1.53-1.36,9.94-4.01,9.33-.44-.11-.67-.54-.73-1.21.01-.87.13-1.74.35-2.58"/>
        <path class="cls-8" d="m139.95,103.21c-.25.57-.46,1.15-.63,1.75-.17.46-.25.94-.24,1.43,0,.09.13.11.18.04.28-.43.49-.9.63-1.4.2-.54.41-1.07.63-1.62.06-.16-.03-.33-.18-.38s-.33.03-.38.18Z"/>
        <path class="cls-8" d="m130.37,18.57c-5.46,4.68-3.94,11.51-6.22,15.22-1.4,2.27-5.95,4.66-6.85,7.27-1.48,4.29,2.15,5.83,1.34,8.16-1.15,3.31-5.57,3.05-6.37,8.46s5.15,11.16,19.27,12.71c14.11,1.56,21.87-3.61,22.37-8.2s-4.19-6.11-4.51-9.54c-.2-2.19,2.69-3.71,2.84-7.74s-3.77-5.34-4.34-8.76,1.26-11.73-3.77-15.98c-5.02-4.24-11.04-3.93-13.76-1.61Z"/>
        <path class="cls-8" d="m130.99,18.69c-1.53,1.08-2.77,2.52-3.63,4.19-.88,1.77-1.56,3.63-2.02,5.55-.24,1.14-.61,2.26-1.1,3.32-.48.89-1.12,1.68-1.88,2.34-1.53,1.38-3.35,2.43-4.72,3.99-1.37,1.56-2.3,3.43-1.79,5.44.28,1.09,1,1.98,1.45,2.99s.59,2.16-.24,2.96c-.7.68-1.73,1-2.51,1.56-.79.55-1.49,1.22-2.06,2-1.18,1.55-1.65,3.52-1.3,5.43.83,4.39,4.95,6.91,8.79,8.46l1.59.63c.08.03.15-.09.07-.13-3.82-1.71-8.25-3.71-9.71-7.98-.68-1.88-.45-3.97.63-5.65.54-.82,1.22-1.54,2.02-2.12.77-.57,1.65-.92,2.44-1.46.79-.5,1.25-1.38,1.2-2.32-.12-1-.48-1.95-1.04-2.78-.59-.87-.9-1.9-.9-2.96.11-1.03.5-2,1.13-2.83,1.19-1.68,2.94-2.78,4.52-4.06,1.62-1.19,2.82-2.85,3.44-4.75.29-1.01.47-2.05.72-3.06.23-.94.51-1.87.85-2.79.62-1.84,1.64-3.52,2.98-4.92.36-.35.75-.67,1.17-.95.02-.05-.03-.13-.1-.09Z"/>
        <path class="cls-8" d="m154.55,58.83c-.17-.74-.49-1.44-.95-2.05-.49-.63-1.09-1.15-1.63-1.72-.55-.51-.95-1.16-1.16-1.88-.09-.88.13-1.77.63-2.51.47-.79.89-1.61,1.26-2.46.31-.84.49-1.73.53-2.63.08-1.85-.42-3.69-1.42-5.25-.48-.79-1.02-1.54-1.51-2.32-.54-.85-.96-1.78-1.26-2.74-.63-2.12-.77-4.39-1.29-6.52-.55-2.23-1.32-4.39-2.32-6.46,0-.05-.1,0-.08.04.87,1.85,1.54,3.79,2.01,5.78.45,1.88.63,3.82.95,5.73.15.94.39,1.86.72,2.75.35.82.77,1.61,1.26,2.36.95,1.56,1.94,3.09,2.2,4.93.26,1.81-.06,3.66-.91,5.29-.74,1.4-1.78,2.94-1.14,4.59.55,1.39,1.88,2.23,2.76,3.38.94,1.28,1.29,2.91.96,4.46-.77,3.95-4.72,5.91-8.43,6.11-.05.01-.08.06-.07.12,0,.03.03.06.07.07,3.22-.04,6.73-1.46,8.24-4.48.71-1.41.92-3.03.57-4.58Z"/>
        <path class="cls-13" d="m138.53,52.4c2.01,5.3,11.43,24.62,18.49,26.14,7.9,1.69,23.23-4.39,33.08-8.64,3.54-1.53-5.1-13.75-8.99-15.17-2.34-.86-18.59,7.53-22.19,7.53-2.03,0-6.6-7.46-15.64-14.51-4.95-3.9-7.46-2.47-4.76,4.65Z"/>
        <path class="cls-13" d="m187.61,70.63c2.12-.63,14.06-4.07,16.46-5.65s8.98-6.75,7.93-8.71-3.09-.63-3.09-.63c0,0,2.44-2.62,1.18-4.51s-4.35.33-4.35.33c0,0,2.3-2.86.94-4.65s-4.12.95-4.12.95c0,0,2.23-2.51.48-3.52-2.1-1.2-5.68,3.9-8.47,5.48-.63.36-13.33,6.36-13.33,6.36l6.37,14.55Z"/>
        <path class="cls-8" d="m202.82,47.52c-2.64,3.77-4.44,4.93-8.62,6.66-.08.03-.04.16.04.13,4.24-1.32,6.71-2.47,8.79-6.67.08-.21-.08-.3-.21-.12Z"/>
        <path class="cls-8" d="m205.97,51.15c-3.09,3.65-5.02,4.95-9.27,7.08-.06.03,0,.14.04.11,4.33-1.75,6.78-2.96,9.38-7.01.12-.18-.02-.35-.16-.18Z"/>
        <path class="cls-8" d="m208.7,55.72c-3.25,3.32-5.32,4.83-9.69,6.38-.05.01-.07.06-.06.1.01.05.06.07.1.06,4.62-1.14,7.22-3.01,9.74-6.43.18-.23.11-.32-.09-.11Z"/>
        <path class="cls-13" d="m177.56,55.77s3.47-5.22,5.48-6.84,11.74-4.91,12.56-2.85c1.07,2.66-4.17,5.65-6.91,6.8,0,0,2.51,6.15-.81,9.12s-10.32-6.23-10.32-6.23Z"/>
        <path class="cls-8" d="m195.66,46.89c-.77,3.14-4.49,4.39-7.08,5.69-.13.06-.19.21-.14.35.01.03.03.06.05.08.87,2.65,1.32,6.64-.45,8.99-.02.03,0,.08.03.09.02.01.05,0,.07,0,2.24-2.26,2.11-6.22.97-9.06,2.68-1.29,6.35-2.72,6.57-6.13h-.03Z"/>
        <path class="cls-2" d="m153.14,79.98l4.27-19.29c-4.3-4.77-8.87-9.29-13.67-13.54-6.94-6-10.24-5.36-6.08,5.32,4.16,10.68,10.29,23.05,15.49,27.5Z"/>
        <path class="cls-2" d="m153.14,79.98l4.27-19.29c-4.3-4.77-8.87-9.29-13.67-13.54-6.94-6-10.24-5.36-6.08,5.32,4.16,10.68,10.29,23.05,15.49,27.5Z"/>
        <path class="cls-8" d="m154.99,60.28c-.73,2.64-1.37,5.28-1.92,7.96-.28,1.34-.53,2.69-.77,4.05-.24,1.37-.4,2.77-.63,4.16,0,.06.09.08.1,0,.5-2.7,1.1-5.39,1.65-8.09l1.64-8.06s-.05-.07-.07-.01Z"/>
        <path class="cls-7" d="m138.98,55.51c.18.42.31.87.37,1.33v.23c-.14-.35-.28-.69-.43-1.04,0-.18.02-.35.06-.53Zm11.65-.59c-.1.92.03,1.84.38,2.69.07-.46.07-.92,0-1.37-.08-.46-.22-.9-.41-1.32h.03Zm-3.88,12.96c-.07.45-.07.91,0,1.37.06.46.19.9.37,1.32.07-.46.07-.92,0-1.37-.07-.46-.2-.9-.4-1.32h.03Zm3.63-3.53c.92.11,1.85-.02,2.69-.38-.46-.07-.92-.07-1.37,0-.47.06-.92.19-1.35.38h.03Zm-14.11-18.85c.46.06.92.06,1.37,0,.46-.06.9-.18,1.32-.36-.46-.07-.92-.07-1.37,0-.47.06-.92.18-1.36.36h.03Zm6.28,17.67s0,.03,0,.04c.02-.03.03-.06.04-.09-.02.01-.05.03-.06.05h.03Zm11.67,7.38c-.36.28-.69.61-.96.99-.28.36-.51.76-.67,1.19.36-.28.69-.61.95-.98.28-.37.51-.77.68-1.2Zm-7.13-10.14c-.28-.36-.61-.69-.98-.96-.37-.28-.77-.51-1.2-.67.58.72,1.33,1.28,2.18,1.63Zm-2.61-10.18c-.37.28-.69.61-.97.98-.28.36-.51.77-.68,1.19.72-.57,1.29-1.32,1.64-2.17h0Z"/>
        <path class="cls-8" d="m137.65,52.48c4.16,10.67,10.26,23.05,15.49,27.5l1.76-7.94-18.74-28.08c-.71,1.14-.32,3.87,1.49,8.52Z"/>
        <path class="cls-2" d="m149.65,84.68s-13.33,3.14-38.59.97c0,0,9.88-31.52,17.83-40.02,3.62-3.87,7.16-3.28,10.16-.78.75.63,10.04,12.39,10.8,16.49.7,3.62-2.25,7.65-2.25,7.65l2.05,15.69Z"/>
        <path class="cls-7" d="m139.49,56.84c.07.45.07.91,0,1.37-.18-.42-.31-.86-.36-1.32-.07-.46-.07-.92,0-1.37.18.42.3.87.36,1.32Zm.23,21.29c-.06.46-.06.92,0,1.37.06.46.18.9.37,1.32.06-.46.06-.92,0-1.37-.06-.46-.18-.9-.37-1.32h0Zm6.55,4.09c-.11.92.02,1.85.38,2.69.06-.46.06-.92,0-1.37-.06-.46-.19-.9-.38-1.32Zm-21.21-18.68c-.07.46-.07.92,0,1.37.06.45.18.9.36,1.32.07-.45.07-.91,0-1.37-.06-.46-.18-.9-.36-1.32Zm21.65,4.6c-.07.45-.07.91,0,1.37.06.46.19.9.37,1.32.07-.46.07-.92,0-1.37-.06-.46-.18-.9-.37-1.32Zm-15.62-8.32c.46.07.92.07,1.37,0,.46-.06.9-.18,1.32-.36-.46-.07-.92-.07-1.37,0-.46.06-.9.18-1.32.36Zm-7.86,13.34c.92.11,1.85-.02,2.7-.38-.46-.07-.92-.07-1.37,0-.46.06-.9.19-1.32.38Zm13.09-1.06c.46.06.92.06,1.37,0,.46-.06.9-.18,1.32-.36-.46-.07-.92-.07-1.37,0-.46.06-.9.18-1.32.36Zm-24.07,12.26c.45.06.91.06,1.37,0,.46-.06.9-.18,1.32-.36-.92-.11-1.85.02-2.69.38v-.02Zm23.56-38.53c.46.06.92.06,1.37,0,.46-.06.9-.18,1.32-.36-.46-.07-.92-.07-1.37,0-.45.05-.9.16-1.32.33v.03Zm-4.02,2.41c-.36.28-.69.61-.96.98-.28.37-.51.77-.67,1.2.36-.28.68-.61.95-.99.28-.36.51-.76.68-1.19Zm-11.93,17.03c-.37.28-.69.61-.96.98-.28.36-.51.77-.68,1.2.72-.57,1.29-1.32,1.64-2.18Zm22.69-1.59c-.37.28-.69.61-.96.98-.28.36-.51.77-.68,1.2.72-.57,1.29-1.32,1.64-2.18Zm-11.34,12.69c-.36.28-.69.61-.96.98-.28.37-.51.77-.67,1.2.36-.28.69-.61.96-.99.29-.37.53-.78.7-1.22l-.03.03Zm12.56-25.49l-.28.34c-.28.36-.51.76-.68,1.19.37-.28.69-.61.96-.99.06-.09.12-.18.19-.26l-.19-.28Zm3.3,9.54c-.28-.36-.61-.69-.98-.96-.37-.28-.77-.51-1.2-.67.58.72,1.33,1.28,2.18,1.63Zm-28.88,15.83c-.28-.36-.61-.69-.99-.96-.36-.28-.76-.51-1.19-.68.28.37.61.69.98.96.38.27.79.49,1.23.65l-.03.03Zm29.51.5c-.57-.73-1.32-1.29-2.18-1.64.28.37.61.69.99.96.37.27.77.49,1.21.65v.03Zm-20.35-19.73c-.28-.36-.62-.69-.99-.96-.36-.28-.76-.51-1.19-.67.28.36.61.69.98.95.37.28.77.51,1.2.68Zm8.37,28.25c-.58-.72-1.33-1.28-2.18-1.63.28.37.61.69.98.96.37.28.77.51,1.2.67h0Zm-2.51-17.36c-.27-.37-.59-.69-.95-.97-.36-.28-.77-.51-1.2-.68.57.72,1.32,1.29,2.18,1.64h-.03Zm-9.47,13.95c-.57-.73-1.32-1.29-2.17-1.64.28.37.61.69.98.96.37.28.78.51,1.21.67h-.02Z"/>
        <path class="cls-8" d="m145.02,52.67c.81,1.09,1.56,2.22,2.25,3.4-.28-.66-.55-1.32-.78-2.01m.04,0c.24.48.5.96.7,1.46s.36.9.53,1.36h0c.78,1.38,1.7,2.77,2.1,4.33.33,1.4.3,2.86-.09,4.24-.2.71-.48,1.4-.83,2.06-.27.6-.64,1.14-1.09,1.63.26,1.45.43,2.93.63,4.39.24,1.43.38,2.86.45,4.31,0,.04-.03.08-.08.08s-.08-.03-.08-.08l-.09-.3s-.01-.04,0-.05c-.28-1.33-.49-2.68-.63-4.04-.19-1.39-.54-4.29-.55-4.31s.67-1.22.92-1.77c.32-.67.58-1.38.77-2.1.4-1.36.43-2.8.09-4.17-.49-1.47-1.15-2.87-1.96-4.19-.78-1.41-1.59-2.8-2.4-4.19-.03-.04.06-.08.1-.05l1.51,1.39Z"/>
        <path class="cls-13" d="m126.79,47.79c-6.59,8.93-19.19,30.05-14.96,34.7,6.95,7.65,23.66,14.11,28.88,15.53,2.25.63,9.77-15.82,7.63-17.09-2.56-1.54-20.46-7.01-20.41-8.53,0-.87,1.88-8.11,3.42-17.4,1.76-10.78-1.42-11.45-4.56-7.2Z"/>
        <path class="cls-13" d="m141.63,79.48s4.03-1.31,8.26-3.22c2.35-1.07,6.55-2.51,8.64-2.51,3.14,0,16.18,2.06,15.76,5.24-.39,2.88-11.38-.31-11.38-.31,0,0,11.41,2.21,10.28,5.59s-13.05-1.88-13.05-1.88c0,0,11.65,2.55,9.96,5.85-1.26,2.51-12.37-1.64-12.37-1.64,0,0,9.99,2.27,8.79,4.88-1.32,2.9-11.8-.28-11.8-.28-4.17,6.15-10.63,8.55-15.19,6.46-.73-.32,2.12-18.17,2.12-18.17Z"/>
        <path class="cls-8" d="m159.01,77.63c1.35.21,2.71.42,4.04.75s2.64.71,3.92,1.17c1.69.56,3.31,1.31,4.83,2.24-2.82-1.45-7.53-2.72-8.86-3.05-1.33-.33-2.62-.73-3.94-1.06-.03,0-.02-.05.01-.05Z"/>
        <path class="cls-8" d="m157.72,82.39c1.71.35,3.42.63,5.11,1.05s3.25.97,4.9,1.5c.13.04.06.1-.06.06-1.68-.47-3.26-.77-4.93-1.22s-3.33-.96-5.02-1.35v-.04Z"/>
        <path class="cls-8" d="m155.89,86.27c2.63.47,5.2,1.21,7.68,2.2.13.05.04.11-.09.07-2.54-.78-4.53-1.41-7.61-2.18-.04-.01-.04-.1.02-.09Z"/>
        <path class="cls-8" d="m152.38,75.23c.67-.4,1.38-.74,2.11-1.01.67-.28,1.37-.52,2.08-.7,1.53-.39,3.13-.46,4.7-.19,3.74.61,7.39,1.7,10.85,3.25.06,0,.04.14,0,.12-2.94-.79-6.15-2.05-10.63-2.72-1.54-.27-3.11-.25-4.64.04-.79.18-1.56.4-2.32.67-.68.22-1.36.52-2.05.68-.04.02-.09.01-.11-.02s-.01-.09.02-.11Z"/>
        <path class="cls-2" d="m110.19,79.45l18.29-7.44c1.48-6.25,2.61-12.57,3.38-18.94,1-9.12-1.41-11.47-7.83-1.99-6.43,9.48-13.13,21.54-13.84,28.37Z"/>
        <path class="cls-7" d="m124.95,50.69c-.09-.2-.16-.41-.21-.63.08-.12.16-.23.24-.34.03.32.02.65-.03.97Zm.11,12.84c-.07.46-.07.92,0,1.37.06.45.18.9.36,1.32.07-.45.07-.91,0-1.37-.06-.46-.18-.9-.36-1.32Zm-1.83,9.62c.92.11,1.85-.02,2.7-.38-.46-.07-.92-.07-1.37,0-.46.06-.9.19-1.32.38Zm-3.94-15.08l-.23.37h.2c.46-.06.9-.18,1.32-.36-.43-.07-.87-.07-1.3,0h0Zm12.49-9.84c-.36.28-.69.61-.96.98-.28.37-.51.77-.67,1.2.36-.28.68-.61.95-.99.28-.36.51-.76.68-1.19Zm-11.93,17.03c-.37.28-.69.61-.96.98-.28.36-.51.77-.68,1.2.72-.57,1.29-1.32,1.64-2.18Zm-1.68,10.99c-.28-.36-.61-.69-.99-.96-.36-.28-.76-.51-1.19-.68.28.37.61.69.98.96.38.27.79.49,1.22.65l-.03.03Zm9.15-19.23c-.28-.36-.62-.69-.99-.96-.36-.28-.76-.51-1.19-.67.28.36.61.69.98.95.37.28.77.51,1.2.68Z"/>
        <path class="cls-8" d="m131.7,58.72c-.26.53-.47,1.08-.63,1.64-.07.19-.13.38-.19.57.16-1.05.31-2.12.45-3.18,0-.07-.09-.1-.11,0-.46,2.39-2.59,13.62-2.69,14.19-.06,0-.63.33-.66.33s0,.12.04.09.73-.33.73-.34c.23-.51,1.88-9.07,2.07-10.11.03-.04.05-.09.07-.14.06-.15.11-.3.16-.45.11-.28.19-.55.3-.83.22-.57.4-1.15.53-1.74.01-.03,0-.06-.02-.07-.03-.01-.06,0-.07.02Z"/>
        <path class="cls-8" d="m128.16,69.95c-.72.17-1.44.38-2.14.63-.71.23-1.43.43-2.13.67-1.36.45-2.71.93-4.06,1.43-2.71.97-5.37,2.08-7.97,3.33-.06,0,0,.12.04.1,2.76-.97,5.47-2.06,8.21-3.08l4.04-1.5,2.02-.77c.67-.24,1.39-.44,2.03-.75.04-.01,0-.06-.03-.06Z"/>
        <path class="cls-13" d="m132.17,44.62c.15.68,3.35,5.13,6.45,5.02,1.01-.04,1.05-5.57,1.05-5.57l.09-.41,1.34-5.71-6.68-4.39-.96-.58s-.27,1.59-.58,3.57c0,.09-.03.18-.04.28s-.04.21-.06.32c-.05.3-.1.63-.14.9s-.07.45-.09.7-.06.48-.09.72c-.22,1.71-.32,3.44-.3,5.17Z"/>
        <path class="cls-8" d="m132.88,36.54c1.14,3.27,3.67,5.88,6.91,7.12l1.34-5.71-6.68-4.39-.96-.58s-.28,1.59-.61,3.57Z"/>
        <path class="cls-13" d="m149.37,28.92c1.32,10.21-4.65,12.16-6.85,12.44-2,.26-8.84.88-11.21-9.15-2.37-10.03,1.96-13.86,6.5-14.7,4.54-.83,10.24,1.22,11.56,11.4Z"/>
        <path class="cls-8" d="m147.7,27.34c-.24-.01-.47-.04-.71-.08-.25.01-.5-.06-.71-.21-.11-.12-.13-.3-.04-.45.21-.25.54-.37.87-.31.33.01.65.15.89.38.15.16.14.4-.02.55-.07.07-.17.1-.27.1Z"/>
        <path class="cls-8" d="m140.67,28.07c.23-.06.45-.13.67-.22.24-.05.46-.17.63-.36.09-.14.07-.32-.04-.44-.26-.2-.61-.25-.92-.12-.32.08-.6.28-.78.56-.11.18-.05.42.13.54.09.06.21.07.31.04Z"/>
        <path class="cls-8" d="m142.23,30.41s-.05.04-.04.07c.11.69.13,1.5-.47,1.81,0,0,0,.04,0,.04.76-.21.73-1.29.51-1.92Z"/>
        <path class="cls-8" d="m141.85,29.76c-1.13.06-.92,2.32.13,2.26,1.05-.06.82-2.31-.13-2.26Z"/>
        <path class="cls-8" d="m141.41,30.11c-.18.14-.36.38-.59.43s-.5-.17-.7-.38h-.04c.04.43.24.86.71.88s.7-.39.77-.83c.01-.05-.07-.16-.14-.1Z"/>
        <path class="cls-8" d="m146.43,29.91s.06,0,.06.06c.03.7.19,1.49.85,1.68m0,.04c-.78-.04-.99-1.1-.91-1.77l.91,1.77Z"/>
        <path class="cls-8" d="m147,29.12c1.12-.18,1.39,2.07.36,2.23s-1.29-2.08-.36-2.23Z"/>
        <path class="cls-8" d="m147.49,29.24c.19.09.39.29.63.28s.4-.28.53-.53h.04c.06.43,0,.89-.43,1.02s-.69-.21-.85-.63c-.05-.06,0-.19.08-.14Z"/>
        <path class="cls-8" d="m143.01,35.89c.18.16.35.38.63.38.26-.02.51-.09.74-.21,0,0,.05,0,.04,0-.19.29-.53.45-.87.42-.3-.06-.52-.29-.58-.59-.04-.01.03-.03.05,0Z"/>
        <path class="cls-8" d="m145.66,33.33s.25,1.02.3,1.51c0,.05-.11.08-.28.11h0c-.84.25-1.75,0-2.36-.63-.04-.04,0-.1.07-.08.67.36,1.44.5,2.19.39,0-.14-.49-1.74-.41-1.76.39,0,.77.04,1.14.14-.46-2.15-1.26-4.22-1.7-6.37,0-.04.03-.07.06-.07.02,0,.05,0,.06.03.93,2.18,1.64,4.46,2.12,6.78.05.27-1,0-1.21-.06Z"/>
        <path class="cls-8" d="m132.28,32.48c1.66-.06,1.64-3.55,1.64-3.55,0,0,3.34-.36,3.9-5.29.07,1.45-.29,2.89-1.03,4.14,0,0,5.82-1.29,7.75-6.49,0,0-.71,2.62-1.54,3.62,1.44-.62,2.63-1.72,3.37-3.11,0,0,1.36,2.72,2.23,3.42,0,0-1.41-10.28-10.83-8.1,0,0-5.93,1.07-7.53,6.05s2.03,9.32,2.03,9.32Z"/>
        <path class="cls-2" d="m141.08,34.38c-1.76.01-3.21-1.41-3.22-3.17-.01-1.76,1.41-3.21,3.17-3.22,1.46-.01,2.74.96,3.11,2.37h0c.45,1.71-.57,3.46-2.28,3.91-.26.07-.52.1-.78.11Zm-.04-5.97c-.23,0-.46.03-.68.09-1.49.38-2.38,1.9-2,3.39.38,1.49,1.9,2.38,3.39,2,1.49-.38,2.38-1.9,2-3.39-.32-1.23-1.43-2.09-2.7-2.09Z"/>
        <path class="cls-2" d="m148.35,33.43c-1.26,0-2.34-1.26-2.56-2.89-.11-.79.03-1.59.4-2.3.44-1.01,1.62-1.46,2.62-1.02.3.13.56.33.76.59.53.6.86,1.34.95,2.13.22,1.75-.66,3.3-1.97,3.47-.07.01-.14.02-.21.02Zm-.38-5.61h-.16c-.55.09-1.01.45-1.26.95-.32.63-.44,1.35-.34,2.05.19,1.51,1.21,2.64,2.29,2.51,1.07-.13,1.78-1.48,1.59-2.99-.08-.7-.37-1.36-.83-1.88-.32-.38-.79-.61-1.29-.63h0Z"/>
        <path class="cls-2" d="m144.08,30.75l-.31-.29c.43-.46,1.48-1.15,2.35-.42l-.28.33c-.78-.66-1.73.33-1.76.38Z"/>
        <path class="cls-2" d="m130.72,33.38l-.4-.14c.07-.19.7-1.84,1.63-2.11s5.98-.47,6.23-.48v.43c-2.05.04-4.09.2-6.11.46-.6.18-1.17,1.39-1.34,1.85Z"/>
        <path class="cls-13" d="m131.78,35.98c.15.05.31.09.48.1.16.03.33.03.49,0,.21-.03.41-.1.58-.22.14-.09.27-.19.38-.31.16-.19.28-.4.36-.63l-.68-2.72s-2.39-3.14-3.8-2.25c-1.42.89.46,5.47,2.2,6.04Z"/>
        <path class="cls-8" d="m129.93,31.33c1.26.44,1.88,1.53,2.39,2.66-.29-.45-.89-.58-1.34-.29-.04.03-.08.05-.11.09,0,0,0,.08.04.06.43-.16.91-.03,1.19.33.24.29.45.6.63.93.06.11.26.04.21-.08h0c-.08-1.58-1.36-3.67-3.01-3.74v.04Z"/>
        <path class="cls-7" d="m131.9,35.55c.06.26.32.41.58.35s.41-.32.35-.58c-.06-.26-.32-.41-.58-.35-.25.06-.41.32-.35.58Z"/>
        <path class="cls-7" d="m130.89,34.87c.05.18.23.28.41.24.18-.04.29-.23.25-.41-.04-.18-.22-.29-.4-.25,0,0,0,0,0,0-.18.04-.29.23-.25.41Z"/>
        <path class="cls-12" d="m139.69,44.51l-1.54,4.67-6.03-5.4-1.49,1.95s6.13,8.79,6.13,8.39l1.63-4.05,2.89,2.56-.67-6.84-.93-1.27Z"/>
        <path class="cls-8" d="m141.14,49.23c-.14-1.13-.26-2.27-.46-3.38,0-.04-.07-.06-.08,0-.16,1.1.43,5.41.49,6.45h0c-.12-.11-2.67-2.24-2.69-2.2-.37.63-1.56,3.6-1.64,3.87-.97-1.4-4.66-6.47-5.79-7.78-.04-.04-.09,0-.07.04.87,1.48,5.78,8.32,5.84,8.29.64-1.39,1.21-2.82,1.7-4.28.44.47,3.03,2.89,3.03,2.72-.04-1.25-.15-2.5-.33-3.74Z"/>
      </g>
      <g id="freepik--Documents--inject-64">
        <rect class="cls-12" x="185.31" y="54.91" width="73.05" height="93.08"/>
        <path class="cls-11" d="m259.53,148h-37.48l-36.36,1.18h-.39v-1.17l1.18-93.22v-1.06h-.79l72.61,1.18h.05v-.09l1.18,46.65v46.53Zm-2.36,0l1.18-46.65-.08-46.67.23.24-72.34.07.31-.3-.11,92.34-.19-.2,35.77,1.18h35.23Z"/>
        <polygon class="cls-6" points="193.63 73.77 222 74.94 250.36 73.77 222 74.94 193.63 73.77"/>
        <polygon class="cls-6" points="193.63 76.12 222 77.3 250.36 76.12 222 77.3 193.63 76.12"/>
        <polygon class="cls-6" points="193.63 78.48 222 79.66 250.36 78.48 222 79.66 193.63 78.48"/>
        <polygon class="cls-6" points="193.63 80.84 222 82.01 250.36 80.84 222 82.01 193.63 80.84"/>
        <polygon class="cls-6" points="193.63 83.19 222 84.37 250.36 83.19 222 84.37 193.63 83.19"/>
        <polygon class="cls-6" points="193.63 85.55 222 86.73 250.36 85.55 222 86.73 193.63 85.55"/>
        <polygon class="cls-6" points="193.63 87.91 222 89.08 250.36 87.91 222 89.08 193.63 87.91"/>
        <polygon class="cls-6" points="193.63 92.62 222 92.62 250.36 92.62 222 93.8 193.63 92.62"/>
        <polygon class="cls-6" points="193.63 94.97 222 96.15 250.36 94.97 222 96.15 193.63 94.97"/>
        <polygon class="cls-6" points="193.63 97.33 222 98.51 250.36 97.33 222 97.33 193.63 97.33"/>
        <polygon class="cls-6" points="193.63 99.69 222 100.87 250.36 99.69 222 100.87 193.63 99.69"/>
        <polygon class="cls-6" points="193.63 102.04 222 103.22 250.36 102.04 222 103.22 193.63 102.04"/>
        <polygon class="cls-6" points="193.63 104.4 222 105.58 250.36 104.4 222 105.58 193.63 104.4"/>
        <polygon class="cls-6" points="193.63 106.76 222 107.94 250.36 106.76 222 107.94 193.63 106.76"/>
        <rect class="cls-2" x="199.44" y="99.69" width="4.71" height="9.43"/>
        <rect class="cls-2" x="207.69" y="94.97" width="4.71" height="15.32"/>
        <rect class="cls-2" x="215.94" y="89.08" width="4.71" height="21.21"/>
        <rect class="cls-2" x="223.01" y="86.73" width="4.71" height="23.56"/>
        <rect class="cls-2" x="231.26" y="82.01" width="4.71" height="27.1"/>
        <rect class="cls-2" x="239.5" y="78.48" width="4.71" height="31.81"/>
        <path class="cls-6" d="m194.73,73.1l1.18,9.18v9.17c-.49,6.12-.48,12.24-.47,18.36l-.27-.69h13.81l13.81,1.18h27.62l-13.81-1.18-13.81,1.18h-28.06v-.5c.18-6.12,1.18-18.36,1.18-18.36l-1.18-9.17v-9.17Z"/>
        <path class="cls-8" d="m200.34,100.87c2.08-.03,4.15-.19,6.21-.47,2.07-.27,4.12-.64,6.14-1.12,4.04-.91,7.97-2.29,11.69-4.12,3.73-1.8,7.18-4.14,10.22-6.96l.58-.52.55-.55,1.08-1.11c.67-.79,1.39-1.54,2-2.38,1.29-1.63,2.46-3.36,3.49-5.16h.03c-2.83,5.65-7.04,10.48-12.24,14.06-1.72,1.2-3.53,2.26-5.42,3.18-7.58,3.62-15.91,5.39-24.3,5.15h-.03Z"/>
        <polygon class="cls-8" points="243.73 81.7 243.14 81.85 242.4 78.91 239.53 79.86 239.34 79.28 242.84 78.13 243.73 81.7"/>
        <rect class="cls-11" x="192.37" y="124.43" width="58.91" height="2.36"/>
        <rect class="cls-11" x="192.37" y="130.32" width="32.99" height="2.36"/>
        <rect class="cls-11" x="205.34" y="65.52" width="32.99" height="2.36"/>
        <polygon class="cls-2" points="244.58 170.74 173.45 185.36 154.69 94.05 207.5 83.2 229.39 96.84 244.58 170.74"/>
        <polygon class="cls-1" points="244.58 170.74 173.45 185.36 154.69 94.05 207.5 83.2 229.39 96.84 244.58 170.74"/>
        <polygon class="cls-2" points="207.5 83.2 229.39 96.84 211.07 100.6 207.5 83.2"/>
        <rect class="cls-11" x="164.6" y="103.86" width="40.37" height="2.39" transform="translate(-17.36 39.34) rotate(-11.61)"/>
        <rect class="cls-11" x="165.82" y="109.77" width="40.37" height="2.39" transform="translate(-18.53 39.7) rotate(-11.61)"/>
        <rect class="cls-11" x="167.04" y="115.69" width="40.37" height="2.39" transform="translate(-19.69 40.07) rotate(-11.61)"/>
        <rect class="cls-11" x="168.07" y="119.72" width="59.15" height="2.39" transform="translate(-20.29 42.25) rotate(-11.61)"/>
        <rect class="cls-11" x="169.4" y="125.36" width="59.16" height="2.39" transform="translate(-21.29 42.34) rotate(-11.53)"/>
        <rect class="cls-11" x="170.5" y="131.55" width="59.15" height="2.39" transform="translate(-22.62 42.98) rotate(-11.61)"/>
        <rect class="cls-11" x="171.72" y="137.47" width="59.15" height="2.39" transform="translate(-23.79 43.35) rotate(-11.61)"/>
        <rect class="cls-11" x="172.93" y="143.39" width="59.15" height="2.39" transform="translate(-24.95 43.71) rotate(-11.61)"/>
        <rect class="cls-11" x="174.14" y="149.31" width="59.15" height="2.39" transform="translate(-26.12 44.08) rotate(-11.61)"/>
        <rect class="cls-11" x="175.36" y="155.22" width="59.15" height="2.39" transform="translate(-27.29 44.44) rotate(-11.61)"/>
        <rect class="cls-11" x="176.58" y="161.14" width="59.15" height="2.39" transform="translate(-28.45 44.81) rotate(-11.61)"/>
        <rect class="cls-11" x="177.8" y="167.06" width="59.15" height="2.39" transform="translate(-29.62 45.18) rotate(-11.61)"/>
        <path class="cls-12" d="m390.43,104.38l-79.67,5.8c-9.07-34.49.63-68.98-6.42-103.47L383.99.9c9.08,34.49-.63,68.98,6.43,103.47Z"/>
        <path class="cls-11" d="m390.39,104.28l-79.55,6.01h-.24c-.02-.06-.04-.13-.05-.19-9.1-34.39.56-68.79-6.52-103.18,0-.1-.04-.21-.07-.31h-.98L385.23.72h-1.1c.02.07.04.15.06.22,8.99,34.42-.8,68.88,6.2,103.35Zm.03.09c-7.16-34.48,2.51-68.97-6.64-103.45l.28.2-79.67,5.9.24-.34c7.04,34.53-2.72,68.99,6.28,103.49l-.24-.18,79.76-5.61Z"/>
        <path class="cls-11" d="m313.95,21.48l44.73-3.22c.1.88.19,1.77.26,2.66l-44.79,3.23c-.06-.89-.13-1.78-.21-2.66Z"/>
        <path class="cls-11" d="m314.4,28.19l44.87-3.23c.05.88.1,1.77.15,2.66l-44.91,3.23c-.03-.89-.07-1.77-.11-2.66Z"/>
        <path class="cls-11" d="m314.6,34.9l44.98-3.23c0,.89.04,1.77.06,2.66l-45.01,3.24c0-.9-.01-1.78-.03-2.67Z"/>
        <path class="cls-11" d="m314.89,41.6l66-4.72v2.66l-66.04,4.72c.03-.89.04-1.77.04-2.66Z"/>
        <path class="cls-11" d="m314.81,48.31l66.08-4.72-.04,2.66-66.1,4.73.06-2.66Z"/>
        <path class="cls-11" d="m314.38,55.02l66.12-4.73c0,.89-.04,1.77-.06,2.66l-66.13,4.71c.03-.87.06-1.75.08-2.64Z"/>
        <path class="cls-11" d="m314.23,61.72l66.11-4.7c0,.89-.04,1.78-.06,2.66l-66.1,4.72c.02-.92.03-1.8.05-2.69Z"/>
        <path class="cls-11" d="m314.13,68.43l66.1-4.72c0,.89-.03,1.77-.04,2.66l-66.04,4.72c-.03-.87-.03-1.77-.01-2.66Z"/>
        <path class="cls-11" d="m313.73,75.13l65.98-4.72v2.66l-65.92,4.73c-.04-.89-.05-1.77-.06-2.66Z"/>
        <path class="cls-11" d="m314.31,81.85l65.86-4.73c0,.89.04,1.77.07,2.66l-65.8,4.72c-.05-.88-.09-1.77-.13-2.66Z"/>
        <path class="cls-11" d="m314.72,88.55l65.69-4.73c.04.89.1,1.78.16,2.66l-65.63,4.72c-.08-.9-.15-1.77-.22-2.66Z"/>
        <path class="cls-11" d="m315.41,95.25l65.49-4.72c.08.89.17,1.77.27,2.66l-65.39,4.73c-.13-.89-.25-1.78-.36-2.66Z"/>
        <path class="cls-2" d="m379.1,141.3c-27.47-4.66-54.63-9.31-81.48-13.96,3.51-34.08,20.71-68.14,19.83-102.2,27.47,4.66,54.63,9.32,81.48,13.97-3.48,34.06-20.71,68.13-19.83,102.18Z"/>
        <path class="cls-1" d="m379.1,141.3c-27.47-4.66-54.63-9.31-81.48-13.96,3.51-34.08,20.71-68.14,19.83-102.2,27.47,4.66,54.63,9.32,81.48,13.97-3.48,34.06-20.71,68.13-19.83,102.18Z"/>
        <path class="cls-11" d="m324.2,41.56c14.89,2.59,29.71,5.18,44.47,7.77-.15.88-.31,1.75-.47,2.62-14.72-2.59-29.5-5.18-44.34-7.77.13-.87.24-1.75.35-2.62Z"/>
        <path class="cls-11" d="m323.25,48.18c14.77,2.59,29.49,5.18,44.15,7.77-.19.88-.38,1.75-.57,2.62-14.63-2.59-29.31-5.18-44.04-7.77.16-.87.31-1.75.46-2.62Z"/>
        <path class="cls-11" d="m322.02,54.81l43.9,7.77c-.21.87-.42,1.75-.63,2.62-14.56-2.59-29.17-5.19-43.81-7.77.18-.87.36-1.75.54-2.62Z"/>
        <path class="cls-11" d="m320.59,61.42c21.4,3.8,42.72,7.6,63.97,11.39-.23.87-.47,1.75-.71,2.62-21.25-3.79-42.55-7.59-63.89-11.38.19-.87.4-1.75.63-2.63Z"/>
        <path class="cls-11" d="m318.94,68.05c21.31,3.8,42.58,7.6,63.8,11.39-.24.87-.48,1.75-.72,2.62l-63.76-11.39c.23-.87.45-1.72.68-2.62Z"/>
        <path class="cls-11" d="m317.19,74.68l63.72,11.39c-.24.87-.48,1.75-.72,2.62l-63.7-11.39c.24-.87.48-1.75.71-2.62Z"/>
        <path class="cls-11" d="m315.38,81.3l63.72,11.39c-.24.87-.47,1.75-.7,2.62-21.28-3.79-42.53-7.59-63.75-11.38.24-.87.48-1.75.73-2.62Z"/>
        <path class="cls-11" d="m313.56,87.92c21.24,3.79,42.51,7.59,63.82,11.38-.22.88-.44,1.75-.63,2.62-21.35-3.79-42.64-7.59-63.88-11.38.19-.87.45-1.75.7-2.62Z"/>
        <path class="cls-11" d="m311.8,94.55c21.27,3.79,42.6,7.59,64,11.38-.2.88-.4,1.75-.59,2.62-21.45-3.79-42.81-7.59-64.1-11.38.19-.88.43-1.75.69-2.62Z"/>
        <path class="cls-11" d="m310.07,101.17c21.35,3.79,42.77,7.59,64.27,11.38-.18.88-.34,1.75-.5,2.62-21.58-3.79-43.05-7.59-64.41-11.38.21-.88.42-1.75.64-2.62Z"/>
        <path class="cls-11" d="m308.5,107.79c21.44,3.8,42.99,7.6,64.66,11.39-.14.87-.28,1.75-.4,2.62-21.75-3.79-43.36-7.59-64.83-11.41.18-.85.37-1.73.57-2.61Z"/>
        <path class="cls-11" d="m307.13,114.41c21.57,3.8,43.27,7.59,65.1,11.39-.1.87-.19,1.75-.27,2.62-21.93-3.8-43.69-7.6-65.29-11.39.14-.87.3-1.75.46-2.62Z"/>
      </g>
      <g id="freepik--Folder--inject-64">
        <rect class="cls-2" x="205.34" y="126.79" width="141.39" height="102.51"/>
        <polygon class="cls-2" points="255.24 116.18 205.34 116.18 205.34 126.79 258.1 126.79 255.24 116.18"/>
        <g class="cls-16">
          <rect class="cls-3" x="205.34" y="126.79" width="141.39" height="102.51"/>
          <polygon class="cls-3" points="255.24 116.18 205.34 116.18 205.34 126.79 258.1 126.79 255.24 116.18"/>
        </g>
        <path class="cls-12" d="m344.9,191.21c-27.49-7.87-54.37-15.64-80.83-23.34,6.65-31.11,25.3-61.58,26.57-93.15,27.47,7.41,54.32,14.83,80.8,22.27-6.77,31.6-25.39,62.36-26.54,94.21Z"/>
        <path class="cls-11" d="m344.75,191.21c-27.49-7.8-54.39-15.53-80.87-23.16l-.19-.06.04-.18c6.63-31.11,25.24-61.6,26.44-93.18v-.29l.32.09c27.48,7.43,54.35,14.89,80.8,22.36l.22.06c0,.06,0,.13-.04.2-6.82,31.59-25.49,62.35-26.71,94.14Zm.15,0c1.07-31.85,19.63-62.61,26.29-94.27.06.09.11.18.18.26-26.44-7.41-53.29-14.81-80.74-22.19l.33-.2c-1.34,31.56-20.01,62.02-26.7,93.11l-.15-.23c26.44,7.75,53.34,15.59,80.79,23.51Z"/>
        <path class="cls-14" d="m340.55,133.41c-4.09,10.92-16.47,17-28.03,13.59-11.56-3.42-17.62-14.95-13.63-25.8,3.99-10.85,15.91-17.03,27.62-13.69,11.71,3.35,18.17,14.98,14.04,25.9Z"/>
        <path class="cls-11" d="m319.73,127.29c-4.74,5.41-9.54,10.81-14.21,16.21-6.95-5.12-9.65-14.22-6.63-22.31,3.93-10.8,15.98-17.01,27.62-13.69,11.64,3.33,18.16,15.07,14.05,25.9-6.94-2.05-13.89-4.09-20.83-6.12Z"/>
        <path class="cls-11" d="m319.73,127.29c4.13,5.56,8.22,11.11,12.39,16.69-5.77,3.86-12.95,4.97-19.61,3.02-11.54-3.38-17.58-15.02-13.63-25.8,3.95-10.79,15.98-17.01,27.62-13.69,11.64,3.33,18.16,15.07,14.05,25.9-6.94-2.05-13.89-4.09-20.83-6.12Z"/>
        <path class="cls-2" d="m319.73,127.29l-21.84,3.64c-.48-3.28-.14-6.63,1-9.74,3.93-10.8,15.98-17.01,27.62-13.69,11.64,3.33,18.16,15.07,14.05,25.9-6.94-2.05-13.89-4.09-20.83-6.12Z"/>
        <path class="cls-11" d="m296.86,88.42c11.16,3.1,22.24,6.2,33.24,9.31-.19.81-.39,1.61-.6,2.42-10.97-3.11-22-6.22-33.1-9.32.16-.8.33-1.61.45-2.41Z"/>
        <path class="cls-11" d="m294.34,150.61c14.7,4.34,29.49,8.69,44.35,13.06-.22.8-.44,1.61-.63,2.41-14.93-4.38-29.76-8.74-44.49-13.08.24-.8.5-1.59.77-2.39Z"/>
        <path class="cls-11" d="m292.42,156.64c14.8,4.35,29.7,8.73,44.71,13.12-.19.8-.37,1.61-.55,2.42-15.07-4.41-30.02-8.79-44.87-13.15.23-.8.46-1.59.71-2.39Z"/>
        <path class="cls-11" d="m290.7,162.68c14.92,4.37,29.96,8.77,45.14,13.18-.15.8-.3,1.61-.43,2.42-15.26-4.43-30.37-8.84-45.33-13.22.2-.79.41-1.59.62-2.39Z"/>
        <path class="cls-2" d="m285.64,150.67l-5.35-1.57.81-2.39,5.34,1.58c-.27.79-.54,1.59-.8,2.38Z"/>
        <path class="cls-14" d="m283.74,156.7l-5.39-1.58c.24-.79.5-1.59.75-2.39l5.37,1.58c-.25.79-.5,1.59-.73,2.39Z"/>
        <path class="cls-11" d="m282.05,162.73l-5.41-1.59c.21-.8.43-1.59.66-2.39l5.41,1.58c-.24.8-.46,1.59-.67,2.39Z"/>
        <polygon class="cls-2" points="345.07 229.29 205.04 229.29 194.24 136.21 334.27 136.21 345.07 229.29"/>
        <polygon class="cls-2" points="241.82 126.79 193.44 126.79 194.53 136.21 245.69 136.21 241.82 126.79"/>
        <path class="cls-8" d="m290.11,64.16c-.22-.82-.33-1.66-.31-2.51-.02-.85.09-1.69.31-2.51.42,1.65.42,3.37,0,5.02Z"/>
        <path class="cls-8" d="m285,65.64c-.6-.6-1.11-1.28-1.53-2.02-.43-.73-.76-1.51-.98-2.33.6.6,1.11,1.28,1.53,2.02.43.73.76,1.51.98,2.33Z"/>
        <path class="cls-8" d="m281.33,69.47c-.82-.22-1.6-.55-2.33-.98-.74-.41-1.42-.92-2.02-1.53.82.22,1.6.55,2.33.98.74.42,1.42.93,2.02,1.53Z"/>
        <path class="cls-8" d="m280.05,74.61c-1.65.42-3.37.42-5.02,0,1.65-.41,3.37-.41,5.02,0Z"/>
        <path class="cls-8" d="m281.92,79.74c-.6.6-1.28,1.11-2.02,1.53-.73.43-1.51.76-2.33.98,1.21-1.19,2.71-2.05,4.34-2.51h0Z"/>
        <path class="cls-8" d="m285.36,83.4c-.22.82-.55,1.6-.98,2.33-.41.74-.93,1.41-1.53,2.01.22-.82.55-1.6.98-2.32.41-.74.93-1.42,1.53-2.02Z"/>
        <path class="cls-8" d="m290.52,84.7c.42,1.65.42,3.37,0,5.02-.42-1.65-.42-3.37,0-5.02Z"/>
        <path class="cls-8" d="m295.63,83.21c.6.6,1.11,1.28,1.53,2.02.43.73.76,1.51.98,2.33-.6-.6-1.12-1.27-1.53-2.02-.43-.73-.76-1.51-.98-2.33Z"/>
        <path class="cls-8" d="m299.31,79.38c.82.22,1.6.55,2.32.98.74.41,1.41.93,2,1.53-1.63-.46-3.13-1.32-4.34-2.51h.01Z"/>
        <path class="cls-8" d="m300.58,74.22c.82-.22,1.66-.32,2.51-.31.85-.02,1.69.09,2.51.31-.82.23-1.66.33-2.51.31-.85,0-1.69-.1-2.51-.31Z"/>
        <path class="cls-8" d="m299.1,69.12c.6-.6,1.28-1.11,2.02-1.53.72-.44,1.51-.77,2.33-.99-.6.6-1.27,1.12-2.02,1.53-.73.43-1.51.77-2.33.99Z"/>
        <path class="cls-8" d="m295.27,65.43c.22-.82.55-1.6.98-2.33.41-.74.92-1.42,1.53-2.02-.22.82-.55,1.6-.98,2.33-.41.74-.93,1.42-1.53,2.02Z"/>
      </g>
      <g id="freepik--Note--inject-64">
        <path class="cls-14" d="m293.3,178.63h31.81c.93-1.99,1.47-4.14,1.58-6.34v-25.48h-31.81v25.83c0,2.56-1.58,5.98-1.58,5.98Z"/>
        <path class="cls-7" d="m298.23,153.78c3.77-.31,7.59-.38,11.38-.4,3.79-.02,7.59.09,11.38.4-3.77.31-7.59.38-11.38.4-3.79.01-7.59-.09-11.38-.4Z"/>
        <path class="cls-7" d="m298.23,158.03c3.42-.31,6.82-.38,10.24-.4,3.42-.02,6.82.09,10.23.4-3.41.31-6.82.38-10.23.4-3.41.02-6.82-.09-10.24-.4Z"/>
        <path class="cls-7" d="m298.23,162.29c2.98-.31,5.97-.38,8.95-.4,2.99-.02,5.98.12,8.96.4-2.99.31-5.97.38-8.96.4-2.99.01-5.97-.09-8.95-.4Z"/>
        <path class="cls-7" d="m298.23,166.54c3.77-.31,7.59-.38,11.38-.4,3.79-.02,7.59.09,11.38.4-3.77.31-7.59.38-11.38.4-3.79.02-7.59-.09-11.38-.4Z"/>
      </g>
    </g>
  </g>
</svg>