<?xml version="1.0" encoding="UTF-8"?>
<svg id="Layer_1" data-name="Layer 1" xmlns="http://www.w3.org/2000/svg" xmlns:xlink="http://www.w3.org/1999/xlink" viewBox="0 0 512 263">
  <defs>
    <style>
      .cls-1 {
        opacity: .8;
      }

      .cls-1, .cls-2, .cls-3, .cls-4, .cls-5, .cls-6, .cls-7, .cls-8, .cls-9, .cls-10, .cls-11, .cls-12, .cls-13, .cls-14, .cls-15, .cls-16, .cls-17, .cls-18, .cls-19, .cls-20, .cls-21, .cls-22, .cls-23, .cls-24, .cls-25, .cls-26, .cls-27, .cls-28, .cls-29, .cls-30 {
        stroke-width: 0px;
      }

      .cls-1, .cls-3, .cls-4, .cls-10, .cls-11, .cls-12, .cls-17, .cls-20, .cls-22, .cls-24, .cls-25, .cls-28 {
        isolation: isolate;
      }

      .cls-1, .cls-12, .cls-15, .cls-20, .cls-22, .cls-25, .cls-28 {
        fill: #fff;
      }

      .cls-2 {
        fill: #ff7549;
      }

      .cls-3, .cls-25, .cls-31 {
        opacity: .4;
      }

      .cls-32, .cls-11, .cls-12 {
        opacity: .5;
      }

      .cls-33, .cls-17, .cls-22 {
        opacity: .2;
      }

      .cls-4, .cls-21 {
        fill: #263238;
      }

      .cls-4, .cls-24, .cls-28 {
        opacity: .1;
      }

      .cls-6 {
        fill: #e0e0e0;
      }

      .cls-7 {
        fill: #f5f5f5;
      }

      .cls-8 {
        fill: #f0f0f0;
      }

      .cls-9 {
        fill: none;
      }

      .cls-10, .cls-20 {
        opacity: .3;
      }

      .cls-13 {
        fill: #a02724;
      }

      .cls-14 {
        fill: #ebb376;
      }

      .cls-16 {
        fill: #2e353a;
      }

      .cls-18 {
        fill: #7f3e3b;
      }

      .cls-19 {
        fill: #fafafa;
      }

      .cls-34 {
        clip-path: url(#clippath);
      }

      .cls-23 {
        fill: #ba4d3c;
      }

      .cls-26 {
        fill: #ebebeb;
      }

      .cls-27 {
        fill: #ce7a63;
      }

      .cls-29 {
        fill: #b55b52;
      }

      .cls-30 {
        fill: #630f0f;
      }
    </style>
    <clipPath id="clippath">
      <rect class="cls-9" y=".72" width="512" height="261.57" rx="42.76" ry="42.76"/>
    </clipPath>
  </defs>
  <g class="cls-34">
    <g>
      <g id="freepik--background-complete--inject-33">
        <rect class="cls-26" x="390.32" y="234.01" width="25.92" height="1.18"/>
        <rect class="cls-26" x="317.27" y="236.36" width="7.07" height="1.18"/>
        <rect class="cls-26" x="375" y="226.94" width="15.32" height="1.18"/>
        <rect class="cls-26" x="111.08" y="228.12" width="32.99" height="1.18"/>
        <rect class="cls-26" x="151.14" y="228.12" width="4.71" height="1.18"/>
        <rect class="cls-26" x="171.17" y="231.65" width="71.87" height="1.18"/>
        <rect class="cls-8" x="358.51" y="144.46" width="36.53" height="69.52"/>
        <rect class="cls-19" x="360.86" y="150.35" width="5.89" height="5.89"/>
        <rect class="cls-19" x="386.78" y="159.78" width="5.89" height="5.89"/>
        <rect class="cls-19" x="369.11" y="159.78" width="5.89" height="5.89"/>
        <rect class="cls-19" x="360.86" y="159.78" width="5.89" height="5.89"/>
        <rect class="cls-19" x="377.36" y="169.2" width="5.89" height="5.89"/>
        <rect class="cls-19" x="386.78" y="178.63" width="5.89" height="5.89"/>
        <rect class="cls-19" x="369.11" y="178.63" width="5.89" height="5.89"/>
        <rect class="cls-19" x="360.86" y="178.63" width="5.89" height="5.89"/>
        <rect class="cls-19" x="360.82" y="188.01" width="5.98" height="5.98" transform="translate(-2.7 5.23) rotate(-.82)"/>
        <rect class="cls-19" x="377.36" y="197.48" width="5.89" height="5.89"/>
        <rect class="cls-8" x="272.5" y="164.49" width="25.92" height="49.49"/>
        <rect class="cls-19" x="292.53" y="168.03" width="4.71" height="4.71"/>
        <rect class="cls-19" x="273.67" y="175.09" width="4.71" height="4.71"/>
        <rect class="cls-19" x="285.46" y="175.09" width="4.71" height="4.71"/>
        <rect class="cls-19" x="279.56" y="182.16" width="4.71" height="4.71"/>
        <rect class="cls-19" x="273.67" y="188.06" width="4.71" height="4.71"/>
        <rect class="cls-19" x="285.46" y="188.06" width="4.71" height="4.71"/>
        <rect class="cls-19" x="292.56" y="195.16" width="4.65" height="4.65" transform="translate(93.2 489.51) rotate(-89.18)"/>
        <rect class="cls-19" x="279.56" y="201.02" width="4.71" height="4.71"/>
        <rect class="cls-19" x="285.46" y="201.02" width="4.71" height="4.71"/>
        <polygon class="cls-6" points="312.56 138.89 316.97 137.39 323.37 137.39 325.26 122.22 330.58 110.26 326.92 104.22 330.58 98.18 326.81 88.8 349.08 79.66 349.08 213.98 312.56 213.98 312.56 138.89"/>
        <polygon class="cls-8" points="318.75 137.39 325.26 137.39 327.19 122.22 332.6 110.26 328.88 104.22 332.6 98.18 328.77 87.26 351.44 78.12 351.44 213.98 311.38 213.98 311.38 139.86 318.75 137.39"/>
        <rect class="cls-19" x="342.01" y="102.04" width="5.89" height="5.89"/>
        <rect class="cls-19" x="342.01" y="110.29" width="5.89" height="5.89"/>
        <rect class="cls-19" x="342.01" y="129.14" width="5.89" height="5.89"/>
        <rect class="cls-19" x="333.76" y="137.39" width="5.89" height="5.89"/>
        <rect class="cls-19" x="342.01" y="146.82" width="5.89" height="5.89"/>
        <rect class="cls-19" x="324.34" y="146.82" width="5.89" height="5.89"/>
        <rect class="cls-19" x="316.09" y="146.82" width="5.89" height="5.89"/>
        <rect class="cls-19" x="333.76" y="156.24" width="5.89" height="5.89"/>
        <rect class="cls-19" x="342.01" y="164.49" width="5.89" height="5.89"/>
        <rect class="cls-19" x="333.76" y="164.49" width="5.89" height="5.89"/>
        <rect class="cls-19" x="316.09" y="164.49" width="5.89" height="5.89"/>
        <rect class="cls-19" x="341.97" y="173.87" width="5.98" height="5.98" transform="translate(-2.5 4.95) rotate(-.82)"/>
        <rect class="cls-19" x="324.29" y="173.87" width="5.98" height="5.98" transform="translate(-2.5 4.7) rotate(-.82)"/>
        <rect class="cls-19" x="316.05" y="173.87" width="5.98" height="5.98" transform="translate(-2.5 4.58) rotate(-.82)"/>
        <rect class="cls-19" x="333.76" y="183.34" width="5.89" height="5.89"/>
        <polygon class="cls-6" points="125.22 142.91 136.18 138.92 147.8 140.62 161.33 122.83 158.15 110.22 162.64 102.09 157.61 91.44 186.48 91.44 186.48 215.16 125.22 215.16 125.22 142.91"/>
        <polygon class="cls-8" points="127.54 143.65 140.63 138.92 152.3 140.62 165.91 122.83 162.72 110.22 167.22 102.09 162.17 91.44 191.2 91.44 191.2 215.16 125.22 215.16 125.22 142.96 127.54 143.65"/>
        <rect class="cls-19" x="175.88" y="119.72" width="10.6" height="10.6"/>
        <rect class="cls-19" x="160.56" y="136.21" width="10.6" height="10.6"/>
        <rect class="cls-19" x="175.88" y="152.71" width="10.6" height="10.6"/>
        <rect class="cls-19" x="145.25" y="152.71" width="10.6" height="10.6"/>
        <rect class="cls-19" x="129.93" y="152.71" width="10.6" height="10.6"/>
        <rect class="cls-19" x="129.85" y="169.13" width="10.76" height="10.76" transform="translate(-2.48 1.95) rotate(-.82)"/>
        <rect class="cls-19" x="160.56" y="185.7" width="10.6" height="10.6"/>
        <rect class="cls-19" x="145.25" y="185.7" width="10.6" height="10.6"/>
        <path class="cls-6" d="m153.64,222.22h-40.46l-.89-5.03c-.47-2.64,2.56-5,6.57-5.1l29.04-.77c4.33-.12,7.75,2.44,7.07,5.28l-1.34,5.63Z"/>
        <path class="cls-6" d="m222.38,222.22h-43.92l-.69-4.15c-.58-3.49,3.58-6.52,8.86-6.45l28.49.34c5.58.06,9.64,3.53,8.36,7.13l-1.1,3.12Z"/>
        <path class="cls-7" d="m182.25,222.22h-31.31l-.66-4.01c-.37-2.28,2.34-4.26,5.8-4.23l21.5.2c3.53.04,6.17,2.15,5.59,4.46l-.92,3.59Z"/>
        <path class="cls-7" d="m247.06,222.22h-32.73l-.55-4.22c-.46-3.58,3.97-6.59,9.38-6.37l16.41.68c5.18.22,8.98,3.33,8.21,6.74l-.71,3.17Z"/>
        <path class="cls-6" d="m410.92,222.22h-40.47l-.89-5.03c-.47-2.64,2.56-5,6.57-5.1l29.04-.77c4.33-.12,7.75,2.44,7.07,5.28l-1.33,5.63Z"/>
        <path class="cls-6" d="m312.32,222.22h40.46l.89-5.03c.47-2.64-2.56-5-6.57-5.1l-29.04-.77c-4.34-.12-7.75,2.44-7.07,5.28l1.33,5.63Z"/>
        <path class="cls-6" d="m243.57,222.22h43.91l.7-4.15c.58-3.49-3.58-6.52-8.86-6.45l-28.5.34c-5.58.06-9.63,3.53-8.36,7.13l1.1,3.12Z"/>
        <path class="cls-7" d="m283.73,222.22h31.31l.65-4.01c.37-2.28-2.34-4.26-5.8-4.23l-21.49.2c-3.53.04-6.18,2.15-5.59,4.46l.92,3.59Z"/>
        <path class="cls-7" d="m344.86,222.22h32.74l.55-4.22c.46-3.58-3.98-6.59-9.38-6.37l-16.4.68c-5.18.22-8.98,3.33-8.21,6.74l.71,3.17Z"/>
        <path class="cls-7" d="m377.74,38.17c-1.01,0-2,.32-2.82.92,1.39-3.73-.51-7.87-4.24-9.26-1.92-.72-4.06-.58-5.87.38-1.41-3.78-5.65-5.67-9.42-4.16-2.78,1.11-4.63,3.94-4.51,6.93,0,.24.03.49.06.73-.62-.17-1.25-.26-1.89-.26-4.27,0-7.68,3.72-7.15,8.1.44,3.65,3.74,6.3,7.42,6.3h28.42c2.67-.11,4.75-2.36,4.65-5.03-.1-2.52-2.12-4.54-4.65-4.65h0Z"/>
        <path class="cls-7" d="m169.7,45.5c-1.48,0-2.93.47-4.13,1.34.45-1.17.69-2.4.7-3.65-.03-5.82-4.76-10.51-10.58-10.48-1.71,0-3.39.43-4.89,1.23-1.98-5.45-8-8.26-13.45-6.28-4.68,1.7-7.52,6.45-6.81,11.38-6.27-1.9-12.93,2.33-13.55,9.25-.22,2.48.48,5.01,1.97,7.01,2.17,2.91,5.46,4.41,8.77,4.33h41.95c4.85,0,8.57-4.88,6.48-10.01-1.04-2.56-3.66-4.13-6.43-4.13h-.05s.02.02.02.02Z"/>
        <path class="cls-19" d="m404.52,59.63c-1.48,0-2.93.46-4.13,1.34,2.06-5.42-.66-11.49-6.08-13.55-2.85-1.08-6.03-.88-8.72.57-1.97-5.46-7.98-8.29-13.44-6.32-4.21,1.52-7,5.54-6.94,10.02,0,.47.04.94.11,1.4-6.29-1.59-12.69,2.86-13.07,9.7-.13,2.39.58,4.8,2.03,6.72,2.07,2.74,5.14,4.21,8.28,4.27h42c4.49.15,8.14-3.93,7.13-8.65-.32-1.49-1.14-2.86-2.32-3.82-1.41-1.16-3.12-1.72-4.82-1.66h-.03Z"/>
        <path class="cls-8" d="m184.13,28.85c-.88,0-1.74.26-2.45.77,1.22-3.22-.4-6.83-3.62-8.05-.71-.27-1.47-.41-2.23-.41-1.03,0-2.04.27-2.94.77-1.32-3.56-5.54-5.19-8.99-3.23-1.74.99-3.18,3.56-3.11,5.55,0,.24.03.47.06.71-.53-.14-1.08-.22-1.64-.22-3.45-.12-6.35,2.58-6.47,6.03-.12,3.45,2.58,6.35,6.03,6.47.15,0,.29,0,.44,0h24.92c2.32.1,4.28-1.7,4.38-4.02.1-2.32-1.7-4.28-4.02-4.38-.12,0-.24,0-.36,0h0Z"/>
      </g>
      <g id="freepik--Shadow--inject-33">
        <ellipse id="freepik--path--inject-33" class="cls-7" cx="258.58" cy="245.71" rx="149.02" ry="8.7"/>
      </g>
      <g id="freepik--character-3--inject-33">
        <path class="cls-21" d="m324.32,190.41h-9c-2.49,0-4.95-.97-6.56-2.87s-2.31-4.45-1.95-6.8l2.68-17.48c.68-4.42,4.7-7.53,9.15-7.07l5.7.58-.02,33.64Z"/>
        <path class="cls-12" d="m324.32,190.41h-9c-2.49,0-4.95-.97-6.56-2.87s-2.31-4.45-1.95-6.8l2.68-17.48c.68-4.42,4.7-7.53,9.15-7.07l5.7.58-.02,33.64Z"/>
        <path class="cls-2" d="m307.08,184.46c1.07,3.54,4.33,5.96,8.03,5.96h9.22v-10.41c-6.04-.05-11.99,1.49-17.25,4.45Z"/>
        <path class="cls-10" d="m307.08,184.46c1.07,3.54,4.33,5.96,8.03,5.96h9.22v-10.41c-6.04-.05-11.99,1.49-17.25,4.45Z"/>
        <path class="cls-2" d="m306.91,173.92s-3.51,7.59-1.54,9.22c1.98,1.64,7.24.82,7.69,0s0-9.22,0-9.22h-6.15Z"/>
        <path class="cls-11" d="m313.01,173.92h-.12c-.85,1.84-2.31,5.52-1.92,7.94.32,1.84,1.28,1.64,2.09,1.11.36-1.37-.05-9.05-.05-9.05Z"/>
        <path class="cls-2" d="m307.11,173.92h6.11s-.28,2.44-3.68,2.46c-4.77,0-2.43-2.46-2.43-2.46Z"/>
        <path class="cls-20" d="m307.11,173.92h6.11s-.28,2.44-3.68,2.46c-4.77,0-2.43-2.46-2.43-2.46Z"/>
        <path class="cls-2" d="m309.53,175.15c-.08.31-.35.53-.66.54-.23,0-.43-.17-.44-.41,0-.04,0-.09.02-.13.07-.31.34-.53.65-.55.24,0,.44.18.45.41,0,.04,0,.09-.02.13Z"/>
        <path class="cls-27" d="m353.74,240.89c-3.3.77-6.55-1.54-6.87-1.43l-1.38-8.91-5.15.64s2.06,7.27,2.37,9.77c.12,1.07,0,4.3,0,4.3.04.34.35.58.68.54,0,0,0,0,0,0h.13c1.54-.59,2.91-1.18,4.87-1.88,2.31-.82,1.81-.34,4.53-1.28,1.58-.58,1.51-1.91.81-1.75Z"/>
        <path class="cls-21" d="m354.51,241.73l-4.7,1.61c.39-1.07,1.23-1.92,2.31-2.31.37-.15.13-.72-.25-.58-1.4.5-2.44,1.69-2.74,3.14l-2.81.96c.51-1.83,1.88-3.3,3.67-3.94.38-.12.14-.69-.24-.58-2.11.77-3.67,2.57-4.14,4.77l-2.67.91c-.51.18-.18.94.32.77l11.59-3.97c.45-.18.15-.95-.32-.79Z"/>
        <path class="cls-21" d="m341.01,184.2l6.09,51.72-5.82,1.41-12.25-44.27s-6.63-3.77-6.52-10.15l18.49,1.28Z"/>
        <path class="cls-11" d="m329.03,193.07l1.87,6.74c1.4-8.17.37-12.43.37-12.43l-4.2,4.27c.61.52,1.27,1,1.96,1.41Z"/>
        <polygon class="cls-21" points="347.4 234.12 347.7 236.74 341.01 238.43 340.23 236.02 347.4 234.12"/>
        <path class="cls-27" d="m320.95,244.06c-3.34-.59-5.45-3.94-5.8-3.96l2.17-8.75-5-1.4s-.9,7.51-1.58,9.93c-.29,1.03-1.64,3.97-1.64,3.97-.09.33.09.67.42.77h.13c1.67.05,3.14.04,5.21.15,2.44.12,1.81.38,4.68.57,1.72.12,2.14-1.13,1.41-1.27Z"/>
        <path class="cls-21" d="m321.29,245.66l-4.96-.33c.76-.85,1.88-1.32,3.02-1.25.17,0,.32-.14.32-.32s-.14-.32-.32-.32h0c-1.48-.08-2.9.61-3.74,1.84l-2.97-.2c1.17-1.5,3-2.33,4.9-2.22.4.04.39-.58,0-.62-2.24-.24-4.36,1.08-5.66,2.8l-2.82-.19c-.54,0-.53.77,0,.84l12.22.77c.54.08.54-.76,0-.79Z"/>
        <path class="cls-21" d="m332.32,183.63c-.48,3.53-1.15,7.04-2.01,10.5-2.87,11.53-13.96,43.22-13.96,43.22l-5.66-.87s2.12-16.24,3.84-23.06c.14-.56.23-1.14.26-1.72.15-2.81.65-11.57,1.41-16.91.21-1.47.13-2.98-.24-4.42-.75-2.64-.89-5.42-.41-8.12l16.75,1.38Z"/>
        <polygon class="cls-21" points="310.09 234.84 317.33 236 316.6 238.2 310.03 237.16 310.09 234.84"/>
        <polygon class="cls-27" points="351.35 172.46 355.65 178.3 359.3 179.98 360.04 181.83 356.25 184.49 354.23 183.67 353.39 180.44 348.28 174.6 351.35 172.46"/>
        <path class="cls-2" d="m339.5,149.28c.12-.21.38-.28.59-.16.04.02.07.05.1.08.81.9,2.77,3.46,4.17,8.25,2.17,7.49,10.13,18.56,10.13,18.56l-3.46,2.66c-3.65-3.76-6.71-8.05-9.1-12.72-3.1-6.22-4.21-13.67-2.44-16.68Z"/>
        <path class="cls-14" d="m354.44,204.77s-5.45,6.5-3.72,8.55c1.73,2.04,5.7-7.5,5.7-7.5l-1.98-1.05Z"/>
        <path class="cls-24" d="m353.2,206.38c.31.4.73.7,1.21.86.45.15.84.28,1.18.42.5-1.06.82-1.84.82-1.84l-1.98-1.05s-.55.68-1.24,1.61Z"/>
        <path class="cls-14" d="m360.29,207.75l2.71.16s3.13,8.29.65,8.39-3.35-8.55-3.35-8.55Z"/>
        <path class="cls-27" d="m363.95,210.91c-.58.36-1.06.85-1.41,1.44.5-.31,1.03-.57,1.58-.77-.05-.23-.11-.45-.17-.67Z"/>
        <path class="cls-24" d="m362.96,207.94l-2.71-.16s.07.68.22,1.65c.97.34,2.03.34,3,0-.25-.91-.51-1.49-.51-1.49Z"/>
        <path class="cls-14" d="m358.35,195.5s-6.59-13.22-2.08-14.98,3.77,15.03,3.77,15.03l-1.68-.05Z"/>
        <path class="cls-24" d="m358.35,195.5l1.68.05c.11-2.91.02-5.83-.25-8.73-.88,1-2.01,2.94-1.8,6.21l-.53.54c.51,1.17.89,1.93.89,1.93Z"/>
        <path class="cls-14" d="m363.91,198.09s11.01,9.59,8.41,11.29c-2.61,1.7-9.44-9.22-9.44-9.22l1.03-2.07Z"/>
        <path class="cls-21" d="m369.29,203.74l-.37-.32c.14-.03.28-.05.42-.06.23,0,.23-.38,0-.37-.26.02-.52.07-.77.14l-.46-.4c-.18-.16-.44.1-.26.26l.32.27c-.21.08-.42.18-.61.3l-.46-.38c-.18-.15-.44.11-.26.26l.41.34c-.18.13-.35.27-.51.42l-.37-.48c-.14-.18-.46,0-.32.18l.44.58c-.13.14-.25.29-.35.45-.13.19.18.38.32.18.08-.12.16-.23.25-.34l.15.21c.14.18.46,0,.32-.19l-.22-.28c.17-.18.36-.34.56-.48l.32.26c.18.15.44-.11.25-.26l-.24-.2c.2-.11.41-.21.62-.28l.54.47c.19.16.45-.09.28-.26Z"/>
        <path class="cls-20" d="m369.29,203.74l-.37-.32c.14-.03.28-.05.42-.06.23,0,.23-.38,0-.37-.26.02-.52.07-.77.14l-.46-.4c-.18-.16-.44.1-.26.26l.32.27c-.21.08-.42.18-.61.3l-.46-.38c-.18-.15-.44.11-.26.26l.41.34c-.18.13-.35.27-.51.42l-.37-.48c-.14-.18-.46,0-.32.18l.44.58c-.13.14-.25.29-.35.45-.13.19.18.38.32.18.08-.12.16-.23.25-.34l.15.21c.14.18.46,0,.32-.19l-.22-.28c.17-.18.36-.34.56-.48l.32.26c.18.15.44-.11.25-.26l-.24-.2c.2-.11.41-.21.62-.28l.54.47c.19.16.45-.09.28-.26Z"/>
        <path class="cls-24" d="m365.41,199.45c-.89-.82-1.5-1.35-1.5-1.35l-1.03,2.07s.77,1.28,1.94,2.88c.06-1.22.26-2.42.58-3.6Z"/>
        <path class="cls-14" d="m359.25,193.92c-2.11,1.79-6.45,6.15-5.75,10.98.12.71.62,1.3,1.31,1.54l6.43,2.25c1.03.37,2.17-.17,2.53-1.21.09-.24.12-.5.11-.75-.12-2.71-.04-6.67,1.1-9.08.42-.93.04-2.03-.86-2.51l-2.61-1.47c-.73-.4-1.63-.3-2.26.25Z"/>
        <polygon class="cls-21" points="357.11 199.19 358.96 198.55 362.01 203.52 360.04 204.52 357.11 199.19"/>
        <polygon class="cls-1" points="357.11 199.19 358.96 198.55 362.01 203.52 360.04 204.52 357.11 199.19"/>
        <path class="cls-21" d="m354.2,210.06c-.13-.14-.27-.27-.42-.38l.16-.32c.11-.22-.21-.4-.32-.18-.05.09-.1.19-.15.28-.15-.09-.31-.17-.48-.25.07-.12.13-.25.19-.37s-.22-.39-.32-.18l-.21.42c-.21-.06-.43-.11-.65-.14.08-.15.15-.31.24-.46s-.22-.4-.32-.18l-.31.61c-.23-.02-.46-.02-.68,0-.24,0-.23.39,0,.37h.5v.07c-.11.22.22.4.32.18.04-.08.08-.15.12-.23.22.02.44.07.65.13l-.15.28c-.11.21.22.39.32.18s.11-.23.17-.35c.16.07.32.15.47.25l-.21.42c-.11.22.21.4.32.18s.13-.25.19-.38c.12.1.23.2.34.32.12.17.38-.09.22-.27Z"/>
        <path class="cls-20" d="m354.2,210.06c-.13-.14-.27-.27-.42-.38l.16-.32c.11-.22-.21-.4-.32-.18-.05.09-.1.19-.15.28-.15-.09-.31-.17-.48-.25.07-.12.13-.25.19-.37s-.22-.39-.32-.18l-.21.42c-.21-.06-.43-.11-.65-.14.08-.15.15-.31.24-.46s-.22-.4-.32-.18l-.31.61c-.23-.02-.46-.02-.68,0-.24,0-.23.39,0,.37h.5v.07c-.11.22.22.4.32.18.04-.08.08-.15.12-.23.22.02.44.07.65.13l-.15.28c-.11.21.22.39.32.18s.11-.23.17-.35c.16.07.32.15.47.25l-.21.42c-.11.22.21.4.32.18s.13-.25.19-.38c.12.1.23.2.34.32.12.17.38-.09.22-.27Z"/>
        <path class="cls-14" d="m353.79,200.72v-1.99s.77,1.81,1.11,1.59c0,0-.49.81,0,1.11,0,0,.1,1.01.9,1.15.14.48.44.9.85,1.18,0,0-1.87-.17-1.87.08,0,0-.77-.87-1.05-.62,0,0-.86-.96-1.29-.77l1.21-.6.12-1.13Z"/>
        <path class="cls-17" d="m353.79,200.72v-1.99s.77,1.81,1.11,1.59c0,0-.49.81,0,1.11,0,0,.1,1.01.9,1.15.14.48.44.9.85,1.18,0,0-1.87-.17-1.87.08,0,0-.77-.87-1.05-.62,0,0-.86-.96-1.29-.77l1.21-.6.12-1.13Z"/>
        <path class="cls-14" d="m368.56,192.45s6.6-2.78,7.2-.77-5.76,2.9-5.76,2.9l-1.44-2.13Z"/>
        <path class="cls-24" d="m372.44,191.18c-1.32.33-2.62.75-3.88,1.27l1.44,2.09c.96-.16,1.91-.37,2.85-.64.03-.92-.11-1.85-.41-2.72Z"/>
        <path class="cls-14" d="m362.96,188.22s3-6.1,4.66-5.06c1.66,1.04-2.31,5.66-2.31,5.66l-2.35-.6Z"/>
        <path class="cls-24" d="m367.28,186.06c-.9-.29-1.83-.45-2.77-.49-.56.85-1.07,1.74-1.54,2.65l2.31.6c.74-.86,1.41-1.79,2.01-2.76Z"/>
        <path class="cls-14" d="m370.77,196.05c-1.72,2.64-5.54,3.18-8.53,1.23s-4.02-5.67-2.31-8.3c1.71-2.63,5.54-3.18,8.53-1.23s4.02,5.67,2.31,8.3Z"/>
        <path class="cls-2" d="m364.42,190.45c-.24.71-1.01,1.1-1.72.86-.64-.21-1.03-.87-.91-1.54.14-.74.85-1.23,1.58-1.09.74.14,1.23.85,1.09,1.58-.01.06-.03.12-.05.18Z"/>
        <path class="cls-17" d="m364.42,190.45c-.24.71-1.01,1.1-1.72.86-.64-.21-1.03-.87-.91-1.54.14-.74.85-1.23,1.58-1.09.74.14,1.23.85,1.09,1.58-.01.06-.03.12-.05.18Z"/>
        <path class="cls-15" d="m363.22,189.4c-.09-.04-.19,0-.22.09s0,.19.09.22c.02,0,.03.01.05.01.09,0,.18-.06.18-.15,0-.07-.03-.14-.1-.17Z"/>
        <path class="cls-15" d="m362.96,190.47c-.09-.02-.18.03-.21.12,0,0,0,0,0,0,0,.09.06.18.15.18.07,0,.14-.03.17-.1.02-.09-.03-.18-.12-.21Z"/>
        <path class="cls-15" d="m363.61,190.08c-.09-.02-.17.03-.2.12s.03.17.12.2h0c.09.02.17-.03.2-.12.02-.09-.03-.17-.11-.2,0,0,0,0,0,0Z"/>
        <path class="cls-15" d="m362.54,189.8c-.09-.02-.18.03-.2.12-.02.09.03.18.12.2.09.02.18-.03.21-.12.02-.09-.03-.18-.12-.2Z"/>
        <path class="cls-2" d="m368.29,194.1c-.14.74-.85,1.23-1.58,1.09-.74-.14-1.23-.85-1.09-1.58.01-.06.03-.12.05-.18.14-.74.85-1.23,1.58-1.09.74.14,1.23.85,1.09,1.58-.01.06-.03.12-.05.18Z"/>
        <path class="cls-3" d="m368.29,194.1c-.14.74-.85,1.23-1.58,1.09-.74-.14-1.23-.85-1.09-1.58.01-.06.03-.12.05-.18.14-.74.85-1.23,1.58-1.09.74.14,1.23.85,1.09,1.58-.01.06-.03.12-.05.18Z"/>
        <path class="cls-15" d="m367.25,193.05c-.09-.03-.18.03-.21.11-.03.09.03.18.11.21.09.03.18-.03.21-.11,0,0,0,0,0,0,.03-.08-.02-.18-.1-.2,0,0,0,0-.01,0Z"/>
        <path class="cls-15" d="m366.97,194.13c-.09-.02-.17.03-.2.11,0,0,0,0,0,0-.02.09.03.17.12.2.09,0,.18-.06.18-.15,0-.07-.03-.14-.1-.17h0Z"/>
        <path class="cls-15" d="m367.64,193.73c-.09-.02-.18.03-.21.12,0,0,0,0,0,0,0,.09.06.18.15.18.07,0,.14-.03.17-.1.02-.09-.03-.18-.12-.21Z"/>
        <path class="cls-15" d="m366.57,193.45c-.09,0-.18.06-.18.15,0,.07.03.14.1.17.09.04.19,0,.22-.09s0-.19-.09-.22c-.02,0-.03-.01-.05-.01Z"/>
        <path class="cls-2" d="m361.79,192.77l2.12,2.16c.28.28.71-.15.44-.43l-2.15-2.17c-.28-.28-.71.15-.43.44h.02Z"/>
        <path class="cls-24" d="m360.03,195.56l2.83,2.26s-2.32.71-2.83-2.26Z"/>
        <polygon class="cls-4" points="357.84 200.52 359.38 203.33 361.45 202.6 359.73 199.8 357.84 200.52"/>
        <polygon class="cls-21" points="361.77 199.66 356.63 201.85 357.37 203.48 362.93 201.22 361.77 199.66"/>
        <polygon class="cls-1" points="361.77 199.66 356.63 201.85 357.37 203.48 362.93 201.22 361.77 199.66"/>
        <path class="cls-27" d="m356.33,203.56c-1.3-.97-1.74-2.81-1.89-3.76-.39.78-.68,1.6-.85,2.45.78.67,1.73,1.12,2.74,1.31Z"/>
        <path class="cls-21" d="m355.28,201.94c.12-.49-.17-.98-.65-1.11-.07-.01-.15-.01-.22,0-.06-.18-.15-.35-.28-.5.12-.08.22-.2.25-.34.08-.3-.1-.6-.4-.67,0,0,0,0,0,0-.04,0-.09,0-.13,0,0,0,0-.05.04-.08.12-.48-.17-.97-.65-1.1-.37-.09-.77.06-.97.51h-.05c-.48-.25-.97.04-1.1.52,0,0,0,0,0,0,0,.05,0,.11,0,.16-.05-.04-.11-.07-.18-.08-.3-.08-.6.1-.68.4,0,0,0,0,0,0,0,.03,0,.07,0,.1h0c-.48-.12-.97.17-1.1.65-.13.48.15.97.63,1.09,0,0,.01,0,.02,0,.2.06.42.03.46-.07v.05c.05.49.37.97.87,1.06.3.06.6-.04.82-.25.19.21.43.36.71.42.25.07.52.07.77,0,.06.3.35.49.65.43.22-.04.38-.21-.28-.43v-.06c1.09-.05,1.4-.34,1.48-.71Z"/>
        <path class="cls-1" d="m355.28,201.94c.12-.49-.17-.98-.65-1.11-.07-.01-.15-.01-.22,0-.06-.18-.15-.35-.28-.5.12-.08.22-.2.25-.34.08-.3-.1-.6-.4-.67,0,0,0,0,0,0-.04,0-.09,0-.13,0,0,0,0-.05.04-.08.12-.48-.17-.97-.65-1.1-.37-.09-.77.06-.97.51h-.05c-.48-.25-.97.04-1.1.52,0,0,0,0,0,0,0,.05,0,.11,0,.16-.05-.04-.11-.07-.18-.08-.3-.08-.6.1-.68.4,0,0,0,0,0,0,0,.03,0,.07,0,.1h0c-.48-.12-.97.17-1.1.65-.13.48.15.97.63,1.09,0,0,.01,0,.02,0,.2.06.42.03.46-.07v.05c.05.49.37.97.87,1.06.3.06.6-.04.82-.25.19.21.43.36.71.42.25.07.52.07.77,0,.06.3.35.49.65.43.22-.04.38-.21-.28-.43v-.06c1.09-.05,1.4-.34,1.48-.71Z"/>
        <g class="cls-33">
          <path class="cls-5" d="m355.28,201.94c.05-.22.02-.45-.08-.65-.14.26-.38.43-.67.48,0,.02,0,.04,0,.06-.07.3-.38.48-.67.4,0,0,0,0,0,0-.21-.05-.37-.22-.41-.44-.25.07-.52.07-.77,0-.27-.07-.52-.21-.71-.42-.23.27-.59.39-.93.31-.49-.13-.78-.63-.65-1.11,0-.02,0-.04,0-.05-.19.1-.4.12-.61.07-.24-.06-.44-.22-.56-.44-.04.06-.07.12-.09.18-.13.48.15.97.63,1.09,0,0,.01,0,.02,0,.2.06.42.03.49-.07v.05c.02.49.34.97.84,1.06.3.06.6-.04.82-.25.19.21.43.36.71.42.25.07.52.07.77,0,.06.3.35.49.65.43.22-.04.38-.21-.25-.43v-.06c1.05-.03,1.37-.28,1.48-.64Z"/>
        </g>
        <path class="cls-21" d="m324.86,134.43s-2.88,1.41-2.51,2.68,2.92-.35,2.92-.35l-.42-2.33Z"/>
        <path class="cls-21" d="m324.18,134.69s-1.45,7.04-.3,6.15c.98-.77,1.67,3.54,2.41,2.24s.65-6.49.65-6.49l-2.41-2.46-.35.55Z"/>
        <path class="cls-2" d="m317.66,147.07l21.16,1.28c.63.04,1.13.55,1.15,1.18l1.28,36.17h-27.22l2.04-37.22c.07-.82.77-1.43,1.58-1.41Z"/>
        <path class="cls-27" d="m332.59,147.12l-.16-4.18-5.38-1.72-.85,5.38c-.06.37-.39.64-.77.64l-1.29-.05.77,1.67,2.93,1.5h4.41l2.72-1.11-.77-1.43-1.02-.1c-.33,0-.59-.26-.59-.59,0,0,0,0,0,0Z"/>
        <path class="cls-24" d="m326.69,141.74v.21c.77,2.56,2.97,4.44,5.62,4.79l-.15-3.7-4.61-1.48-.86.18Z"/>
        <path class="cls-2" d="m330.68,151.53h.35c1.87,0,3.07-.51,3.64-1.54.31-.62.38-1.34.19-2.01l-1.78-.11c.24.42.29.92.15,1.38-.24.43-1.13.65-2.44.61-2.22-.05-4.33-.93-5.93-2.47l-2.31-.15c1.9,2.61,4.89,4.19,8.12,4.3Z"/>
        <path class="cls-12" d="m330.68,151.53h.35c1.87,0,3.07-.51,3.64-1.54.31-.62.38-1.34.19-2.01l-1.78-.11c.24.42.29.92.15,1.38-.24.43-1.13.65-2.44.61-2.22-.05-4.33-.93-5.93-2.47l-2.31-.15c1.9,2.61,4.89,4.19,8.12,4.3Z"/>
        <path class="cls-27" d="m325.88,131.5c-1.08,4.73-1.64,6.74,0,9.78,2.49,4.61,8.55,4.92,11.01.6,2.21-3.9,3.64-10.98-.4-14.17-2.86-2.29-7.03-1.82-9.32,1.04-.64.81-1.09,1.75-1.31,2.76h.02Z"/>
        <path class="cls-21" d="m332.94,135.38c-.11.38,0,.77.25.82s.54-.18.65-.56,0-.77-.25-.81-.54.18-.65.55Z"/>
        <path class="cls-21" d="m337.23,136.63c-.12.38,0,.77.25.82s.54-.18.65-.55,0-.77-.25-.82-.55.2-.65.55Z"/>
        <path class="cls-23" d="m335.71,136.93c.08.96.3,1.91.64,2.81-.47.17-.99.12-1.42-.14l.78-2.67Z"/>
        <path class="cls-21" d="m332.61,133.74c.08.06.19.06.27,0,.7-.31,1.5-.31,2.21,0,.11.05.24,0,.3-.11,0,0,0,0,0,0,.05-.12,0-.25-.11-.31,0,0,0,0,0,0-.84-.37-1.79-.37-2.63,0-.11.07-.14.21-.08.32,0,.04.02.08.05.11Z"/>
        <path class="cls-21" d="m333.24,140.77s.12.04.17,0c.44-.19.94-.19,1.38,0,.07.04.15,0,.19-.06,0,0,0,0,0-.01.03-.07,0-.16-.07-.19-.53-.23-1.13-.23-1.65,0-.07.04-.09.13-.05.2,0,.02.01.05.03.06Z"/>
        <path class="cls-21" d="m339.04,135.09c.07.04.16.04.23,0,.1-.08.12-.22.05-.32h0c-.42-.62-1.12-.99-1.87-1.01-.13.01-.22.12-.22.25,0,.13.11.23.24.22,0,0,0,0,0,0,.59.02,1.14.32,1.47.81.03.02.06.04.1.05Z"/>
        <path class="cls-21" d="m318.39,146.9s.71,10.84-3.64,25.42c0,0-1.25,3.24-.29,5.3,0,0,8.24-11.71,6.86-30.5.02,0-.62-1.62-2.93-.22Z"/>
        <path class="cls-21" d="m336.59,148.04s1.24,16.82,4.36,28.96c.91-4.55.89-9.23-.05-13.77-.95-4.92-1.48-9.91-1.58-14.92,0,0-1.52-1.66-2.72-.28Z"/>
        <path class="cls-21" d="m327.26,133.79c-1.43,1.32-1.72,7.69-1.72,7.69,0,0-2.27-2.51-.68-7.06,1.08-3.1,2.86-1.05,2.41-.62Z"/>
        <path class="cls-27" d="m323.59,135.32c.09.94.54,1.8,1.27,2.41.96.77,1.95.05,2.09-1.12s-.21-2.74-1.37-3.07c-.85-.23-1.73.28-1.96,1.13,0,0,0,0,0,0-.06.22-.07.44-.03.66Z"/>
        <path class="cls-21" d="m325.83,135.12s1.54,1.4,2.55-1.64c0,0,1.78,1.17,2.69-2.09,0,0,1.42,1.44,2.31-1.47,0,0,.09,1.91,1.21,1.78,1.11-.13.5-1.78.5-1.78,0,0,.77,1.91,1.78,1.86,1.01-.05.3-1.86.3-1.86,0,0,1.05,2.6,2.43,2.43s-1.08-3.13-1.08-3.13c0,0,2.26,1.18,2.34,0s-2.91-1.69-2.91-1.69c0,0,2.69-.22,2.17-1.17s-4.23-.22-4.23-.22c.22-.43.11-.95-.27-1.25-.65-.65-1.96.17-1.96.17,0,0-4.69-2-3.51.61,0,0-3.56-.77-2.34.82,0,0-3.2.52-1.64,1.54,0,0-3.77.95-2.21,1.91,0,0-1.82,2.64.44,2.17.02-.02-2.98,4.57,1.44,3.01Z"/>
        <path class="cls-24" d="m315.95,153.33l-.15.35-.81,14.56c2.05-5.53,2.66-13.83,2.66-13.83l-1.7-1.08Z"/>
        <polygon class="cls-27" points="302.62 159.21 297.46 154.11 296.31 150.26 294.59 149.27 291.45 152.67 291.96 154.79 295.04 156.07 300.09 161.97 302.62 159.21"/>
        <path class="cls-2" d="m317.34,147.54l.37,4.56c.24,3.1-.82,6.17-2.94,8.45-2.27,2.44-5.34,5.14-8.05,5.38-5.04.41-10.65-7.77-10.65-7.77l3.28-3.52s5.16,4.96,7.6,4.61c1.96-.25,7.38-8.64,9.45-11.94.13-.24.44-.33.68-.2.16.09.26.25.26.43Z"/>
        <path class="cls-2" d="m336.64,125.34s-4.5-4.98-10.11-1.49c-5.61,3.49-3.31,10.3-3.31,10.3,0,0,5.56-7.86,13.43-8.81Z"/>
        <path class="cls-22" d="m336.64,125.34s-4.5-4.98-10.11-1.49c-5.61,3.49-3.31,10.3-3.31,10.3,0,0,5.56-7.86,13.43-8.81Z"/>
        <path class="cls-2" d="m324.08,134.67c2.81-4.55,8.05-7.19,12.94-8.09,1.16-.22.67-2.08-.48-1.88-5.38.99-10.96,4.02-14.03,8.98-.23.46-.05,1.02.41,1.25.4.21.9.09,1.17-.27h0Z"/>
        <g class="cls-31">
          <path class="cls-15" d="m324.08,134.67c2.81-4.55,8.05-7.19,12.94-8.09,1.16-.22.67-2.08-.48-1.88-5.38.99-10.96,4.02-14.03,8.98-.23.46-.05,1.02.41,1.25.4.21.9.09,1.17-.27h0Z"/>
        </g>
      </g>
      <g id="freepik--character-2--inject-33">
        <path class="cls-2" d="m261.43,110.19s-10.64-1.18-14.6,8.41c-3.96,9.59-19.88,37.58,2.54,41.33,0,0,7.05,3.17,9.02-3.53,1.97-6.7,11.84-45.02,3.04-46.21Z"/>
        <path class="cls-12" d="m261.43,110.19s-10.64-1.18-14.6,8.41c-3.96,9.59-19.88,37.58,2.54,41.33,0,0,7.05,3.17,9.02-3.53,1.97-6.7,11.84-45.02,3.04-46.21Z"/>
        <path class="cls-2" d="m258.44,156.41c.22-.72.51-1.81.88-3.19-2.7.43-5.45.49-8.16.18-7.69-.77-11.67-4.17-13.44-6.31.08,6.27,3,11.39,11.71,12.84-.02,0,7.02,3.17,9.02-3.53Z"/>
        <path class="cls-11" d="m258.44,156.41c.22-.72.51-1.81.88-3.19-2.7.43-5.45.49-8.16.18-7.69-.77-11.67-4.17-13.44-6.31.08,6.27,3,11.39,11.71,12.84-.02,0,7.02,3.17,9.02-3.53Z"/>
        <path class="cls-24" d="m264.66,114.76l-6.82-3.07-5.2,4.13s-4.98,16.41-6.36,31.33c-.53,5.66-.9,9.28-1.16,11.61,1.38.56,2.81.96,4.28,1.18,0,0,7.05,3.17,9.02-3.53,1.56-5.38,8.22-31.07,6.25-41.65Z"/>
        <path class="cls-29" d="m273.3,106.12c0,.32.77,4.92-3.32,4.91-4.41,0-6.57-4.42-6.99-5.99,3.5.5,4.57-9.91,4.57-9.91l1.71,1.11,1.9,3.55s-.51,5.6,2.14,6.32Z"/>
        <path class="cls-24" d="m273.3,106.12c0,.32.77,4.92-3.32,4.91-4.41,0-6.57-4.42-6.99-5.99,3.5.5,4.57-9.91,4.57-9.91l1.71,1.11,1.9,3.55s-.51,5.6,2.14,6.32Z"/>
        <path class="cls-29" d="m276.27,124.94s4.52,10.31,5.76,13.55c1.68,4.39,8.75,15.12,8.75,15.12l2.19,3.78,1.68,1.81c.57.62,1.5.73,2.21.27l1.77-1.15c.8-.52,1.02-1.59.5-2.38-.03-.05-.06-.09-.1-.14l-2.82-3.78-3.5-1.34s-6.82-11.03-7.75-15.28c-.6-2.77-3.13-11.07-3.13-11.07l-5.55.61Z"/>
        <path class="cls-2" d="m279.77,107.37c-2.31-.48-5.26,3.02-4.25,13.26,1.01,10.24,2.38,13.1,4.07,16.35s7.6,15.21,7.6,15.21l6.29-3.22s-7.87-13.31-8.68-17.78-1.06-22.97-5.03-23.81Z"/>
        <path class="cls-24" d="m280.88,139.5c2.58-12.42,1.45-27.86,1.45-27.88h0l-2.56-1.25-2.65,2.04-1.78,3.79c-.02,1.48.05,2.97.2,4.44,1.01,10.24,2.37,13.1,4.07,16.35.28.59.73,1.48,1.26,2.52Z"/>
        <polygon class="cls-29" points="236.84 223.66 229.04 236.91 232.51 240.23 241.88 226.77 236.84 223.66"/>
        <path class="cls-21" d="m232.75,239.04l-3.53-3.07c-.14-.11-.33-.11-.47,0l-3.15,2.31c-.28.2-.34.58-.15.86,0,0,0,0,0,.01.02.04.05.07.08.1,1.29,1.09,2.48,2.01,4.07,3.4,1.87,1.64,1.2,1.44,3.37,3.4,1.31,1.18,2.87-.12,2.37-.68-2.31-2.57-1.87-3.57-2.06-5.38-.06-.36-.25-.69-.54-.93Z"/>
        <polygon class="cls-29" points="269.04 227.56 272.61 245.14 277.28 244.21 275.08 226.45 269.04 227.56"/>
        <path class="cls-21" d="m276.36,240.93l-4.73.97c-.18.04-.31.19-.31.38l-.06,4.03c-.01.35.26.65.61.66,0,0,.01,0,.02,0h.11c1.7-.38,3.2-.77,5.32-1.22,2.51-.51,1.94-.08,4.89-.65,1.78-.35,1.69-2.43.92-2.37-3.54.28-4.11-.69-5.7-1.65-.33-.17-.71-.22-1.07-.14Z"/>
        <path class="cls-21" d="m249.6,150.04s-2.87,10.12-1.32,19.08c1.25,7.25-16.65,56.17-16.65,56.17,0,0-1.3,6.41,16.66,6,17.96-.41,16.31,5.86,31.3-1.06,0,0-3.29-22.73-5.1-37.07-1.81-14.33-3.14-18.27-2.09-23.72s2.64-17.43,2.64-17.43l-25.43-1.98Z"/>
        <path class="cls-12" d="m249.6,150.04s-2.87,10.12-1.32,19.08c1.25,7.25-16.65,56.17-16.65,56.17,0,0-1.3,6.41,16.66,6,17.96-.41,16.31,5.86,31.3-1.06,0,0-3.29-22.73-5.1-37.07-1.81-14.33-3.14-18.27-2.09-23.72s2.64-17.43,2.64-17.43l-25.43-1.98Z"/>
        <path class="cls-24" d="m265.25,233.56c-4.34-3.2-1.64-20.31-3.13-28.21-1.48-7.9-6.19-19.98-6.19-19.98.17,15.97-3.22,31.78-9.93,46.28h2.31c9.14-.21,13.2,1.31,16.96,1.94l-.02-.03Z"/>
        <path class="cls-24" d="m272.11,171.35c.06-.63.15-1.26.28-1.91,1.05-5.46,2.64-17.43,2.64-17.43l-25.43-1.98s-2.87,10.12-1.32,19.08c.05.32.07.65.06.98,7.8,1.76,15.83,2.19,23.77,1.26Z"/>
        <path class="cls-2" d="m265.69,105.58c-3.4-.52-9.43-3.14-11.61,2.85-2.18,5.99-3.66,26.42-5.63,39.6-1.98,13.18-2.98,18.78-2.98,18.78,0,0,17.68,3.29,29.78,1.31,0,0-1.58-4.81,1.38-21.6,2.96-16.79,6.66-30.74,5.14-36.52s-6.22-2.94-16.08-4.43Z"/>
        <path class="cls-24" d="m258.92,105.8l-5.45,4.74c-1.03,5.13-1.8,10.31-2.31,15.53,8.45-10.76,9.55-18.56,9.55-18.56l-1.8-1.71Z"/>
        <path class="cls-29" d="m268.43,88.55c-1.44,4.68-2.53,7.34-1.14,10.64,1.33,3.26,5.06,4.81,8.31,3.48,1.19-.49,2.21-1.33,2.92-2.41,2.52-3.7,4.47-10.76.77-14.4-2.45-2.58-6.53-2.67-9.11-.22-.83.8-1.44,1.8-1.75,2.91Z"/>
        <path class="cls-16" d="m274.79,92.68c-.15.37-.05.77.19.83s.55-.12.68-.49.06-.77-.19-.84-.55.12-.68.5Z"/>
        <path class="cls-16" d="m278.94,94.41c-.14.37-.06.77.19.83s.55-.12.69-.5.05-.77-.2-.83-.54.09-.68.5Z"/>
        <path class="cls-13" d="m277.55,94.04c.01,1.32.2,2.64.55,3.91-.65.16-1.35.02-1.89-.38l1.34-3.54Z"/>
        <path class="cls-16" d="m275.9,89.79s.07,0,.11,0c.11.06.14.2.08.3,0,0,0,0,0,.01h0c-.39.64-1.07,1.05-1.82,1.09-.12,0-.23-.09-.23-.21,0,0,0-.01,0-.02h0c0-.12.09-.23.21-.23,0,0,.01,0,.02,0h0c.58-.04,1.11-.36,1.41-.85.05-.07.14-.11.22-.09Z"/>
        <path class="cls-16" d="m280.44,91.7c.07.03.12.09.14.17.1.6.47,1.12,1.01,1.4.11.07.14.21.07.32-.06.09-.16.13-.26.1h0c-.67-.35-1.14-.99-1.27-1.73-.02-.12.05-.24.18-.27h0s.09-.01.14,0Z"/>
        <path class="cls-16" d="m274.03,99.2s-.05-.04-.07-.06c-.04-.1,0-.22.1-.27h0c.61-.26,1.3-.21,1.86.15.09.06.11.19.05.28h0c-.06.09-.19.11-.28.05h0c-.43-.27-.97-.32-1.44-.12-.07.04-.15.03-.22-.02Z"/>
        <path class="cls-21" d="m268.18,92.54s2.11,1.31,2.44-2.04,5.3-6.2,9.99-2.67c0,0,2.48-2.65-.51-3.56,0,0-5.9-6.43-12.14-.66-5.58,5.16-.33,10.43-.33,10.43l.56-1.51Z"/>
        <path class="cls-24" d="m272.7,97.03c.59,2.08.26,4-.77,4.29s-1.61-1.16-2.21-3.24-.96-4,.05-4.29,2.34,1.16,2.94,3.24Z"/>
        <path class="cls-29" d="m265.28,91.7c-.07,1.1.28,2.18.97,3.03.91,1.1,2.12.43,2.5-.9.33-1.2.25-3.2-.97-3.84-1.22-.64-2.42.35-2.5,1.71Z"/>
        <path class="cls-2" d="m269.2,104.56s-5.79-18.87,8.93-21.91c0,0-2.81-5.21-9.91-1.44,0,0-12.77,4.94-4.4,21.87l5.38,1.48Z"/>
        <path class="cls-3" d="m269.2,104.56s-5.79-18.87,8.93-21.91c0,0-2.81-5.21-9.91-1.44,0,0-12.77,4.94-4.4,21.87l5.38,1.48Z"/>
        <path class="cls-17" d="m266.52,100.51c0,1.54-2.41.87-3.73.35.29.72.61,1.45.99,2.22l5.38,1.48s-4.61-15.05,4.9-20.43h0c-8.06,1.84-7.52,14.21-7.54,16.38Z"/>
        <path class="cls-2" d="m258.39,104.37s7.43,2.88-8.58,33.18c0,0-1.86,4.13-.91,7.27,0,0,12.67-21.12,14.1-32.35.88-6.99-1.54-9.28-1.54-9.28l-3.07,1.18Z"/>
        <path class="cls-12" d="m258.39,104.37s7.43,2.88-8.58,33.18c0,0-1.86,4.13-.91,7.27,0,0,12.67-21.12,14.1-32.35.88-6.99-1.54-9.28-1.54-9.28l-3.07,1.18Z"/>
        <path class="cls-2" d="m275.13,106.21s8.22,8.55,1.88,38.19c0,0,2.23-3.13,3.07-8.85,1.04-7.22,4.03-18.61-2.54-29.09-.02,0-3.38-1.8-2.41-.25Z"/>
        <path class="cls-12" d="m275.13,106.21s8.22,8.55,1.88,38.19c0,0,2.23-3.13,3.07-8.85,1.04-7.22,4.03-18.61-2.54-29.09-.02,0-3.38-1.8-2.41-.25Z"/>
        <path class="cls-21" d="m251.06,183.34h-23.31c-2.45,0-4.44-1.99-4.44-4.45,0-.11,0-.23.01-.34l1.04-13.49c.18-2.32,2.11-4.11,4.43-4.11h21.22c2.32,0,4.25,1.79,4.43,4.11l1.04,13.49c.19,2.45-1.64,4.59-4.09,4.78-.11,0-.23.01-.34.01Z"/>
        <path class="cls-22" d="m251.06,183.34h-23.31c-2.45,0-4.44-1.99-4.44-4.45,0-.11,0-.23.01-.34l1.04-13.49c.18-2.32,2.11-4.11,4.43-4.11h21.22c2.32,0,4.25,1.79,4.43,4.11l1.04,13.49c.19,2.45-1.64,4.59-4.09,4.78-.11,0-.23.01-.34.01Z"/>
        <path class="cls-21" d="m235.16,161.53c.22-2.14,1.07-8.84,4.14-8.5,3.19.35,4,6.77,4.24,9.22.09.99,1.65,1.01,1.54,0-.32-3.37-1.41-10.58-5.85-10.83-4.32-.24-5.38,7-5.66,10.08-.1,1,1.47.99,1.54,0l.05.03Z"/>
        <path class="cls-21" d="m249.48,183.35c-3.21-.5,0-16.1,0-16.1l-4.88-1.58h-8.87l-11.46.6-.95,12.32c-.19,2.43,1.63,4.55,4.06,4.74.11,0,.23.01.34.01h21.75Z"/>
        <path class="cls-28" d="m249.48,183.35c-3.21-.5,0-16.1,0-16.1l-4.88-1.58h-8.87l-11.46.6-.95,12.32c-.19,2.43,1.63,4.55,4.06,4.74.11,0,.23.01.34.01h21.75Z"/>
        <path class="cls-21" d="m252.18,161.39c-.59-.28-1.24-.43-1.9-.43h-21.77c-2.38,0-4.36,1.84-4.54,4.21l-.28,3.63c.28.32.64.55,1.04.69,4.17,1.54,24.59,1.23,25.46-1.04.72-1.93.16-5.77,1.99-7.06Z"/>
        <path class="cls-25" d="m252.18,161.39c-.59-.28-1.24-.43-1.9-.43h-21.77c-2.38,0-4.36,1.84-4.54,4.21l-.28,3.63c.28.32.64.55,1.04.69,4.17,1.54,24.59,1.23,25.46-1.04.72-1.93.16-5.77,1.99-7.06Z"/>
        <path class="cls-21" d="m227.81,173.67h0c-.62,0-1.13-.51-1.12-1.14,0-.04,0-.09,0-.13l.45-3.27c.08-.56.55-.97,1.11-.98h0c.62,0,1.13.51,1.12,1.13,0,.05,0,.1-.01.15l-.45,3.27c-.08.55-.56.96-1.12.96Z"/>
        <path class="cls-21" d="m243.3,173.67h0c-.62,0-1.12-.5-1.13-1.12,0-.05,0-.1.01-.16l.45-3.27c.08-.56.55-.97,1.11-.98h0c.62,0,1.13.51,1.12,1.13,0,.05,0,.1-.01.15l-.45,3.27c-.08.55-.55.97-1.11.97Z"/>
        <g class="cls-32">
          <path class="cls-15" d="m227.81,173.67h0c-.62,0-1.13-.51-1.12-1.14,0-.04,0-.09,0-.13l.45-3.27c.08-.56.55-.97,1.11-.98h0c.62,0,1.13.51,1.12,1.13,0,.05,0,.1-.01.15l-.45,3.27c-.08.55-.56.96-1.12.96Z"/>
          <path class="cls-15" d="m243.3,173.67h0c-.62,0-1.12-.5-1.13-1.12,0-.05,0-.1.01-.16l.45-3.27c.08-.56.55-.97,1.11-.98h0c.62,0,1.13.51,1.12,1.13,0,.05,0,.1-.01.15l-.45,3.27c-.08.55-.55.97-1.11.97Z"/>
        </g>
        <path class="cls-29" d="m247.95,114.21s-5.32,7.33-6.6,10.86-4.47,22.1-4.47,22.1l-.91,5.19v2.47c0,.84.61,1.56,1.44,1.71l2.08.36c.94.17,1.83-.46,1.99-1.4,0-.05.01-.09.02-.14l.44-5.61-1.64-3.38s5.73-18.28,6.83-20.27,5.01-7.69,5.01-7.69l-4.18-4.21Z"/>
        <path class="cls-2" d="m260.56,105.22c-1.37-1.88-5.93-1.28-12.03,7.01-6.09,8.29-7,11.34-7.91,14.88s-4.53,16.39-4.53,16.39l6.82,1.81s3.07-15.16,5.45-19.03,14.57-17.79,12.19-21.07Z"/>
        <path class="cls-2" d="m259.88,103.18s4.43-3.62,8.32-1.39c3.89,2.23,8.1-.28,8.85.65s-.61,1.9.56,2.71-.63,5.83-5.88,6.3-11.84-8.27-11.84-8.27Z"/>
        <path class="cls-11" d="m259.88,103.18s4.43-3.62,8.32-1.39c3.89,2.23,8.1-.28,8.85.65s-.61,1.9.56,2.71-.63,5.83-5.88,6.3-11.84-8.27-11.84-8.27Z"/>
        <path class="cls-10" d="m265.14,104.43s5.16,2.78,10.39,1.08c0,.02-3,5.24-10.39-1.08Z"/>
      </g>
      <g id="freepik--character-1--inject-33">
        <path class="cls-18" d="m212.21,239.65l-1.74-15.37-6.55,1.27s3.51,14.91,3.47,15.1l-.88,4.3c-.08.38.15.75.53.83,0,0,0,0,.01,0h.15c1.9-.06,3.59-.19,5.95-.23,2.8-.05,2.09.3,5.38.29,1.98,0,2.31-2.26,1.46-2.35-3.83-.44-7.79-3.85-7.79-3.85Z"/>
        <path class="cls-21" d="m218.53,242.29c-2.16-.17-5.16,2.33-5.16,2.33h-1.84s.84-2.94,2.41-3.86c.45-.27.08-1.01-.38-.77-1.85,1.09-2.87,5.81-2.87,5.81h-4.26l-.05,1.18,14.04-.09c.7,0,.81-1.1.06-1.09h-6.08s2.44-2.9,4.1-2.78c.21-.1.29-.35.19-.56-.03-.07-.09-.13-.15-.17Z"/>
        <path class="cls-18" d="m167.22,235.32l9.04-12.6-5.71-3.44s-7.39,13.41-7.55,13.53l-3.54,2.61c-.31.23-.38.66-.16.98,0,0,0,0,0,0l.1.12c1.45,1.22,2.79,2.26,4.57,3.84,2.11,1.84,1.35,1.62,3.79,3.84,1.47,1.32,3.22-.13,2.67-.77-2.57-2.94-3.2-8.12-3.2-8.12Z"/>
        <path class="cls-21" d="m170.05,241.66c-1.5-1.54-3.97-1.64-5.93-1.14l-1.38-1.23c1.28-1.15,3.13-2.21,4.9-1.85.52.11.77-.69.22-.77-2.11-.43-4.24.71-5.76,2.09l-3.17-2.84c-.5-.45-1.24.28-.77.77l10.49,9.36c.5.45,1.24-.29.77-.77l-4.55-4.06c1.54-.29,3.43-.15,4.61,1.05.3.36.89-.23.56-.62Z"/>
        <path class="cls-18" d="m208.48,112.57s-.69,11.1.43,14.6c1.54,4.71,11.11,16.39,11.11,16.39l2.78,4.8,1.67,2c.56.68,1.54.86,2.31.41l1.92-1.11c.87-.5,1.16-1.61.66-2.48-.03-.05-.06-.1-.09-.14l-3.45-4.83-3.61-1.61s-7.23-11.98-7.97-16.5c-.48-2.94,1.5-11.81,1.5-11.81l-7.26.29Z"/>
        <path class="cls-21" d="m210.61,97.97s-3.3-.08-2.97,17.77l8.02.86s5.31-9.67,2.45-14.83c-2.86-5.16-7.51-3.8-7.51-3.8Z"/>
        <path class="cls-10" d="m210.61,97.97s-3.3-.08-2.97,17.77l8.02.86s5.31-9.67,2.45-14.83c-2.86-5.16-7.51-3.8-7.51-3.8Z"/>
        <polygon class="cls-21" points="207.07 116.26 216.66 117.17 218.14 114.43 207.18 113.05 207.07 116.26"/>
        <polygon class="cls-20" points="207.07 116.26 216.66 117.17 218.14 114.43 207.18 113.05 207.07 116.26"/>
        <path class="cls-2" d="m210.3,141.66s-1.97,15.37-6.53,25.58c0,0-6.15,20.75-9.03,28.44s-22,33.05-22,33.05l-5.9-4.61s10.2-24.71,16.99-33.26c0,0,3.22-28.44,4.74-34.16,0,0-.85-11.45,1.85-16.46l19.88,1.41Z"/>
        <path class="cls-20" d="m210.3,141.66s-1.97,15.37-6.53,25.58c0,0-6.15,20.75-9.03,28.44s-22,33.05-22,33.05l-5.9-4.61s10.2-24.71,16.99-33.26c0,0,3.22-28.44,4.74-34.16,0,0-.85-11.45,1.85-16.46l19.88,1.41Z"/>
        <path class="cls-2" d="m184.54,139.48s-3.84,12.64,1.39,24.32c0,0,1.95,12.81,10.53,30.93,1.94,13.26,4.56,26.42,7.87,39.4l8.11-1.92-3.57-40.6-5.05-30.35s2.9-12.3,4.33-18.95l-23.61-2.84Z"/>
        <path class="cls-12" d="m184.54,139.48s-3.84,12.64,1.39,24.32c0,0,1.95,12.81,10.53,30.93,1.94,13.26,4.56,26.42,7.87,39.4l8.11-1.92-3.57-40.6-5.05-30.35s2.9-12.3,4.33-18.95l-23.61-2.84Z"/>
        <path class="cls-21" d="m187.5,99.34l-4.2,43.85,26.82,3.01s5.28-23.76,6.33-44.09c.11-2.27-1.58-4.22-3.84-4.43l-20.44-2.14c-2.33-.25-4.42,1.45-4.66,3.78,0,0,0,.01,0,.02Z"/>
        <path class="cls-18" d="m208.68,97.26c0,.34.82,5.18-3.49,5.17-4.65,0-6.92-4.65-7.36-6.3,3.68.52,4.11-12.51,4.11-12.51l2.49,3.25,3.39,4.43s-1.93,5.2.85,5.96Z"/>
        <path class="cls-11" d="m186.96,104.63l-1.05,10.89c8.3-6.37,9.09-12.3,9.09-12.3h-2.94l-5.1,1.41Z"/>
        <path class="cls-24" d="m207.41,96.09c-.65-1.67.29-4.42.41-4.73-1.45-1.38-2.79-2.48-2.79-2.48l-1.38-.42-.96.42s.28,5.23,4.73,7.22Z"/>
        <path class="cls-18" d="m203.57,78.48c-1.54,4.93-2.66,7.69-1.19,11.19,1.39,3.43,5.3,5.08,8.72,3.68,1.27-.52,2.35-1.41,3.1-2.56,2.65-3.89,4.7-11.3.77-15.15-2.61-2.7-6.91-2.76-9.61-.15-.85.82-1.47,1.85-1.8,2.99h0Z"/>
        <path class="cls-21" d="m210.26,83.12c-.15.38-.06.77.2.87s.58-.12.72-.51.07-.77-.21-.88-.57.13-.71.52Z"/>
        <path class="cls-21" d="m214.63,84.94c-.15.38-.06.77.21.87s.57-.12.72-.52.06-.77-.21-.88-.58.13-.72.53Z"/>
        <path class="cls-30" d="m213.15,84.55c0,1.39.2,2.78.58,4.12-.69.16-1.41.02-1.98-.4l1.41-3.72Z"/>
        <path class="cls-21" d="m211.42,80.08s.08-.01.12,0c.11.07.15.21.09.33,0,0,0,0,0,0h0c-.4.68-1.12,1.12-1.91,1.15-.13,0-.24-.1-.25-.23,0,0,0,0,0,0h0c0-.14.11-.25.25-.25h0c.61-.03,1.17-.37,1.49-.89.05-.07.13-.12.22-.11Z"/>
        <path class="cls-21" d="m216.17,82.06c.07.03.13.1.15.18.11.63.5,1.17,1.06,1.48.11.07.15.23.07.34,0,0,0,0,0,0-.06.09-.17.13-.27.1h0c-.71-.36-1.2-1.04-1.33-1.82-.03-.12.04-.25.17-.28,0,0,.01,0,.02,0h0s.09-.01.14,0Z"/>
        <path class="cls-16" d="m212.94,90.07c-.56-1.92-3.54-1.23-4.61-1.83-.86-.48-1.44-2.43-2.41-3.12-.96-.69,0-4.29,0-4.29h-1.85c.49,3.4-1.54,6.28-2.25,7.22.11.66.3,1.31.57,1.92,1.39,3.43,5.3,5.08,8.72,3.68,1.27-.52,2.35-1.41,3.1-2.56.41-.6.77-1.24,1.09-1.89-1.15.78-1.94,2.27-2.36.87Z"/>
        <path class="cls-12" d="m212.94,90.07c-.56-1.92-3.54-1.23-4.61-1.83-.86-.48-1.44-2.43-2.41-3.12-.96-.69,0-4.29,0-4.29h-1.85c.49,3.4-1.54,6.28-2.25,7.22.11.66.3,1.31.57,1.92,1.39,3.43,5.3,5.08,8.72,3.68,1.27-.52,2.35-1.41,3.1-2.56.41-.6.77-1.24,1.09-1.89-1.15.78-1.94,2.27-2.36.87Z"/>
        <path class="cls-21" d="m211.17,89.61s.06.04.08.07c.04.11-.03.23-.14.27h0c-.66.22-1.38.11-1.93-.32-.08-.08-.08-.22,0-.3h0c.08-.08.22-.08.3,0h0c.44.33,1.01.43,1.54.25.05-.02.11,0,.15.02Z"/>
        <path class="cls-21" d="m203.29,83.11s2.31.11,2.77-3.01c.46-3.11,3.12-1.9,4.66-3.89,0,0,2.61,3.2,3.27,1.81,0,0,3.02,2.52,3.54.7,0,0,3.99-.61-.13-3.21,0,0,.71-3.55-3.66-3.29,0,0-.11-2.87-4.28-1.54,0,0-1.91-1.74-3.84.51,0,0-2.93-.35-3.03,2.31,0,0-3.39.52-1.91,2.17,0,0-2.95,1.82-1.39,2.77,0,0-1.54,2.64.24,2.36,0,0-1.58,3.49.69,3.73,0,0-.93,2.94.55,2.11s2.54-3.54,2.54-3.54Z"/>
        <path class="cls-18" d="m200.24,82.08c-.08,1.15.28,2.29,1.01,3.18.96,1.16,2.24.45,2.63-.94.35-1.26.27-3.37-1.02-4.02s-2.52.35-2.62,1.78Z"/>
        <path class="cls-2" d="m175.18,126.51c-.1-2.15,1.56-3.96,3.71-4.06.04,0,.09,0,.13,0,2.42,0,3.71,1.91,3.64,4.12-.04,1.01,1.6.98,1.62,0,.08-3.07-2.01-5.67-5.23-5.66-3.04-.01-5.52,2.44-5.53,5.49,0,.02,0,.04,0,.05,0,1,1.61,1.08,1.62.08h.04Z"/>
        <g class="cls-31">
          <path class="cls-5" d="m175.18,126.51c-.1-2.15,1.56-3.96,3.71-4.06.04,0,.09,0,.13,0,2.42,0,3.71,1.91,3.64,4.12-.04,1.01,1.6.98,1.62,0,.08-3.07-2.01-5.67-5.23-5.66-3.04-.01-5.52,2.44-5.53,5.49,0,.02,0,.04,0,.05,0,1,1.61,1.08,1.62.08h.04Z"/>
        </g>
        <path class="cls-2" d="m198.08,125.03c-10.79,1.11-21.66,1.11-32.45,0-4.54-.47-9.44,6.67-10.41,12.85-.98,6.18,2.86,9.15,8.06,9.68,12.35,1.28,24.8,1.28,37.15,0,5.2-.54,8.93-4.19,7.95-10.37-.98-6.18-5.77-12.64-10.31-12.17Z"/>
        <path class="cls-17" d="m208.39,137.2c.98,6.15-2.75,9.82-7.95,10.37-5.2.55-9.56-1.54-9.88-7.81-.32-6.27,2.97-14.26,7.52-14.73,4.55-.47,9.32,5.99,10.31,12.17Z"/>
        <g class="cls-32">
          <path class="cls-15" d="m163.9,128.05c9.12.47,18.3.61,27.58.66,1.41,0,2.01-2.08.62-2.08-9.16-.05-18.37-.08-27.22-.65-1.34-.08-2.37,1.96-.98,2.07Z"/>
        </g>
        <path class="cls-10" d="m165.11,133.46s-3.84,7.12-.92,9.01c4.72,3.03,15.79,3.57,19.37-.17,2.1-2.2-.15-7.99-.15-7.99-6.11.13-12.22-.16-18.29-.85Z"/>
        <path class="cls-21" d="m197.89,126.75c.84,9.1-1.21,20.18-8.42,25.75-6.15,4.76-15.43,3.15-22.85,2.04-3.41-.51-9.99-.77-10.47-4.5-.1-1.73.21-3.46.91-5.05-.69-.71-1.22-1.57-1.54-2.51-.91,2.24-1.85,4.61-1.85,6.99,0,4.12,3.97,5.65,8.39,6.48,3.84.72,7.74,1.08,11.63,1.54,4.48.51,8.83.64,12.96-.88,6.02-2.21,11.08-9.58,12.37-15.59,1.07-4.74,1.44-9.62,1.08-14.46-.16-1.37-2.33-1.11-2.21.21Z"/>
        <path class="cls-12" d="m197.89,126.75c.84,9.1-1.21,20.18-8.42,25.75-6.15,4.76-15.43,3.15-22.85,2.04-3.41-.51-9.99-.77-10.47-4.5-.1-1.73.21-3.46.91-5.05-.69-.71-1.22-1.57-1.54-2.51-.91,2.24-1.85,4.61-1.85,6.99,0,4.12,3.97,5.65,8.39,6.48,3.84.72,7.74,1.08,11.63,1.54,4.48.51,8.83.64,12.96-.88,6.02-2.21,11.08-9.58,12.37-15.59,1.07-4.74,1.44-9.62,1.08-14.46-.16-1.37-2.33-1.11-2.21.21Z"/>
        <path class="cls-2" d="m165.03,132.43c6.14.71,12.33,1,18.51.86.35-.04.67.22.71.57.02.22-.06.43-.23.57-1.48,1.29-4.83,3.21-11.14,2.67-6.47-.56-8.19-2.64-8.62-3.84-.09-.35.11-.72.47-.81.09-.03.19-.03.29-.01Z"/>
        <path class="cls-12" d="m165.03,132.43c6.14.71,12.33,1,18.51.86.35-.04.67.22.71.57.02.22-.06.43-.23.57-1.48,1.29-4.83,3.21-11.14,2.67-6.47-.56-8.19-2.64-8.62-3.84-.09-.35.11-.72.47-.81.09-.03.19-.03.29-.01Z"/>
        <path class="cls-21" d="m174.17,135.75c-.05.37-.39.62-.76.57-.32-.05-.56-.31-.57-.63.04-.35.35-.6.7-.57.35,0,.63.28.63.63Z"/>
        <path class="cls-18" d="m181.28,105.46s-7.69,7.69-9.03,11.44,2.23,23.26,2.23,23.26l-.95,5.47v2.6c0,.9.65,1.66,1.54,1.8l2.18.38c.99.18,1.93-.48,2.11-1.46.01-.06.02-.12.02-.18l.45-5.91-1.73-3.56s-.9-19.21.25-21.34,8.75-8.08,8.75-8.08l-5.82-4.41Z"/>
        <path class="cls-21" d="m191.72,95.63s-2.47-2.18-13.7,11.71l5.59,5.81s10.28-3.99,11.41-9.78c1.13-5.79-3.3-7.75-3.3-7.75Z"/>
        <polygon class="cls-21" points="176.27 107.46 183.03 114.32 185.92 113.17 178.41 105.06 176.27 107.46"/>
        <polygon class="cls-20" points="176.27 107.46 183.03 114.32 185.92 113.17 178.41 105.06 176.27 107.46"/>
        <path class="cls-2" d="m217.97,159.03c1.2.5,2.57.36,3.65-.37,2.88-2.19.19-7.64,4.46-8.72,3.47-.88,2.31,4.85,3.13,6.92.91,2.31,2.77,2.47,5,2.47.37-.04.63-.37.59-.74-.03-.31-.28-.56-.59-.59-1.8,0-3.27-.07-3.91-2.08-.48-1.54-.22-3.16-.49-4.7-.31-1.69-1.24-2.71-3.07-2.69-2.12.15-3.93,1.61-4.52,3.65-.73,2.21-.15,7.05-3.9,5.59-.77-.31-1.15.98-.35,1.28h.02Z"/>
        <g class="cls-32">
          <path class="cls-5" d="m217.97,159.03c1.2.5,2.57.36,3.65-.37,2.88-2.19.19-7.64,4.46-8.72,3.47-.88,2.31,4.85,3.13,6.92.91,2.31,2.77,2.47,5,2.47.37-.04.63-.37.59-.74-.03-.31-.28-.56-.59-.59-1.8,0-3.27-.07-3.91-2.08-.48-1.54-.22-3.16-.49-4.7-.31-1.69-1.24-2.71-3.07-2.69-2.12.15-3.93,1.61-4.52,3.65-.73,2.21-.15,7.05-3.9,5.59-.77-.31-1.15.98-.35,1.28h.02Z"/>
        </g>
        <path class="cls-2" d="m234.64,188.06h-15.88c-3.83,0-7.51-1.98-9.26-5.38-.92-1.79-1.26-3.78-1.03-5.7l1.12-9.59c.59-5.01,4.83-8.78,9.87-8.78h14.08c5.04,0,9.28,3.77,9.87,8.78l1.12,9.59c.64,5.45-3.26,10.38-8.71,11.02-.38.04-.77.07-1.15.07Z"/>
        <path class="cls-22" d="m244.73,177.29l-1.13-9.71c-.46-4-3.07-7.02-6.92-7.02s-6.46,3.01-6.92,7.02l-1.13,9.71c-.62,5.32,2.91,9.64,8.05,9.64s8.68-4.32,8.05-9.64Z"/>
        <path class="cls-17" d="m218.23,188.06h16.52c5.11,0,9.41-3.83,9.99-8.91,0,.05-3.33,4.14-8.05,4.14s-8.12-4.03-8.12-4.03c0,0-1.7,5.38-10.3,4.03-8.6-1.35-10.04-6.46-10.04-6.46-.65,5.52,3.31,10.52,8.82,11.16.39.05.78.07,1.17.07Z"/>
        <path class="cls-2" d="m233.61,158.7c-3.55-.28-14.26,0-14.26,0-3.79,0-7.25,2.13-8.96,5.5-.91,2.81-.77,6.38,2.04,6.69,5.83.63,13.67,3.75,18.04-6.02,1.14-2.71,3.41-4.79,6.21-5.7,0,0-2.3-.42-3.07-.48Z"/>
        <g class="cls-33">
          <path class="cls-5" d="m233.61,158.7c-3.55-.28-14.26,0-14.26,0-3.79,0-7.25,2.13-8.96,5.5-.91,2.81-.77,6.38,2.04,6.69,5.83.63,13.67,3.75,18.04-6.02,1.14-2.71,3.41-4.79,6.21-5.7,0,0-2.3-.42-3.07-.48Z"/>
        </g>
        <path class="cls-21" d="m217.04,169.63l1.19.12c.79.08,1.38.78,1.3,1.58,0,.1-.03.2-.06.3-.22.68-.48,1.54-.77,2.54-.5,1.62-.4,3.12-1.94,3.12-2.18,0-1.67-4.27-1.25-6.49.14-.73.8-1.23,1.54-1.18Z"/>
        <path class="cls-12" d="m217.04,169.63l1.19.12c.79.08,1.38.78,1.3,1.58,0,.1-.03.2-.06.3-.22.68-.48,1.54-.77,2.54-.5,1.62-.4,3.12-1.94,3.12-2.18,0-1.67-4.27-1.25-6.49.14-.73.8-1.23,1.54-1.18Z"/>
      </g>
    </g>
  </g>
</svg>