<?xml version="1.0" encoding="UTF-8"?>
<svg id="Layer_1" data-name="Layer 1" xmlns="http://www.w3.org/2000/svg" xmlns:xlink="http://www.w3.org/1999/xlink" viewBox="0 0 512 263">
  <defs>
    <style>
      .cls-1, .cls-2, .cls-3, .cls-4, .cls-5, .cls-6, .cls-7, .cls-8, .cls-9, .cls-10, .cls-11 {
        stroke-width: 0px;
      }

      .cls-1, .cls-9 {
        fill: #f049ff;
      }

      .cls-12, .cls-13, .cls-14, .cls-15, .cls-16, .cls-17, .cls-18, .cls-19, .cls-20, .cls-21, .cls-22 {
        stroke-width: 1.18px;
      }

      .cls-12, .cls-13, .cls-14, .cls-15, .cls-16, .cls-18, .cls-20, .cls-21, .cls-22 {
        stroke-miterlimit: 10;
      }

      .cls-12, .cls-13, .cls-15, .cls-16, .cls-18, .cls-19, .cls-20, .cls-21, .cls-22 {
        stroke: #263238;
      }

      .cls-12, .cls-2, .cls-8 {
        fill: #fff;
      }

      .cls-13, .cls-7, .cls-21 {
        fill: #f7931e;
      }

      .cls-14 {
        stroke: #737373;
      }

      .cls-14, .cls-5, .cls-16, .cls-17, .cls-19, .cls-20 {
        fill: none;
      }

      .cls-23 {
        clip-path: url(#clippath-2);
      }

      .cls-2 {
        opacity: .7;
      }

      .cls-2, .cls-4, .cls-6, .cls-9, .cls-17, .cls-10 {
        isolation: isolate;
      }

      .cls-4 {
        fill: rgba(240, 73, 255, .7);
      }

      .cls-4, .cls-10 {
        opacity: .2;
      }

      .cls-15, .cls-16, .cls-17, .cls-19, .cls-21 {
        stroke-linecap: round;
      }

      .cls-15, .cls-18, .cls-11 {
        fill: #263238;
      }

      .cls-6, .cls-17 {
        opacity: .3;
      }

      .cls-24 {
        clip-path: url(#clippath-1);
      }

      .cls-25 {
        clip-path: url(#clippath-4);
      }

      .cls-9 {
        opacity: .4;
      }

      .cls-17 {
        stroke: #fff;
      }

      .cls-17, .cls-19 {
        stroke-linejoin: round;
      }

      .cls-26 {
        clip-path: url(#clippath);
      }

      .cls-27 {
        clip-path: url(#clippath-3);
      }

      .cls-28 {
        opacity: .15;
      }

      .cls-22 {
        fill: #9c9c9c;
      }
    </style>
    <clipPath id="clippath">
      <rect class="cls-5" x="0" y="-285.28" width="512" height="261.57" rx="42.76" ry="42.76"/>
    </clipPath>
    <clipPath id="clippath-1">
      <path class="cls-5" d="m443.94,49.81s-132.8-2.74-189.13,0c-40.33,1.97-161.51,0-161.51,0,0,0,2.49-88.59,0-133.5-1.59-28.64,0-114.75,0-114.75,0,0,129,.25,170.47-1.36,68.63-2.66,180.17,1.36,180.17,1.36,0,0,2.68,61.61,0,98.27-2.71,37.4,0,149.98,0,149.98Z"/>
    </clipPath>
    <clipPath id="clippath-2">
      <path class="cls-5" d="m386.63,138.35s-10.1-84.46-15.32-98.74c-5.21-14.29-12.08-61.52-12.08-61.52,0,0,15.87-1.27,20.68-1.32s11.02-4.65,11.02-4.65c-.53.94-1.72.36-2.61-5.41-.59-3.85-6.47-5.03-6.47-5.03,0,0-14.09,1.06-25.97-.54-2.88.91-5.97.91-8.85,0-4.33-1.57-5.2-3.26-2.83-5.55,0,0-3.36-4.4,8.13-10.65,0,0-7.64-6.87-3.91-11.31,3.73-4.44,12.58-8.87,12.58-8.87,0,0,.37-3.35,1.99-4.22s10.44-4.48,15.29-7.83,6.96-3.1,15.91-3.36,19.89-2.48,23.99-.62c3.19,1.45,4.67,7.14,4.67,7.14,2.98.94,3.28,5.81,3.47,7,.88,5.34,7.03,27.49,9.76,31.35,2.73,3.85,4.34,10.57,3.85,14.04s-1.74,7.54-2.99,14.67c-1.24,7.13-5.47,31.7-7.54,38.77s-3.23,19.39-2.12,25.35l31.42,74.77"/>
    </clipPath>
    <clipPath id="clippath-3">
      <path class="cls-5" d="m390.93-21.04s-8.48.5-9.42,0c-.94-.5-6.22-10.44-6.47-13.54s-.74-13.05-.99-19.26c-.25-6.21-.25-15.91-11.93-13.85-5.22.94-6.1,5.86-7.83,16.96s-.12,14.04-1.37,28.22c-1.24,14.17.25,19.79,3.23,26.93s4.09,25.27,12.04,31.98c7.95,6.71,11.07,19.64,11.07,19.64"/>
    </clipPath>
    <clipPath id="clippath-4">
      <rect class="cls-5" x="0" y=".72" width="512" height="261.57" rx="42.76" ry="42.76"/>
    </clipPath>
  </defs>
  <g class="cls-26">
    <g>
      <g id="freepik--background-simple--inject-22">
        <path class="cls-2" d="m97.04-146.98s-26.28,67.86,10.65,136.19,112.98,104.43,173.86,135.29c60.88,30.87,124.09,15.83,154.12-34.72,30.04-50.55-11.16-86.64-11.22-158.73-.06-72.09,10.79-91.18-28.27-152.08-39.07-60.9-134.83-74.39-207.25-29.22-72.42,45.17-91.89,103.27-91.89,103.27Z"/>
        <path class="cls-1" d="m135.65-244.97c4.19-2.9,8.6-5.47,13.19-7.68,33.29-15.92,74.14-10.68,106.12,7.71,31.99,18.39,55.93,48.43,73.34,80.96,7.95,14.86,15.08,30.83,27.86,41.81,16.48,14.14,38.75,17.37,58.43,25.08,71.43,28.05,72.25,130.9,9.64,169.31-24.68,15.14-55.16,19.71-83.52,21.82-39.29,2.93-79.29,1.43-117.24-9.18-37.94-10.61-73.85-30.78-99.23-60.91-33.24-39.46-46.06-93.11-44.38-144.68.85-26.1,5.23-52.41,16.28-76.07,8.87-19.06,22.33-36.28,39.5-48.16Z"/>
        <path class="cls-2" d="m135.65-244.97c4.19-2.9,8.6-5.47,13.19-7.68,33.29-15.92,74.14-10.68,106.12,7.71,31.99,18.39,55.93,48.43,73.34,80.96,7.95,14.86,15.08,30.83,27.86,41.81,16.48,14.14,38.75,17.37,58.43,25.08,71.43,28.05,72.25,130.9,9.64,169.31-24.68,15.14-55.16,19.71-83.52,21.82-39.29,2.93-79.29,1.43-117.24-9.18-37.94-10.61-73.85-30.78-99.23-60.91-33.24-39.46-46.06-93.11-44.38-144.68.85-26.1,5.23-52.41,16.28-76.07,8.87-19.06,22.33-36.28,39.5-48.16Z"/>
      </g>
      <g id="freepik--Table--inject-22">
        <path class="cls-10" d="m446.64-188.67l-358.66,2.88s-3.16,78.13.58,110.16c3.74,32.03-.58,139.58-.58,139.58,40.68,3.55,81.53,4.67,122.33,3.34l-23.67,15.58c-.72,4.91,1.27,9.82,5.21,12.83l12.58-3.87,4.14,3.87,10.57-3.61s4.33-13.09-4.44-24.97c65.03-2.68,127.16-8.82,127.16-8.82,0,0,1,4.07,14,17.01,13,12.94,30.74,57.49,30.74,57.49l42.63-65.58,24.38-3.23s-4.89-61.26,0-98.19c4.89-36.93-6.97-154.47-6.97-154.47Z"/>
        <path class="cls-8" d="m443.94,49.81s-132.8-2.74-189.13,0c-40.33,1.97-161.51,0-161.51,0,0,0,2.49-88.59,0-133.5-1.59-28.64,0-114.75,0-114.75,0,0,129,.25,170.47-1.36,68.63-2.66,180.17,1.36,180.17,1.36,0,0,2.68,61.61,0,98.27-2.71,37.4,0,149.98,0,149.98Z"/>
        <g class="cls-24">
          <g>
            <path class="cls-4" d="m311.38,45.8l-3.21-190.88h-39.11c-1.74,30.03-.59,150.9-.15,190.88h42.47Z"/>
            <path class="cls-4" d="m97.8-141.54l42.9-.29s3.27,147.45-4.19,187.63h-36.23s.5-53.72,0-98.04c-.5-44.32-2.47-89.3-2.47-89.3Z"/>
          </g>
        </g>
        <path class="cls-19" d="m443.94,49.81s-132.8-2.74-189.13,0c-40.33,1.97-161.51,0-161.51,0,0,0,2.49-88.59,0-133.5-1.59-28.64,0-114.75,0-114.75,0,0,129,.25,170.47-1.36,68.63-2.66,180.17,1.36,180.17,1.36,0,0,2.68,61.61,0,98.27-2.71,37.4,0,149.98,0,149.98Z"/>
        <path class="cls-19" d="m140.75-171.38s4.1,165.17,0,197.61"/>
        <path class="cls-19" d="m181.39-171.38s-1.49,181.82,0,194.56"/>
        <path class="cls-19" d="m223.89-171.38s1.49,35.81,1.88,67.48-1.88,125.58,0,136.06"/>
        <path class="cls-19" d="m268.64-169.88s-2.27,108.87-1.33,146.15c.94,37.28,1.33,57.42,1.33,57.42"/>
        <path class="cls-19" d="m307.78-171.38s3.77,129.42,3.36,157.18c-.41,27.76,0,43.25,0,43.25"/>
        <path class="cls-19" d="m350.29-173.31s-.24,76.34,2.17,97.56-1.08,109.43-1.08,109.43"/>
        <path class="cls-19" d="m392.11-173.31s1.6,39.04,1.88,60.86c.28,21.82-.74,133.13,1.88,141.5"/>
        <path class="cls-3" d="m183.58,79.94l9.97-10.91v-2.83l7.64-6.94s9.29,3.22,13.72,14.53l-8.09,6.78-3.08.4-11.9,8.48s-8.27-2.86-8.27-9.51Z"/>
        <path class="cls-17" d="m201.08,61.34s3.4,10.13,12.19,12.19"/>
        <path class="cls-17" d="m194.74,69.18s3.09,8.15,9.66,10.76"/>
      </g>
      <g id="freepik--Hand--inject-22">
        <path class="cls-6" d="m423.86-13.3l-3.08,62.69c-16.47-.25-40-.57-64.96-.72h0c-5.9-5.16-11.74-32.39-13.99-40.85-2.24-8.45,2.37-34.26,2.37-34.26,0,0-3.61-3.49-4.35-5.88s1.98-5.97,1.98-5.97l-1.48-8.2-2.99-2.26-2.73-3.36c-6.2-2.57-7.46-6.03-7.46-6.03l26.23-5.99,70.46,50.83Z"/>
        <path class="cls-8" d="m386.63,138.35s-10.1-84.46-15.32-98.74c-5.21-14.29-12.08-61.52-12.08-61.52,0,0,15.87-1.27,20.68-1.32s11.02-4.65,11.02-4.65c-.53.94-1.72.36-2.61-5.41-.59-3.85-6.47-5.03-6.47-5.03,0,0-14.09,1.06-25.97-.54-2.88.91-5.97.91-8.85,0-4.33-1.57-5.2-3.26-2.83-5.55,0,0-3.36-4.4,8.13-10.65,0,0-7.64-6.87-3.91-11.31,3.73-4.44,12.58-8.87,12.58-8.87,0,0,.37-3.35,1.99-4.22s10.44-4.48,15.29-7.83,6.96-3.1,15.91-3.36,19.89-2.48,23.99-.62c3.19,1.45,4.67,7.14,4.67,7.14,2.98.94,3.28,5.81,3.47,7,.88,5.34,7.03,27.49,9.76,31.35,2.73,3.85,4.34,10.57,3.85,14.04s-1.74,7.54-2.99,14.67c-1.24,7.13-5.47,31.7-7.54,38.77s-3.23,19.39-2.12,25.35l31.42,74.77"/>
        <g class="cls-23">
          <g>
            <path class="cls-9" d="m439.9-31.73c-.5,3.48-1.74,7.54-2.99,14.67-1.24,7.13-5.47,31.7-7.54,38.77-2.07,7.08-3.23,19.39-2.12,25.35l2.64,6.3c-5.72-10.14-5.27-23.45-4.81-26.95.56-4.29,3.72-20.14,6.6-28.34s3.08-25.35,3.08-25.95-1.49,3.77-3.01,8.6-7.06,18.46-7.06,18.46c-.19-2.83,2.14-19.37,2.56-21.25s3.84-14.6,4.42-18.14c.58-3.54-2.22-7.54-2.93-10.41s-3.5-15.44-4.24-24.12c-.3-4.72-1.47-9.34-3.46-13.63.77,1.33,1.38,2.76,1.79,4.24,2.98.94,3.28,5.81,3.47,7,.88,5.34,7.03,27.49,9.76,31.35,2.73,3.85,4.32,10.57,3.83,14.04Z"/>
            <path class="cls-9" d="m384.78,123.35c-3.06-24.09-9.19-69.94-13.05-82.51,2.67,3.24,5.7,8.48,7.83,18.58,4.29,20.32,5.6,29.26,5.78,38.59.12,5.96.04,16.95-.56,25.35Z"/>
          </g>
        </g>
        <path class="cls-19" d="m386.63,138.35s-10.1-84.46-15.32-98.74c-5.21-14.29-12.08-61.52-12.08-61.52,0,0,15.87-1.27,20.68-1.32s11.02-4.65,11.02-4.65c-.53.94-1.72.36-2.61-5.41-.59-3.85-6.47-5.03-6.47-5.03,0,0-14.09,1.06-25.97-.54-2.88.91-5.97.91-8.85,0-4.33-1.57-5.2-3.26-2.83-5.55,0,0-3.36-4.4,8.13-10.65,0,0-7.64-6.87-3.91-11.31,3.73-4.44,12.58-8.87,12.58-8.87,0,0,.37-3.35,1.99-4.22s10.44-4.48,15.29-7.83,6.96-3.1,15.91-3.36,19.89-2.48,23.99-.62c3.19,1.45,4.67,7.14,4.67,7.14,2.98.94,3.28,5.81,3.47,7,.88,5.34,7.03,27.49,9.76,31.35,2.73,3.85,4.34,10.57,3.85,14.04s-1.74,7.54-2.99,14.67c-1.24,7.13-5.47,31.7-7.54,38.77s-3.23,19.39-2.12,25.35l31.42,74.77"/>
        <path class="cls-19" d="m427.22,47.08c-1.61-5.09-2.6-11.8-1.99-14.91"/>
        <path class="cls-8" d="m390.93-21.04s-8.48.5-9.42,0c-.94-.5-6.22-10.44-6.47-13.54s-.74-13.05-.99-19.26c-.25-6.21-.25-15.91-11.93-13.85-5.22.94-6.1,5.86-7.83,16.96s-.12,14.04-1.37,28.22c-1.24,14.17.25,19.79,3.23,26.93s4.09,25.27,12.04,31.98c7.95,6.71,11.07,19.64,11.07,19.64"/>
        <g class="cls-27">
          <path class="cls-9" d="m370.14-56.69c-2.14.52-10.37.9-10.9,3.69s4.34,4.03,6.37,6.49c-.08,0-8.48,0-10.37,4.1-1.88,4.1,1.56,12.9,1.56,17.75s-4.22,14.54-.99,19.58c2.83,4.39,5.45,14.5,4.08,24.11-1.42-5.75-2.4-11.31-3.77-14.62-2.99-7.13-4.48-12.76-3.23-26.93s-.36-17.1,1.39-28.22c1.24-7.96,2.05-12.76,4.34-15.17h0c2.69-.58,5.72-.81,7.54.49,3.89,2.73,6.16,8.21,3.99,8.74Z"/>
        </g>
        <path class="cls-19" d="m390.93-21.04s-8.48.5-9.42,0c-.94-.5-6.22-10.44-6.47-13.54s-.74-13.05-.99-19.26c-.25-6.21-.25-15.91-11.93-13.85-5.22.94-6.1,5.86-7.83,16.96s-.12,14.04-1.37,28.22c-1.24,14.17.25,19.79,3.23,26.93s4.09,25.27,12.04,31.98c7.95,6.71,11.07,19.64,11.07,19.64"/>
      </g>
    </g>
  </g>
  <g class="cls-25">
    <g>
      <g id="freepik--background-simple--inject-32">
        <path class="cls-7" d="m211.93,14.41c29.78-7.92,63.75-7.84,92.72,4.54,9.98,4.31,19.55,9.5,28.6,15.51,69,45.49,71.62,113.19,59.58,145.99-6.89,18.76-25.71,29.99-41.72,40.14-14.17,8.98-39.04,19.77-45.55,36.62-8.79,22.73-20.89,54.54-58.09,43.28-37.2-11.26-66.17-22.51-95.61-75.17-29.43-52.66-40.5-89.45-33.4-123.1,9.58-45.38,49-76.01,93.46-87.81Z"/>
        <path class="cls-2" d="m211.93,14.41c29.78-7.92,63.75-7.84,92.72,4.54,9.98,4.31,19.55,9.5,28.6,15.51,69,45.49,71.62,113.19,59.58,145.99-6.89,18.76-25.71,29.99-41.72,40.14-14.17,8.98-39.04,19.77-45.55,36.62-8.79,22.73-20.89,54.54-58.09,43.28-37.2-11.26-66.17-22.51-95.61-75.17-29.43-52.66-40.5-89.45-33.4-123.1,9.58-45.38,49-76.01,93.46-87.81Z"/>
      </g>
      <g id="freepik--Map--inject-32">
        <g class="cls-28">
          <path class="cls-3" d="m170.25,78.88-2.26.2c.52.07.99-.29,1.06-.81.02-.11.01-.23-.01-.34-.26.13-2.32,1.14-1.05,1.14Zm4.52-16.71c.49-.37,1.05-.63,1.65-.77-1.05-1.08-2.48-.88-3.82-.86,0,1.43.89,2.01,2.17,1.63Zm131.18,73.43c-.49.66-.15,4.47,1.15,3.17.71-.71-.92-2.89-1.15-3.17Zm53.47,48.97c.32,1.13,1.14,2.47,2.1,2.77.07-.21.07-.45,0-.66h.72c.04-.95.28-1.16.28-2.05-.66.2-3.18-.56-3.1-.05h0Zm2.69-1.43c.01.43.32.8.75.88,0-.73-.28-.88-.75-.88-.01.05.05,0-.01,0h.01Zm-3.16-1.18c-.48.26-.17.66.17.81,0-.08.11-.92-.17-.81-.09.03.03-.03-.01,0h.01Zm20.79,8.37c1.4,0,1.73-2.88,3.43-3.26-.75-1.72,2.07-1.45.05-2.81-1.61-1.06-.96.75-1.91,1.91-.84,1.04-2.43,1.32-3.04,2.49-.46.92-.32,1.93,1.48,1.68h0Zm-1.09.69c-.12.1-.22.23-.3.36h.7c.03-.26,0-.66-.4-.36Zm5.52-11.42c0,.47.04,1.69.04,1.8,0-.11-.66-.05-.7.51,0,.73.5-.05.61.4,0-.05.71,1.72,1.12,1.58.16-.05.57-.92.83-1.18,1.32-1.32,2.18-2.96-.43-2.44,0-.79-.3-1.98-.79-.81-.54-.38-.61-1.6-1.23-2.28-1.18-1.29.53,1.93.53,2.42h.01Zm-8.58-16.5c.66,1.12,1.23,2.03,2.64,2.19-.14-.67-2.1-2.22-2.67-2.19h.03Zm-27.54-8.41c-1.1.22.56.48.95.44v-.38c-.22-.03-1.25-.03-.95-.06Zm8.01.16c-1.19,1.59.41,5.49-2.2,4.71,0,0-2.39-1.69-2.43-1.82-.45-1.08.48-1.65.78-2.5-1.33-.2-2.62-.94-3.89-.94.25.24.22.42.67.72-.23-.16-1.57.83-1.92,1.07-1.06.74.6.89-1.19,1.27-.6.12-.85-.78-1.79-.39-.79.32-.88,1.47-1.79,1.47.13.32.17.82.32,1.13h-.69v-.6c-1.04-.06-1.39,2.39-2.57,2.99-.9.47-2.28.6-3.26,1.05-.43.17-.72,1.73-1.23.42-.43,1.45-.53,2.3.2,3.72-1.57-.78.13,1.88.45,2.83.66,1.92,1.31,3.17,0,4.42.9,0,1.43,1.11,2.59.9.66-.1,1-.97,1.74-1.14.6-.17,1.19.46,1.7.31s.54-.6.98-.82.88-.7,1.36-.92c.33-.16.6.38,1.02.22,1.4-.6,2.99-1.48,4.64-.53.99.6,1.94,4.71,2.99,1,.75.27-.04.85.07,1.55.93-.6.6.24.51,1.16,1.53-.32.84,1.15,1.97,2.16.57.27,1.17.47,1.79.6.77,0,.53-.84,1.02-.87s.5,1.01.82.94c1.57-.36,3.21-1.02,3.79-2.62.38-1.05.47-2.13,1.06-3.24,1.24-2.14,1.36-4.75.31-6.99-.24-.45-.56-.86-.94-1.19-.25-.3-.25-.85-.43-1.09-.37-.14-.72-.31-1.06-.52-.26-.27-.23-.91-.51-1.19-.38-.39-1.31-.68-1.59-1.07-.7-.96-.9-2.84-1.43-3.76-.17-.29-.65-.51-.91-.95-.3-.53-.14-1.85-.86-2.04-.03.19-.05.38-.05.57h-.02Zm15.88-1.18c.24.42.51.28.83.15-.16-.47-1.09-.75-.83-.15.03.07.03-.04.03,0h-.03Zm-4.25-3.53c0,.4.84.91,1.08.86-.2-.59-.83-.95-.83-1.52-.11-.01-.23,0-.34.04.07.2.11.41.12.62h-.03Zm-5-1.18c.1,1.22,3.3.62,2.99-1.29-.16,0-2.99,1.74-2.99,1.29.05.15.05-.08.05,0h-.05Zm-14.52,3.53c0,.18,1.24.4.66-.92-.39.03-.68.36-.65.75,0,.06.02.11.03.17h-.05Zm-4.47-1.18c.09.5.56.39.95.2-.32-.32-.49-.09-.94-.2h-.01Zm7.33-2.36c-.32.26-.51.65-.52,1.06.01.78,1.66-1.88.53-1.06h-.01Zm-1.21-1.18c.79-.39,1.79.38,2.56.77.66.34,1.28.13,1.73,1.01.61,1.17-.08.86.05,1.53.03.17-.86.15-.48.92.17.36,1.17-.46,1.51-.36,1.09.34,1.51,1.41,2.87.96.83-.27.79-1.59,2.16-1.05.53.21.66.94,1.14,1.23.91.59.46.4,1.71.73,1.87.47,1.25.62.33-.81-.14-.22-1.05-.1-1.21-.24-.09-.42-.23-.83-.4-1.22-.03-.15-1.17-1.06.3-.91-.63-.83-1.41-1.53-2.3-2.07-1.15-.68-2.39-1.2-3.68-1.54-1.98-.71-1.89-.28-3.47,0-.99.19-2.07-.33-3.45.06.15.59.36,1.16.61,1,.06-.01-.03.03.01,0h-.01Zm-6.89-1.92c-.76.18.66.39.95.34,0-.57-.53-.42-.95-.34Zm8.98-.73c.06.34.09.68.09,1.47h.86c-.13-.91-.37-.69-.37-1.18h-.58s.22-.32,0-.29Zm-3.65.05c-.21-.03-.42.04-.56.2.9.57,1.88,1.41,3.08.81-1-2.03-1.6-.62-2.52-1.01Zm-.2-.32c1.18-1.32-2.04-.43,0,0,.15-.16-.08-.01,0,0Zm-.88,1.18c.32.17.46,1.05.59-.08-.44.08-.49.13-.59.08h0Zm-1.55,1.1c0,.35,1.82.66,2.34.66-.11-1.06-2.18-.77-2.34-.66h0Zm-.69.63c-.23-.06-.46-.13-.71-.18.42,1.12.89.3.71.18s.06.04-.02,0h.02Zm1.08-5.68c-.66.94-1.06,1.08-1.02,2.42.09,1.89.51-.4,1.54-.22.07-.66-.23-1.18-.75-1.14.13-.33.21-.69.22-1.05-.09.14,0,.1,0,0Zm-8.15,4.74s.88,1.24.78,1.1c.03.41.09.83.17,1.23.62-.46.48-1.82.48-2.57h.52c.07.31,1,2.64,1.37,2.43.66-.32-.56-2.86-.94-3.4,4.02,0-2.38-2.57-2.38,1.21h0Zm5.02-3.69c-.66.27-4.52-.3-4.33,1.48,1.25-.66,1.6-.51,2.94-.81.42-.11.55.42,1.05.18.26-.13,1.28-1.29.34-.86Zm-.9,10.26c0,.83,2.92-.75,3.24-1.1-1.14-.63-3.05.73-3.24,1.1h0Zm-.37.96c-.36.06-.44.2-.26.48h.51c.05-.24,0-.59-.26-.48h0Zm-2.73-1.87c.75.83,3.12.15,3.96-.25-.65-.14-3.62-.14-3.95.25h-.01Zm-.3.39c-1.09.36.9.95,1.25.92-.15-.18-.88-1-1.25-.92Zm-2.18-.39c-.62.05,1.56.2,1.98.2-.14.04-.16-.04-.09-.25-.64-.05-1.28-.03-1.92.05h.03Zm-9.41-2.36c.98.86,2.39,1.12,4.09,1.32,1.32.16,3.02.92,4.46.7-.38-.82-1.31-1.22-2.16-.92.06-.66.5-.35.95-.66-2.42-.41-4.87-.56-7.32-.44h-.01Zm-2.64-1.07,6.17-6.5c-1.15.89-.42,2.49.22,3.43.94,1.41,1.32,1.26,3.13,1.58s1.23.86,2.26-.81c.1-.6.25-1.19.43-1.77.26-.49,1.25-.7,1.56-1.43-1.14-.82-.83-1.04-1.08-2.85.88.05.61-.59,1.48-.93-.72-.45-1.36-1.02-1.91-1.68-.66.05-1.18,1.32-1.72,1.87-1.18,1.17-3.28,3.47-4.36,2.57h0Zm-9.16,2.83c.05.66,1,2.18,1.56,2.32-.12-.86-1.56-2.26-1.56-2.32.01.15,0-.1,0,0h0Zm-1.39-2.11c.22.46.66.59.83,1.06.07-.52-.21-1.03-.69-1.25-.16.46-.01.22-.13.18h0Zm-.66-1.39c0-.15-.27-.55-.27-.12-.03.31.21.59.52.61h0c.13-.24.04-.4-.24-.49h-.01Zm.3-2.36c-.49,0-.76-.54-1.22-.48.2,1.12,1.81,2.22,2.34,2.97.84,1.14,1.54,2.83,2.43,4.11.61.84,2.05,3.18,2.86,3.19,1.81.05.79-1.87,2.21-2.35-.16-1.24-1.19-1.7-2.09-1-.1-1.41-4.83-6.23-6.54-6.44-.06,0,.21.03.01,0h-.01Zm22.44-2.99c-.94.11-1.76.81-1.26,1.98.76-1.98,1.87.3,3.08.87-.43-1,.34-1.22.36-1.25,0-.18.38-2.64-.4-2.64s-.91,1.7-1.78,1.05c-.13,0,.07.03,0-.02h0Zm-2.57-4.43c0,.34.98,3.06,1.7,2.91-.36.88.93,1.49.61-.24-.15-.73-1.58-2.53-2.31-2.64,0,.1.06,0,0-.03h0Zm1.26-.14c1.08.83,1.8,2.43,2.98,2.69,0-1.47-1.23-1.8-1.23-3.1-.71,0-1.06.42-1.74.42.14.11.14,0,0,0h0Zm-1.65.86c-.66,1.37-2.3,2.74-2.64,3.87,1.44,0,2.64-2.3,2.64-3.87-.02.07,0,.16,0,0h0Zm.66-5.6c-1.28.77-.96,3.64.5,4.15-.05-.94,1.81-4.16-.48-4.16h-.02Zm.86-5.87c0-.46-1.72,1.08-1.47,2.85h.51c0-1.18.95-1.76.95-2.85Zm22.15-21.54c-.87.17-1.43.95-2.57,1.05-1.24.11-1.82-.17-3.12-.97-.05.43-.56,3.69-1.09,2.5-.23.45-1.01,2.52.08,1.85v.48c-.59.15-.96,2.86-2.36,3.96v-.77c.13.38-.18.87-.32,1.42-.19-.3-.51.22-.39-.61-.56.5-.88,1.23-.85,1.98-1.74-.84-4.97.75-5.28,2.88h1c0,.88-.93,1.28.35,1.7,0-.98,1.43-2.39,0-2.52.3-1,2.47-1,3.38-1.17-.98.66-2.57,0-2.2,1.87.78-.31,1.5-.76,2.13-1.32.4,1.02,1.51.23,1.32-.66,3.43-.43,2.79-.62,3.6-3.78.46-1.75.99-3.12-.51-4.49,1.01-.21,2.71.84,2.64-.39.75.18,4.17-1.9,4.17-2.95,0-.07.03-.02.03-.07Zm1.61-.92c-.37.07-.55.35-.88.54.53.35.66,0,.88-.54-.07.01-.07.19,0,0Zm4.24-5.1c-.12.39-.3.76-.52,1.1.42-.19.64-.66.52-1.1h0Zm10.38-5.02c-.09,0-.24-.48-.48-.28-.05.18-.06.36-.05.55.15.04.69.11.52-.27h0Zm-1.18.15c-.17-.54-.12-.87-.57-1.25,0,.51.09.95.13,1.45.3.1.52.11.44-.2-.02-.09.03.07,0,0Zm-2.26-5.18c.32,0,.55-.44.57-.66-.76-.32-.83.18-1.13.66.18.04.37.04.55,0Zm20.05-6.65c.8.25,1.64.37,2.48.38-.62-1.32-1.98-.3-2.48-.38.13.02-.07-.03,0,0Zm-7.68-11.71c.94.24,2.1-.22,3.08-.22-.38-.58-1.01-.95-1.71-1.01-.24,0-2.1,1.04-1.37,1.23Zm-27.15-7.26c.85.37,3.67,1.5,3.67-.25-1.21-.07-3.05.12-3.55-.81-.09.09-.39.92-.12,1.06.05-.02-.06-.08,0-.03v.03Zm-5.19,3c1.05.18,1.98-.07,2.99.32-.34-1.6-1.97-1.18-2.99-.32Zm.47-1.21c.57,0-.48-.53-.81-.52,0,.61.35.55.81.55v-.03Zm-2.85-2.09c.94,1.51,6.24,1.1,6.6-.81-.84-.18-1.9-.73-1.9.79-.17-.03-.35-.03-.53,0,.92-2.11-1.08-.9-1.76-.92-1.36-.08-1.7-.79-2.42.94Zm-.68-.38c-.07-.18-.07-.39,0-.57-.96-.15-.48.96,0,.57-.01-.09-.09.05,0-.03v.03Zm-1.18,2.05c.29.78.26,1.25,1.12,1.12-.32-.43-.7-.82-1.12-1.15v.03Zm-22.63-7.02c-.32-.49-.95-.65-1.47-.38.13.16,1.68.96,1.47.38Zm-10.11,2.24c.3-.05.61-.05.92,0-.11-1.23-.57-.28-.91-.03v.03Zm3.78-1.72c.17,0,4.28-.97,4.38-1.1,1.02-1.47-2.03-1.32-2.26-1.43.21-.23.3-.24.36-.53-1.79-.37-2.67,3.03-2.47,3.03v.03Zm-2.77-4.73c-3.03.49-2.6,2.36.18,2.64,2.11.22,2.26.28,2.15-1.12-.13-1.88,0-.95-1.6-.95.12-.17.2-.36.22-.57-.32-.03-.63-.04-.94-.03v.03Zm-2.64.19c1.21.71,2.9-1.14,3.6-1.62-1.58-.83-3.74-.93-5,.9.44.29.91.53,1.39.72.09.01,0-.06.03-.03l-.03.03Zm-.34.43c-.57,0-.98-.36-1.58-.24.11,1.91,2.42.22,1.62.22l-.03.03Zm-1.78-3.11c-1.32,0-.29.6-.39.77-.22.44,1.72-.79.42-.79l-.03.03Zm-33.86,22.4c-.76-.15-2.01-1.12-1.47.86.49,0,1.38-.28,1.47-.86-.01-.03.02.03.03-.03l-.03.03Zm3.34-6.92c-.77-.08-2.35,2.13-2.35,3.3.45-.1.75-.42,1.01.19.15-.06.23-.23.17-.38.99.55.3,1.17.84,1.43.69.34,2.04.22,2.81.22-.1-1.16-1.27-1.53-1.32-2.64-.1-1.32.91-2.1,1.64-2.91,1.53-1.8,3.6-3.07,5.89-3.62.75-.2,3.89-.92,3.56-1.82-.49-1.32-2.3.16-2.95.38-1.58.55-6.81.71-6.81,2.82-.31-.05-.64-.05-.95,0,.81,1.52-2.04,1.47-1.78,2.49.29-.07.38-.18.66-.15-.16.45.27.73-.44.66v.03Zm13.06.43c.49-.02.95-.23,1.3-.57.34-.24-2.36.55-1.27.55l-.03.03Zm-6.2-15.14c.98,1.62,1.64.08,2.73-.14-.98-.66-1.75.46-2.7.11l-.03.03Zm-2.13,0c0,.55-.36.4-.61.86.78.26,1.62.3,2.43.13-.69-1.03-.61-1.76-1.79-1.01l-.03.03Zm-.28,1.7c-.22.09-.46.14-.7.15.13.66.51.29,1,.18-.05-.26,0-.41-.3-.33-.07.03.07-.01,0,0Zm-3.04-.63c.4.38.47.97,1.09.09,0,1.07,1.25.07,1.43-.09.01-.13,0-.26-.05-.38-.84-.06-1.68.07-2.46.38h0Zm-2.48,0c.9-.83,2.16-1.16,3.35-.86-.26-1.72,1.43.6,1.64-1-.36.03-.72.03-1.08,0,.15-.23.42-.79.52-.9-.59,0-.99.42-1.32.52-.4.1-.79.23-1.17.38-.32.22-.43.7-.87,1.05-.59.48-.88.11-1.06.81h0Zm-3.47-1.18c-1.28,0-1.6.5-2.82.23.06,1.03,1.66.34,2.39.34-1.51,1.21,1.04,1.51,1.78.43,1.2-1.76.07-1-1.35-1h0Zm-24.87,2.36c.28.38,1.85-.67,2.17-1.18h-1.32c.79,3.82,5.12,1.65,6.13,1.01-.98-1.19-2.34-.2-3.21-.48.16-.36.38-.29.3-.71-1.02.45-.76.07-1.35,1.19-.38-1.08-3.18-1.32-2.73-.23.05.09-.03-.11.02.4h0Zm-1.74,3.53c0,.26-2.32.11-2.6,1.15.56-.13,2.32-.57,2.55-.24-.35.26-2.24.59-2.27.77-.05.32,1.65,1.23,2.02,1.77,1.12-.93,2.19-2.75,2.19-4.03.41-.07.83-.07,1.23,0-.15,1.16.13.33.57,1,.33.49-.36.91-.36,1.41,1.2-.82,1.32.26,1.78.18s1.32-.66,1.82-.77c-.53-.77-1.06.12-1.06-1-.51.07-3.96-2.19-4.07-2.54-.22.12-.48.12-.69,0,.13-.24.23-.5.32-.76-1.32-.66-1.32.11-1.98.3.29-.09-.46.81-.55.83.19-.07-.33-1.14-.42-1.16-.45.26-.93.48-1.43.66.17-.3.24-.61.39-.86-.77.18-4.01,1.03-1.43,1.43.04.53.03,1.06-.05,1.58-.48-.26-.42-.71-1-.86.23.51,1.16,2.19,1.16.66.55.05.59.95,1.35.66.31-.11.48-.73.77-.76.03,0,1.62-.17,1.71.57.03.05,0-.13.03.01h0Zm107.39,30.74c2.17,0,2.53-1.09,4.03-.71.83.18-.16.87.7,1.12,1.23.35.83-1.09,1.9-.11.09-.68.47-.14.96-.2-.27-1.29-.66-.15-.26-1.49.43-.84,1.01-1.58,1.71-2.18,1.4-.92,2.59-.56,2.59,1.31,1.89-.42,2.36-3.47,4.16-3.05-1.19,1.16-1.61,2.98-2.94,4.26-1.69,1.65-3.82,2.56-4.42,4.71-.39,1.72-.43,3.5-.13,5.24.36,1.98.17,2.3,1.41,1.51,1.24-.78,1.45-4.39,3.53-3.76-.56-1.26-.14-2.96,1.08-2.05-.4-1.02-.07-1.98-.17-2.62-.07-.32-.57-.09-.79,0,.2-.97.54-1.91,1-2.77.72-.78.81-.33,1.71-.58.49-.11.3.41.66.38.45-.04.57-.91.95-.94.46.06.92.1,1.38.1,1.09-.14.2.78,1.05.98,0-2.44,4.91-3.94,6.3-4.42,1.26-.42,1.39,1.31.96-.92-.4-2-1.26-1.2-2.34-2.05-.63-.55,2.57-.42,2.56-.41.92-.44,1.22-1.04.78-2.13.66-.05.75.71.95.77.56.1,1.11.23,1.65.41.88.49.66.8,1.78,1.12,1.54.46.36.32,1.17-.06.66-.29.14-1.07.53-1.47s2.69.8,1.74-1.19c-.34-.71-2.76-1.2-3.35-.92.53.43.66,1.42-.22.71-.32-.26.13-1.29-.28-1.7-.22-.21-.66,0-.82-.22-.5-.44-1.03-.83-1.58-1.19-.9-.58-1.48-.96-2.43-1.51-1.98-1.12-6.17-2-7.42-.47,2.18,1.05-3.43,1.99-.44-.31-.9-.8-1.66.3-2.56.45-1.1.18-3.03.33-3.96-.23-.03.39-.03.79,0,1.19-1.38-1.82-1.32-3.92-4.17-3.71-1.06.08-2.09.48-3.17.21-1.41-.34-1.68-1.18-2.9-1.34.26-.38-.21-.23.42-.61-1.84-1.23-3.96,1.86-3.16-.67-.91,0-1.84-.6-2.81-.62-1.83-.05-1.41.3-3.09.62,0,.89.87.84.87,1.79-.67-.19-1.35-.32-2.04-.38.16.27.59.67.43,1.11-.83-.18-.99-.95-1.78-1.12.04,0-2.17,0-2.17,0,0,0-.94,2.82-1.82,2.82-.63-.59-1.21-1.23-1.75-1.9-.15-.42.48-1.77,0-2.4-.75-.96-1.35.09-2.12-.14-1.72-.5-2.26-1.79-2.26.82-1.32,0-2.1.16-3.3-.39-.44-.2-.69-.84-1.24-1-1.05-.3-2.93.25-3.98.25v-.73c-.49.15-1.14.59-1.5.19.09,0,1.93-1,1.08-1.23-.96-.28-1.5,1.38-2.77,1.15.18,1.25-1.72,1.14-2.75,1.14,1.1-.12,5.94-3.35,6.05-4.01.46-2.87-4.48-2.64-5.6-2.15.22-.3.39-.36.39-.81-.64-.01-1.28-.06-1.91-.15.21-.37.46-.72.75-1.04-2.52-.22-2.61.73-4.17,1.62.14.14.21.32.22.51-1.72-.44-1.85.84-3.3,1.02-.53.05-1.48-.66-2.26-.54-.8.49-1.63.93-2.48,1.32-.74.15-1.48.35-2.19.61-.28.13-1.81.71-1.98.99-.72,1.18,1.32.38.06,1.4-1.39,1.12-3.96-.32-5.41,1.06.38.99,2.89,2.6,1.48,2.72-.4,0-.93-.81-1.18-.9-.92-.4-1.94-.47-2.9-.2.4.22.92.17.92.81-3.23-.22.52.59.38,1.72-.52-.9-1.91-.31-2.55-1.19-.22-.3.03-1.82-.22-2.39-.09.09-.23.13-.35.09,0,1.76-.95,1.05-1.12,2.1,0,0,.26,2.93.33,3.04.92,1.66.66.16,1.8.66,1.41.61,1.32,1.41,1.32,2.43,0,.36,1.1.55,1.27.57-1.81,1.32-1.44-3.64-3.89-1.44.05.55.02,1.1-.1,1.63-.27.49-.68.88-1.18,1.12-1.32.82-1.32.48-2.98.36.36-.59,1.74-.5,2.43-1.14.68-.58,1.07-1.43,1.08-2.32-1,.09-1.36-4.26-1.26-4.91h.56c.3-2.17-2.09-2.56-3.12-1.73-.13.12-1.78,3.04-1.82,3.18.28-.86.3,2.07.05,1.54.22.51.66.38.95,1.08.19.46,1.12.44.95,1.15-.29,1.25-1.43-.46-1.48-.48-1.27-.38-2.24-.88-3.47-1.32-.66-.24-2.92-1.54-3.3-1.48-1.6.27,3.02,2.29-.07,3.62,0-2.64-5.03,1.93-4.1-1.09-1.32.86-2.85.89-4.19,1.87-.23.18-3.12,3.09-2.92.15,2.19.08-.37-1.54-1.61-1.54.55.59.94,3.63.39,4-.53-.26-1.11-.38-1.7-.36-.32.07-1.2,1.16-1.82,1.21.31.45.52.96.61,1.49-.89-.51-1.94,0-2.69-1.06-1.8,1.06.9,1.19.9,1.82,0,.48-1.36.26-1.47.18-1.32-.66-.66-.52-1.27-1.61-.5-.94-1.57-2.14-2.38-3.3.72.15,8.32,3.47,7.42-.43-.22-.94-2.28-1.8-3.08-2.13-1.24-.51-3.1-.14-3.65-.51.66-1.47-1.93-1-2.52-1.59.98,0,.48-.5,0-.79-1.26-.73-.75.18-1.64.18.11-.3.2-.61.27-.93-.4-.07-.8-.07-1.2,0,0,.48-.06.75,0,1.18-.22-.6-.42-.48-.84-.91-.16,1.04-.59,1.49-.59.15.21-.04.27,0,.27,0v.43c-.36.06-2.67,1.42-1.83.43-1.78-.2-1.63.87-.65,1.45-.52-.22-1.2,0-1.74-.23,0,.54.08.69-.27.99-.13-.72-.76-1.23-1.48-1.22.24.94-.56,2.39-.72,1.03-1.04,1.15-.07.33-.43,1.55-.88-.39-.65-.12-.93-1.08-.36.14-.56.56-1.11.84.16.31.13.17.13.47-.71,0-1.36.4-1.7,1.02.89-.31,2.19-1.22,3.14-.7-1.26.32-3.11,2.67-3.35,4.37-.55.15-1.04.45-1.42.88h.69c-.1.92-2.04,1.85-2.64,1.7-.04.24,0,.48.08.7-2.31.53-2.59,2.01-3.07,3.85,1.94-.06-.69,1.3,1.06,1.43-.03.53-.27.61-.21,1.11,1.88,0,2.59.24,3.84-1.5.82.16,1.45,3.4,2.18,4.31.2.27-.47.73.06.94,1.23.53.7-.45,1.21-.65.72-.35,1.46-.65,2.22-.92.06-.15.06-.33,0-.48-.45.06-.59.05-.85-.18.26-.46,1.37-1.98,1.45-2.22.27-.78,1.3-1.45-.25-1.45,0-1.24-.97-2.4.2-3.89.59-.76,1.68-.8,2.22-1.59.36-.51.38-2,1.21-2.59.65-.44,2.13.31,2.24,1.15.25,1.82-5.09,2.84-2.64,5.98,1.72,2.2,4.74-.47,6.77.8-1.13,1.26-2.75.71-4.09.89-.81.22-1.61.49-2.4.79.19.08.34.19.52.27-.37.03-.73.13-1.07.29.47,1.34,1.35-.21,1.67-.05.58.32.65.65,1.15,1.04-1.46,2.05-1.37-.34-2.22,0-1.03.41-.96,2.87-.99,3.47-.88,0-2-.53-1.3.79-1.3-1.48-2.05.1-3.5.25-.49.04-2.59-1.3-2.74.18-.51-.03-.99-.21-1.39-.52.16-1.62,2.27.69,2.05-2.2-.48.25-1,.41-1.54.47.05-.34.14-.68.25-1-.16.08-.35.08-.51,0,.19-1.53-.17-1.81-1.24-.59-.76.84-.21,1.75-.24,2.59-.08,2.11.48.95-1.01,1.9-.88.56-1.88.89-2.92.98,1.09,1.54-1.03,1.38-1.83,2.05-.08.06-.74,1.74-.98,1.82-.8.28-1.3-.53-1.82-.47,1.24,2.36-1.23.71-1.94,1.34-.89.76.24.51.53.97.41.65.91.91,1.34,1.89,2.42,5.32-3.45,2.03-5.83,3.14.45,1.7-.21,3.69.17,5.34.35,1.48-.1.56,1.07,1.39.74.53,1.13.03,1.83.99.16-.19.13-.29-.08-.28,1.22-.47,2.74-1.02,3.71-2.02.4-.41.59.1.89-.36.18-.28-.36-.74-.34-.76.14-.53.33-1.05.55-1.56.4-.53,2.12-1.08,2.42-1.35s-.25-1.02.4-1.45c.54-.37,1.52.46,2.12.34.23,0,1.35-1.53,1.94-1.43.83.16,1.65,1.89,2.34,2.49,2.06,1.77,5.7,4.18.56,4.18,1.37,2.65,3.55-.1,4.14-1.67h.52c-.02-.17-.02-.33,0-.5.5.16,1.02.27,1.54.33-.68-1.28-1.87-2.22-3.28-2.58.14-.89-1.2-1.98-1.79-1.94.18-2.95,1.9-.33,3.23.72.9.72,2.07,1.22,2.58,2.23.31.65.74,2.31,1.06,3-.23-.13-.5-.17-.76-.13.28.8.65,1.18,1.15.55.51,2.89,2.25-.21,3.23-.38-.16-.3-.36-.55-.68-.55.08.17.08.38,0,.55-.5,0-1.55-1.72-1.4-2.09.52.32.8.5,1.36.22-.03-.14-.16-.23-.3-.22,1.94-3.11,2.99,4.97,3.28,4.97s.26-1.05.26-1.2c.74.72,1.34.58,1.94.65-.61-.1.98-.45.94-.45.61,0,.88.81,1.87.56-.02-.27-.02-.54,0-.81,1.86.42,2.01,1.13,1.32,3.31-.32.92-.91,1.72-1.69,2.29-.73.34-1.42-.47-2.09-.08,1.07.56,1.8,4.06,3.01,2.71,1.8,2.08,2.25,4.92,3.43,7.11.75,1.37,2.29,2.44,2.94,4.02.87,2.13-.29,3.42,2.16,3.47,1.1,0,2.4-1.16,3.49-1.65,1.25-.55,1.85-1.13,2.84-1.63,1.29-.65,2.05-.37,2.93-1.5.42-.5,1.29-1.79,1.83-1.54,0-1.29,0-1.37.9-1.78-.1-.65-1.07-1.34-1.49-1.73-.77-.72,0-1.47-1.1-.28-.12-.56-.28-1.8-.68-2.15-.44.45-.67,1.06-.65,1.69-1.7-.16-4.35-.09-1.23-.71-.05-.21-2.44-.95-2.58-1.03-.7-.63-1.25-1.41-1.6-2.29-.32-2.15.65-1.45,1.78-.55,1.43,1.08,1.94,1.58,3.61,2.18.28.1.97-.11,1.36,0s.37.83.78,1.02c1.13.4,2.32.62,3.51.65,2.04.08,2.58-.12,4.25.9.89.56.97,1.25,2.29,1.52-2.35,0,.34,1.34.89,1.54.88.32.42-1.29,1.36.15.47.65.1,1.58.22,2.34.27,1.4.68,2.77,1.23,4.1.34.95.94,4.05,1.78,4.59s1.76-.43,2.25-1.55c.27-.79.41-1.62.42-2.46-.05-.54-.05-1.09,0-1.63.44-1.25.34,0,1.17-.92,1.59-1.68,3.46-4.23,4.94-5.12.99-.41,2.03-.71,3.09-.89.48.34,1.58,3.06,1.58,3.68,1.46,0-.21,1.34.85,2.26.72.65,1.53-.7,1.66-.65,1.14.34,1.94,3.63,1.9,4.98,0,.72-1.01,1.49-.58,2.73.26.74,1.29,1.42,1.66,2.35.45,1.13,1.36,5.17,3.33,4.15-.65-1.29-.65-3.54-1.35-4.47-.99-1.29-2.15-1.23-2.42-3.13-.06-.43-.45-2.33.2-2.92,1.04-.93.18-.23,1.2.38.89.52.8.5,1.59,1.58.18.25.83.45.92.61.29.52-.08.98.34,1.79.85-1.29,2.14-1.66,2.81-2.67,1.24-1.86.47-3.42-.55-4.87-1.54-2.21-1.94-4.89,1.61-4.89.23,1.13-1.29,2.36-.72,2.95,1.46,1.42,1.77-2.74,1.73-2.71.65-.65,2.01-.65,2.73-.92.85-.27,1.63-.73,2.28-1.35,1.23-1.01,3.5-3.23,3.79-5.07.21-1.34-.43-.51-.56-1.42-.07-.5.37-.39.22-1.29-.19-1.08-1.56-2.42-1.53-3.19.05-1.49,1.42-.99,1.94-1.78s.43-.65-.84-1.17c-.56-.21-.41.72-1.14.72.2-1.75-1.88-.52-.96-2.16.6-.21,1.18-.46,1.74-.76,1.86-.78,1.29-1.02.55,1.13.55-.34,2.02-1.2,2.64-.89,1.29.65.27.87.38,2.05,2.01-.92,1.4,2.58,1.18,3.64,1.43.17,3.06-.88,3.02-2.4,0-1.37-1.6-1.53-1.29-3.43.07-.38.7-.1.76-.28.08-.57.2-1.14.35-1.7.28-.43.76-1.29,1.29-1.58.31-.14,1.43.14,2.01-.05.61-.17,1.16-.53,1.56-1.03,1.09-1.12,2.05-2.35,2.86-3.69.77-1.25.55-2.25,1.07-3.53,1.65-4.26.9,4.14.9,5.3.31-.34.55-.16.83-.84.38.39.05.71.86.75-.23-1.71-1.89-3.23.42-3.23.06,0-1.1-5.82-1.15-6.49h.79c.07,1.53-.35,1.42-.35,2.84-.99-.71-.79-2.2-2.6-2.84-.2,1.56-.84,1.04-1.39,0,.05.27.05.55,0,.82-.77-.14,0-.71-.56-1.29-1.22,1.42,0-.71.43-1.34.66-.9,1.4-1.5,2.15-2.6,1.53-2.4,2.94-2.57,5.29-2.57Zm-127.06.73c-.45.22-.78.62-.91,1.1.36-.11,1.57-1.24.91-1.1-.16.07.05.02,0,.02v-.02Zm1.18,10.7c.88,0,1.54-.66,2.04-.77.77-.13,1.85.27,2.48-.04,1.02-.53,1.52-1.72,1.16-2.82-.18-.7-.66.42-.66.39-.29-.34-.24-.88-.48-1.1-.39-.38-.92-1.26-1.44-1.92-.78-1-.88-.77-1-1.57-.07-.53,1.93-2.64-1.04-1.66.24-.47.28-.86.75-1.16-.98-1.08-1.41.59-1.77.91-.06.05-2.04.79-.49,1.09-.14.5-.66,1.22-.61,1.53.51.07,1.16.52,1.29-.09-.12,1.86.77.83,1.41,2.34.72,1.74-.76.55-1.52,1.58.29.05.57.08.86.09,0,.52-1.17.74-.78,1.23.24.31,1.47-.15,1.87.28-.18.18-2.6,1.7-2.07,1.7v-.02Zm0-4.91c1.93-.31-3.06-3.04-1.9-.49-.92.19-2.15,1.6-.66,1.52-1.98,3.12.77,1.05,2.43,1.45.07-.73.15-1.54.13-2.46v-.02Zm45.95,72.72c0-1.84,1.19-5.62-.78-6.49-.17.91-.55,1.77-1.12,2.5-.73.74-1.87.43-2.64,1.22-.57.62.07,2.54,0,3.05-.13.96-.51,1.09-.69,2.3-.24,1.57.09,3.89,1.98,3.44s1.24-1.06,1.56-2.86c0-.21.48-2.26.52-2.3.19-.2,1.17-.53,1.17-.84v-.02Zm-14.39-45.55c-.83-2.17-1.32-1.32-3.12-1.58-2.64-.35-4.65-1.27-7.12-1.89,0,2.64.05,2.14-1.56,2.17.33,0-1.41-.57-1.25-.66h-1.27c-.13-.06-.22-.32-.26-.58-.77-.28-3.08-.7-3.56-1.41-.89-1.32,1-1.56-.61-2.7.43-.39.38-.44.96-.57-.82-1.53-3.06-.11-4.26-.09-1.19.03-2.64-.59-4.25.19-1.1.51-1.84,1.22-3.3,1.18-1.76,0-2.7-1.37-2.7.45h-1.32c.58,3.02-.96,1.51-1.32,2.28-.55,1.22-.37,2.67-.87,3.45-.3.46-1.45,1.08-1.91,1.72s-1.1,1.78-1.65,2.64-2.73,3.14-2.43,4.49c.09.37,1.32-.17,1.52.29s-.24.54-.17.75c.34,1-.23,2.64-.3,3.64-.09,1.22-.18,2.26,1.04,3.66,1.26,1.46,2.59,2.85,3.99,4.17.5.48.75,1.58,1.82,1.82,1.21.24,1.37-.32,2.52-.48,1-.13,1.76.35,2.44.32,1.45-.05,1.32-.66,2.52-1.1,1.16-.31,2.39-.31,3.55,0,.87.43.66,1.13,1.93,1.45,2.22.53,2.1-.66,2.15,1.91.03,1.23-.33,2.43-1.04,3.44,2.78.96,4.62,7.22,4.16,10.21s-2.09,3.13-.66,6.31c.74,1.72,1.29,3.51,1.64,5.35.5,2.25,2.11,3.78,2.69,5.83.5,1.74-.26,2.3.53,3.25,2.1,2.52,7.65-.46,9.29-2.39.81-.89,1.51-1.89,2.07-2.96.37-.88-.12-2.15.09-2.69.18-.43,1.56-.7,1.98-1.32,1.18-1.69-.6-2.42-.26-4.19.26-1.43,2.69-2.17,3.38-2.87,1.72-1.7,1.82-3.59,1.39-6.14-.24-1.44-1.45-3.57-.96-5.32.66-2.35,3.4-4.62,5.03-6.21,1.29-1.18,2.38-2.57,3.21-4.11.55-1.06.9-1.16,1.04-2.58.22-2.24.55-1.7-1.21-1.72-2.44,0-3.16,1-4.86-1.04-.98-1.19-2.55-2.31-3.48-3.64s-1.87-4.28-2.43-5.83c-.84-2.36-1.32-4.79-2.87-6.89,0-.18.15.14.06,0h0Zm-87.97,73.09c-.34-.08-.32-.66-.56-.66.11,0-.78,1.13-.78,1.12.52.6,1.1,1.13,1.74,1.61-.08.11-.11.25-.09.39-2.79,0-.56,2.7-1,3.82.22-.04.44-.04.66,0,.04.2-.1.4-.3.44-.03,0-.06,0-.09,0,.46.52.22.22.66.34.63,1.05,1.35,2.04,2.16,2.96,1.66,1.12,3.23.57,4.83.44-.07-.57-2.07-1.19-2.48-2.28s-1.28-3.76.31-3.58c0-1.1,1.98-2.34,1.87-3.14-.16-.94-2.18-.37-1.48-2.24.22-.59,1.32-.27,1.56-.59s-.08-.78.22-1.13c-.2.24,1.02-2.09.86-1.23.28-1.53-1.04.04-.75-2.22,2.04.9,2.44.08,2.14-1.98,1.68.06,3.71.13,4.48-1.68.83-1.91-.76-1.48-1.06-3.14,1.87.27,2.59,1,4.04-.43.66-.66,1.22-3.37,1.98-3.25-.11.38-.17.42-.09.77,2.24-1.23,1.61-4.71,2.83-6.3.78-.94,1.83-1.61,3.02-1.91,1.78-.56,2.27-.43,3.27-2.35,1.19-2.26.7-5.7,1.65-7.53.7-1.32,2.22-2.12,2.64-3.65.25-.61.25-1.29,0-1.89-.51-2.04-.49-.7-1.65-1.71-.9-.89-2.07-1.47-3.33-1.64-.84-.18-3.82.04-2.57-.66-.54-.44-1.15-.77-1.82-.99-1.52-.32-1.19.05-2.26.56.09-.16.55-1.27.56-1.37-.46-.1-.92-.23-1.36-.4-.39-.13-.17.96-.98.86.16-.4,1.74-2.59.25-2.59.26-2.9-2.18-3.04-3.8-3.51-1.32-.34-4.24-1.82-4.24-3.45-.75.28-2.07-.1-.92-.66-.77-1.09-2.37.44-2.82.43-1.66-.07-2.46-1.6-4.04-1.92,0,.94-.59.73-1.09,1.29-.07.09.15,1.37.09,1.58-.8-.89-.72-2.27.17-3.07.03-.03.06-.05.09-.08-1.47-.46-5.56,2.54-5.81,4.57-.13,1.13.94,2.31.24,3.87-.38.86-1.98,2.64-2.82,2.96.15,1.45-.4,1.72.95,1.82-.56,1.08-1.88,1.72-1.12,3.48.18.44,1.04.54,1.39,1.09.37.63.68,1.29.92,1.98.48,1.29.92,3.44,1.68,4.4,1.04,1.32,2.28,1.7,3.57,2.81,2.18,1.89,1.38,5.94,1.03,8.88-.2,1.61-.75,3.16-.92,4.62-.2,1.78,0,3.62-.66,5.28-.72,1.85-.66,2.94-1.12,5.02,0-.13,0,1.37,0,.99,0,.32-.59.66-.46,1.05.61,1.98,1.14-1,1.76-1.05-.42,1.35-.69,2.75-.79,4.17-.34-.66-.43-.28-.55-1.16-.38.22.23,1.52.19,1.86Zm2.21-61.64c1.51-.38,3.7-.09,5.21-.66-.66-.91-2.73-.62-4-.81-.81-.11-2.47-1.16-2.6.24-.09.61.34,1.17.95,1.26.15.02.3.01.45-.03h0Zm-4.71-.3c-.4-.59-1.14-.85-1.82-.66.46.66,1.32,1.25,1.82.66-.07-.08-.13.18,0,.03v-.03Zm2.36-2.14c-.66-1.17-3.37-1.86-4.52-2.35-.74-.29-2.44-1.06-3.37-.47s-.77.75.33,1.32c.48.26.76-.55,1.22-.46.66.11,1.04.71,1.38.85,1.55.74,3.24,1.14,4.96,1.16v-.05Zm41.42-52.23c.8-.15,1.08-.13,1.32.76-.57-.12-1.16-.12-1.73,0,0,.19.06.39.09.58,1.77-.32.4.78,1.32,1.14.19.07,2.23.3,2.34.28,1.56-.09,1.7-.45,3.04-1.24,1.14-.66,1.64.27,1.98-1.05.15-.53-.66-.54-.87-.57.38-2.38-2.56-.26-4.01-.47-.22,0-1.52-.22-1.28-.19-.63-.07.05-1.08-.61-.2-1.58-.58-1.98,1.05-1.55.96h-.03Zm-27.28,19.51c-.34.24-2.36,3.82-2.21,4.09.3.56,1.38,0,1.98.22.89.29,1.09.66,1.98,1.15,1.35-2.25.08-3.03-1.91-3.73,0,.04,1.21-2.36.17-1.72-.13.11.1-.03-.01.03v-.03Zm-4.71,2.11c-.86-.31-1.25-.71-2.09-.58.79.53,1.32,1.82,2.09.58-.13-.01-.04.09,0,.03v-.03Zm24.74-25.26c.23-.1.49.29.67.35,1.46.54,1.46-.1,2.65-.66,1.06-.48,3.69-1.14,4.07-2.3-1.44,1.32-4.81-1.74-1.25-1.56-.15,0,1.61,2.15,2.01.28.15-.66-1.32-2.34-1.77-2.64.25-.26,1.87,1.11,1.38-.66-.23-.84-.62-.85-1.59-.48.19-.33.37-.3.49-.61-.17-.06-.34-.14-.49-.25.52,0,2.01.84,2.71.3,1.59-1.23-.98-.79-.98-1.39,0-.15,2.42-.28,2.59-.61-.51-.59-1.87-1.59-.24-1.75.04-1.54-1.96-1.54-1.73-2.41.09-.36,1.06-.49,1.32-.38,1.05.47.18.57.62,1.67.29-1.98.95-2.46-1.11-2.46.57-.73,0-.2.99-.74-.58-1.02-2-.04-2.01-.05-1.47-1.37,3.71-5.1,4.19-5.82-.66.05-1.29-.09-1.94-.11,1.34-.32,2.11-.28,3.26-1.15.31-.24,1.97,0,1.25-1.28-.12-.23-1.87-.13-2.01-.11-1.11.15-2.21.39-3.29.71-.62.21-3.2,1.8-3.57,1.72,1.47-2.16,2.29-2.48-.41-2.94,0,1.25-.77,1.12-1.81,1.32.17-1.01.77-.61,1.4-.95-1.53-1.32-4.32.73-6,.42.45-1.56,7.3-1.69,8.87-1.9v-.41c-1.18-.03-2.35-.21-3.49-.52-1.82-.35-3.6.15-5.38-.07,1.31-1.04,3.96-.58,5.84-.58-.21-1.69-8.42-.99-9.49-.59s-.11.87-1.53,1.05c-.84.11-1.53-.46-2.38-.5-1.1-.03-2.19.15-3.22.53.26.61.89.35.89,1.21-.34-.3-1.81-1.02-1.34.05-.12-.26,2.61,1.61,1.84,1.61-1.74,0-3.04-1.62-4.88-1.62,0,.46,1.13,1.24,1.29,1.93-1.09-.36-1.84-1.52-3.01-1.66.3.66.39,2.37-.58,1.7,0,0,.46-1.39-.18-1.8-.77-.51-3.24,1.25-3.75.95.73.25,1.41.65,1.99,1.19-.79,0-1.44-.66-2.26-.74-.53-.09-.39-.58-1.1-.19s-.14.97-.32,1.09c-.62.44-1.99.61-3.21,1.37-.48.3-1.66.28-1.59,1.25.57.11,1.15.11,1.72,0,.47,0,0,1.79-.12,1.89-.22.22-1.25.17-1.57.26-.84.26-2.36.15-3.22.74-2.78,1.9,2.36,2.06,3.87,2.06-.3,1.46-3.41.38-3.41,1.21,0,.41,1.36.86,1.64.93-.23,0-.26,0-.32.19.42.39,1.21,1.19,1.82.94-.04-.11-.31-.38-.17-.49.92-.66,4.9-.15,5.99.66,1.7,1.42,2.77,3.53,2.95,5.82h.39c-1.57,3.3,2.21.59,3.28,3.54-1.02,0-1.97-.79-2.91-.34.23.81-.62,2.14.82,2.18,1.25,0,1.66-1,.2-1.26,2.07-.29,1.57.66,2.15,2.34-.92-.06-1.66.13-1.63,1.19-2.06-.31.11,2.81.23,3.3-.05-.13.62-.33.74,0s-.67.55-.46.77c-.32-.35.37,1.32.29,1.1.28-.24.61-.42.95-.53-.62,1.5,0,4.04,1.4,5.28.62.55,3.7,1.93,4.19,1.61.68-.43.5-2.07.77-2.81.17-.44-.42-.57-.19-1.1.12-.28.73-.09.92-.52.83-1.78.32-3.47,2.41-3.68-.06-1.16.04-.32.57-.71-.12,2.98,4.29-3.36,4.31-3.37v-.03Zm-46.68-15.16c.92,1.57,5.1,1,6.64.72.41,1.15,2.88.44,2.78-1.06-.23.13-.46.23-.69.34-.07-.23-.15-.48-.22-.71.99-.2.94-.48.7-1.43,1.24.38,2.3.17,1.43-1.09-.13-.2,1.32-.05,1.32-.24,0-1.32-2.21-.89-2.77-.34-.06-.15-.12-.32-.17-.47,1.42-1.1,2.96.42,4.28-.91-.25-.21-.51-.41-.77-.61.87.36,1.85.38,2.73.04-.43-.36-.36-.66-.91-.9,2.05.54,4.46-1.92,6.37-2.48-.61-.66-2.24,0-3.3-.16.86-1.21,5.6-.04,5.91-1.72.2-1.14-4.13-1.32-5.16-1.05-.4-.44-2.05-.93-3.09-1.06-.4,1.6-5.06-.73-4.72,1.11-1.32-.53-4.19-.84-5.18.71,1.1-.07,2.29.18,2.83,1.15-1.1-.32-2.56-1.08-3.52-1.32-.96-.24-1.82.37-2.1.41-1.05.16-3.15.77-4.42,1.07,0,.14-.01.29-.04.44,1.08.37,1.15,1.05,2.34,1.45,1.71.58,1.77-.43,3.25-.66-2.96,1.91,1.64,1.25,2.44,1.02,1.66-.45,2.81-1.51,4.55-1.45-.73.1-1.4.43-1.92.94.6-.02,1.19,0,1.78.1-.88.72-3.67.96-4.94,1.04v.48c.84.39,1.32,1.08,2.34,1.06-1.48.44-3.69-1.16-5.35-1.39.13,1.56,2.64,2.81,4.09,2.73-.33.42-.48.74-.75,1.09-2.48-2.67-6.19,1.48-1.6.58l-.75.43c.54.96,1.52.66,2.26-.19-.84,2.48-3.3.13-4.86.34.63,1.12.03,1.58-.84,2Zm.03-3.11c.24-.32.66-.12.56-1,2.77.46,2.13-1.42.4-2.64.1.07-5.6-3.08-5.47-2.17.41.1.77-.22.87.34-.55.15-1.12.25-1.7.28.35.26.46.66.61.81-.39,0-.78,0-1.17.05-.17.48-.28.98-.31,1.49,1.04,1.15,2.57.17,3.69,1.19-.66.05-1.32.42-1.98.52,1.12,1.27,2.91,1.71,4.5,1.12Zm-2.26,1.63c-.13.22-.26.44-.39.66.65.26,1.38.21,1.98-.15-.44-.83-.84-.67-1.59-.51Zm.66,6.14c.86-.19,10.45.66,9.03-1.76-.84-1.47-4.62.11-5.78.07-2.43-.06-2.76-2.83-4.93-2.13.84,1.52,0,3.16,1.72,3.82h-.03Zm-6.03,0h.61c-.24-.72-.24-.15-.55,0h-.05Zm1.32-1.18c.45.44,2.81,1.64,2.56-.05-.14-1.37-2.11-.71-2.51.05h-.05Zm2.14-2.36c.96-1.11-.46-1.89-1.48-1.72-2.06.37.55,1.73,1.53,1.72h-.05Zm-2.13-2.36c.77-.01,1.54-.12,2.29-.32v-.48c-.91-.15-1.93-.23-2.24.81h-.05Zm.52-1.18c2.17-.58-1.45-1.66-2.13-1.43.33,1.14,1.05,1.82,2.18,1.43h-.05Zm-2.8-3.53c-.32-.66-.54-1.02-1.32-.86v.57c.4.28.89.39,1.37.3h-.05Zm-.19,3.53c.66-1.7-3.65-2.84-5.28-2.18.53.33,1,.76,1.39,1h-.66c.64,1.21,3.37,1.35,4.61,1.18h-.05Zm-1.65,1.18c-.55-.24-.72-.59-1.39-.38.31.82.74.55,1.45.38h-.05Zm-.4,3.53c.89-.49,1.43-.11,1.61,1,1.16-.05,2.03-.5,1.89-1.86-.16-1.49-1.53-.86-2.76-1.39.47.35.86.8,1.14,1.32-.66-.35-1.34-.63-2.05-.85.09.4.1.78.22,1.19-.81-.66-1.16-1.78-2.29-1.91-.09,1.46,1.12,2.18,2.3,2.51h-.05Zm-2.52,1.18c.1.07.95,1.16.95.04.05-.63-.78-.04-.9-.04h-.05Zm.3-4.71c-.27-.54-.71-.97-1.25-1.23.11.96.53,1.49,1.31,1.23h-.05Zm22.62,17.72c.62.2,2.34-.04,1.73-1.12-.41-.39-1.07-.37-1.46.04-.27.28-.35.69-.22,1.05l-.05.02Zm-14.03-8.07c.26-.51.66-.32.66-1.1,1.21.48,1.71-.71,2.34-1.66-.89-.36-2.77-1.05-3.56-.42s-.96,3.65.61,3.16l-.05.02Zm-3.8,1.46c1.98,0,2.4-1.98.48-2.95,1.47-.51.32-1.5-.51-1.8-.15-.05-1.32.66-1.98.51,1.22,1.4.28,2.29-1.07,1.47.06.96,2.3,2.3,3.08,2.77Zm-4.86-2.86c.37-1.32-1.15-1.57-1.87-.85.71.7,1.19,1.18,1.89.85h-.03Zm-2.86-1.24-4.16-8.19h3.09c-.57-1.27-2.28-.9-3.09,0Zm.88,1.18c.86,0,1.98-.11,1.21-1.05.36-.18.5,0,.75-.48-.99-.18-2.02.02-2.87.57.15.64.45.73.89.96h.03Zm-1.54-.44c-.27-.62-.34-1.03-1.18-.86.18.79.55.71,1.18.86Zm-.87,2.79c-1.23.4-2.46,1.8-1.6,2.56s3.59,0,4.55.07c-.33.42-2.36,0-2.22.79.18.89,1.7.34,2.2.23,1.06-.21,5.04-.79,4.75-2.41.11.66-2.64-1.65-2.38-1.58-1.27-.41-1.74.4-1.09,1.67.24.11.66-.06.73.27.11.51-4.3-1.35-4.95-1.6h.01Zm.26-1.18c.28.13.37.66,1.05.48,0-.16,0-.32-.05-.48-.33.1-.68.1-1.02,0h.01Zm-3.48,1.92l-.44.57c.95,0,.77.18,1.27-.81l-.83.24Zm1.39-1.2c.73-.31,1.2-1.02,1.21-1.81-2.64-.71-3.47,1.98-5.86,2.24,1.13,1.88,2.81.17,3.82-.85.23.86.55.24.83.42Zm.6,12.46c1.87-.17,1.93.91,3.39,1.32,1.47.41,2.56-.66,3.86-.96.78-.16,5.94.77,4.13-.81.72,0,.95-.41,1.39-.66-1.6-1.21-2.26-1.2-3.06-2.88-.31-.66-1.66-3.82-2.76-2.31-.5.71,1.32,2.35-.04,2.24-.66-.07-.66-2.12-1.98-2.2.16.3.28.66.43.95-.44.21-.9.37-1.38.48.12-.31.21-.63.29-.95-.79-.35-1.7-.28-2.43.18.43-1.79-1.11-.94-1.9-.55-1.43.7-1.48,1.05-2.13,2.27.95.41,1.98-.26,2.86.48-.7.1-1.35.4-1.87.87.97.57,4.09-.29,4.62.66.18.36-3.43.53-3.96.9.14.33.34.65.54.96Zm7.26,1.87c.78-.23,1.27-.41,1.44-1.14-.82.16-1.61.48-2.3.95l.86.19Zm-12.11-5.62c1.54.26,2.16-1.98,3.49-2.75,2.17-1.22,2.69-1.58-.08-2.2-.71-.17-4.29-1.09-5.03-.4-.42.38-.54,3.19-1.45,4.32,1.05.05,1.98.73,2.34,1.72.23-.22.48-.45.72-.67h.01Zm-36.16,17.75,15.54-1.26c.21-1.48,2,.34,2.93.64,1.2.39,2.34.1,3.52.52,2.05.73,3.48,2.8,5.54,3.22.14.46.36.9.64,1.29.1.13,1,.57,1.11.79.71,1.18,1.13,2.33,1.75,3.22,1.09,1.62,1.51,1.76,3.07,2.79,1.12.73,2.45,1.98,2.29,3.71-1.29-1.71-2.58-4.05-4.74-3.77,1.01,1.33,2.51,1.8,3.15,3.48s-.19,3.41-.19,4.85c.08,3.04,1.08,5.98,2.88,8.43.96,1.17,2.45,1.22,3.33,2.72.71,1.19,1.33,2.71,1.99,3.94.23.39-.27.59.24,1.42.31.5,1.17.94,1.58,1.42.29.32,1.68,2.12,1.79,2.8,1.29-1.47-3.8-6.6-3.95-8.71,1.43-.19,3.06,3.39,4.11,4.64,1.35,1.58,2.58,3.73,3.94,5.46-2,1.49,5.94,4.74,7.24,4.95.39.06.83-.47,1.56-.24.83.26,1.2,1.24,1.87,1.67.91.44,1.9.7,2.92.75,1.16.89,1.74,2.63,2.35,3.27.88.89,2.88,1.57,4.13,2.18-.34-2.36,2-.21,2.1-1,.19-1.55-2.94-.57-3.81-1.2-2.09-1.55.14-3.27-.93-4.99-.92-1.46-3.22-.3-4.38-.85,1-1.2,2.49-5.03.33-4.89-1.93.14-1,1.64-2.2,2.68-1.2,1.05-2.89.34-3.76-.48-1.93-1.85-1.83-6.93-.7-8.79,1.57-2.54,4.08-.08,5.79-.68-.42-1.6,1.22-1.36,2.25-1.29-.1,0,2.34.5,2.03.26.76.59,2,4.98,2.79,4.9.97-.09-.74-5.92.56-7.56.83-1.06,2.58-1.29,3.08-2.58.43-1.07-.19-1.6-.46-2.93.71.21.34-.44,1.09.42.27-.64.87-2.4,1.29-2.86.53-.52,1.93-.64,2.81-.9-1.29-2.7,3.63-4.64,5.47-4.17-.25-.05-1.78.6-1.99,1.08-.64,1.44,1.14.21,1.2.19,1.67-.27,3.08-1.4,3.7-2.97-1.22.64-1.56,1.71-3.05.84-1.98-1.18-.07-2.23-.52-3.01-1.25-2.12-4.39,1.73-5.7,2.65.33-.69.79-1.32,1.36-1.83-.32-.08-.64-.19-.98-.28,1.65.41,2.61-1.87,4.02-2.32.94-.3,2.25.08,3.22,0,1.49-.15,1.33-.34,2.58-.95,1.15-.52,2.99-.71,2.44-2.34s-2.52-.48-3.7-.35c.56-1.04,1.7-.82,2.58-1.62-1.52-.17-2.88-1.03-3.68-2.33.91-.64-1.69-3.71-2.16-4.85-.75.92-.75,2.4-1.93,2.7s-1.01-1.06-2.32-.68c.82-3.12-1.46-4.19-3.66-4.81-2.5-.72-4.17.68-2.4,3.53h-.12c-.2.49-.06.8-.34,1.31,2.38,1.09,1.84,5.07-.91,4.97.79.93,1.49,4.41-.26,4.58-1.75.18-2.09-3.49-1.96-4.86-1.7-.23-3.35-.79-4.84-1.64-.75-.42-1.64-.72-2.3-1.01s-.74.32-1.25,0c-.39-.26-.45-1.2-.7-1.54-.87-1.18-1.31-.5-1.15-2.44.2-.98.65-1.9,1.31-2.65.56-.62,1.87-.79,1.73-1.68-.09-.58-2.23-.92-2.62-1.09,1.12.12,3.19,1.26,3.49-.28,1.31.86,1.92-.12,2.28-1.31-1.19.09-2.08-.55-3.1-1.08.78,0,5.24,1.22,3.4-.91,1.96-.16.65,3.33-.26,3.7.73.85,1,1.07,2.11,1.05.41-.26.85-.48,1.31-.65.39-.07.81.44,1.13.39,2.47-.46-2.38-2.34-2.8-3.33,1.11-.05.44,0,.9-.65,1.7-.14,2.47-1.72,1.31-3.27,2.31-.43-.54-2.09-1.37-2.51,1.42-.24,2.93.5,4.43-.1-.23-.23-.46-.46-.69-.71,1.57.5,2.66,1.56,4.04,2.69.58.48,1.66,1.2,1.7,2.16.05,1.31-2.17,1.24-1.17,2.87-.82.2-3.75-.51-3.62,1.09s2.28-.14,2.82-.08c1.73.24,1.86,1.56,2.97,2.56s2.82.82,4.11,1.6c.05-1.2-1.62-1.8-2.24-2.85,1.14.62,2.28,1.24,3.36,1.96.19-.53.34-1.07.47-1.62-1.2-1.1-2.31-2.3-3.31-3.59.79-1.26,1.09-.39,2.01.14,1.47.86.83,1.35,2.01.99-.09,0,1.45-1.31,1.44-1.31.5-1.02.58-.26-.09-1.18s-7.24-2.95-3.96-3.7l-.99-.29c.17-.18.37-.33.6-.43-.51-.22-.7-.65-1.31-.8.09-.18.19-.35.3-.52-1.21-.28-1.78-.58-2.88-.9.19-.14.4-.28.59-.43-2.17-.06-2.31-1.41-3.82-1.96-1.16-.4-3.4,1.03-3.89.74-.77-.44.19-.89-.31-1.68-.84-1.35-.73-1.18-2.1-.9-2.08.43-1.96,2.26-.92,3.78-2.18.31-1.87-3.27-.31-4.11-1.66-.08-3.21.12-3.88,2.07-.89,2.66.9,1.45,1.77,2.85-.65-.17-1,.12-1.58.09.53.84,2.93,1.11,3.96,1.46-.65.28-.96,4.94-2.62,3.99-.75-.43,0-1.73,0-1.75-.65-.82-1.27-.5-1.5-.65s-1.54-.65-2.04-1.44c-.69-1.12-.87-4.21-2.98-2.62-1.96,1.52,2.13,4.25-.2,3.72.35,1.06,1.08,1.01,1.9.19,0,1.62-1.96,1.07-1.38,2.94-.97-.73-.74-.43-.69-1.52-.9-.27-.17-.05-.65-.81h.24c.09-.95-.6-1.79-1.55-1.89-.24.27-.81.94-1.03,1.23.45.2.8.71,1.25.9-1.03,2.05-3.03,1.12-4.74.69-1.11-.28-1.25-.76-2.33-.27-1.59.74-.85.86-1.08,2.62-.7-2.76-4.03-1.84-6.03-2.04.16-.1.36-.58.94-.8-1-.89-4.34-1.97-5.52-2.19-1.46-.31-2.9,1.36-3.44-.6-.42,1.58-.73.58-1.4.54-.22,0-.47-1.08-.97-1.14-.66-.09-.26.47-.66.56-1.3.53-2.55,1.19-3.72,1.97.79-1.14,2.07-.98,2.84-1.97-1.46,0-3.18.88-4.64,1.21-2.45.56-3.43-.56-5.9-.87-1.88-.22-3.6-.66-5.55-.83-2.06-.18-3.13-.99-5.25-.71l.22-.52c-1.31-.27-3.08.66-4.24,1.04-1.6.52-1.71,1.59-2.83,2.35-1.59,1.06-2.71-.07-1.44,1.78.8,1.17,2.53,1.31,3.11,2.85-.91.33-1.89.28-1.97-.85-1.03.81-2.19.52-3.06,1.65,1.11.5,1.11,1.51,2.07,1.77,1.1.31,2.56-.52,3.59-.62.14,3.47-3.51,1.01-4.05,4.08-.13.83,1.6,4.29,2.72,2.27.59.59.79,1.48.5,2.27,1.09-.24,2.31.18,2.85-.56.34,0,.79.1,1.25.09-.81,3.97-4.92,3.32-6.85,5.75,2.79.75,7.42-3.93,9.84-5.42-.22-.35-.42-.7-.66-1.04,1.47-.53,2.01-3.21,3.71-2-1.2.16-1.87.93-1.51,2.19.85-.62,1.84-1.01,2.88-1.15-.05-.14-.11-.35-.2-.56h.87Zm-3.97,3.53v-.86c-.88.7-2.16.88-1.44,2.15.59-.28,1.09-.72,1.43-1.29h.01Z"/>
        </g>
      </g>
      <g id="freepik--Plant--inject-32">
        <line class="cls-19" x1="118.73" y1="265.23" x2="118.75" y2="233.42"/>
        <polyline class="cls-19" points="104.09 240.57 118.27 251.74 128.2 239.13"/>
        <path class="cls-21" d="m118.33,237.85c-2.2-2.04-3.82-4.63-4.68-7.51-1.32-4.67,5-13.14,5-13.14,0,0,4.14,8.58,4.58,12.67s-4.9,7.99-4.9,7.99Z"/>
        <path class="cls-21" d="m124.61,243.54c.01-2.43.18-4.85.51-7.26.48-2.59,4.15-4.24,6.81-4.88s7.78.11,7.78.11c-.52,3.29-2.21,6.29-4.77,8.42-4.22,3.39-10.34,3.61-10.34,3.61Z"/>
        <path class="cls-21" d="m111.1,245.52s1.41-2.46-3.87-7.81c-5.29-5.35-14.03-.95-14.03-.95,0,0,4.22,6.15,6.87,8.16,2.65,2.01,11.04.6,11.04.6Z"/>
        <path class="cls-21" d="m118.14,258.27c-2.04-2.64-4.91-4.5-8.15-5.28-5.25-1.17-8.52-.32-8.52-.32,0,0,3.35,6.88,7.21,7.83s9.46-2.22,9.46-2.22Z"/>
        <path class="cls-21" d="m118.14,258.27c.63-1.22,1.61-2.23,2.81-2.9,2.2-1.39,8.06-1.75,8.06-1.75,0,0-.15,2.92-3.62,4.5s-7.25.15-7.25.15Z"/>
        <line class="cls-16" x1="111.1" y1="245.53" x2="97.97" y2="237.49"/>
        <line class="cls-16" x1="118.73" y1="238.13" x2="118.73" y2="223.99"/>
        <line class="cls-16" x1="124.61" y1="243.55" x2="131.76" y2="235.59"/>
        <polyline class="cls-16" points="110.18 256.9 118.14 258.27 122.94 256.76"/>
        <polygon class="cls-15" points="127.25 261.7 107.57 261.7 109.21 277.01 125.61 277.01 127.25 261.7"/>
      </g>
      <g id="freepik--Character--inject-32">
        <path class="cls-13" d="m256.71,177.84l1.74,8.65s-11.68,3.47-19.69,5.41c-8.01,1.95-12.45,3.3-11.8,7.44s0,13.2,0,13.2l-8.75,38.64-.66,2.81,18.19,3.01,3.27-10.8s1.95,3.46,1.95,5.84-2.17,24.95-2.17,24.95h67.49l7.57-47.24s5.41-24.67,5.84-28.35,2.38-7.79-.86-10.6c-3.24-2.81-32.89-4.54-33.54-4.76s-2.38-.86-2.38-.86l-.66-6.28c-3.38,1.63-7.07,2.51-10.82,2.59-5.84,0-14.52-5.84-14.52-5.84l-.18,2.17Z"/>
        <path class="cls-20" d="m259.46,246.77s12.18,5.12,20.5,6.19"/>
        <path class="cls-20" d="m238.76,217.83s-3.89,16.23-3.25,21.2c.31,2.84,1.53,5.49,3.49,7.57"/>
        <path class="cls-12" d="m235.9,262.64s1.98-2.74-.77-6.24-9.9-5.02-13.24-4.57-5.64,2.75-8.53,5.49-5.79,5.02-5.79,5.02c0,0-4.57-3.96-6.4-4.57-1.83-.61-8.22,5.48-9.9,7.16s-3.35,1.98.46,4.42c3.8,2.44,4.87,2.13,8.53,2.28,3.66.15,13.55-.76,15.23-1.68s7-.61,10.96-1.98c6.52-2.25,6.55-2.44,9.45-5.33Z"/>
        <path class="cls-12" d="m186.18,262.98s-4.21.7-5.44,1.58-3.68,3.16-2.64,4.39c1.04,1.23,4.03-1.58,4.56-1.58s6.16,1.26,6.16,1.26c0,0-.53-4.77-2.64-5.64Z"/>
        <path class="cls-12" d="m190.92,258.06s-5.44,1.05-5.94,2.64.17,9.65.7,10.71,2.11,1.05,2.81-.18.7-6.32,1.23-7.55,1.21-5.62,1.21-5.62Z"/>
        <path class="cls-12" d="m197.41,257.36s-4.21-1.58-6.15-.87c-1.93.71-3.16,12.81-2.11,13.51,1.13.6,2.53.17,3.12-.96.07-.14.13-.29.18-.44.53-1.58,1.58-5.43,1.58-5.43l2.64-2.11"/>
        <path class="cls-12" d="m202.42,255.85s5.56,5.59,7.13,6.49c1.51.86,3.23,1.3,4.98,1.27,2.07-.07,3.84-1.78,5.91-.7.56.24.97.73,1.12,1.32.15.86-.52,1.62-1.2,2.17-2.84,2.22-6.57,2.95-10.03,1.95-.21-.08-.44-.12-.66-.11-.22.05-.43.16-.6.31-1.04.89-2.21,1.61-3.47,2.13-2.47.84-5.62.11-5.62.11"/>
        <path class="cls-20" d="m199.97,262.86s1.51,1.51,3.53-.66"/>
        <path class="cls-12" d="m200.58,259.47s-1.58,6.85-2.28,8.07c-.7,1.23-2.46,1.76-3.51.53-1.05-1.23,1.41-10.56,1.58-11.93.1-.8.77-1.4,1.58-1.4,0,0,2.64-.35,3.69.17s2.81,4.04,2.81,4.04"/>
        <path class="cls-12" d="m285.28,186.45c-.66-.22-2.38-.86-2.38-.86l-.66-6.28c-3.38,1.63-7.07,2.51-10.82,2.59-5.84,0-14.52-5.84-14.52-5.84l-.22,2.17,1.74,8.65s-4.71,1.4-10.2,2.92c2.56,5.69,9.55,19.45,18.42,22.19,8.72,2.68,21.46-16.2,26.76-24.84-4.52-.38-7.9-.62-8.12-.69Z"/>
        <polygon class="cls-18" points="259.77 193.31 252.8 188.45 258.45 186.88 259.77 193.31"/>
        <polygon class="cls-18" points="258.45 186.88 259.77 193.31 270.64 186.55 256.72 178.23 258.45 186.88"/>
        <line class="cls-20" x1="282.9" y1="185.59" x2="283.64" y2="190.82"/>
        <path class="cls-20" d="m285.6,196.01s-10.51,2.85-12.29,3.39c-1.78.53-3.38,1.25-3.74,2.14"/>
        <line class="cls-20" x1="255.68" y1="197.76" x2="264.01" y2="201.52"/>
        <path class="cls-12" d="m287.84,155.16s1.26-2.88,2.52-.54c1.26,2.34,2.17,5.23.54,7.92-.79,1.43-1.83,2.71-3.06,3.78l-1.45-11.7,1.45.54Z"/>
        <path class="cls-12" d="m246.02,161.83c-.85,2.46-.79,5.15.18,7.57,1.62,4.15,6.31,3.79,6.31,3.79,0,0,4.32,6.85,7.57,9.9,3.25,3.06,12.61,8.11,16.4,6.85,3.79-1.26,9.19-9.01,10.81-15.68,1.62-6.67.18-16.4.18-16.4,0,0,.72-5.94-1.26-10.81s-4.51-6.85-9.01-6.31c-4.5.54-16.04,2.17-22.35,6.49-6.31,4.32-7.75,7.57-7.75,9.55s-1.08,5.05-1.08,5.05Z"/>
        <path class="cls-18" d="m281.17,146.33s1.8,3.96,3.42,5.05l1.62,1.08s.9,3.96,1.26,5.41,1.62.9,1.8-.9.18-4.15.18-4.15c1.75-1.41,3.06-3.28,3.79-5.41,1.26-3.6,2.52-8.65-1.45-12.8-3.97-4.15-8.29-5.04-10.27-4.5s-1.98,10.99-.36,16.22Z"/>
        <path class="cls-18" d="m246.02,161.83c.85-.62,2.05-.46,2.71.36,1.26,1.44.72,3.43,1.44,4.15s2.34,1.26,2.52-.9-1.26-5.59-.54-7.22,3.07-3.42,5.23-2.16c2.16,1.26,5.94,4.15,8.65.72,2.71-3.43,2.52-8.83,4.51-9.01,1.99-.18,1.62,1.8,6.3,1.26,4.69-.54,6.67-1.62,7.03-11.54.36-9.92-4.69-18.38-11.35-20.54-6.67-2.16-24.87,1.44-31.54,10.81-6.67,9.37-6.31,18.93-3.6,22.71,2.71,3.78,9.19,10.46,8.65,11.35Z"/>
        <path class="cls-14" d="m276.7,131.54s-7.04-2.05-9.99,1.36-3.18,10.89-6.6,12.02c-3.43,1.13-5.9-2.26-8.4,0s-.66,6.13-4.09,7.49-7.71-2.05-7.71-2.05"/>
        <path class="cls-14" d="m256.05,137.92c-2.33-.49-4.75.1-6.6,1.59-2.94,2.5-.22,6.13-4.31,6.81-4.09.68-7.03-2.27-7.03-2.27"/>
        <path class="cls-20" d="m275.04,166.16l.54,4.5s3.43,4.15-.36,5.05c-3.79.9-3.6-1.45-3.6-1.45"/>
        <path class="cls-20" d="m268.04,178.23s4.33,2.52,7.57,1.98c3.24-.54,5.23-4.32,5.23-4.32"/>
        <path class="cls-11" d="m266.39,167.15c0,1.24-.66,2.25-1.45,2.25s-1.44-1.01-1.44-2.25.66-2.25,1.44-2.25,1.45,1,1.45,2.25Z"/>
        <path class="cls-11" d="m280.98,164.44c0,1.25-.66,2.26-1.44,2.26s-1.45-1.01-1.45-2.26.66-2.25,1.45-2.25,1.44,1.01,1.44,2.25Z"/>
        <path class="cls-20" d="m258.63,162.74s3.96-3.06,8.83-2.17"/>
        <path class="cls-20" d="m276.3,158.95c1.73-1.65,4.23-2.21,6.49-1.45"/>
        <path class="cls-20" d="m269.04,162.72l-10.25,1.92c-.92.18-1.52,1.06-1.35,1.98l.73,3.57c.2,1.02,1.19,1.67,2.21,1.47,0,0,.02,0,.03,0l9.51-2.04c.94-.2,1.57-1.07,1.48-2.03l-.36-3.41c-.12-.94-.98-1.6-1.91-1.48-.02,0-.05,0-.07.01Z"/>
        <path class="cls-20" d="m277.31,161.11l10.51-1.79c.77-.18,1.54.29,1.72,1.06.03.11.04.23.04.34l.04,3.6c-.04,1.08-.83,1.98-1.9,2.15l-9.84,1.43c-.85.17-1.69-.38-1.86-1.23-.01-.05-.02-.1-.02-.15l-.36-3.3c-.08-1.03.64-1.96,1.67-2.12Z"/>
        <path class="cls-20" d="m271.48,164.99c.99-.97,2.47-1.21,3.72-.62"/>
        <line class="cls-20" x1="257.75" y1="168.06" x2="249.38" y2="163.82"/>
        <path class="cls-13" d="m300.43,213.72l-1.88,35.33s1.32.66,7.35,4.54c6.03,3.88,15.36,4.33,16.66,2.81s-4.18-56.31-4.18-56.31"/>
        <path class="cls-12" d="m217.94,263.71s-.61.61-2.89.91-5.33-.76-6.09,1.52c-.76,2.28,2.74,3.65,4.72,3.35,1.92-.42,3.8-.98,5.63-1.68,0,0,4.26.15,6.24.92,1.98.77,3.51,1.98,6.55,1.21,3.04-.77,5.7-.24,6.66-1.49s3.54-2.64-4.07-4.62c-4.42-1.2-9.06-1.35-13.55-.46l-3.19.34Z"/>
        <path class="cls-12" d="m224.18,257.77s-2.75-.91-4.26.15c-1.52,1.06-3.66,8.98-4.26,11.27-.61,2.28-.61,4.72.46,5.18s2.28-.46,3.04-2.44c.76-1.98,5.03-10.66,5.49-11.72s1.37-2.74-.46-2.44Z"/>
        <path class="cls-12" d="m230.97,258.29s-5.42-.98-6.79-.52-4.72,8.53-4.88,10.05-1.82,6.55.16,7,3.19-1.37,4.11-3.19,2.75-7.61,3.81-8.98c.81-.94,1.79-1.72,2.89-2.28,0,0,2.31-1.09.7-2.07Z"/>
        <path class="cls-12" d="m321.57,258.06s5.32-1.66-2.9-6.42c-8.23-4.76-16.66-5.41-19.47-4.33-2.81,1.08-44.86,14.65-44.86,14.65,0,0-20.34-3.24-23.37-3.68s-4.52,2.81-5.84,5.4-3.03,9.74-2.59,10.6,2.59.22,3.03-.86,1.73-4.76,2.16-5.41,3.68-2.59,3.68-2.59l5.19.86s-3.43,4.57-6.17,6.24-1.67,3.51-.3,3.51,5.49-2.44,7-3.66,4.26-2.89,4.26-2.89c1.29.59,2.69.9,4.11.91,3.08-.19,6.14-.64,9.14-1.37,1.68-.46,38.66-2.44,43.53-3.51,4.87-1.07,17.16-2.88,23.39-7.46Z"/>
      </g>
      <g id="freepik--Device--inject-32">
        <path class="cls-18" d="m218.31,274.66h-78.79l-9.74-54.75c-.25-1.38.67-2.7,2.06-2.95.15-.03.3-.04.45-.04h73.63c1.23,0,2.28.88,2.5,2.09l9.89,55.64Z"/>
        <path class="cls-22" d="m216.9,274.66h-78.79l-9.73-54.75c-.25-1.38.66-2.69,2.04-2.94.15-.03.31-.04.46-.04h73.62c1.23,0,2.29.88,2.5,2.09l9.89,55.64Z"/>
      </g>
      <g id="freepik--Books--inject-32">
        <path class="cls-22" d="m388.55,255.8h-52.39c-2.93,0-5.3,2.38-5.3,5.31h0c0,2.92,2.37,5.3,5.3,5.3h52.39v-10.6Z"/>
        <path class="cls-12" d="m334.86,261.1c0-2.93,2.37-5.3,5.3-5.3h0-1.6c-2.93.1-5.22,2.56-5.12,5.49.1,2.78,2.33,5.02,5.12,5.12h1.6c-2.93,0-5.3-2.37-5.3-5.3h0Z"/>
        <path class="cls-12" d="m350.69,261.1c0-2.93,2.37-5.3,5.3-5.3h0-1.6c-2.93.1-5.22,2.56-5.12,5.49.1,2.78,2.33,5.02,5.12,5.12h1.6c-2.93,0-5.3-2.37-5.3-5.3h0Z"/>
        <polygon class="cls-12" points="361.37 255.8 356.74 258.04 355.81 261.45 357.05 264.23 360.12 266.41 388.55 266.41 388.55 255.8 361.37 255.8"/>
        <path class="cls-15" d="m360.09,264.05c-2.07.37-3.68-1.38-3.6-3.46.08-1.95,1.64-3.51,3.6-3.61h29.64v-1.18h-29.99c-2.97-.32-5.29,2.17-5.19,5.14.1,2.82,2.36,5.09,5.19,5.47h31.17v-2.36h-30.82Z"/>
        <line class="cls-20" x1="357.33" y1="259.34" x2="365.58" y2="259.34"/>
        <line class="cls-20" x1="363.22" y1="261.7" x2="369.11" y2="261.7"/>
        <line class="cls-20" x1="387.96" y1="259.34" x2="379.72" y2="259.34"/>
        <line class="cls-20" x1="383.25" y1="261.7" x2="375" y2="261.7"/>
        <line class="cls-20" x1="378.54" y1="259.34" x2="376.18" y2="259.34"/>
      </g>
      <g id="freepik--Texts--inject-32">
        <path class="cls-11" d="m181.77,113.83v-20.03h3.53v8.25h4.71v-8.25h3.53v20.03h-3.53v-9.43h-4.71v9.43h-3.53Z"/>
        <path class="cls-11" d="m200.74,114.7c-.96.04-1.91-.17-2.75-.62-.71-.42-1.26-1.05-1.56-1.81-.36-.92-.54-1.9-.51-2.88v-3.81c-.03-1,.14-1.99.51-2.92.3-.75.86-1.38,1.57-1.79.84-.43,1.77-.63,2.71-.6.97-.05,1.94.18,2.78.66.68.46,1.18,1.13,1.42,1.9.31.98.45,2.01.43,3.04v2.07h-5.89v2.06c-.37.39-.32.78-.22,1.16.06.27.22.5.44.66.22.14.47.21.73.2.26.01.52-.07.73-.22.21-.17.35-.4.4-.66.09-.34.13-.69.28-1.04v-.98h3.53v.98c.09,1.23-.32,2.45-1.14,3.4-.92.86-2.18,1.3-3.45,1.21Zm-1.29-9.13h2.36v-1.39c.01-.41-.03-.82-.12-1.22-.05-.26-.18-.49-.37-.66-.21-.15-.46-.23-.71-.21-.24-.01-.48.07-.67.22-.2.2-.32.47-.37.76-.09.5-.13,1-.12,1.51v.99Z"/>
        <path class="cls-11" d="m207.69,113.83v-20.03h3.53v20.03h-3.53Z"/>
        <path class="cls-11" d="m213.58,113.83v-20.03h3.53v20.03h-3.53Z"/>
        <path class="cls-11" d="m224.18,114.47c-.92.04-1.83-.17-2.64-.59-.69-.4-1.23-1-1.55-1.72-.37-.87-.54-1.81-.52-2.75v-4.89c-.03-.94.15-1.88.52-2.75.31-.73.86-1.33,1.55-1.72.81-.43,1.72-.63,2.64-.59.92-.03,1.83.17,2.64.59.7.39,1.25.99,1.57,1.72.37.87.54,1.81.52,2.75v4.89c.03.94-.15,1.88-.52,2.75-.32.73-.87,1.33-1.57,1.72-.81.42-1.72.63-2.64.59Zm.02-1.82c.29.03.58-.09.78-.32.18-.26.29-.57.32-.9.05-.41.07-.83.07-1.25v-5.34c0-.41-.02-.82-.07-1.23-.03-.33-.14-.64-.32-.9-.44-.45-1.12-.45-1.56,0-.18.26-.29.57-.33.9-.06.41-.08.82-.08,1.23v5.34c.02.41.06.82.13,1.23.03.33.15.64.33.9.19.23.47.35.75.34h-.02Z"/>
        <path class="cls-11" d="m155.85,160.96v-20.03h2.36v8.25h5.89v-8.25h2.36v20.03h-2.36v-9.43h-5.89v9.43h-2.36Z"/>
        <path class="cls-11" d="m172.96,160.64c-.87.04-1.73-.19-2.47-.65-.63-.43-1.09-1.07-1.31-1.81-.27-.89-.4-1.82-.38-2.75v-4.09c-.02-.93.11-1.86.38-2.75.22-.73.68-1.37,1.31-1.81.73-.47,1.6-.7,2.47-.65.87-.04,1.72.19,2.45.65.61.44,1.05,1.08,1.26,1.81.27.89.4,1.82.38,2.75v4.09c.02.93-.11,1.86-.38,2.75-.21.73-.65,1.36-1.26,1.81-.73.47-1.59.7-2.45.65Zm.49-1.87c.41.04.81-.12,1.07-.44.22-.35.35-.76.37-1.18.04-.48.06-.98-.19-1.51v-4.45c.25-.54.25-1.06.19-1.53-.02-.41-.15-.82-.37-1.17-.25-.33-.66-.5-1.07-.46-.41-.04-.82.13-1.08.46-.23.35-.36.75-.38,1.17-.04.48-.06.99-.82,1.53v4.45c.76.53.76,1.03.82,1.51.02.42.15.83.38,1.18.27.32.67.48,1.08.44Z"/>
        <path class="cls-11" d="m180.59,160.96v-20.03h2.36v20.03h-2.36Z"/>
        <path class="cls-11" d="m188.16,160.71c-.53,0-1.05-.16-1.48-.48-.43-.32-.78-.74-1.01-1.23-.24-.49-.37-1.03-.37-1.58-.02-.77.13-1.54.44-2.24.29-.6.71-1.12,1.22-1.54.55-.44,1.15-.8,1.8-1.09.66-.32,1.4-.62,2.43-.91v-1.01c-.27-.48-.31-.95-.38-1.43-.03-.32-.17-.62-.4-.85-.26-.21-.59-.31-.92-.28-.31-.02-.62.07-.87.24-.23.18-.4.43-.48.71-.1.35.7,1.07.7,1.07v.71l-3.45-.1c0-1.58.39-2.73,1.08-3.49.86-.81,2.02-1.22,3.19-1.12,1.41,0,2.41.39,3,1.16.65.99.96,2.16.89,3.35v6.47c0,.44,0,.87.04,1.28s.06.79.1,1.14.11,1.47.11,1.47h-2.42s-.11-1.07-.18-1.47-.13-.77-.16-1.09c-.19.59-.51,1.12-.95,1.56-.51.51-1.21.79-1.93.75Zm1.31-2.11c.26,0,.52-.08.74-.22.22-.14.43-.31.61-.51.14-.13.27-.29.37-.46v-4.03c-.41.23-.79.46-1.16.66-.34.21-.65.46-.94.73-.27.24-.5.54-.66.86-.35.79-.31,1.69.09,2.45.2.34.58.54.98.51h-.03Z"/>
        <path class="cls-11" d="m313.26,173.64c-.93.05-1.85-.18-2.62-.66-.62-.44-1.07-1.06-1.28-1.76-.24-.8-.36-1.63-.35-2.46v-5.95c-.01-.86.09-1.72.31-2.55.18-.69.57-1.29,1.11-1.72.67-.45,1.44-.66,2.23-.61.72-.04,1.43.15,2.04.54.5.37.87.91,1.06,1.53.23.76.34,1.56.32,2.36v.95h0v-.86c0-.56-.05-1.11-.16-1.66-.08-.42-.31-.81-.65-1.08-.43-.29-.95-.42-1.47-.38-.55-.04-1.1.11-1.55.41-.36.3-.61.71-.7,1.16-.13.57-.18,1.16-.18,1.74v6.29c-.01.62.06,1.23.22,1.83.11.44.38.83.76,1.1.44.27.95.39,1.46.36.52.04,1.04-.1,1.47-.4.34-.29.57-.69.65-1.12.11-.56.17-1.12.16-1.69v-.97h1.18v.94c.01.82-.1,1.64-.34,2.43-.19.66-.62,1.24-1.2,1.65-.73.44-1.6.65-2.47.59Z"/>
        <path class="cls-11" d="m319.63,162.13v-2.36h1.18v2.36h-1.18Zm0,11.78v-10.6h1.18v10.6h-1.18Z"/>
        <path class="cls-11" d="m324.77,174.26c-.41,0-.81-.11-1.16-.34-.33-.23-.6-.54-.79-.9-.2-.39-.3-.82-.29-1.25-.02-.49.07-.99.25-1.45.17-.41.44-.78.78-1.07.42-.36.89-.67,1.39-.92.57-.3,2.92-1.01,2.92-1.01v-.79s-.85-1.08-.95-1.61c-.05-.32-.19-.61-.42-.84-.24-.18-.54-.27-.84-.25-.27,0-.54.05-.79.17-.24.13-.44.34-.56.59-.16.36-.23.75.03,1.15v-.07h-1.63s.19-1.33.72-2.06c.61-.6,1.45-.9,2.3-.83.81-.08,1.6.26,2.11.9.47.85.68,1.82.03,2.79v6.16c.58.3.58.59.62.86s.04.48.05.43h-1.25c-.04-.07-.08-.34-.13-.64s-.07-.54-.09-.72c-.17.46-.45.87-.82,1.19-.42.35-.95.53-1.49.51Zm.11-1.19c.27,0,.53-.07.77-.2.23-.14.44-.31.61-.51.17-.19.32-.4.44-.62v-3.45c-.55.29-1.02.55-1.42.78-.34.19-.66.41-.95.66-.23.2-.42.46-.54.74-.12.31-.18.64-.17.97-.05.46.09.91.38,1.27.23.24.56.37.89.36Z"/>
        <path class="cls-11" d="m333.17,174.21c-.63.03-1.26-.14-1.78-.49-.45-.35-.77-.85-.9-1.41-.19-.74-.28-1.5-.26-2.26v-3.06c-.01-.76.07-1.52.26-2.26.13-.56.45-1.06.9-1.41.52-.35,1.15-.53,1.78-.49.63-.04,1.26.13,1.79.49.45.36.76.86.9,1.41.19.74.28,1.5.26,2.26v3.06c.02.76-.07,1.53-.26,2.26-.13.56-.45,1.06-.9,1.41-.52.36-1.15.53-1.79.5Zm.1-1.01c.4.04.79-.1,1.07-.38.24-.31.39-.69.42-1.08.06-.53.08-1.06.18-1.6v-3.24c-.1-.53-.13-1.06-.18-1.59-.03-.39-.17-.77-.42-1.08-.28-.29-.67-.43-1.07-.4-.4-.03-.79.11-1.06.4-.24.31-.38.69-.41,1.08-.06.53-.09,1.06-.39,1.59v3.24c.3.53.33,1.07.39,1.6.03.39.17.77.41,1.08.28.28.67.42,1.06.38Z"/>
        <path class="cls-11" d="m197.09,183.34v-15.32h1.18v7.07h4.71v-7.07h1.18v15.32h-1.18v-7.07h-4.71v7.07h-1.18Z"/>
        <path class="cls-11" d="m208.81,183.32c-.41,0-.82-.11-1.16-.34-.33-.23-.61-.54-.79-.9-.2-.39-.3-.82-.29-1.25-.01-.49.07-.98.25-1.44.18-.41.44-.78.78-1.08.43-.36.89-.67,1.39-.92.57-.3,2.24-1.01,2.24-1.01v-.79s-.18-1.08-.27-1.6c-.04-.32-.19-.62-.42-.84-.24-.18-.54-.27-.84-.25-.27,0-.55.06-.79.18-.25.13-.44.34-.55.59-.16.36-.24.75-.65,1.15v.29h-.95s.2-1.69.73-2.42c.61-.6,1.45-.9,2.3-.82.81-.08,1.6.26,2.1.9.47.85.68,1.82.54,2.79v6.15c.08.3.08.59.12.86s.03.48.05.79h-1.25c-.04-.41-.08-.69-.13-.99s-.07-.54-.09-.73c-.16.46-.44.88-.82,1.19-.41.35-.94.53-1.48.5Zm.61-1.18c.27,0,.53-.07.76-.2.23-.14.44-.31.61-.51.18-.18.32-.39.44-.61v-3.49c-.55.3-1.02.55-1.41.78-.34.19-.66.41-.96.66-.23.2-.42.46-.54.74-.12.31-.18.64-.17.98-.04.45.09.91.38,1.26.23.25.56.4.9.4Z"/>
        <path class="cls-11" d="m214.76,183.34v-15.32h1.18v15.32h-1.18Z"/>
        <path class="cls-11" d="m221.24,183.28c-.63.03-1.25-.14-1.77-.48-.46-.35-.78-.85-.91-1.41-.19-.74-.27-1.5-.26-2.26v-3.06c-.01-.76.07-1.52.26-2.26.13-.56.45-1.06.91-1.41,1.1-.65,2.46-.65,3.56,0,.45.36.76.86.9,1.41.19.74.28,1.5.26,2.26v3.06c.02.76-.07,1.53-.26,2.26-.14.56-.45,1.05-.9,1.41-.53.35-1.15.52-1.79.48Zm-.07-1.01c.4.04.79-.1,1.07-.39.25-.31.39-.68.42-1.08.06-.53.08-1.07.35-1.6v-3.23c-.27-.53-.3-1.06-.35-1.59-.03-.39-.17-.77-.42-1.08-.28-.28-.67-.42-1.07-.38-.39-.03-.78.11-1.06.4-.24.31-.38.69-.42,1.08-.06.53-.09,1.06-.22,1.59v3.23c.13.54.16,1.07.22,1.6.03.39.17.77.42,1.08.28.28.67.41,1.06.38Z"/>
        <path class="cls-11" d="m338.15,240.73c-1.33.21-2.68.31-4.03.3-.87.02-1.74-.04-2.6-.17-1.6-.36-2.29-1.37-2.29-2.53.07-1.08.56-2.1,1.35-2.83l.77.4c-.67.61-1.09,1.45-1.17,2.36,0,.77.52,1.47,1.66,1.72.71.13,1.44.18,2.16.17,1.37,0,2.74-.12,4.09-.36l.07.96Zm-5.48-6.69c.73-.58,1.52-1.09,2.34-1.54h0c-1,.12-3.3.17-4.79.16v-.93c.29,0,5.39.09,7.56-.42l.11.98c-1.58.19-3.6,1.56-4.46,2.24l-.77-.49Z"/>
        <path class="cls-11" d="m339.56,241.16c.98-2.81,2.64-7.51,3.13-8.91.25-.71.59-1.72.66-2.05l1.43.37c-.07.19-.25.26-.51.26-.73,1.82-1.85,4.92-2.35,6.24h0c.7-.92,1.75-1.51,2.9-1.64,1.16,0,1.71.79,1.67,2.02l-.04,1.58c-.12.72.36,1.4,1.08,1.52.1.02.2.02.3.02,1.19,0,2.3-1.37,2.9-3.65.27.19.56.36.86.5-.73,2.53-2.05,4.12-3.81,4.12-1.16.11-2.19-.73-2.31-1.9,0-.1-.01-.2,0-.3,0-.25.04-1.47.04-1.75,0-.84-.35-1.27-.93-1.27-1.52,0-3.06,2.21-3.39,3.08-.18.46-.48,1.32-.73,2.08l-.9-.3Z"/>
        <path class="cls-11" d="m355.52,230.76c-.04.15-.17.22-.44.21-.42,1.95-.65,3.94-.7,5.94-.02.88.03,1.77.17,2.64.25-.66.82-2.04,1-2.51l.56.59c-.55,1.32-.94,2.09-1.13,2.69-.06.2-.1.41-.11.62,0,.14.02.28.07.41l-.94.17c-.43-1.48-.63-3.02-.58-4.56.05-2.17.29-4.33.7-6.46l1.39.25Zm8.87,9.69c-.48,0-.97.04-1.46.04-.83,0-1.65-.04-2.47-.15-1.63-.24-2.38-1.14-2.38-2.2,0-.91.5-1.68,1.24-2.55l.86.37c-.63.52-1.04,1.27-1.13,2.08,0,1.54,2.26,1.54,3.64,1.54.55,0,1.15,0,1.71-.07v.94Zm-6.57-8.1c1.93-.04,3.86-.21,5.78-.51l.09.93c-1.93.28-3.88.44-5.84.49l-.03-.91Z"/>
        <path class="cls-11" d="m375.46,232.46c-1.87.43-3.78.69-5.7.77-.09,1.19-.31,2.37-.66,3.51,1.09-.84,2.4-1.33,3.77-1.41,1.98,0,3.18,1.06,3.18,2.85,0,2.64-2.64,3.53-6.98,3.64-.05-.3-.14-.6-.26-.88,3.81-.08,6.27-.73,6.27-2.73,0-1.19-.79-2.01-2.33-2.01-1.18,0-3.21.71-4.09,2.03l-.92-.44c.42-.48.86-2.38,1.06-6.13h-3.22v1.18h3.34c.05-1.27.08-2.12.08-2.91l1.41.13c0,.22-.18.26-.42.29,0,.66-.07,1.32-.12,1.98,1.83-.07,3.66-.34,5.43-.81l.17.94Z"/>
        <path class="cls-11" d="m379.15,241.35c-.41-.95-.57-2.93-.57-4.67.05-2.08.29-4.15.71-6.19l1.29.25c-.04.15-.19.25-.34.24-.48,1.87-.73,3.78-.77,5.71-.03.84.01,1.68.12,2.51.3-.8.83-2.07,1.1-2.69l.59.56c-.44.9-1.36,2.91-1.36,3.54,0,.23.05.45.13.66l-.9.08Zm3.37-8.21c1.12,0,2.23,0,3.34-.05-.05-1.14-.09-2.12-.12-3.1l1.32.04c0,.13-.13.24-.34.28,0,.85.04,1.72.07,2.72.88-.08,1.76-.25,2.6-.53l.12.92c-.86.26-1.75.42-2.64.48.05,1.47.12,3.02.16,3.87.99.41,1.9.98,2.71,1.68l-.51.85c-.63-.62-1.36-1.13-2.15-1.51,0,1.13-.22,2.38-2.21,2.38-1.55,0-2.59-.74-2.59-1.91,0-1.35,1.37-1.95,2.59-1.95.43,0,.85.06,1.26.17-.05-.84-.13-2.22-.19-3.53-.41,0-.96.04-1.32.04h-2.02l-.06-.86Zm3.64,5.61c-.43-.15-.87-.23-1.32-.24-.81,0-1.78.3-1.78,1.13s.79,1.12,1.76,1.12,1.32-.48,1.32-1.54v-.46Z"/>
        <path class="cls-11" d="m320.8,138.57v-15.32h8.25v15.32h-1.18v-14.14h-4.71v14.14h-2.36Z"/>
        <path class="cls-11" d="m331.41,143.28v-15.32h1.18v.92c.25-.29.55-.54.87-.75.38-.24.83-.36,1.28-.34.47-.03.94.1,1.33.38.34.26.6.61.76,1.01.19.46.32.94.37,1.43.07.54.1,1.09.1,1.64v2.31c0,.84-.07,1.68-.25,2.51-.11.62-.4,1.2-.83,1.66-.44.41-1.03.62-1.63.58-.42.01-.83-.11-1.18-.35-.3-.21-.58-.45-.83-.72v5.05h-1.18Zm3.09-4.7c.4.03.79-.14,1.05-.45.27-.39.43-.85.47-1.32.08-.7.12-1.4.11-2.1v-2.58c0-.67-.03-1.33-.11-1.99-.04-.44-.2-.87-.47-1.23-.27-.3-.67-.45-1.07-.42-.38,0-.76.11-1.08.32-.29.18-.56.39-.8.63v8.25c.24.25.52.47.82.63.33.18.7.27,1.08.27h0Z"/>
        <path class="cls-11" d="m339.66,138.57v-10.6h1.18v8.17l3.61-8.17h1.1v10.6h-1.18v-8.17l-3.57,8.17h-1.15Z"/>
        <path class="cls-11" d="m347.9,138.57v-10.6h2.57c.64-.03,1.28.14,1.82.49.2.13.37.32.49.53.5.9.55,1.97.14,2.9-.2.45-.6.79-1.08.92.37.09.71.29.96.58.23.28.4.61.49.96.1.38.14.77.14,1.16.01.54-.07,1.08-.24,1.6-.15.45-.44.83-.84,1.09-.54.29-1.14.42-1.75.38h-2.71Zm1.15-5.89h1.4c.4.01.78-.16,1.03-.47.29-.4.43-.89.4-1.38.12-.81-.45-1.57-1.26-1.69-.14-.02-.28-.02-.42,0h-1.13l-.03,3.53Zm.03,5.89h1.33c.4.02.8-.07,1.15-.26.3-.19.52-.48.63-.81.15-.42.21-.87.2-1.32.03-.49-.06-.98-.25-1.44-.13-.3-.37-.55-.66-.68-.3-.13-.63-.2-.97-.19h-1.44v4.71Z"/>
        <path class="cls-11" d="m357.97,139c-.6.02-1.19-.12-1.7-.42-.48-.32-.83-.81-.98-1.37-.24-.83-.34-1.7-.32-2.57v-3.26c-.03-.88.08-1.75.33-2.59.16-.55.51-1.01.99-1.32.51-.28,1.09-.41,1.67-.4.64-.05,1.28.13,1.81.5.45.39.75.93.85,1.51.18.85.25,1.72.24,2.59v1h-4.71v2.67c.28.57.33,1.15.46,1.71.07.35.25.67.52.9.27.19.59.28.91.27.27,0,.53-.05.77-.17.26-.14.46-.38.55-.66.15-.42.22-.87.32-1.32v-1.05h1.18v.62c.04.86-.19,1.71-.66,2.44-.55.66-1.38,1-2.23.9Zm-1.82-6.32h3.53v-1.01c-.12-.51-.15-1.01-.21-1.51-.04-.36-.18-.69-.42-.96-.27-.25-.64-.38-1.02-.34-.33-.01-.65.07-.93.25-.27.23-.46.55-.51.9-.12.61-.17,1.22-.44,1.84v.84Z"/>
        <path class="cls-11" d="m364.4,139.75v-10.6h-2.36v-1.18h5.89v1.18h-2.36v10.6h-1.18Z"/>
        <path class="cls-11" d="m371.28,163.41c-.5.02-1-.1-1.44-.36-.38-.25-.68-.6-.86-1.01-.2-.48-.32-.99-.35-1.51l.88-.26c.03.4.11.8.23,1.18.1.33.28.62.54.84.59.57,1.53.54,2.1-.05.3-.31.45-.74.4-1.18,0-.43-.11-.85-.35-1.21-.28-.4-.59-.76-.95-1.08l-1.87-1.8c-.3-.29-.55-.63-.73-1-.16-.35-.24-.74-.24-1.13-.04-.63.2-1.25.66-1.7.49-.41,1.11-.62,1.74-.59.34,0,.69.04,1.02.15.29.09.56.25.77.46.23.24.4.52.5.83.14.4.22.82.25,1.25l-.85.22c-.02-.39-.1-.78-.22-1.15-.09-.29-.27-.54-.51-.73-.64-.36-1.43-.33-2.04.09-.29.27-.45.66-.42,1.06,0,.27.05.54.16.79.15.29.35.54.59.76l1.87,1.77c.41.39.78.84,1.09,1.32.3.49.46,1.05.46,1.62.01.46-.1.91-.31,1.32-.2.35-.5.63-.86.81-.4.19-.83.28-1.27.28Z"/>
        <path class="cls-11" d="m376.15,163.4c-.28,0-.55-.07-.79-.22-.23-.16-.41-.37-.53-.61-.13-.26-.2-.56-.2-.85,0-.34.05-.67.17-.98.12-.28.3-.53.53-.73.29-.24.61-.45.94-.63.39-.21,1.09-.69,1.09-.69v-.53s.32-.72.26-1.08c-.03-.22-.13-.42-.29-.57-.16-.12-.36-.18-.57-.17-.19,0-.37.04-.54.12-.16.09-.3.23-.38.4-.11.25-.16.52-.84.79v-.2h-.25s.13-.75.49-1.25c.42-.41.99-.61,1.57-.55.55-.05,1.09.17,1.43.61.32.58.47,1.24.3,1.89v4.77c.13.18.13.32.16.42h-.85c0-.17-.06-.35-.09-.56s-.05-.37-.06-.49c-.11.32-.31.6-.56.81-.28.22-.63.34-.99.32Zm-.02-.81c.18,0,.36-.05.51-.14.16-.09.3-.21.42-.34.12-.13.22-.27.3-.42v-2.36c-.38.2-.7.38-.96.53-.24.13-.46.28-.66.46-.16.14-.28.31-.36.5-.08.21-.12.43-.12.66-.03.31.06.62.26.86.16.16.38.25.61.25Z"/>
        <path class="cls-11" d="m379.72,163.31v-10.6h1.18v10.6h-1.18Z"/>
        <path class="cls-11" d="m383.88,163.31l-1.5-7.07h.91l1.15,6.04,1.13-6.04h.87l-1.48,7.07h-1.08Z"/>
        <path class="cls-11" d="m389.42,163.4c-.41.02-.81-.08-1.16-.28-.32-.23-.56-.56-.66-.94-.16-.57.37-1.74.37-1.74v-1.91s-.53-1.19-.36-1.76c.1-.37.34-.69.66-.9.35-.19.74-.29,1.14-.27.44-.03.87.09,1.23.34.3.27.51.63.58,1.03.12.58.18,1.17.28,1.76v1.06h-3.53v.92c.34.39.38.78.46,1.16.04.24.17.45.36.61.18.13.4.2.62.18.18,0,.36-.03.52-.11.17-.09.31-.24.38-.43.1-.29.15-.6.02-.91v-.24h1.18v.14c-.1.58-.25,1.16-.56,1.66-.36.46-.94.7-1.52.65Zm-1.45-4.8h2.36v-.38c.14-.34.12-.69.07-1.03-.03-.24-.12-.47-.28-.66-.18-.16-.42-.25-.66-.23-.23-.02-.46.04-.66.17-.19.15-.31.37-.35.61-.08.41-.12.83-.47,1.25v.27Z"/>
        <path class="cls-11" d="m250.92,87.24c.21-.04.38-.11.38-.26-.01-.1-.05-.19-.12-.26-.12-.09-.17-.15-.17-.2s.05-.07.17-.07c.4,0,.86.22.86.42s-.16.28-.18.44c1.52.35,2.19,1.32,2.19,2.25,0,1.18-1.05,2.34-2.75,2.34-1.81,0-2.87-1.1-2.87-2.34,0-1.02.79-2.04,2.49-2.3Zm-1.66,2.3c.02,1,.84,1.8,1.85,1.78.04,0,.09,0,.13,0,.98.1,1.86-.61,1.97-1.59s-.61-1.86-1.59-1.97c-.12-.01-.25-.01-.38,0-1.01-.08-1.89.66-1.97,1.67,0,.04,0,.07,0,.11Zm3.21,4.53c-.51-.25-.82-.37-1.5-.57-.15-.04-.24-.09-.24-.15s.11-.13.42-.18c.47,0,.93.03,1.39.09.23.05.28.13.28.24s0,.2-1.53.34v1.81c1.49.3,1.68.42,2.15.5h2.37c.98-.13.51-.43,1.68-.43.43,0,.98.05.98.45,0,.16-.13.28-.36,1.16h-4.73c-.88-.88-1.37-1.1-.92-1.76v-1.51Zm3.53-7.76c.39-.15.05-.38-.74-.72-.2-.07-.3-.15-.3-.2s.16-.13.48-.15c.05,0,1.85.22,1.85.66,0,.09-.05.2-.1.33v4.03h.64c.61-.03.33-.28,1.32-.28.26,0,.75,0,.75.36-.01.19-.17.33-.36.32,0,0-.01,0-.02,0l-2.31.05c0,2.38-.09,2.96-.22,3.33-.12.25-.26.44-.38.44s-.2-.15-.59-.59v-7.6Z"/>
        <path class="cls-11" d="m262.24,87.43c0-.24-.54-.42-1.04-.56-.13-.04-.28-.09-.28-.17s.11-.13.41-.21c1.56.08,1.73.24,1.73.45v3.25c0,.19.05.3.42.3,1.39-.2,2.73-.65,3.96-1.32.08-.04.17-.07.26-.08h.04s-.07.12-.22.24c-1.42.9-2.98,1.55-4.62,1.9-.38,0-.55-.66-.6-.94l-.07-2.86Zm5.72,5.18c.11-.01.2-.1.21-.22,0-.1-.05-.19-.13-.25-.09-.08-.13-.15-.13-.18s.04-.07.12-.07c.24,0,.8.21.8.4s-.09.2-.12.38c1.46.24,2.13,1.16,2.13,2.09,0,1.1-.94,2.22-2.58,2.22s-2.64-1.12-2.64-2.22c0-.96.71-1.91,2.21-2.1l.14-.04Zm-1.61,1.71c.01.97.81,1.74,1.77,1.73.05,0,.1,0,.15,0,.94,0,1.71-.76,1.71-1.71,0-.94-.76-1.71-1.71-1.71h0c-.96-.1-1.82.59-1.92,1.55,0,.05,0,.1,0,.16h0Zm3.74-8.08c0-.13-.55-.46-1.17-.73-.13-.04-.36-.12-.36-.2s.32-.17.4-.17c.28,0,2.03.26,2.03.66,0,.12-.08.24.33.41v3.63c-.42,2.2-.59,2.59-.85,2.96-.05.08-.11.11-.15.11s-.21-.3-.18-.81v-1.55c-.63,0-1.22.07-1.65.09-.24.05-.26.16-.44.16-.42-.08-.82-.26-1.16-.52,0-.05.08-.07.22-.01h.89c.62-.05,1.26-.09,2.13-.15v-2.27c-.81,0-1.39.05-1.7.08s-.33.17-.5.17-1.06-.33-1.06-.54c0-.04.05-.06.17.35h1.05c.66-.41,1.17-.41,2.02-.47l-.03-1.19Z"/>
        <path class="cls-11" d="m279.01,88.68c1.08-.07.49-.35,1.9-.4.61,0,.85.21.85.38,0,0,0,.29-.52.29-.81.05-3.27.12-4.85.18-.42.09-.53.25-.77.25s-1.39-.49-1.39-.66c0-.04.05-.07.18-.07.07,0,.13,0,.2,0,.66.07,1.32.11,1.98.11.36-.01,2.05-.08,2.42-.08Zm-1.44,1.63c.18-.04.42-.08.42-.3,0-.08-.04-.15-.11-.2-.05-.05-.08-.12-.09-.18,0-.05.05-.08.15-.08.32,0,.71.25.71.42s-.13.22-.18.34c1.53.22,2.25,1.14,2.25,2.07,0,1.04-.93,2.08-2.64,2.08s-2.64-1.1-2.64-2.11.69-1.83,2.14-2.05Zm-.04-2.39c-.53-.14-1-.43-1.35-.85,0-.04.04-.07.13-.07.11,0,.22.02.33.06.81.26,1.66.29,2.5.17.4-.06.65.13.65.31,0,.16-.24.36-.84.37h-1.43Zm-1.29,4.38c-.15,1.02.56,1.97,1.59,2.11s1.97-.56,2.11-1.59-.56-1.97-1.59-2.11c-.09-.01-.18-.02-.27-.02-.9-.11-1.73.54-1.84,1.44,0,.05-.01.11-.01.16Zm6.85-6.11c-.49-.22-1.22-.54-1.77-.79-.15-.05-.24-.12-.24-.17s.16-.15.55-.16c.51.08,1.02.2,1.51.36.28.11.34.19.34.32s-.04.22-.4.42v4.09h1.02s.41.34,1.25.34c.24,0,.8,0,.8.41,0,.18-.16.34-.45.43h-3.8v3.72c1.55.66,1.44,1.32,1.2,1.94-.11.16-.21.24-.3.24s.28-.61.28-.61v-10.54Z"/>
        <path class="cls-11" d="m290.81,88.34c0-.15-.31-.38-.77-.7-.25-.13-.32-.28.2-.28.22,0,1.56.47,1.56.81-.31.76-.67,1.49-1.08,2.2.22.3.46.59.71.86.46.55.89.38,1.1,1.68v.11c0,.25-.13.42-.29.42-.15-.02-.28-.12-.34-.26-.3-.51-.75-1.5-1.41-2.53-1.27,1.73-2.81,3.05-3.21,3.05,0,0-.05,0-.05-.04s.09-.16.26-.3c1.49-1.33,2.62-3.01,3.3-4.89l.03-.13Zm4.07-1.08c-.23-.32-.74-.58-1.25-.83-.16-.07-.32-.16-.32-.24s.11-.12.43-.13c.46.06.92.17,1.37.32.29.11.36.23.36.36s-.59.33-.59.33v7.08s.19,2.18.02,2.18-.22-.32,1.16-.96v-4.86l-2.6.05c-.38.07-.45.2-.61.2s-.98-.34-.98-.51c0-.04.22,0,.22,0h.66s1.32-.11,2.13-.14v-2.86Zm2.36-.94c-.48-.22-.97-.55-1.5-.84-.19-.08-.3-.16-.3-.22s.13-.12.43-.13c.49.11.98.24,1.46.41.22.1.27.19.27.3s-.05.2-1.54.34v9.24c1.44,1.22,1.2,1.87.95,1.94-.12,0-.24-.13.23-.8v-10.24Z"/>
        <path class="cls-11" d="m310.95,95.47c-.88-.05-1.98-.08-3.1-.08-2.19,0-4.53.09-5.77.21-.29.11-.37.24-.59.24-.62-.12-1.21-.39-1.72-.77,0-.04.05-.07.17-.07.06,0,.12,0,.18,0,1.15.14,2.31.18,3.47.15-.04-.26-.07-.94-.13-1.38-.05-.18-.24-.26-.88-.5-.13,0-.22-.08-.22-.13s.12-.12.41-.16c1.32.09,1.53.22,1.53.42v.23c0,.09,0,1.23.04,1.5.45,0,1.89,0,2.78-.08.04-.3.09-.89.12-1.7,0-.29-.3-.41-.61-.57-.11,0-.18-.08-.18-.12s.11-.11.4-.15c1.16.2,1.4.32,1.4.48-.03.13-.08.26-.15.38-.06.39-.19,1.11-.31,1.64.41,0,.82-.03,1.22-.09.44,0,.36-.25,1.01-.25.35,0,1.44,0,1.44.53,0,.15-.12.26-.38.26h-.13Zm-5.34-8.71c.18,0,.34-.14.36-.32,0-.08-.04-.16-.09-.22-.12-.11-.18-.18-.18-.24s.05-.08.17-.08c.45,0,.83.26.83.42s-.19.26-.2.44c1.86.28,2.73,1.46,2.73,2.64,0,1.32-1.12,2.64-3.08,2.64s-3.07-1.35-3.07-2.69c0-1.18.8-2.32,2.55-2.59h0Zm-1.8,2.59c-.14,1.28.78,2.43,2.06,2.57s2.43-.78,2.57-2.06c.14-1.28-.78-2.43-2.06-2.57-.08,0-.17-.01-.25-.01-1.16-.11-2.2.74-2.31,1.9,0,.06,0,.11,0,.17h0Z"/>
        <path class="cls-11" d="m351.96,196.08c-.75.03-1.5-.14-2.16-.5-.59-.34-1.05-.86-1.32-1.48-.32-.76-.49-1.57-.5-2.39l2.24-.44c.02.5.09.99.2,1.47.08.37.26.7.51.98.24.24.57.37.91.35.35.04.68-.11.9-.38.19-.29.28-.62.26-.96.02-.54-.12-1.08-.42-1.54-.33-.45-.7-.85-1.13-1.2l-1.81-1.59c-.49-.41-.9-.91-1.21-1.47-.32-.61-.48-1.29-.46-1.98-.07-.98.29-1.95.99-2.64.75-.64,1.72-.97,2.71-.92.58-.02,1.15.09,1.68.31.43.19.79.48,1.07.86.27.38.47.8.59,1.25.13.48.21.98.24,1.48l-2.22.39c-.02-.41-.07-.81-.15-1.21-.06-.31-.2-.6-.41-.83-.23-.21-.54-.32-.86-.3-.34-.02-.67.12-.89.38-.21.27-.32.61-.31.95-.02.42.09.83.3,1.19.24.36.53.68.86.96l1.79,1.57c.59.5,1.1,1.09,1.51,1.74.43.73.65,1.57.63,2.42.01.64-.14,1.26-.45,1.82-.3.52-.73.95-1.26,1.25-.57.31-1.22.47-1.87.46Z"/>
        <path class="cls-11" d="m358.92,196.46c-.43.01-.85-.12-1.19-.36-.33-.24-.6-.55-.77-.92-.18-.36-.27-.76-.27-1.16-.04-1.07.46-2.08,1.33-2.71.41-.31.86-.56,1.33-.77.5-.22,1.01-.42,1.51-.59v-.88c0-.25-.02-.5-.06-.75-.03-.17-.11-.33-.23-.46-.15-.12-.34-.17-.53-.16-.18,0-.35.05-.49.15-.13.1-.22.24-.27.4-.06.19-.09.39-.09.59l-.04.62-2.3-.09c-.05-.95.27-1.88.88-2.61.69-.61,1.6-.91,2.52-.84.84-.08,1.67.24,2.26.84.5.66.75,1.48.71,2.3v5.74c0,.31.05.58.07.83s.05.46.08.66h-2.18c0-.24-.08-.51-.13-.81s-.09-.52-.11-.66c-.12.43-.35.81-.67,1.13-.37.34-.86.52-1.36.5Zm.92-2.2c.15,0,.3-.04.44-.11.13-.08.25-.17.36-.28.09-.08.16-.18.22-.28v-2.86c-.26.15-.5.3-.73.46-.22.14-.42.31-.6.5-.16.17-.29.38-.39.59-.09.24-.14.49-.13.74-.02.32.06.63.22.9.12.22.36.35.61.34Z"/>
        <path class="cls-11" d="m365.58,196.3v-14.14h2.36v14.14h-2.36Z"/>
        <path class="cls-11" d="m371.02,196.05c-.36.01-.71-.1-.99-.31-.27-.21-.47-.5-.57-.83-.12-.36-.18-.73-.35-1.1v-8.11h2.36v7.67c.2.25.25.49.36.71.13.18.34.28.56.26.19,0,.37-.05.53-.14.19-.1.9-.34.9-.34v-8.17h2.36v10.6h-2.36v-1.39c-.7.33-1.08.6-1.49.82-.41.21-.86.32-1.31.32Z"/>
        <path class="cls-11" d="m380.71,196.01c-.53.03-1.06-.09-1.53-.32-.37-.2-.64-.53-.79-.92-.17-.46.15-1.43.15-1.43v-6.46h-1.18v-1.18h1.18v-3.53h2.36v3.53h1.18v1.18h-1.18v6.25c-.34.27-.25.54-.08.75.19.15.42.23.66.22.13,0,.26,0,.38,0l.21-.07v1.84l-.53.08c-.26.06-.54.06-.83.06Z"/>
        <path class="cls-11" d="m141.71,198.66v-17.67h1.18v8.25h5.89v-8.25h1.18v17.67h-1.18v-8.25h-5.89v8.25h-1.18Z"/>
        <path class="cls-11" d="m155.3,199.48c-.56.02-1.11-.12-1.6-.4-.5-.33-.86-.84-1.03-1.43-.27-.95-.39-1.95-.36-2.94v-3.35c-.04-1,.08-2,.37-2.95.17-.58.54-1.07,1.05-1.37.49-.25,1.04-.38,1.59-.36.61-.04,1.22.14,1.73.5.46.4.78.95.89,1.57.2.94.29,1.9.27,2.86v1.18h-4.71v1.57c.15.78.22,1.55.38,2.31.08.46.31.87.66,1.18.34.24.74.35,1.16.34.31,0,.61-.05.9-.15.33-.13.6-.38.75-.71.23-.55.33-1.14-.31-1.74v-.45h1.18v.81c.04.9-.18,1.8-.63,2.57-.41.65-1.18.98-2.28.98Zm-1.05-7.89h3.96v-.94c0-.64-.03-1.28-.12-1.91-.04-.46-.23-.89-.52-1.24-.36-.33-.84-.49-1.32-.44-.4-.02-.8.08-1.14.28-.35.26-.58.64-.66,1.07-.17.74-.24,1.5-.22,2.26l.02.92Z"/>
        <path class="cls-11" d="m160.13,202.19h-.59s-.21-.04-.16-.05v-.92c-.07.01.02.01.11-.21h.29c.38.24.76.15,1.08-.07.21-.18.36-.43.4-.7.05-.29.48-.86.48-.86v-12.51h1.18v12.66c.1.75-.17,1.49-.72,2.06-.58.42-1.32.64-2.07.6Zm1.61-17.67v-2.36h1.18v2.36h-1.18Z"/>
      </g>
    </g>
  </g>
</svg>