<?xml version="1.0" encoding="UTF-8"?>
<svg id="Layer_1" data-name="Layer 1" xmlns="http://www.w3.org/2000/svg" xmlns:xlink="http://www.w3.org/1999/xlink" viewBox="0 0 512 263">
  <defs>
    <style>
      .cls-1, .cls-2, .cls-3, .cls-4, .cls-5, .cls-6, .cls-7, .cls-8, .cls-9 {
        stroke-linecap: round;
        stroke-linejoin: round;
      }

      .cls-1, .cls-2, .cls-3, .cls-4, .cls-7, .cls-8, .cls-9 {
        stroke: #263238;
      }

      .cls-1, .cls-2, .cls-3, .cls-5, .cls-6, .cls-7, .cls-8 {
        stroke-width: 1.02px;
      }

      .cls-1, .cls-10 {
        fill: #d00767;
      }

      .cls-11 {
        isolation: isolate;
        opacity: .7;
      }

      .cls-11, .cls-12, .cls-10 {
        stroke-width: 0px;
      }

      .cls-11, .cls-8 {
        fill: #fff;
      }

      .cls-2, .cls-12, .cls-4, .cls-5, .cls-9 {
        fill: none;
      }

      .cls-3, .cls-6 {
        fill: #263238;
      }

      .cls-4 {
        stroke-width: 1.02px;
      }

      .cls-5, .cls-6 {
        stroke: #fff;
      }

      .cls-13 {
        clip-path: url(#clippath);
      }

      .cls-7 {
        fill: #a6a6a6;
      }

      .cls-9 {
        stroke-width: 2.04px;
      }
    </style>
    <clipPath id="clippath">
      <rect class="cls-12" y=".72" width="512" height="261.57" rx="42.76" ry="42.76"/>
    </clipPath>
  </defs>
  <g class="cls-13">
    <g>
      <g id="freepik--background-simple--inject-2">
        <path class="cls-10" d="m398.97,150.44c-3.4,28.8-16.55,62.28-42.81,77.66-39.68,23.24-36.33,59-113.8,74.51-11.29,2.32-22.81,3.41-34.33,3.24-5.64-.1-11.27-.56-16.85-1.38-49.22-7.16-82.34-41.38-94.49-82.68-15.99-54.31,15.94-89.88,37.1-111.3,21.16-21.42,36.67-88.18,112.68-104.06,11.6-2.47,23.44-3.59,35.29-3.35,27.04.66,56.54,9.54,76.95,28.08,1.53,1.42,3.02,2.84,4.48,4.32,28.37,29.12,40.43,75.68,35.79,114.94Z"/>
        <path class="cls-11" d="m398.97,150.44c-3.4,28.8-16.55,62.28-42.81,77.66-39.68,23.24-36.33,59-113.8,74.51-11.29,2.32-22.81,3.41-34.33,3.24-5.64-.1-11.27-.56-16.85-1.38-49.22-7.16-82.34-41.38-94.49-82.68-15.99-54.31,15.94-89.88,37.1-111.3,21.16-21.42,36.67-88.18,112.68-104.06,11.6-2.47,23.44-3.59,35.29-3.35,27.04.66,56.54,9.54,76.95,28.08,1.53,1.42,3.02,2.84,4.48,4.32,28.37,29.12,40.43,75.68,35.79,114.94Z"/>
      </g>
      <g id="freepik--Plant--inject-2">
        <line class="cls-2" x1="376.17" y1="274.22" x2="376.17" y2="194.56"/>
        <line class="cls-2" x1="370.04" y1="274.22" x2="370.04" y2="235.41"/>
        <path class="cls-8" d="m378.61,207.76s-6.54-.74-9.22-5.92c-2.68-5.18-2.94-18.53,7.25-33.33,10.18-14.8,15.53-14.96,17.3-2.88,1.77,12.08,1.52,29.62-2.65,36.26-4.17,6.65-12.67,5.87-12.67,5.87Z"/>
        <path class="cls-2" d="m380.93,179.88c1.21-4.11,2.65-7.8,4.32-10.33"/>
        <path class="cls-2" d="m375.86,206.87c.9-8.14,2.32-16.21,4.26-24.17"/>
        <path class="cls-8" d="m382.5,233.74s-4.2-3.26-3.86-7.94,5.73-14.01,18.93-19.92c13.2-5.92,16.97-3.82,13.14,5.25-3.83,9.06-11.35,21.06-17.02,23.89-5.67,2.84-11.18-1.28-11.18-1.28Z"/>
        <path class="cls-2" d="m395.77,215.48c2.55-2.33,5.09-4.26,7.3-5.31"/>
        <path class="cls-2" d="m394.08,217.09c-4.67,4.68-9.04,9.65-13.06,14.89,0,0-3.38,4.55-4.38,13.6"/>
        <path class="cls-8" d="m380.12,260.78s-2.43-1.89-2.23-4.6,3.32-8.11,10.97-11.55c7.65-3.43,9.82-2.21,7.6,3.05-2.22,5.26-6.57,12.2-9.85,13.84-3.28,1.64-6.49-.74-6.49-.74Z"/>
        <path class="cls-2" d="m387.79,250.23c1.26-1.22,2.7-2.26,4.26-3.07"/>
        <path class="cls-2" d="m386.81,251.16c-2.71,2.71-5.23,5.59-7.57,8.62,0,0-1.96,2.64-2.55,7.88"/>
        <path class="cls-8" d="m370.65,222.92s4.19-3.26,3.86-7.94c-.33-4.68-5.73-14.01-18.94-19.92-13.21-5.92-16.96-3.82-13.13,5.25,3.83,9.06,11.35,21.06,17.02,23.89s11.18-1.28,11.18-1.28Z"/>
        <path class="cls-2" d="m357.38,204.66c-2.17-2.1-4.63-3.89-7.31-5.31"/>
        <path class="cls-2" d="m359.08,206.26c4.67,4.68,9.03,9.65,13.06,14.89,0,0,3.38,4.55,4.39,13.6"/>
        <path class="cls-8" d="m368.59,259.07s4.26.13,6.38-2.43c2.13-2.56,3.4-9.71-1.91-18.44-5.32-8.73-8.72-9.34-10.84-2.96-2.13,6.38-3.37,15.74-1.24,19.65s7.62,4.18,7.62,4.18Z"/>
        <path class="cls-2" d="m369.25,252.56c.06.87.11,1.74.13,2.61"/>
        <path class="cls-2" d="m365.99,234.82c1.45,5.14,2.48,10.39,3.08,15.7"/>
      </g>
      <g id="freepik--Window--inject-2">
        <polyline class="cls-2" points="94.29 207.84 192.33 207.84 192.33 7.67"/>
        <polyline class="cls-2" points="296.51 207.84 198.46 207.84 198.46 7.67"/>
        <polyline class="cls-2" points="238.29 207.84 336.34 207.84 336.34 7.67"/>
        <line class="cls-2" x1="316.59" y1="54.05" x2="282.28" y2="91.97"/>
        <line class="cls-2" x1="297.56" y1="83.38" x2="288.04" y2="93.9"/>
        <line class="cls-2" x1="221.93" y1="44.09" x2="203.39" y2="64.57"/>
        <line class="cls-2" x1="226.94" y1="39.11" x2="239.46" y2="25.27"/>
        <line class="cls-2" x1="188.37" y1="165.86" x2="176.35" y2="179.14"/>
        <line class="cls-2" x1="184.37" y1="148.15" x2="162.07" y2="172.78"/>
      </g>
      <g id="freepik--Clock--inject-2">
        <circle class="cls-4" cx="377.48" cy="57.42" r="35.53" transform="translate(184.04 386.62) rotate(-68.21)"/>
        <circle class="cls-2" cx="377.5" cy="57.43" r="31.02"/>
        <circle class="cls-2" cx="377.5" cy="57.43" r="2.12"/>
        <line class="cls-2" x1="377.19" y1="59.75" x2="377.19" y2="69.97"/>
        <line class="cls-2" x1="375.15" y1="57.71" x2="349.61" y2="57.71"/>
      </g>
      <g id="freepik--speech-bubble--inject-2">
        <path class="cls-3" d="m216.12,143.2l-11.69-18.14c15.3-24.73,7.65-57.19-17.08-72.49-24.73-15.3-57.19-7.65-72.49,17.08-15.3,24.73-7.65,57.19,17.08,72.49,21.51,13.3,49.44,9.44,66.53-9.2l17.65,10.26Z"/>
        <path class="cls-8" d="m217.23,138.78l-11.7-18.14c15.27-24.72,7.61-57.15-17.11-72.42-24.72-15.27-57.15-7.61-72.42,17.11-15.27,24.72-7.61,57.15,17.11,72.42,21.5,13.28,49.4,9.4,66.46-9.23l17.65,10.26Z"/>
        <path class="cls-3" d="m123.91,100.6v-4.14l8.68-13.34c.66-.99,1.28-1.95,1.86-2.87.57-.9,1.05-1.84,1.44-2.83.37-.96.56-1.98.56-3.01.06-.83-.16-1.65-.63-2.33-.42-.51-1.05-.79-1.7-.76-.69-.04-1.37.2-1.89.67-.47.5-.79,1.12-.92,1.79-.18.83-.26,1.67-.25,2.51v1.82h-7.15v-1.76c-.03-1.78.32-3.56,1.02-5.22.64-1.5,1.77-2.78,3.24-3.65,1.75-.96,3.77-1.42,5.8-1.33,3.22,0,5.65.77,7.28,2.32,1.63,1.54,2.45,3.7,2.46,6.46.01,1.27-.22,2.54-.69,3.73-.47,1.17-1.08,2.29-1.82,3.34-.75,1.08-1.55,2.21-2.41,3.39l-6.55,9.07h9.04v6.13h-17.36Z"/>
        <path class="cls-3" d="m154.55,100.6v-7.15h-11.23v-5.2l9.05-21.36h8.31v20.43h3.06v6.13h-3.06v7.15h-6.13Zm-5.09-13.28h5.09v-13.99l-5.09,13.99Z"/>
        <path class="cls-3" d="m166.49,100.6l10.32-33.7h3.66l-10.36,33.7h-3.62Z"/>
        <path class="cls-3" d="m185.3,100.6l7.37-28.6h-9.53v-5.11h16.34v4.6l-7.35,29.1h-6.83Z"/>
        <path class="cls-3" d="m130.38,122.1c-.83.03-1.65-.17-2.36-.59-.63-.4-1.12-.98-1.42-1.66-.34-.79-.53-1.64-.58-2.5l1.42-.43c.06.66.19,1.32.39,1.95.15.54.46,1.01.89,1.38.47.37,1.06.55,1.66.51.66.04,1.31-.18,1.81-.6.47-.52.71-1.22.65-1.92.01-.71-.18-1.4-.57-1.99-.45-.65-.98-1.25-1.57-1.78l-3.06-2.95c-.5-.47-.91-1.03-1.21-1.65-.26-.59-.39-1.22-.38-1.87-.07-1.04.33-2.06,1.08-2.78.79-.67,1.8-1.01,2.84-.97.56,0,1.13.08,1.67.24.48.15.92.41,1.28.77.37.39.66.86.83,1.37.22.66.36,1.35.41,2.04l-1.42.37c-.04-.64-.16-1.27-.35-1.89-.15-.48-.44-.89-.84-1.19-.47-.3-1.02-.45-1.58-.41-.64-.03-1.26.17-1.77.56-.49.44-.76,1.08-.71,1.74,0,.44.09.89.27,1.29.26.48.62.91,1.04,1.27l3.08,2.91c.69.63,1.29,1.35,1.79,2.13.5.8.76,1.73.75,2.67.03.77-.15,1.52-.51,2.2-.32.58-.82,1.04-1.42,1.33-.65.31-1.36.46-2.08.45Z"/>
        <path class="cls-3" d="m136.16,122.05v-17.36h6.13v1.02h-4.09v6.13h4.09v2.04h-4.09v7.15h5.11v1.02h-7.15Z"/>
        <path class="cls-3" d="m145.36,122.05v-17.36h3.92c.88-.04,1.76.14,2.56.52.61.34,1.08.88,1.34,1.52.29.76.43,1.56.41,2.37,0,.61-.07,1.22-.22,1.82-.12.54-.36,1.04-.71,1.46-.38.42-.9.7-1.46.79l2.66,8.88h-1.74l-2.56-8.17h-2.16v8.17h-2.04Zm1.02-10.21h2.11c.56.03,1.12-.09,1.62-.35.39-.23.67-.6.82-1.02.18-.55.27-1.12.25-1.7.06-.8-.13-1.6-.53-2.3-.36-.51-1.06-.76-2.11-.76h-2.15v6.13Z"/>
        <path class="cls-3" d="m155.57,122.05v-17.36h2.04v17.36h-2.04Z"/>
        <path class="cls-3" d="m164.07,121.89l-4.09-18.22h1.57l3.3,15.26,3.1-14.24h1.52l-3.94,17.24-1.46-.04Z"/>
        <path class="cls-3" d="m170.89,122.05v-17.36h2.04v17.36h-2.04Z"/>
        <path class="cls-3" d="m180.22,122.19c-.92.07-1.83-.18-2.6-.71-.62-.49-1.06-1.19-1.27-1.97-.24-.89-.36-1.82-.35-2.75v-7.51c-.01-.96.11-1.91.36-2.84.21-.77.67-1.45,1.29-1.91.77-.51,1.67-.76,2.57-.71.82-.05,1.64.16,2.36.6.58.42,1.01,1.02,1.23,1.72.26.85.39,1.74.37,2.64v1.06h-1.02v-1.01c0-.66-.05-1.32-.18-1.96-.09-.5-.34-.95-.71-1.27-.46-.34-1.02-.5-1.58-.45-.6-.04-1.19.13-1.68.48-.39.35-.66.84-.76,1.37-.14.67-.2,1.36-.2,2.05v7.99c-.01.72.07,1.43.24,2.13.11.52.4.99.81,1.31.47.31,1.03.46,1.59.43.57.04,1.13-.13,1.59-.48.37-.34.63-.81.71-1.33.12-.66.18-1.32.18-1.99v-1.14h1.02v1.04c.01.92-.1,1.83-.35,2.72-.19.74-.61,1.38-1.19,1.84-.71.49-1.56.72-2.41.67Z"/>
        <path class="cls-3" d="m187.23,122.05v-17.36h6.13v1.02h-5.11v6.13h4.09v2.04h-4.09v7.15h5.11v1.02h-6.13Z"/>
      </g>
      <g id="freepik--Character--inject-2">
        <path class="cls-3" d="m311.04,201.71h38.18s-20.67,50.83-16.77,73.53h-38.7s7.22-58.05,17.29-73.53Z"/>
        <path class="cls-3" d="m278.22,129.43s.38,6.84,13.12,10.84,25.68,0,32.91,5.67c7.23,5.67,7.04,14.45,4.56,18.83-2.48,4.38-6.47,8.75,5.33,13.88,11.79,5.14,4.75,20.16-.19,25.68s-13.48,8.18-23.02,6.28c-9.54-1.9-20.73-24.92-32.9-37.09-12.17-12.18-13.66-34.64-5.89-41.08,7.77-6.44,6.09-3.01,6.09-3.01Z"/>
        <path class="cls-7" d="m276.26,104.81s5.25-2.29,6.6,2.13,1.74,16.56,1.74,16.56l-2.84-.67s.67-13.73-2.43-15.89-5.52,2.7-5.52,2.7l2.44-4.82Z"/>
        <path class="cls-3" d="m217.35,252.53l17.93-9.59s-1.24-18.82-1.06-19.53,4.67-37.53,4.67-37.53l-12.3,36.46-9.23,30.18Z"/>
        <path class="cls-1" d="m296.61,167.23s17.73,9.66,20.11,10.64c2.38.98.98,13.3.98,21.35s-12.06,76.03-12.06,76.03h-89.29s15.09-23.13,15.49-29.16-2.21-10.87-2.62-16.7c-.4-5.83,8.25-41.44,9.65-43.26s7.45-6.43,7.45-6.43l21.32-18.67,9.86-2.21,19.11,8.43Z"/>
        <line class="cls-2" x1="237.43" y1="252.38" x2="234.45" y2="258.51"/>
        <path class="cls-2" d="m240.29,234.77s-4.43,3.01-2.21,4.62,3.22,5.03,3.22,5.03l-2.84,5.53"/>
        <path class="cls-2" d="m261.14,249.43c1.2.09,2.46.16,3.78.2"/>
        <path class="cls-2" d="m242.09,244.46s4.82,3.22,15.31,4.6"/>
        <path class="cls-7" d="m230.09,115.85c-1.73.85-2.79,2.65-2.69,4.57,0,3.5,2.84,10.36,2.84,10.36l1.62-.53s-2.96-7.14-2.55-9.7c.27-1.52,1.36-2.77,2.84-3.23l-.54-1.75-1.51.27Z"/>
        <path class="cls-8" d="m237.02,133.87c.71,3.55-.5,6.74-2.66,7.16s-4.45-2.13-5.13-5.67c-.68-3.55.5-6.75,2.66-7.16s4.45,2.13,5.13,5.67Z"/>
        <path class="cls-3" d="m243.57,132.73c1.34,4.53-.23,8.99-3.5,9.93-3.28.94-7.02-1.91-8.37-6.43s.23-8.99,3.5-9.93,7.03,1.91,8.37,6.43Z"/>
        <path class="cls-8" d="m255.72,157.39l3.18,10.36-10.47,13.19-1.74,10.19s-1.74,29.08-.74,33.56c.99,4.48.99,5.72.99,5.72,0,0,21.63-25.11,32.32-40.52,10.69-15.41,13.17-24.87,13.17-24.87l-10.44-5.67-4.96-23.12-21.31,21.16Z"/>
        <polygon class="cls-3" points="272.23 147.37 258.9 167.75 255.18 155.76 272.23 147.37"/>
        <path class="cls-8" d="m246.78,190.56l-.1.57s-1.74,29.08-.74,33.56.99,5.72.99,5.72c0,0,21.63-25.11,32.32-40.52.84-1.21,1.62-2.38,2.36-3.51-13.38,4.58-27.03,4.66-34.83,4.18Z"/>
        <path class="cls-8" d="m241.54,93.91s-9.97,6.06-11.04,15.21c-1.08,9.15,2.7,18.98,4.18,22.88,1.48,3.9,6.6,19.11,9.28,22.08,2.69,2.96,11.44,7.4,12.92,8.21,1.48.81,4.17.54,6.46-1.08,2.29-1.62,11.71-13.05,13.19-15.75s1.74-8.62,1.74-8.62c0,0-.27-11.84-.8-19.51s-.13-15.08-6.46-21.54c-6.33-6.46-23.28-6.6-29.48-1.88Z"/>
        <path class="cls-3" d="m277.48,117.33c-.54-7.67-.13-15.08-6.46-21.54-6.33-6.46-23.28-6.6-29.48-1.88,0,0-9.97,6.06-11.04,15.21-.62,5.32.39,10.85,1.63,15.33,2.29-1.42,10.02-6.16,18.7-12.23,10.36-7.27,13.73-18.58,13.73-18.58,0,0,1.21-.67.94.81s-4.31,10.23-5.79,11.58l-1.48,1.34s1.21-.27,6.73,6.33c5.52,6.6,8.61,9.29,10.23,10.1.86.31,1.76.49,2.67.52-.11-2.42-.23-4.86-.38-6.98Z"/>
        <path class="cls-3" d="m260.9,131.6c.17.99-.19,1.88-.82,1.99s-1.26-.6-1.42-1.59.19-1.88.82-1.99,1.24.61,1.42,1.6Z"/>
        <path class="cls-3" d="m245.82,133.75c.18.99-.18,1.88-.81,1.99s-1.27-.6-1.42-1.6.18-1.87.81-1.99,1.25.6,1.42,1.59Z"/>
        <path class="cls-2" d="m254.72,125.54s4.45-3.5,8.51-.67"/>
        <path class="cls-2" d="m245.71,127.44s-5.25-2.56-8.89,2.02"/>
        <path class="cls-2" d="m246.65,127.56s3.63,1.75,3.9,5.11"/>
        <path class="cls-2" d="m250.69,141.96s1.48,1.07,4.04.27"/>
        <path class="cls-2" d="m249.62,147.61c3.02-.13,5.98-.82,8.75-2.02,4.71-2.02,6.6-4.84,6.6-4.84"/>
        <path class="cls-2" d="m251.9,147.48c1.08.95,2.46,1.48,3.9,1.48,2.43,0,4.57-4.31,4.57-4.31,0,0-6.19,2.7-8.48,2.83Z"/>
        <ellipse class="cls-3" cx="279.9" cy="128.97" rx="6.19" ry="8.55"/>
        <ellipse class="cls-8" cx="282.52" cy="127.49" rx="3.97" ry="6.53"/>
        <path class="cls-9" d="m234.36,138.07s.04,13.99,3.67,15.2,13.6-1.21,13.6-1.21"/>
        <path class="cls-3" d="m256.74,152c0,1.08-1.33,1.95-2.96,1.95s-2.96-.87-2.96-1.95,1.33-1.95,2.96-1.95,2.96.87,2.96,1.95Z"/>
        <path class="cls-1" d="m257.59,168.4s-4.26,7.44-7.24,29.57c-2.99,22.13-1.01,26.55-1.01,26.55l-4.26,2.62s-8.84-1.01-5.83-21.92c3.01-20.92,4.69-24.34,4.69-24.34l13.65-12.47Z"/>
        <path class="cls-1" d="m284.54,160.77s-9.65,22.93-19.71,37.21c-10.06,14.28-23.72,34.77-23.72,34.77,0,0,7.24-3.42,22.53-14.89,15.29-11.48,30.77-37.82,32.38-40.43,1.61-2.61,4.02-8.65,4.02-8.65l-15.5-8.02Z"/>
        <path class="cls-8" d="m200.98,262.65c-2.36,1.44-4.83,2.67-7.4,3.7-4.53,1.85-4.96,1.52-3.5,3.09s9.05-1.23,11.11-2.06,5.96-2.06,5.96-2.06c0,0,4.73,2.67,7.61,3.5s6.38-.41,6.38-.41c0,0,.21-3.29-2.26-5.14s-7.8-6.17-9.67-5.96-8.24,5.35-8.24,5.35Z"/>
        <path class="cls-8" d="m199.75,257.71s-2.47-.62-4.11.62-3.5,5.14-3.7,6.17.21,1.65,1.85.21,4.53-3.5,4.53-3.5l2.47-.82-1.03-2.67Z"/>
        <path class="cls-8" d="m206.13,255.86s-4.96-1.65-5.96-.21-4.53,9.67-3.5,10.28,2.47-.62,4.32-3.29,2.88-4.11,2.88-4.11l2.47-.41-.21-2.26Z"/>
        <path class="cls-8" d="m214.94,257.7s-6.43-5.03-8.04-3.82c-1.61,1.21-6.84,9.05-7.44,10.64-.6,1.59,2.21.81,4.42-1.21,2.21-2.01,4.83-4.26,4.83-4.26l5.03,2.62,1.21-3.97Z"/>
        <path class="cls-8" d="m238.08,261.53s-8.45-.4-11.87-1.61c-3.42-1.21-10.26-3.82-12.27-3.62s-9.66,7.65-11.27,9.26c-1.61,1.61-1.42,2.04.16,2.24s5.47-2.44,7.28-3.85c1.12-.86,2.34-1.61,3.62-2.21,1.44,2.08,3.06,4.03,4.83,5.84,2.01,1.81,6.84,3.21,8.65,3.01,1.15-.13,2.29-.33,3.42-.6l6.84-.2.6-8.25Z"/>
        <path class="cls-1" d="m296.66,203.64s-7.44,8.65-7.04,11.67.6,6.03.6,6.03l-5.43,32.79s-4.62-2.21-4.62-.4v1.82l-43.47,4.43-.4,15.28,69.19.2s3.42-3.82,3.82-5.23c.4-1.41,8.04-25.75,10.06-51.29,2.01-25.55,1.01-37.01,0-39.01-1.01-2-12.87-5.83-12.87-5.83"/>
        <path class="cls-8" d="m286.55,253.68s6.43,4.22,10.26,5.23"/>
        <path class="cls-8" d="m226.21,212.88l4.96-15.94c2.01-1.97,3.78-4.19,5.25-6.59,2.13-3.6,2.13-10.34,1.79-11.54s4.35-6.59,5.67-8.51c1.33-1.92,2.09-5.4.3-7.94s-2.7,1.65-3.89,3.6-5.4,3.89-5.4,3.89l-4.43,3.6s-7.34,6.44-7.8,7.34-1.35,3.74-1.35,3.74l.6,8.69-3.89,15.13,8.18,4.53Z"/>
        <path class="cls-2" d="m227.44,168.21s3.6-5.67,4.65-7.49,2.7-8.99,3.74-8.51c1.05.48,2.13,2.84,1.8,5.99-.33,3.16-4.05,10.33-4.05,10.33l-6.14-.33Z"/>
        <path class="cls-8" d="m218.75,204.1l3.15-10.64-1.36-17.08,4.19-8.09,11.53-1.5s7.04,3.74,7.65,3.74,0,1.65-1.35,1.94c-1.35.3-3.9-.45-3.9-.45l4.35,2.84s-.3,1.35-1.35,1.65c-1.04.21-2.09.31-3.15.3,0,0,3.74,2.4,2.84,2.84-.89.41-1.86.61-2.84.6h-2.84l-2.25-.3-3.45,1.35s2.4,6.14,2.25,9.14c-.15,3-3.89,4.96-3.89,4.96"/>
        <path class="cls-2" d="m238.67,171.81s-2.4-1.95-3.74-1.95-9.58,1.5-9.58,1.5"/>
        <path class="cls-2" d="m238.52,176.6s-3.89-2.13-5.09-2.13-10.64,2.4-10.64,2.4"/>
        <path class="cls-1" d="m218.94,200.52l12.16,8.19s-5.42,29.08-5.95,31.57-4.43,9.05-6.38,11.01-4.26,1.6-9.58.18-9.93-5.67-9.77-11.18,19.52-39.76,19.52-39.76Z"/>
      </g>
      <g id="freepik--Device--inject-2">
        <polygon class="cls-6" points="178.03 244.61 108.88 244.61 94.99 171.07 164.14 171.07 178.03 244.61"/>
        <polygon class="cls-6" points="175.72 242.56 108.99 242.56 95.87 173.12 162.6 173.12 175.72 242.56"/>
        <polygon class="cls-6" points="163.13 237.46 113.08 237.46 103.24 185.37 153.29 185.37 163.13 237.46"/>
        <line class="cls-2" x1="103.5" y1="185.88" x2="95.87" y2="173.59"/>
        <line class="cls-5" x1="153.12" y1="185.88" x2="162.61" y2="173.59"/>
        <line class="cls-5" x1="162.88" y1="237.52" x2="175.73" y2="243.05"/>
        <line class="cls-2" x1="113.25" y1="237.52" x2="108.98" y2="243.05"/>
        <polygon class="cls-6" points="133.34 222.14 122.54 222.14 129.41 216.01 140.21 216.01 133.34 222.14"/>
        <polygon class="cls-6" points="146.95 275.24 135.96 275.24 122.47 259.93 133.46 259.93 146.95 275.24"/>
        <rect class="cls-6" x="121.87" y="222.14" width="11.23" height="36.77"/>
      </g>
    </g>
  </g>
</svg>