<?xml version="1.0" encoding="UTF-8"?>
<svg id="Layer_1" data-name="Layer 1" xmlns="http://www.w3.org/2000/svg" xmlns:xlink="http://www.w3.org/1999/xlink" viewBox="0 0 512 263">
  <defs>
    <style>
      .cls-1, .cls-2, .cls-3, .cls-4 {
        fill: #f049ff;
      }

      .cls-1, .cls-5, .cls-4, .cls-6, .cls-7, .cls-8, .cls-9, .cls-10 {
        stroke-linecap: round;
        stroke-linejoin: round;
      }

      .cls-1, .cls-5, .cls-8, .cls-9, .cls-10 {
        stroke-width: 2.36px;
      }

      .cls-1, .cls-4, .cls-7, .cls-8, .cls-10 {
        stroke: #263238;
      }

      .cls-2, .cls-11, .cls-12, .cls-13, .cls-14, .cls-15, .cls-16, .cls-3, .cls-17, .cls-18, .cls-19, .cls-20 {
        stroke-width: 0px;
      }

      .cls-21 {
        clip-path: url(#clippath-2);
      }

      .cls-11 {
        opacity: .7;
      }

      .cls-11, .cls-13, .cls-15, .cls-3, .cls-6, .cls-17, .cls-18, .cls-19 {
        isolation: isolate;
      }

      .cls-11, .cls-16, .cls-19, .cls-8, .cls-9 {
        fill: #fff;
      }

      .cls-22 {
        clip-path: url(#clippath-6);
      }

      .cls-13, .cls-17 {
        opacity: .2;
      }

      .cls-13, .cls-18 {
        fill: rgba(240, 73, 255, .7);
      }

      .cls-14, .cls-5, .cls-6, .cls-7, .cls-10 {
        fill: none;
      }

      .cls-15, .cls-6, .cls-19 {
        opacity: .3;
      }

      .cls-23 {
        clip-path: url(#clippath-1);
      }

      .cls-24 {
        clip-path: url(#clippath-4);
      }

      .cls-5, .cls-9 {
        stroke: #f049ff;
      }

      .cls-3 {
        opacity: .4;
      }

      .cls-4, .cls-6, .cls-7 {
        stroke-width: 1.18px;
      }

      .cls-6 {
        stroke: #fff;
      }

      .cls-18 {
        opacity: .5;
      }

      .cls-20 {
        fill: #263238;
      }

      .cls-25 {
        clip-path: url(#clippath);
      }

      .cls-26 {
        clip-path: url(#clippath-3);
      }

      .cls-27 {
        clip-path: url(#clippath-5);
      }
    </style>
    <clipPath id="clippath">
      <rect class="cls-14" x="0" y=".72" width="512" height="261.57" rx="42.76" ry="42.76"/>
    </clipPath>
    <clipPath id="clippath-1">
      <path class="cls-14" d="m443.94,335.81s-132.8-2.74-189.13,0c-40.33,1.97-161.51,0-161.51,0,0,0,2.49-88.59,0-133.5-1.59-28.64,0-114.75,0-114.75,0,0,129,.25,170.47-1.36,68.63-2.66,180.17,1.36,180.17,1.36,0,0,2.68,61.61,0,98.27-2.71,37.4,0,149.98,0,149.98Z"/>
    </clipPath>
    <clipPath id="clippath-2">
      <path class="cls-14" d="m375.44,72.87l-14.34-3.63-2.52,1.35-9.72-3.46s-1.56-9.72,6.32-18.96l9.81,3.9,1.81,2.54,13.08,6.49s1.39,8.63-4.46,11.77Z"/>
    </clipPath>
    <clipPath id="clippath-3">
      <path class="cls-14" d="m386.63,424.35s-10.1-84.46-15.32-98.74c-5.21-14.29-12.08-61.52-12.08-61.52,0,0,15.87-1.27,20.68-1.32s11.02-4.65,11.02-4.65c-.53.94-1.72.36-2.61-5.41-.59-3.85-6.47-5.03-6.47-5.03,0,0-14.09,1.06-25.97-.54-2.88.91-5.97.91-8.85,0-4.33-1.57-5.2-3.26-2.83-5.55,0,0-3.36-4.4,8.13-10.65,0,0-7.64-6.87-3.91-11.31,3.73-4.44,12.58-8.87,12.58-8.87,0,0,.37-3.35,1.99-4.22s10.44-4.48,15.29-7.83,6.96-3.1,15.91-3.36,19.89-2.48,23.99-.62c3.19,1.45,4.67,7.14,4.67,7.14,2.98.94,3.28,5.81,3.47,7,.88,5.34,7.03,27.49,9.76,31.35,2.73,3.85,4.34,10.57,3.85,14.04s-1.74,7.54-2.99,14.67c-1.24,7.13-5.47,31.7-7.54,38.77s-3.23,19.39-2.12,25.35l31.42,74.77"/>
    </clipPath>
    <clipPath id="clippath-4">
      <path class="cls-14" d="m347.43,217.04l116.58-17.3,1.49,20.8-117.08,11.62-5.47-2.47-8.95.23c-1.72-1.55-2.09-4.11-.88-6.09l9.22-1.98,5.09-4.81Z"/>
    </clipPath>
    <clipPath id="clippath-5">
      <path class="cls-14" d="m464.01,199.73c8.08-.64,9.81,19.98,1.49,20.8-7.96.79-9.69-20.14-1.49-20.8Z"/>
    </clipPath>
    <clipPath id="clippath-6">
      <path class="cls-14" d="m390.93,264.96s-8.48.5-9.42,0c-.94-.5-6.22-10.44-6.47-13.54s-.74-13.05-.99-19.26c-.25-6.21-.25-15.91-11.93-13.85-5.22.94-6.1,5.86-7.83,16.96s-.12,14.04-1.37,28.22c-1.24,14.17.25,19.79,3.23,26.93s4.09,25.27,12.04,31.98c7.95,6.71,11.07,19.64,11.07,19.64"/>
    </clipPath>
  </defs>
  <g class="cls-25">
    <g>
      <g id="freepik--background-simple--inject-22">
        <path class="cls-11" d="m97.04,139.02s-26.28,67.86,10.65,136.19,112.98,104.43,173.86,135.29c60.88,30.87,124.09,15.83,154.12-34.72,30.04-50.55-11.16-86.64-11.22-158.73-.06-72.09,10.79-91.18-28.27-152.08C357.12,4.06,261.36-9.42,188.94,35.75c-72.42,45.17-91.89,103.27-91.89,103.27Z"/>
        <path class="cls-2" d="m135.65,41.03c4.19-2.9,8.6-5.47,13.19-7.68,33.29-15.92,74.14-10.68,106.12,7.71,31.99,18.39,55.93,48.43,73.34,80.96,7.95,14.86,15.08,30.83,27.86,41.81,16.48,14.14,38.75,17.37,58.43,25.08,71.43,28.05,72.25,130.9,9.64,169.31-24.68,15.14-55.16,19.71-83.52,21.82-39.29,2.93-79.29,1.43-117.24-9.18-37.94-10.61-73.85-30.78-99.23-60.91-33.24-39.46-46.06-93.11-44.38-144.68.85-26.1,5.23-52.41,16.28-76.07,8.87-19.06,22.33-36.28,39.5-48.16Z"/>
        <path class="cls-11" d="m135.65,41.03c4.19-2.9,8.6-5.47,13.19-7.68,33.29-15.92,74.14-10.68,106.12,7.71,31.99,18.39,55.93,48.43,73.34,80.96,7.95,14.86,15.08,30.83,27.86,41.81,16.48,14.14,38.75,17.37,58.43,25.08,71.43,28.05,72.25,130.9,9.64,169.31-24.68,15.14-55.16,19.71-83.52,21.82-39.29,2.93-79.29,1.43-117.24-9.18-37.94-10.61-73.85-30.78-99.23-60.91-33.24-39.46-46.06-93.11-44.38-144.68.85-26.1,5.23-52.41,16.28-76.07,8.87-19.06,22.33-36.28,39.5-48.16Z"/>
      </g>
      <g id="freepik--Table--inject-22">
        <path class="cls-17" d="m446.64,97.33l-358.66,2.88s-3.16,78.13.58,110.16c3.74,32.03-.58,139.58-.58,139.58,40.68,3.55,81.53,4.67,122.33,3.34l-23.67,15.58c-.72,4.91,1.27,9.82,5.21,12.83l12.58-3.87,4.14,3.87,10.57-3.61s4.33-13.09-4.44-24.97c65.03-2.68,127.16-8.82,127.16-8.82,0,0,1,4.07,14,17.01,13,12.94,30.74,57.49,30.74,57.49l42.63-65.58,24.38-3.23s-4.89-61.26,0-98.19c4.89-36.93-6.97-154.47-6.97-154.47Z"/>
        <path class="cls-16" d="m443.94,335.81s-132.8-2.74-189.13,0c-40.33,1.97-161.51,0-161.51,0,0,0,2.49-88.59,0-133.5-1.59-28.64,0-114.75,0-114.75,0,0,129,.25,170.47-1.36,68.63-2.66,180.17,1.36,180.17,1.36,0,0,2.68,61.61,0,98.27-2.71,37.4,0,149.98,0,149.98Z"/>
        <g class="cls-23">
          <g>
            <path class="cls-18" d="m444.52,87.52v56.31c-23.83-.59-89.83-1.8-176.34.27-91.82,2.2-156.38.71-174.77.17v-56.76s129.17.25,170.7-1.36c68.74-2.66,180.42,1.36,180.42,1.36Z"/>
            <path class="cls-13" d="m311.38,331.8l-3.21-190.88h-39.11c-1.74,30.03-.59,150.9-.15,190.88h42.47Z"/>
            <path class="cls-13" d="m97.8,144.46l42.9-.29s3.27,147.45-4.19,187.63h-36.23s.5-53.72,0-98.04c-.5-44.32-2.47-89.3-2.47-89.3Z"/>
            <path class="cls-2" d="m97.75,114.62s106.5-1.5,138.7,0c32.2,1.5,120.73-1.11,133.69-1.88,12.96-.77,71.63,1.88,71.63,1.88,2.21-17.63-1.99-25.7-1.99-25.7,0,0-157.09,2.05-233.15,3.06s-108.87,0-108.87,0c0,0,1.49,13.97,0,22.64Z"/>
          </g>
        </g>
        <path class="cls-7" d="m443.94,335.81s-132.8-2.74-189.13,0c-40.33,1.97-161.51,0-161.51,0,0,0,2.49-88.59,0-133.5-1.59-28.64,0-114.75,0-114.75,0,0,129,.25,170.47-1.36,68.63-2.66,180.17,1.36,180.17,1.36,0,0,2.68,61.61,0,98.27-2.71,37.4,0,149.98,0,149.98Z"/>
        <path class="cls-12" d="m258.67,107.09c-.09,0-.17-.02-.25-.06-.1-.04-.21-.08-.3-.14-.1-.05-.19-.12-.25-.21-.05-.07-.05-.17,0-.25,0-.06.08-.17.14-.33l.2-.58c.08-.23.15-.46.23-.72s.16-.52.25-.77.14-.49.21-.73.12-.42.17-.58l-3.69-3.77c-.09-.1-.12-.19-.1-.25.03-.06.07-.11.13-.14.07-.03.14-.05.22-.06h.16c.12,0,.25,0,.37,0,.14.02.27.07.4.14.17.09.33.2.47.32.21.18.42.38.61.58.25.25.52.55.84.94s.7.79,1.12,1.31c.28-.82.53-1.49.74-2.02.16-.43.35-.85.56-1.25.11-.25.27-.47.45-.67.12-.12.27-.2.43-.24.09,0,.18,0,.26,0,.08,0,.14.08.18.21-.31.67-.59,1.36-.82,2.06-.26.76-.53,1.56-.81,2.38s-.57,1.65-.87,2.47c-.3.79-.64,1.57-1.03,2.33Z"/>
        <path class="cls-12" d="m262.69,104.51c-.07-.59,0-1.18.17-1.74.18-.55.46-1.06.82-1.51.37-.43.81-.78,1.32-1.03.53-.26,1.11-.38,1.7-.36.13-.01.27-.01.41,0l.56.14c.2.06.39.14.57.24.18.09.35.21.5.35.13.13.24.28.32.44.07.18.09.37.06.56-.31.22-.67.37-1.05.44-.39.09-.79.14-1.2.17l-1.2.09c-.35.01-.7.08-1.03.2-.27.1-.51.28-.67.53-.17.32-.23.68-.15,1.04.08.35.27.66.55.9.26.19.57.31.89.34.36.04.72.03,1.07-.05.38-.08.75-.18,1.12-.31.36-.12.7-.25,1.02-.4l.78-.34c.19,0,.34.16.35.35-.21.35-.5.64-.85.86-.39.26-.82.46-1.26.6-.48.16-.98.25-1.48.29-.48.03-.97,0-1.44-.11-.43-.11-.83-.31-1.18-.58-.34-.29-.58-.67-.69-1.1Zm3.92-3.77c-.16-.01-.33-.01-.49,0-.19.03-.37.09-.55.16-.17.07-.32.16-.46.28-.12.12-.19.28-.19.45l2.73-.45c-.11-.17-.27-.3-.45-.38-.19-.07-.39-.1-.59-.1v.04Z"/>
        <path class="cls-12" d="m275.83,104.47c-.21.34-.46.66-.74.94-.28.27-.6.5-.94.69-.34.19-.71.33-1.09.41-.41.09-.83.11-1.24.08-.17,0-.34-.02-.5-.06-.17-.03-.34-.09-.49-.18-.15-.08-.27-.19-.37-.32-.11-.14-.16-.31-.15-.49-.08-.42-.06-.85.06-1.25.12-.43.29-.84.53-1.23.27-.41.58-.78.94-1.1.35-.32.73-.61,1.13-.85.39-.22.81-.39,1.24-.5.4-.09.82-.09,1.23,0,.27-.01.53.1.71.3.19.23.32.5.39.79.09.38.14.76.16,1.15,0,.43.02.87.06,1.33,0,.45,0,.94.06,1.35.02.41.08.82.17,1.23h-.78c0-.25-.07-.47-.08-.67s0-.37-.06-.53c0-.16-.03-.32-.06-.48-.08-.27-.1-.44-.15-.61Zm-.98-3.36c-.32-.03-.64,0-.94.11-.31.1-.6.25-.88.42-.29.18-.56.4-.8.64-.24.23-.45.49-.64.76-.18.24-.32.51-.42.79-.1.23-.14.48-.12.73.02.21.1.4.25.56.19.18.43.29.69.31.44-.01.88-.13,1.27-.34.4-.21.77-.48,1.09-.8.31-.31.58-.66.8-1.04.19-.32.33-.67.41-1.04.07-.27.04-.55-.08-.79-.13-.22-.37-.35-.62-.34v.02Z"/>
        <path class="cls-12" d="m277.6,100.01c-.01-.11.05-.22.15-.27.1-.05.22-.07.33-.07.18,0,.35.08.45.24.12.16.21.35.27.55.06.2.1.41.13.62.01.15.03.29.06.43.29-.26.61-.49.94-.7.36-.22.74-.4,1.13-.55.45-.15.92-.27,1.39-.33.57-.07,1.14-.09,1.72-.05.16-.05.34,0,.45.12.1.14.15.3.17.46.02.18-.01.36-.08.52-.04.15-.16.26-.31.3-.28-.2-.6-.33-.94-.37-.38-.06-.76-.06-1.14,0-.4.06-.79.17-1.17.33-.37.15-.71.36-1.02.6-.29.23-.53.51-.71.84-.17.31-.25.67-.22,1.03,0,.22.02.45.05.67,0,.22.06.43.09.65s.07.43.09.65c.01.22.01.44,0,.66-.16,0-.32.03-.48.08-.1.03-.2.05-.3.05-.08,0-.16-.04-.21-.11-.09-.13-.15-.27-.2-.42,0-.05,0-.21-.06-.46s-.07-.57-.1-.94-.08-.76-.14-1.21-.1-.87-.15-1.29-.08-.81-.13-1.17-.05-.64-.08-.86Z"/>
        <path class="cls-12" d="m112.98,132.16c-.05-.08-.13-.21-.22-.38-.08-.16-.18-.35-.28-.56l-.31-.66c-.11-.22-.22-.43-.33-.62-.09-.17-.2-.34-.32-.5-.07-.11-.17-.2-.28-.25-.05.1-.13.24-.21.41s-.16.37-.25.59l-.27.68c-.08.25-.17.48-.25.7l-.23.64c-.06.19-.13.35-.17.47h-.48l-1.94-4.49s-.03-.09,0-.14c.03-.04.07-.07.11-.08h.27c.07,0,.13.02.18.05.04.04.07.08.09.13l.05.17c.02.06.04.12.06.17l.23.5c.08.2.17.4.27.61s.19.43.29.64l.27.57c.09.18.16.33.23.44.04.08.08.15.14.22.21-.55.4-1,.56-1.37s.29-.68.4-.91.19-.44.26-.56c.04-.1.1-.2.15-.29.02-.04.06-.08.09-.12h0c.09.01.17.06.24.13.11.1.2.21.27.34.1.14.2.29.31.47s.21.36.32.56.21.38.3.57l.27.54.23.43.16.25c.06-.22.13-.45.19-.7s.13-.52.18-.79.11-.56.15-.84.1-.56.15-.83.09-.53.13-.77.07-.47.1-.67c.1-.02.2-.02.3,0,.06.02.11.05.15.1.03.05.05.11.05.16,0,.07,0,.13,0,.2v.21c0,.15-.05.36-.09.64s-.09.59-.15.91-.13.75-.2,1.14-.15.8-.25,1.21-.19.78-.29,1.14c-.08.06-.17.1-.26.11-.06.01-.13,0-.17-.05-.05-.06-.1-.12-.13-.19l-.09-.3Z"/>
        <path class="cls-12" d="m114.74,131.51c-.07-.68.14-1.36.58-1.88.21-.26.47-.46.76-.6.29-.14.62-.21.94-.21.08,0,.16,0,.25,0l.32.08.33.13c.11.05.21.12.29.21.08.07.15.16.19.25.03.11.03.22,0,.33-.19.12-.39.21-.61.25-.23.05-.46.08-.7.1l-.71.05c-.2.01-.4.05-.59.12-.16.06-.3.16-.4.3-.09.19-.12.4-.08.6.04.21.16.39.32.53.15.11.33.18.52.2.21.04.42.04.62,0,.22-.04.44-.1.65-.18.2-.07.4-.15.59-.24l.46-.2c.06,0,.11.02.14.07.04.04.06.09.06.14-.12.2-.29.37-.49.5-.23.15-.48.27-.74.35-.28.1-.57.15-.86.17-.28.02-.56,0-.84-.07-.25-.06-.49-.18-.69-.34-.17-.19-.29-.42-.32-.68Zm2.28-2.36h-.28c-.11.01-.22.04-.32.08-.1.04-.19.1-.27.17-.07.07-.12.16-.11.26l1.6-.26c-.07-.1-.16-.18-.27-.22-.11-.04-.22-.05-.34-.04Z"/>
        <path class="cls-12" d="m119.21,131.51c-.04-.34-.01-.69.09-1.02.1-.32.26-.62.48-.88.21-.25.47-.46.76-.6.29-.14.62-.21.94-.21.08,0,.16,0,.25,0l.32.08.33.13c.11.05.21.12.29.21.08.07.15.16.19.25.03.11.03.22,0,.33-.19.12-.39.21-.61.25-.23.05-.46.08-.7.1l-.71.05c-.2.01-.4.05-.59.12-.16.06-.3.16-.4.3-.09.19-.12.4-.08.6.04.21.16.39.32.53.15.11.33.18.52.2.21.04.42.04.62,0,.22-.04.44-.1.65-.18.2-.07.4-.15.59-.24l.46-.2c.06,0,.11.02.14.07.04.04.06.09.06.14-.12.2-.29.37-.49.5-.23.15-.48.27-.74.35-.28.09-.57.15-.87.17-.28.02-.56,0-.84-.07-.25-.06-.49-.18-.69-.34-.17-.18-.28-.42-.31-.67Zm2.27-2.36h-.28c-.11.01-.22.04-.32.08-.1.04-.19.1-.27.17-.07.07-.12.16-.11.26l1.6-.26c-.06-.1-.16-.18-.27-.22-.11-.04-.22-.05-.34-.04Z"/>
        <path class="cls-12" d="m122.86,129.51v-1.31l1.18-.65v-.66c-.21-.07-.19-.15-.13-.2.06-.04.2.1.2.1h.13s.1.32.12.55l.06.79c0,.28,0,.57.06.88s0,.61.08.94c.12-.06.23-.13.34-.21l.49-.34.56-.41.55-.39.46-.28c.09-.06.19-.1.29-.11.04-.01.08-.01.11,0,.04.03.07.07.09.11-.18.22-.38.43-.6.61-.23.18-.46.36-.7.52l-.73.5c-.23.15-.45.32-.65.51l1.02.3.94.29.94.23c.29.06.59.09.89.11,0,.06,0,.11,0,.17.01.04.01.08,0,.12-.02.04-.05.07-.09.08-.06.01-.13.01-.19-.28h-.07c-.2.22-.43.17-.73.11l-.94-.2-.94-.21-.39-.22v.96c-.57.11-.6.22-.65.32-.04.09-.12.15-.21.19-.12.04-.24.04-.36,0l-1.14-2.95Z"/>
        <path class="cls-12" d="m132.42,128.27c0-.12,0-.2.07-.23.06-.02.13-.02.19,0,.06-.01.11-.01.17,0,.06,0,.08.06.11.12l-.14,4.14c0,.05-.03.11-.07.14-.05.04-.1.06-.16.08-.06.01-.11.01-.17,0-.05,0-.1-.04-.13-.08v-3.68c0-.22.13-.4.13-.5Z"/>
        <path class="cls-12" d="m153.04,133.34c-.08-.12-.15-.25-.21-.38-.09-.16-.18-.35-.28-.56l-.32-.66c-.11-.22-.22-.43-.33-.62-.09-.17-.2-.34-.32-.5-.07-.11-.16-.19-.27-.25-.08.13-.15.27-.22.41-.08.17-.16.37-.25.59s-.17.45-.26.68l-.26.7-.23.64-.16.47h-.49l-1.94-4.49s-.03-.09,0-.14c.03-.04.07-.07.11-.08h.27c.07,0,.13.01.18.05.04.03.07.08.09.13.03.06.05.11.06.17.01.06.03.12.05.17l.23.5.27.61c.1.21.19.43.29.64s.19.4.28.57c.07.15.14.29.22.44.04.08.08.15.14.22.22-.55.4-1,.56-1.37s.29-.68.4-.91.2-.44.26-.56c.04-.1.1-.2.15-.29l.09-.12h0c.09.01.18.06.24.13.11.1.2.21.28.34.11.15.21.31.3.47.11.17.22.36.32.56s.21.38.31.57.18.37.27.54.15.3.23.43c.05.09.1.17.15.25.07-.22.14-.45.2-.7s.12-.52.17-.79l.16-.84.14-.83c0-.27.09-.53.13-.77s.07-.47.11-.67c.1-.02.19-.02.29,0,.06.02.12.05.15.1.04.05.06.1.05.16,0,.07,0,.13,0,.2v.21c0,.15,0,.36-.09.64s-.08.59-.15.91-.12.75-.2,1.14-.15.8-.25,1.21-.19.78-.29,1.14c-.07.06-.16.1-.25.11-.07.01-.13,0-.18-.05-.03-.06-.06-.12-.08-.19l-.14-.3Z"/>
        <path class="cls-12" d="m154.6,133.39c-.04-.34,0-.69.09-1.02.1-.32.27-.62.48-.88.21-.25.47-.46.77-.6.29-.14.62-.22.94-.21.08,0,.16,0,.25,0l.32.08.34.13c.11.05.2.12.28.21.08.07.15.16.2.25.03.11.03.22,0,.33-.18.13-.39.21-.61.25-.23.05-.46.08-.7.1l-.7.05c-.21.01-.41.05-.6.12-.16.06-.29.16-.39.3-.1.18-.13.4-.08.6.04.21.15.39.31.53.15.11.33.18.52.2.21.04.42.04.62,0,.22-.04.44-.1.65-.18.22-.08.41-.15.6-.24l.45-.2c.06,0,.11.02.14.07.04.04.06.09.06.14-.12.2-.29.38-.49.5-.23.15-.48.27-.74.35-.28.09-.57.15-.86.17-.28.02-.57,0-.85-.07-.25-.06-.49-.18-.69-.34-.18-.18-.29-.42-.33-.67Zm2.27-1.89h-.28c-.11.01-.22.04-.32.08-.1.04-.19.1-.26.17-.07.07-.12.16-.11.26l1.59-.26c-.06-.1-.15-.18-.26-.22-.1-.03-.21-.04-.32-.04h-.03Z"/>
        <path class="cls-12" d="m159.09,133.39c-.04-.34,0-.69.09-1.02.11-.32.27-.62.48-.88.21-.25.47-.46.77-.6.29-.14.62-.22.94-.21.08,0,.16,0,.25,0l.32.08.34.13c.11.05.2.12.28.21.08.07.15.16.2.25.03.11.03.22,0,.33-.18.13-.39.21-.61.25-.23.05-.46.08-.7.1l-.7.05c-.2.01-.4.05-.59.12-.38.11-.61.51-.49.9,0,.01,0,.03.01.04.04.21.15.39.31.53.15.11.33.18.52.2.21.04.42.04.62,0,.22-.04.44-.1.65-.18.22-.08.41-.15.6-.24l.45-.2c.06,0,.11.02.14.07.04.04.06.09.06.14-.12.2-.29.38-.49.5-.23.15-.48.27-.74.35-.28.09-.57.15-.86.17-.28.02-.57,0-.85-.07-.25-.06-.49-.18-.69-.34-.19-.19-.3-.44-.33-.71Zm2.27-1.89h-.28c-.11.01-.22.04-.32.08-.1.04-.18.1-.26.17-.07.07-.12.16-.11.26l1.59-.26c-.06-.1-.15-.18-.26-.22-.11-.04-.23-.05-.35-.04Z"/>
        <path class="cls-12" d="m162.92,131.39v-.65l1.18-.66s0,.1,0-.1v-.6c0-.07.02-.13.08-.18.06-.04.13-.06.2-.05h.05c.05.21.09.43.11.65,0,.23,0,.47.07.73s0,.52.05.8,0,.56.1.86c.12-.05.23-.12.33-.19l.5-.31.56-.37.55-.35c.18-.1.33-.19.48-.26.09-.05.19-.09.3-.1.04-.01.08-.01.11,0,.04.03.07.06.09.1-.18.21-.39.39-.61.56-.23.16-.47.33-.71.47l-.73.46c-.24.14-.46.3-.67.47l1.04.28.96.27.96.21c.3.05.6.09.9.1v.16s0,.07,0,.11c-.03.03-.06.06-.11.08-.06.01-.13.01-.19,0h-.52s-.43-.31-.72-.36l-.94-.2-.94-.21-.94-.22c0,.08,0,.16-.35.25v.72c.35.11.32.22.27.32-.05.08-.12.15-.21.19-.12.04,1.12,0,1.12,0l-2.36-2.95Z"/>
        <path class="cls-12" d="m172.05,134.17c.21-.19.41-.39.6-.6.23-.24.45-.5.65-.77.21-.27.4-.54.57-.82.15-.24.27-.5.35-.77.07-.2.07-.41,0-.6-.08-.18-.25-.31-.45-.32-.14,0-.28.02-.41.07-.11.05-.22.1-.32.17-.1.07-.19.14-.27.23-.08.08-.16.16-.25.23-.09.07-.19.12-.29.17-.11.05-.24.07-.36.07.02-.19.1-.36.22-.51.15-.18.32-.33.52-.45.21-.13.43-.23.67-.29.22-.08.45-.1.68-.08.2.01.39.09.55.23.16.16.26.37.26.59,0,.3-.05.6-.15.89-.11.29-.23.58-.39.85-.16.27-.34.53-.53.78-.2.25-.39.49-.57.7.25.02.51,0,.75-.07.25-.07.5-.15.74-.24l.73-.25c.23-.08.48-.12.73-.12.07,0,.13.01.19.05.06.03.09.09.08.16,0,.08-.03.15-.08.21-.06.06-.14.11-.22.14l-.27.08h-.64l-.25.07-.43.13-.54.14-.57.13-.54.09c-.15.01-.3.01-.44,0-.09,0-.19-.03-.26-.08-.03-.05-.04-.11-.02-.17Z"/>
        <path class="cls-12" d="m194.28,132.16c-.05-.08-.13-.21-.22-.38l-.27-.56-.32-.66c-.11-.22-.22-.43-.33-.62-.09-.17-.2-.34-.32-.5-.07-.11-.16-.19-.27-.25-.08.13-.15.27-.22.41-.08.17-.16.37-.25.59s-.18.45-.26.68l-.26.7-.23.64c-.06.19-.13.35-.17.47h-.48l-1.94-4.49s-.03-.09,0-.14c.03-.04.07-.07.11-.08h.27c.07,0,.13.02.18.05.04.04.07.08.09.13.02.06.04.11.05.17l.06.17.23.5c.08.2.18.4.27.61s.19.43.29.64.19.4.28.57c.07.15.14.29.22.44.04.08.08.15.14.22.22-.55.4-1,.56-1.37s.29-.68.4-.91.2-.44.26-.56c.04-.1.1-.2.15-.29l.09-.12h0c.09.01.18.06.24.13.11.1.2.21.28.34.09.14.2.29.3.47s.21.36.32.56.21.38.31.57.18.37.27.54.15.3.23.43c.05.09.1.17.15.25.07-.22.14-.45.2-.7s.12-.52.17-.79.11-.56.15-.84.1-.56.15-.83.09-.53.13-.77.07-.47.1-.67c.1-.02.2-.02.3,0,.06.02.12.05.15.1.03.05.05.11.05.16,0,.07,0,.13,0,.2v.21c0,.15-.05.36-.09.64s-.08.59-.15.91-.13.75-.2,1.14-.15.8-.25,1.21-.19.78-.29,1.14c-.08.06-.17.1-.26.11-.06,0-.13-.01-.17-.05-.05-.06-.1-.12-.13-.19l-.09-.3Z"/>
        <path class="cls-12" d="m196.61,131.51c-.08-.68.13-1.36.57-1.88.21-.26.47-.46.77-.6.29-.15.62-.22.94-.21.08,0,.16,0,.25,0l.32.08.34.13c.1.06.2.12.28.21.08.07.15.16.19.25.03.11.03.22,0,.33-.18.13-.39.21-.61.25-.23.05-.46.08-.7.1l-.7.05c-.21.01-.41.05-.6.12-.16.06-.29.16-.39.3-.1.19-.13.4-.09.6.05.21.16.39.32.53.15.11.33.18.52.2.21.04.42.04.62,0,.22-.04.44-.1.65-.18.22-.08.41-.15.6-.24l.45-.2c.06,0,.11.02.14.07.04.04.06.09.06.14-.12.2-.29.38-.49.5-.23.15-.48.27-.74.35-.28.1-.57.15-.87.17-.28.02-.56,0-.84-.07-.25-.06-.49-.18-.69-.34-.18-.19-.29-.42-.32-.68Zm2.27-2.36h-.28c-.11.01-.22.04-.32.08-.1.04-.19.1-.27.17-.07.07-.12.16-.11.26l1.6-.26c-.06-.1-.15-.18-.26-.22-.11-.03-.22-.05-.33-.04h-.02Z"/>
        <path class="cls-12" d="m201.07,131.51c-.04-.34,0-.69.09-1.02.1-.32.27-.62.48-.88.21-.26.47-.46.77-.6.29-.15.62-.22.94-.21.08,0,.16,0,.25,0l.32.08.34.13c.1.06.2.12.28.21.08.07.15.16.19.25.03.11.03.22,0,.33-.18.13-.39.21-.61.25-.23.05-.46.08-.7.1l-.7.05c-.21.01-.41.05-.6.12-.16.06-.29.16-.39.3-.1.19-.13.4-.09.6.05.21.16.39.32.53.15.11.33.18.52.2.21.04.42.04.62,0,.22-.04.44-.1.65-.18.22-.08.41-.15.6-.24l.45-.2c.06,0,.11.02.14.07.04.04.06.09.06.14-.12.2-.29.38-.49.5-.23.15-.48.27-.74.35-.28.1-.57.15-.87.17-.28.02-.56,0-.84-.07-.25-.06-.49-.18-.69-.34-.18-.18-.29-.42-.32-.67Zm2.27-2.36h-.28c-.11.01-.22.04-.32.08-.1.04-.19.1-.27.17-.07.07-.12.16-.11.26l1.6-.26c-.06-.1-.15-.18-.26-.22-.11-.04-.23-.05-.35-.04Z"/>
        <path class="cls-12" d="m206.51,129.51v-.65l-.83-.66c0-.22,0-.43-.05-.65s0-.43,0-.66c0-.07.02-.15.08-.2.06-.04.13-.06.2.1h.13c.06.08.1.31.12.55,0,.25.05.52.07.79s0,.57.05.88.05.61.09.94c.12-.06.23-.13.33-.21l.49-.34.56-.41.55-.39.46-.28c.09-.06.19-.1.3-.11.04-.01.08-.01.11,0,.04.03.07.07.08.11-.18.22-.38.43-.6.61-.23.18-.46.36-.7.52l-.73.5c-.23.15-.45.32-.65.51l1.02.3.94.29.9.23c.29.06.59.09.61.11v.17c.28.04.28.08.27.12-.02.04-.05.07-.09.08-.06.01-.19-.28-.19-.28h-.07s-.43.17-.72.11l-.94-.2-.94-.21-.86-.22v.96c-.09.11-.12.22-.18.32-.04.08-.11.15-.2.19-.12.04-.8,0-.8,0l1.18-2.95Z"/>
        <path class="cls-12" d="m214.69,132.34c.29-.07.56-.18.83-.31.23-.11.45-.25.65-.41.16-.13.31-.29.42-.46.1-.12.17-.27.2-.42.02-.11,0-.23-.08-.32-.09-.1-.23-.16-.37-.15-.24,0-.48.02-.71.09-.36.1-.72.24-1.06.41l-.28-.36.39-.19c.16-.08.32-.15.49-.25l.52-.28c.17-.09.33-.19.48-.3.13-.08.26-.18.38-.28.08-.07.14-.16.18-.26.03-.07,0-.16-.07-.2-.12-.08-.25-.12-.39-.13-.23,0-.46.02-.69.08l-.67.16-.66.16c-.22.05-.44.07-.67.07v-.11s0-.09,0-.13c0-.04,0-.08,0-.12.05-.02.11-.03.16-.03l.72-.18c.25-.07.5-.12.75-.17.24-.05.48-.09.73-.12.22-.02.43-.02.65,0,.17,0,.34.04.49.12.13.06.23.16.28.29,0,.15-.05.29-.12.41-.08.14-.19.26-.3.38-.11.12-.23.23-.36.34l-.33.28c.28-.01.55.03.81.13.16.06.29.18.37.33.05.15.05.31,0,.45-.06.19-.16.36-.27.52-.14.18-.3.35-.47.5-.18.16-.38.3-.58.42-.2.11-.4.2-.61.27-.18.06-.38.07-.57.05-.06.01-.12.01-.18,0-.09-.05-.12-.16-.07-.24,0,0,0-.01.01-.02Z"/>
        <path class="cls-12" d="m235.49,134.52c-.05-.08-.13-.21-.22-.38-.09-.16-.18-.35-.28-.56l-.31-.66c-.11-.22-.22-.43-.34-.62-.09-.17-.2-.34-.31-.5-.07-.11-.17-.19-.28-.25-.08.13-.15.27-.21.41-.08.17-.17.37-.25.59l-.27.68-.25.7c-.08.23-.16.44-.23.64l-.17.47h-.48l-1.95-4.49s-.02-.09,0-.14c.03-.04.07-.07.11-.08h.16c.06.18.13.2.18.24.05.03.08.08.1.13l.06.18c.02.06.04.12.07.18l.24.52c.08.21.18.41.28.63s.2.44.3.66l.28.59c.07.15.15.31.24.45.07.12.11.2.13.23.23-.57.42-1.04.58-1.42s.29-.71.41-.94.21-.45.27-.58.13-.25.17-.3c.02-.04.05-.09.08.62h.05c.09-.72.18-.68.25-.61.11.1.2.22.28.35.1.14.21.3.32.49l.33.57.31.59.28.56.24.44c.05.09.1.18.17.26.07-.23.13-.46.2-.73s.12-.54.19-.82.11-.57.16-.87.1-.57.15-.86.08-.55.12-.8.08-.49.11-.7c.1-.02.21-.02.31,0,.06.02.12.05.16.1.03.05-.07.17-.07.17,0,0,0-.03,0,.04v.21c0,.15-.05.36-.08.64s-.09.59-.15.91-.13.75-.2,1.14-.15.8-.25,1.21-.19.78-.3,1.14c-.07.06-.16.1-.25.11-.06.01-.13,0-.17-.05-.07-.05-.12-.12-.16-.19,0-.11-.05-.2-.09-.3Z"/>
        <path class="cls-12" d="m237.61,134.33c-.04-.34,0-.69.1-1.02.1-.32.26-.62.47-.88.21-.25.47-.46.77-.6.31-.15.65-.22.99-.21.08,0,.16,0,.24,0l.33.08.33.13c.11.05.21.12.29.21.08.07.14.16.19.25.04.11.04.22,0,.33-.18.13-.39.21-.6.25-.23.05-.47.08-.71.1l-.7.05c-.2.01-.4.05-.59.12-.38.11-.61.51-.49.9,0,.01,0,.03.01.04.04.21.16.39.32.53.15.11.33.18.52.2.21.04.42.04.62,0,.22-.05.44-.11.65-.18.21-.08.41-.15.59-.24l.46-.2c.06,0,.11.02.14.07.04.04.06.09.06.14-.13.2-.29.37-.49.5-.23.15-.48.27-.74.35-.28.1-.57.15-.86.17-.28.02-.56,0-.84-.07-.25-.06-.49-.18-.69-.34-.2-.19-.33-.44-.38-.71Zm2.28-1.66h-.28c-.11.01-.22.04-.33.08-.1.04-.18.1-.26.17-.07.07-.12.16-.11.26l1.6-.26c-.07-.1-.16-.18-.27-.22-.11-.04-.22-.05-.34-.04Z"/>
        <path class="cls-12" d="m242.06,134.33c-.04-.34,0-.69.1-1.02.1-.32.26-.62.47-.88.21-.25.47-.46.77-.6.31-.15.65-.22.99-.21.08,0,.16,0,.24,0l.33.08.33.13c.11.05.21.12.29.21.08.07.15.16.19.25.04.11.04.22,0,.33-.18.13-.39.21-.6.25-.23.05-.47.08-.71.1l-.7.05c-.2.01-.4.05-.59.12-.38.11-.61.51-.49.9,0,.01,0,.03.01.04.04.21.16.39.32.53.15.11.33.18.52.2.21.04.42.04.62,0,.22-.05.44-.11.65-.18.21-.08.41-.15.59-.24l.46-.2c.06,0,.11.02.14.07.04.04.06.09.06.14-.12.2-.29.37-.49.5-.23.15-.48.27-.74.35-.28.1-.57.15-.86.17-.28.02-.56,0-.84-.07-.25-.06-.49-.18-.69-.34-.2-.19-.33-.44-.38-.71Zm2.28-1.66h-.28c-.11.01-.22.04-.33.08-.1.04-.18.1-.26.17-.07.07-.12.16-.11.26l1.6-.26c-.07-.1-.16-.18-.27-.22-.11-.04-.22-.05-.34-.04Z"/>
        <path class="cls-12" d="m246.57,132.34v-.65s.17-.44.13-.66l1.05-.65v-.66c-1.12-.07-1.09-.15-1.04-.2.06-.04.21-.37.21-.37h.05s.1.79.12,1.02c0,.26.02.52.06.79,0,.28,0,.57.06.88s.05.61.08.94c.12-.06.23-.13.34-.21l.48-.34.56-.41.56-.39.46-.28c.09-.06.19-.1.29-.11.04-.01.08-.01.11,0,.04.03.07.07.08.11-.18.23-.38.43-.6.61-.22.19-.46.36-.7.52l-.72.5c-.23.15-.45.32-.65.51l1.02.3.94.29.9.23c.29.06.59.09.89.11,0,.06,0,.11,0,.17,0,.04,0,.08,0,.12-.02.04-.06.07-.1.08-.06.01-.13.01-.19-.75h-.07c-.19.69-.42.64-.72.58l-.94-.2-.94-.21-.53-.22v.58c-.4.13-.4.25-.41.38,0,.11-.04.22-.08.32-.04.09-.12.15-.21.19-.12.04-.24.04-.36,0l-.12-2.95Z"/>
        <path class="cls-12" d="m257.75,133.86h-2.34l-.08-.1s-.01-.08,0-.11c.22-.27.43-.55.63-.83s.41-.55.6-.79.37-.46.54-.66c.14-.16.31-.31.48-.43.11-.09.25-.14.39-.13.14.04.25.14.29.27.09.24.15.5.16.76.03.45.03.89,0,.84h1.11v.73c.66.05.66.08.62.12s0,.06-.07.06l-1.49.12c-.04.12-.08.25-.24.38v.48c.14.16.14.33,0,.49v-.02h-.41c-.05.46-.1.42-.1.37l-.09-1.55Zm-.57-2.35c-.12.17-.27.33-.42.47l-.5.45c-.15.15-.3.31-.43.47-.12.14-.21.3-.25.48.26.02.52.02.78,0l.82-.09v-1.78Z"/>
        <path class="cls-12" d="m276.73,134.53c-.09-.12-.16-.25-.22-.38-.09-.16-.18-.35-.28-.56l-.31-.66c-.11-.22-.23-.43-.34-.62-.09-.18-.2-.34-.32-.5-.07-.11-.16-.19-.27-.25-.08.13-.15.27-.22.41l-.25.59-.26.68-.25.68c-.08.23-.16.44-.23.64l-.17.47h-.48l-1.95-4.49s-.02-.09,0-.14c.03-.04.07-.07.11-.08h.48c.06.16.13.18.18.22.05.03.08.08.09.13.03.06.05.12.07.18.02.06.04.12.07.18.07.14.14.32.23.52l.28.63.31.66.28.59c.07.15.15.31.24.45.04.08.08.15.13.22l.57-1.41c.17-.39.3-.71.41-.94s.21-.45.27-.58c.05-.1.11-.21.17-.3.02-.04.05-.09.08.63h.05c.09-.74.18-.7.24-.63.11.1.21.22.29.34.1.15.21.31.32.5s.22.38.32.57.22.4.32.59l.28.56c.08.17.17.31.24.43.04.1.1.18.17.26.07-.22.13-.45.2-.72s.12-.54.18-.82.11-.57.17-.87.1-.57.15-.86.08-.55.12-.8.08-.49.11-.7c.1-.02.21-.02.31,0,.06.01.12.05.15.1.04.05-.39.17-.39.17,0,0,0,0,0,.06v.21c0,.15-.05.36-.08.64s-.09.59-.15.91-.13.75-.2,1.14-.16.8-.25,1.21-.18.78-.29,1.14c-.07.06-.16.1-.25.11-.06.01-.13,0-.17-.05-.05-.06-.1-.12-.13-.19,0-.09-.05-.18-.13-.28Z"/>
        <path class="cls-12" d="m279.21,134.21c-.04-.34,0-.69.1-1.02.1-.32.26-.62.47-.88.21-.25.47-.46.77-.6.31-.15.65-.22.99-.22h.24l.32.08c.12.04.23.08.34.13.11.05.21.12.29.21.08.07.14.16.19.25.03.11.03.22,0,.33-.18.13-.39.21-.6.25-.23.05-.47.08-.71.1l-.7.05c-.2.01-.4.05-.59.12-.38.11-.61.51-.49.9,0,.01,0,.03.01.04.04.21.16.39.32.53.15.11.32.18.51.2.21.04.42.04.63,0,.22-.05.44-.11.65-.18.21-.08.41-.15.59-.24l.46-.2c.05,0,.11.02.14.07.04.04.06.09.06.14-.13.2-.29.37-.49.5-.23.15-.48.27-.74.35-.28.1-.57.15-.86.17-.28.02-.56,0-.84-.07-.25-.06-.49-.17-.69-.34-.2-.18-.33-.43-.38-.7Zm2.28-1.54h-.29c-.11.02-.22.05-.32.09-.1.04-.18.1-.26.17-.08.07-.12.16-.11.26l1.59-.26c-.06-.1-.15-.18-.26-.22-.11-.04-.22-.05-.34-.05Z"/>
        <path class="cls-12" d="m283.67,134.21c-.04-.34,0-.69.1-1.02.1-.32.26-.62.47-.88.21-.25.47-.46.77-.6.31-.15.65-.22.99-.22h.24l.32.08c.12.04.23.08.34.13.11.05.21.12.29.21.08.07.14.16.19.25.03.11.03.22,0,.33-.18.13-.39.21-.6.25-.23.05-.47.08-.71.1l-.7.05c-.2.01-.4.05-.59.12-.38.11-.61.51-.49.9,0,.01,0,.03.01.04.04.21.16.39.32.53.15.11.32.18.51.2.21.04.42.04.63,0,.22-.05.44-.11.65-.18.21-.08.41-.15.59-.24l.49-.19c.05,0,.11.02.14.07.04.04.06.09.06.14-.13.2-.29.37-.49.5-.23.15-.48.27-.74.35-.28.1-.57.15-.86.17-.28.02-.56,0-.84-.07-.25-.06-.49-.18-.69-.34-.21-.18-.36-.43-.41-.71Zm2.28-1.54h-.29c-.11.02-.22.05-.32.09-.1.04-.18.1-.26.17-.08.07-.12.16-.11.26l1.59-.26c-.06-.1-.15-.18-.26-.22-.11-.04-.22-.05-.34-.05h0Z"/>
        <path class="cls-12" d="m287.81,132.34v-.65s.54-.44.49-.66l.69-.65v-.66s-.73-.15-.68-.2c.04-.01.08-.01.12-.37h.13c.06.6.1.83.11,1.07,0,.25.05.52.07.79s0,.57.05.87.05.62.09.94c.12-.06.23-.13.34-.21l.48-.34.56-.41.56-.39.46-.28c.09-.06.19-.1.29-.11.04-.01.08-.01.11,0,.04.03.07.07.08.11-.18.23-.38.43-.6.61-.23.18-.45.36-.7.52l-.72.5c-.23.15-.45.32-.65.51l1.02.3.94.29.9.23c.29.06.59.09.57.11v.17c.33.04.33.08.32.12,0,0-.06.06-.1.08-.06.01-.19-.79-.19-.79h-.07l-.72.61-.94-.19-.94-.21-.9-.22v.58c-.04.13-.04.25-.05.38,0,.11-.04.22-.08.32-.04.09-.12.15-.21.19-.12.04-.24.04-.36,0l-.48-2.99Z"/>
        <path class="cls-12" d="m297.32,135.16c0-.11.04-.22.12-.3.07-.09.97-.15.97-.15v.32h-.24c.17-.16.33-.16.5-.17.17-.02.33-.05.49-.1.15-.04.3-.11.43-.2.12-.09.23-.2.3-.33.08-.15.12-.31.11-.48,0-.16-.04-.32-.14-.44-.1-.11-.22-.2-.36-.25-.15-.06-.3-.09-.46-.1-.15,0-.31,0-.46,0-.15,0-.29.02-.43.06l-.41.15-.41.14c-.14.04-.27.06-.41.55h-.25c-.04-.5-.08-.52-.1-.55-.03-.03-.05-.08-.05-.12,0-.02-.47-.05-.47-.05h0v-.27c.47-.12.47-.27.52-.42l.06-.5c0-.18,0-.35.06-.5s0-.3.05-.43,0-.22,0-.28c-.08-.05-.1-.15-.05-.23.05-.08.15-.1.23-.18h.16c.07.12.15.14.21.19.03.04.05.1.05.15.01.07.01.14,0,.21,0,.07,0,.14,0,.22.38,0,.76-.04,1.13-.12.37-.08.74-.16,1.11-.26l1.11-.25c.36-.08,1.11,1.05,1.11,1.05h.16s.08-1.12.1-1.04c-.02.06-.06.12-.11.16-.08.06-.18.1-.27.13l-.51.13-.83.18-1.23.25-1.86.39v1.03l.73-.08c.23,0,.44-.07.68-.08.23-.01.45-.01.68,0,.21,0,.41.05.6.12.17.07.33.18.44.32.13.18.2.39.22.6,0,.21-.04.41-.13.6-.08.17-.2.33-.34.46-.15.14-.32.26-.51.35-.19.09-.39.17-.59.23-.21.06-.42.1-.63-.22h-.61c-.11.36-.22.34-.32.31-.1-.03-.13-.1-.13-.18Z"/>
        <path class="cls-12" d="m319.15,133.34c-.09-.12-.16-.25-.22-.38-.09-.16-.18-.35-.28-.56l-.31-.66c-.11-.22-.23-.43-.34-.62-.09-.18-.2-.34-.32-.5-.07-.11-.16-.19-.27-.25-.08.13-.15.27-.22.41l-.25.59-.26.68-.25.7c-.08.23-.16.44-.23.64l-.17.47h-.48l-1.95-4.49s-.02-.09,0-.14c.03-.04.07-.07.11-.08h.15c.06.42.13.44.18.48.05.03.08.08.09.13.03.06.05.12.07.18.02.06.04.12.07.18.07.14.14.32.23.52l.29.63c.09.22.2.44.3.66l.28.59c.07.15.15.31.24.45.04.08.08.15.13.22.23-.56.41-1.03.58-1.41s.29-.71.41-.94.21-.45.27-.58c.05-.1.11-.21.17-.3.02-.04.05-.09.08-.8h.05c.09.69.18.74.24.81.11.1.21.21.29.34.1.15.21.31.32.5l.33.57.31.59.28.56c.08.17.17.31.24.43.04.1.1.18.17.26.07-.22.13-.45.2-.72s.12-.54.18-.82.12-.57.17-.87.1-.57.15-.86.08-.55.12-.8.08-.49.11-.7c.1-.02.21-.02.31,0,.06.01.12.05.16.1.03.05-.06.17-.06.17,0,0,0-.26,0-.19v.21c0,.15,0,.36-.08.64s-.09.59-.15.91-.13.75-.2,1.14-.16.8-.25,1.21-.18.78-.29,1.14c-.07.06-.16.1-.25.11-.06.01-.13,0-.17-.05-.05-.06-.1-.12-.13-.19-.05-.11-.09-.2-.13-.3Z"/>
        <path class="cls-12" d="m321.25,133.04c-.04-.34,0-.69.1-1.02.1-.32.26-.62.47-.88.21-.25.47-.46.77-.6.31-.15.65-.22.99-.22h.24l.32.08c.12.04.23.08.34.13.11.05.21.12.29.21.08.07.14.16.19.25.03.11.03.22,0,.33-.18.13-.39.21-.6.25-.23.05-.47.08-.71.1l-.7.05c-.2.01-.4.05-.59.12-.38.11-.61.51-.49.9,0,.01,0,.03.01.04.04.21.16.39.32.53.15.11.32.18.51.2.21.04.42.04.63,0,.22-.05.44-.11.65-.18.21-.08.41-.15.59-.24l.46-.2c.05,0,.11.02.14.07.04.04.06.09.06.14-.13.2-.29.37-.49.5-.23.15-.48.27-.74.35-.28.1-.57.15-.86.17-.28.02-.56,0-.84-.07-.25-.06-.49-.18-.69-.34-.2-.18-.33-.43-.38-.7Zm2.28-1.54h-.29c-.11.02-.22.05-.32.09-.1.04-.18.1-.26.17-.08.07-.12.16-.11.26l1.59-.26c-.06-.1-.15-.18-.26-.22-.11-.04-.22-.05-.34-.05h0Z"/>
        <path class="cls-12" d="m325.71,133.04c-.04-.34,0-.69.1-1.02.1-.32.26-.62.47-.88.21-.25.47-.46.77-.6.29-.14.62-.22.94-.22h.24l.33.08.33.13c.11.05.21.12.29.21.08.07.14.16.19.25.04.11.04.22,0,.33-.18.13-.39.21-.6.25-.23.05-.47.08-.71.1l-.7.05c-.2.01-.4.05-.59.12-.38.11-.61.51-.49.9,0,.01,0,.03.01.04.04.21.16.39.32.53.15.11.32.18.51.2.21.04.42.04.63,0,.22-.05.44-.11.65-.18.21-.08.41-.15.59-.24l.46-.2c.06,0,.11.02.14.07.04.04.06.09.06.14-.13.2-.29.37-.49.5-.23.15-.48.27-.74.35-.28.1-.57.15-.86.17-.28.02-.56,0-.84-.07-.25-.06-.49-.18-.69-.34-.18-.19-.3-.44-.33-.7Zm2.28-1.54h-.28c-.11.02-.22.05-.33.09-.1.04-.18.1-.26.17-.08.07-.12.16-.11.26l1.6-.26c-.07-.1-.16-.18-.27-.22-.1-.03-.21-.05-.31-.05h-.03Z"/>
        <path class="cls-12" d="m330.23,131.39v-.65s.16-.44.12-.66l1.06-.65v-.66c-1.13-.07-1.1-.15-1.05-.2.06-.04.21.57.21.57h.13s.1-.16.12.08l.06.79c0,.28,0,.57.06.87.01.32.04.63.08.94.12-.06.23-.13.34-.21l.48-.34.56-.41.56-.39.46-.28c.09-.06.19-.1.29-.11.04-.01.08-.01.11,0,.04.03.07.07.08.11-.18.23-.38.43-.6.61-.23.18-.45.36-.7.52l-.72.5c-.23.15-.45.32-.65.51l1.02.3.94.29.9.23c.29.06.59.09.89.11,0,.06,0,.11,0,.17,0,.04,0,.08,0,.12,0,0-.06.06-.1.08-.06.01-.13.01-.19.2h-.07c-.19-.26-.42-.31-.72-.38l-.94-.19-.94-.21-.61-.22v.58c-.33.13-.33.25-.34.38,0,.11-.04.22-.08.32-.04.09-.12.15-.21.19-.12.04-.55,0-.55,0v-2.94Z"/>
        <path class="cls-12" d="m338.54,132.08c0-.22.03-.45.1-.66.07-.24.17-.46.29-.68.12-.23.27-.44.44-.63.16-.2.35-.37.56-.53.19-.15.4-.27.62-.36.21-.09.44-.13.67-.13.06-.02.13-.02.19,0,.06,0,.08.1.07.24-.32.06-.62.18-.9.36-.28.17-.52.39-.73.64-.21.26-.37.55-.48.86-.11.3-.17.62-.17.94,0,.12.02.24.06.35.04.15.09.3.16.44.06.14.14.27.24.39.06.09.17.15.28.16.11-.06.22-.12.33-.19l.37-.36.45-.4c.16-.13.33-.25.51-.36.18-.11.37-.2.57-.26.2-.07.41-.1.62-.1.09,0,.17.02.25.07.08.04.14.11.19.18.05.08.09.16.11.25.01.09.01.18,0,.26-.04.32-.15.62-.32.89-.15.25-.35.46-.59.62-.24.17-.51.29-.79.36-.28.08-.58.1-.87.08-.29-.01-.58-.07-.85-.18-.27-.11-.51-.26-.73-.46-.22-.21-.39-.46-.5-.74-.13-.33-.19-.69-.16-1.05Zm3.47.21c-.12,0-.25.04-.36.09-.14.06-.28.14-.41.24-.13.09-.27.2-.41.31l-.38.35-.32.32-.22.24c.23.03.47.03.7,0,.26-.03.52-.1.75-.22.23-.1.44-.24.61-.41.17-.16.28-.39.29-.62,0-.14-.11-.25-.24-.25,0,0-.02,0-.03,0v-.05Z"/>
        <path class="cls-12" d="m361.01,132.97c-.09-.12-.16-.26-.23-.4-.09-.17-.19-.37-.29-.58l-.32-.68c-.12-.23-.24-.44-.35-.64-.09-.18-.21-.36-.33-.52-.07-.11-.17-.2-.28-.26-.08.14-.16.28-.23.42l-.26.61-.27.71-.26.71c-.08.24-.17.45-.24.66l-.18.86h-.5l-2.02-5.03s-.02-.1,0-.14c.02-.05.1-.72.1-.72h.28c.06.6.13.62.18.66.04.03.08.08.09.13.03.06.05.12.07.18.02.06.04.12.07.18.07.14.14.32.23.52l.28.63.31.66c.09.22.2.41.28.59.07.16.15.31.24.45.04.08.08.15.13.22l.57-1.41c.17-.39.3-.71.41-.94s.21-.45.27-.58c.05-.1.11-.21.17-.3.02-.04.05-.09.08.2h.05c.09-.31.17-.26.24-.19.11.1.21.22.29.34.1.15.21.31.32.5s.22.38.32.57.22.4.32.59l.28.56c.08.17.17.31.24.43.04.1.1.18.17.26.07-.22.13-.45.2-.72s.12-.54.18-.82.11-.57.17-.87.1-.57.15-.86.08-.55.12-.8.08-.49.11-.7c.1-.02.21-.02.31,0,.06.01.12.05.15.1.04.05.57.17.57.17v.42c-.51.16-.51.38-.59.66s-.09.61-.15.94-.13.77-.21,1.18-.17.83-.26,1.25-.19.81-.3,1.18c-.08.06-.17.1-.26.11-.07.01-.13,0-.18-.06-.06-.05-.1-.12-.13-.2-.08-.06-.12-.15-.12-.25Z"/>
        <path class="cls-12" d="m363.01,133.04c-.04-.34,0-.69.1-1.02.1-.32.26-.62.47-.88.21-.25.47-.46.77-.6.31-.15.65-.22.99-.22h.24l.32.08.34.13c.11.05.21.12.29.21.08.07.14.16.19.25.03.11.03.22,0,.33-.18.13-.39.21-.6.25-.23.05-.47.08-.71.1l-.7.05c-.2.01-.4.05-.59.12-.38.11-.61.51-.49.9,0,.01,0,.03.01.04.04.21.16.39.32.53.15.11.32.18.51.2.21.04.42.04.63,0,.22-.05.44-.11.65-.18.21-.08.41-.15.59-.24l.45-.2c.11,0,.2.1.21.21-.13.2-.29.37-.49.5-.23.15-.48.27-.74.35-.28.1-.57.15-.86.17-.28.02-.56,0-.84-.07-.25-.06-.49-.18-.7-.34-.2-.19-.32-.43-.37-.7Zm2.27-2.71h-.28c-.11.02-.22.05-.32.09-.1.04-.18.1-.26.17-.08.07-.12.16-.11.26l1.59-.26c-.06-.1-.15-.18-.26-.22-.11-.04-.23-.05-.35-.05Z"/>
        <path class="cls-12" d="m367.47,131.9c-.03-.36.01-.72.13-1.06.1-.32.26-.62.47-.88.21-.25.47-.46.77-.6.29-.14.62-.22.94-.22h.24l.32.08.34.13c.11.05.21.12.29.21.08.07.14.16.19.25.03.11.03.22,0,.33-.18.13-.39.21-.6.25-.23.05-.47.08-.71.1l-.7.05c-.2.01-.4.05-.59.12-.38.11-.61.51-.49.9,0,.01,0,.03.01.04.04.21.16.39.32.53.15.11.32.18.51.2.21.04.42.04.63,0,.22-.05.44-.11.65-.18.21-.08.41-.15.59-.24l.46-.2c.05,0,.11.03.14.07.04.04.06.09.06.14-.13.2-.29.37-.49.5-.23.15-.48.27-.74.35-.28.1-.57.15-.86.17-.28.02-.56,0-.84-.07-.25-.06-.49-.18-.69-.34-.19-.18-.31-.41-.36-.66Zm2.27-1.57h-.28c-.11.02-.22.05-.32.09-.1.04-.18.1-.26.17-.08.07-.12.16-.11.26l1.59-.26c-.06-.1-.15-.18-.26-.22-.11-.04-.23-.05-.35-.05Z"/>
        <path class="cls-12" d="m372.65,130.45v-.65s-.5-.44-.55-.66l.55-.65v-.66s-.59-.15-.54-.2c.07-.03.14-.03.21.33h.14c.06-.11.1.13.11.36,0,.25,0,.52.07.79s0,.57,0,.87.05.62.09.94c.12-.06.23-.13.33-.21l.49-.34.56-.41.56-.39.46-.28c.09-.06.19-.1.29-.11.04-.01.08-.01.11,0,.04.03.07.07.08.11-.18.23-.38.43-.6.61-.23.18-.45.36-.7.52l-.72.5c-.23.15-.45.32-.65.51l1.02.3.94.29c.3.08.59.16.9.23.29.06.59.09.38.11v.17c.52.04.52.08.51.12,0,0-.06.06-.1.08-.06.01-.19-.08-.19-.08h-.07s-.43-.03-.72-.1l-.94-.19-.94-.21-2.26-.22v.58c1.33.13,1.33.25,1.32.38,0,.11-.04.22-.08.32-.04.09-.12.15-.21.19-.12.04.15,0,.15,0v-2.99Z"/>
        <path class="cls-12" d="m383.22,129.14h-3.45s-.08-.05-.11-.08c-.04-.07-.04-.16,0-.23.03-.04.07-.07.11-.08.37.02.75.02,1.12,0l1.11-.15,1.09-.15c.37-.05.73-.08,1.1-.08.07,0,.15.02.2.08.05.05.07.13.06.2-.26.28-.49.58-.72.89-.23.32-.44.67-.61,1.03-.17.35-.3.72-.39,1.1-.08.38-.08.76,0,1.14l-.67.13v-.09s0-.09,0-.14c0-.05,0-.09,0-.14v-.09c0-.22,0-.43.06-.64.04-.22.11-.43.19-.63.08-.2.17-.4.26-.59l.28-.56.25-.51c.04-.13.08-.26.11-.39Z"/>
        <path class="cls-12" d="m402.81,132.16c-.05-.08-.13-.21-.22-.38-.08-.16-.18-.35-.27-.56l-.32-.65c-.11-.22-.22-.43-.33-.62-.09-.17-.2-.34-.32-.5-.07-.11-.16-.19-.27-.25-.08.13-.15.27-.22.41-.08.17-.16.37-.25.59s-.18.44-.26.68-.18.47-.26.7l-.23.63c-.06.19-.13.34-.17.47h-.48l-1.9-4.5s-.03-.09,0-.14c.03-.04.07-.07.11-.08h.27c.06,0,.13.02.18.05.04.03.07.08.09.13.02.06.04.11.05.17.02.06.04.12.06.17l.23.5c.08.2.17.4.27.61s.19.43.29.63.19.4.28.57c.06.15.14.29.22.43.03.08.08.15.14.21l.55-1.36c.15-.37.29-.68.4-.9s.2-.43.26-.56c.04-.1.1-.2.15-.29l.09-.12h0c.09.01.17.06.24.13.1.1.2.21.28.33.09.14.2.3.3.48s.21.36.32.55.21.38.31.57.18.37.27.53l.22.42c.05.09.1.17.16.25.08-.23.14-.45.19-.69.06-.25.13-.52.18-.79s.11-.55.15-.83.1-.55.14-.82.09-.52.13-.77.07-.47.1-.67c.1-.02.2-.02.3,0,.06.01.12.05.15.1.03.05.05.11.05.16,0,.07,0,.13,0,.2v.21c0,.15-.05.36-.09.63s-.08.59-.14.9-.13.74-.2,1.13-.15.8-.24,1.2-.19.78-.29,1.13c-.08.06-.17.1-.26.11-.06.01-.13,0-.17-.05-.05-.06-.1-.12-.13-.19l-.12-.27Z"/>
        <path class="cls-12" d="m404.6,131.86c-.04-.34,0-.69.09-1.02.1-.32.26-.62.48-.88.21-.25.47-.46.76-.6.31-.15.65-.22.99-.22h.25l.32.08.33.13c.11.05.21.12.29.21.08.07.15.16.19.25.03.11.03.22,0,.33-.18.13-.39.21-.61.25-.23.05-.46.08-.7.1l-.71.05c-.2.01-.4.05-.59.12-.16.06-.29.16-.39.3-.1.19-.13.4-.09.6.05.21.16.39.32.53.15.11.33.18.52.2.21.04.42.04.62,0,.22-.04.44-.1.65-.18.2-.07.4-.15.59-.24l.46-.2c.06,0,.11.02.14.07.04.04.06.09.06.14-.12.2-.29.37-.49.5-.23.15-.48.27-.74.35-.28.1-.57.15-.87.17-.28.02-.56,0-.84-.07-.25-.06-.49-.18-.69-.34-.19-.18-.31-.41-.36-.66Zm2.27-2.71h-.28c-.11.02-.22.05-.32.09-.1.04-.19.1-.27.17-.08.07-.12.16-.11.26l1.6-.26c-.06-.1-.15-.18-.26-.22-.11-.04-.23-.05-.35-.05Z"/>
        <path class="cls-12" d="m409.07,131.86c-.04-.34,0-.69.09-1.02.1-.32.26-.62.48-.88.21-.26.47-.46.77-.6.29-.14.62-.22.94-.22h.25l.32.08.34.13c.1.06.2.12.28.21.08.07.15.16.19.25.03.11.03.22,0,.33-.18.13-.39.21-.61.25-.23.05-.46.08-.7.1l-.7.05c-.21.01-.41.05-.6.12-.16.06-.29.16-.39.3-.1.19-.13.4-.09.6.05.21.16.39.32.53.15.11.33.18.52.2.21.04.42.04.62,0,.22-.04.44-.1.65-.18.2-.07.4-.15.59-.24l.49-.15c.06,0,.11.02.14.07.04.04.06.09.06.14-.12.2-.29.38-.49.5-.23.15-.48.27-.74.35-.28.1-.57.15-.87.17-.28.02-.56,0-.84-.07-.25-.06-.49-.18-.69-.34-.19-.19-.32-.44-.35-.71Zm2.27-2.71h-.28c-.11.02-.22.05-.32.09-.1.04-.19.1-.27.17-.08.07-.12.16-.11.26l1.6-.26c-.06-.1-.15-.18-.26-.22-.12-.04-.24-.06-.37-.05h.02Z"/>
        <path class="cls-12" d="m413.88,129.51v-.68l-.06-.61c0-.2,0-.4-.05-.6s0-.41,0-.61c0-.07.02-.13.08-.18.06-.04.13-.06.2-.05h.14c.06.21.1.43.13.65,0,.23.05.48.06.73s0,.52.06.8.05.57.09.86c.12-.05.24-.12.35-.19l.5-.31.57-.37.56-.35.48-.26c.09-.05.2-.09.31-.1.04-.01.08-.01.12,0,.04.03.06.07.09.1-.18.21-.39.39-.62.56-.23.16-.48.33-.72.48l-.75.46c-.23.14-.46.3-.67.47l1.05.28.97.27.92.21c.3.05.61.09.91.1v.16s-.02.08-.05.11c-.02.03-.06.06-.1.08-.06.01-.13.01-.19,0h-.35l-.72.09-.94-.19-.94-.21-1.43-.22v.96c.47.11.44.22.39.32-.04.08-.11.15-.2.19-.12.04.99,0,.99,0l-1.18-2.94Z"/>
        <path class="cls-12" d="m421.88,131.57c0-.14.04-.29.12-.41.08-.13.18-.25.28-.37l.28-.34c.07-.08.11-.18.12-.29,0-.06-.02-.12-.05-.18l-.1-.15s-.07-.09-.09-.15c-.03-.06-.05-.12-.05-.19,0-.18.04-.36.13-.52.09-.15.2-.29.34-.41.15-.12.31-.22.49-.29.18-.08.36-.15.56-.2.18-.06.37-.09.56-.11.16-.01.32-.01.48,0h.48c.16,0,.32.04.48.08.14.04.27.12.37.23.11.12.16.28.15.44,0,.17-.05.34-.13.48-.08.13-.18.26-.28.38l.38.18c.1.05.19.12.25.21.06.09.11.18.14.28.02.13.02.27,0,.41,0,.23-.04.45-.13.66-.08.2-.2.39-.35.55-.16.16-.33.3-.52.41-.2.12-.41.21-.62.29-.22.08-.44.13-.67.17-.22.04-.44.06-.66.06-.14,0-.28,0-.41,0-.15-.02-.3-.04-.44-.08-.14-.04-.29-.08-.42-.14-.14-.05-.26-.13-.37-.23-.1-.09-.19-.19-.25-.31-.06-.15-.08-.31-.06-.47Zm.25.24c-.01.17.05.35.16.48.1.12.24.22.39.27.16.07.33.11.51.12h.52c.27,0,.55-.04.81-.11.26-.07.5-.18.72-.33.2-.15.37-.34.49-.56.13-.24.19-.5.19-.77-.06-.21-.21-.39-.41-.48-.22-.11-.47-.17-.72-.17-.29,0-.58.02-.86.09-.29.07-.57.18-.84.32-.25.12-.47.28-.66.48-.17.17-.28.39-.3.62v.03Zm1.18-2.64c0,.14.05.28.16.37.11.09.25.13.4.12.12.02.25.02.37,0l.48-.11c.18-.05.35-.1.53-.17s.33-.14.48-.22c.13-.07.25-.14.37-.24.09-.06.16-.14.2-.24,0-.09-.02-.18-.07-.25-.05-.07-.12-.11-.21-.1-.13-.06-.27-.1-.41-.12-.18-.01-.36-.01-.54,0-.2,0-.39.03-.58.07-.19.04-.37.1-.54.18-.16.08-.3.19-.41.32-.1.1-.18.23-.22.37v.03Z"/>
        <path class="cls-7" d="m103.09,116.85s40.64-1.49,87.25,0c46.61,1.49,117.48.54,155.31-.66,37.83-1.2,83.59-1.57,83.59-1.57"/>
        <path class="cls-7" d="m103.42,143.87l325.19-2.98"/>
        <path class="cls-7" d="m140.75,114.62s4.1,165.17,0,197.61"/>
        <path class="cls-7" d="m181.39,114.62s-1.49,181.82,0,194.56"/>
        <path class="cls-7" d="m223.89,114.62s1.49,35.81,1.88,67.48-1.88,125.58,0,136.06"/>
        <path class="cls-7" d="m268.64,116.12s-2.27,108.87-1.33,146.15c.94,37.28,1.33,57.42,1.33,57.42"/>
        <path class="cls-7" d="m307.78,114.62s3.77,129.42,3.36,157.18c-.41,27.76,0,43.25,0,43.25"/>
        <path class="cls-7" d="m350.29,112.69s-.24,76.34,2.17,97.56-1.08,109.43-1.08,109.43"/>
        <path class="cls-7" d="m392.11,112.69s1.6,39.04,1.88,60.86c.28,21.82-.74,133.13,1.88,141.5"/>
        <path class="cls-8" d="m103.09,167.21s61.34-1.12,100.2,0c0,0-.09,10.43,0,14.54,0,0-90.48-.74-100.2,0,0-.02.74-11.95,0-14.54Z"/>
        <path class="cls-8" d="m309.02,166.68v15.1s76.63-.75,84.83-2.25l-.15-14.56s-57.49-.6-84.68,1.71Z"/>
        <path class="cls-1" d="m180.72,185.7h87.14l-.55,13.89-56.47,1.3c-19.79.46-29.45,1.11-29.45,1.11l-.67-16.3Z"/>
        <path class="cls-1" d="m395.39,181.73l.36,10.43s27.12-1.88,31.1-1.49v-10.44s-24-.37-31.46,1.5Z"/>
        <path class="cls-8" d="m268.02,219.04s74.46-1.73,84.6-5.16v20.73s-72.75.29-85.37,2.59c0,.02-.74-14.05.77-18.16Z"/>
        <path class="cls-5" d="m272.99,218.9s-7.12,10.98-5.65,12.38c1.46,1.4,8.68-11.9,10.89-12.25s-7.69,18.3-6.75,18.95c.94.65,13.44-19.72,16.41-19.68,2.97.04-6.6,17.73-4.71,17.65s10.67-17.34,13.87-17.65c3.2-.31-7.43,17.39-4.97,17.31s12.33-18.93,14.36-17.91-10.13,16.4-6.91,17.66c3.22,1.26,11.46-16.48,15.41-17.37,3.95-.89-9.13,16.16-5.32,16.61s9.54-17.78,12.52-16.32-5.47,11.57-4.22,12.25,5.22-12.19,9.2-12.25-4.71,11.57-3.77,12.98,4.99-3.44,4.99-3.44"/>
        <path class="cls-5" d="m106.81,167.12s-3.17,7.54-2.41,7.9,3.77-7.46,6.71-7.09-5.33,13.66-3.41,13.63,8.48-15.24,10.49-14.44c2.01.8-4.84,12.65-3.54,13.49,1.3.84,7.83-14.34,9.89-13.52s-5.78,12.96-3.77,12.96,8.77-13.19,10.81-13.19-6.33,11.51-4.29,13.04,7.09-14.52,10.08-13.04-4.48,12.25-2.24,13.41,8.01-14.34,9.88-13.51c1.87.83-5.56,14.67-4.28,14.67s9.5-15.93,11.37-14.7c1.87,1.23-6.9,14.71-5.22,14.72,1.68,0,10.44-16.34,12.68-15.54,2.23.8-5.78,12.68-3.77,13.43,2.01.75,6.9-8.4,7.83-8.4s-3.27,8.4-2.1,8.4,5.65-14.01,7.88-12.6-2.61,9.24-1.49,9.61,8.2-10.07,10.24-8.58-8.01,13.76-4.84,13.78,8.65-13.63,11.27-13.41c2.62.22-5.22,12.11-3.17,12.3s6.15-13.42,8.39-12.68-3.13,10.23-1.68,10.74c1.45.52,4.66-9.5,7.27-9.32,2.61.18-4.84,9.7-1.68,10.08,3.17.38,4.27-10.59,7.46-10.18,3.19.41-4.01,10.05-2.24,11.31,1.76,1.26,4.39-4.84,4.39-4.84"/>
        <path class="cls-10" d="m104.24,190.42l4.34-1.88c-.04,1.43-.34,2.84-.87,4.17,1.28-.29,2.26-1.34,2.47-2.64l-.48,1.53h4.06c-.13-.46.06-.95.46-1.2-.43.39-.17,1.18.35,1.44.55.21,1.16.21,1.72,0,1.43-.36,2.81-.9,4.1-1.62-.22.97.3,1.96,1.23,2.33.88.34,1.83.46,2.77.36l12.19-.4"/>
        <path class="cls-10" d="m103.18,198.04s1.68-2.16,3.18-1.88.56,2.68,1.11,3.04,1.5-4.97,2.42-3.04c.59,1.18,1.41,2.23,2.43,3.06,0,0,2.05-2.16,2.6-1.73s1.69,0,1.69,0h16.85"/>
        <path class="cls-10" d="m157.89,188.27s-14.01,45.73,103.29,40.77"/>
        <polyline class="cls-10" points="261.18 225.76 264.16 229.42 261.18 231.29"/>
        <path class="cls-9" d="m191.08,230.53c-9.69-4.48-27.27-1.44-40.31,6.76-13.04,8.2-15.73,35.04,32.04,27.21,47.77-7.83,17.56-29.87.83-29.87"/>
        <path class="cls-5" d="m153.19,245.08s2.92-2.65,4.18-2.83c1.26-.18-2.38,2.44,0,2.83,2.38.39,1.88-.94,4.2-1.41,2.32-.47,3.03,2.11,3.03,2.11,0,0,3.72-1.28,5.97-1.88,2.24-.6.74,2.97,3.77,1.88,3.03-1.08,1.66-2.77,6.42-1.88,4.76.89,14,.32,18.14,0"/>
        <path class="cls-5" d="m157.37,252.97c.9-2.28-.23-2.71,2.38-1.56,2.61,1.15,4.1,2.72,5.22,1.56.95-1.06,2.45-1.41,3.77-.89,1.11.47-1.5,1.22,1.11.47,1.52-.41,2.92-1.16,4.11-2.19,0,0-.66,1.59,2.09,3.01s4.71-1.5,4.71-1.5c4.2-.16,8.41-.1,12.6.19"/>
      </g>
      <g id="freepik--Marker--inject-22">
        <path class="cls-17" d="m311.17,70.3l3.97-4.79h9.22c2.49-.58,4.84-1.66,6.95-3.17,0,0-3.51-3.76-7.74-3.9h-7.95l-21.24-4.05-118.34,11.12c-1.67,5.13-.87,10.79,2.14,15.19l133-10.41Z"/>
        <path class="cls-17" d="m364.4,79.66l3.17-2.36h10.31c.66-3.16.74-6.58.23-9.94l-28.16-9.78c-7.24,4.51-4.3,22.73-4.3,22.08h18.76Z"/>
        <path class="cls-4" d="m322.6,48.68s4.97-.62,7.79,1.66c0,0-.37,2.92-7.82,3.67l.03-5.33Z"/>
        <path class="cls-20" d="m313.88,47.77l-6.47-4.4-131.51,10.58c-5.78,9.35,1.43,18.6,1.43,18.6l132.37-10.99,4.65-4.54,9.18-1.58c.57-1.15.85-2.41.83-3.69.07-1.41-.37-2.79-1.23-3.9l-9.24-.08Z"/>
        <path class="cls-2" d="m219.47,51.28l58.66-4.82h0c.41.96-.02,2.07-.98,2.48-.19.08-.4.14-.61.15l-54.99,4.71c-1.04.1-1.96-.65-2.06-1.69,0-.07,0-.13,0-.2v-.64Z"/>
        <path class="cls-6" d="m307.28,45.01s4.23,4.71,1.24,14.14"/>
        <path class="cls-6" d="m314.38,48.61c.74,1.9.94,3.98.56,5.98"/>
        <path class="cls-6" d="m176.89,55.33s4.48,3.91,1.49,15.08"/>
        <path class="cls-19" d="m179.41,54.59s1.41.18,1.98,7.27l125.9-11.68c-.29-2.26-1.18-4.4-2.58-6.19l-125.29,10.6Z"/>
        <path class="cls-19" d="m315.61,47.84c.64,1.03.99,2.21,1,3.42l6.96-.67c-.12-.96-.42-1.89-.87-2.75h-7.09Z"/>
        <path class="cls-2" d="m375.44,72.87l-14.34-3.63-2.52,1.35-9.72-3.46s-1.56-9.72,6.32-18.96l9.81,3.9,1.81,2.54,13.08,6.49s1.39,8.63-4.46,11.77Z"/>
        <g class="cls-21">
          <path class="cls-15" d="m375.44,72.87l-14.34-3.63-2.52,1.35-9.72-3.46s-1.56-9.72,6.32-18.96c1.45.57,4.48,7.54-1.88,16.73l5.81,2.23c1.6-.76,2.99-1.9,4.04-3.33.61-.85,1.04-1.81,1.28-2.83h0c.2,1.65.03,3.32-.49,4.9l11.69,3.77s2.83.35,4.26-8.48c0-.07,1.39,8.57-4.46,11.71Z"/>
        </g>
        <path class="cls-7" d="m375.44,72.87l-14.34-3.63-2.52,1.35-9.72-3.46s-1.56-9.72,6.32-18.96l9.81,3.9,1.81,2.54,13.08,6.49s1.39,8.63-4.46,11.77Z"/>
        <path class="cls-7" d="m350.64,65.89s7.32-7.78,5-16.49"/>
        <path class="cls-7" d="m360.5,67.78s5.73-6.6,4.93-13.59"/>
      </g>
      <g id="freepik--Hand--inject-22">
        <path class="cls-15" d="m423.86,272.7l-3.08,62.69c-16.47-.25-40-.57-64.96-.72h0c-5.9-5.16-11.74-32.39-13.99-40.85-2.24-8.45,2.37-34.26,2.37-34.26,0,0-3.61-3.49-4.35-5.88s1.98-5.97,1.98-5.97l-1.48-8.2-2.99-2.26-2.73-3.36c-6.2-2.57-7.46-6.03-7.46-6.03l26.23-5.99,70.46,50.83Z"/>
        <path class="cls-16" d="m386.63,424.35s-10.1-84.46-15.32-98.74c-5.21-14.29-12.08-61.52-12.08-61.52,0,0,15.87-1.27,20.68-1.32s11.02-4.65,11.02-4.65c-.53.94-1.72.36-2.61-5.41-.59-3.85-6.47-5.03-6.47-5.03,0,0-14.09,1.06-25.97-.54-2.88.91-5.97.91-8.85,0-4.33-1.57-5.2-3.26-2.83-5.55,0,0-3.36-4.4,8.13-10.65,0,0-7.64-6.87-3.91-11.31,3.73-4.44,12.58-8.87,12.58-8.87,0,0,.37-3.35,1.99-4.22s10.44-4.48,15.29-7.83,6.96-3.1,15.91-3.36,19.89-2.48,23.99-.62c3.19,1.45,4.67,7.14,4.67,7.14,2.98.94,3.28,5.81,3.47,7,.88,5.34,7.03,27.49,9.76,31.35,2.73,3.85,4.34,10.57,3.85,14.04s-1.74,7.54-2.99,14.67c-1.24,7.13-5.47,31.7-7.54,38.77s-3.23,19.39-2.12,25.35l31.42,74.77"/>
        <g class="cls-26">
          <g>
            <path class="cls-3" d="m420.12,225.04s-5.95,3.59-5.95,5.87c0,0-11.31,8.6-12.61,18.74,0,0-6.27,6.35-7.64,9.24-1.38,2.88-7.35,6.27-7.35,6.27-1.69-.16-3.38-.22-5.08-.19-2.87-.43-5.7-1.06-8.48-1.88,2.83-.18,5.43-.32,6.93-.33,3.99,0,8.93-3.2,10.51-4.29-.6,0-1.44-1.45-2.1-5.77-.59-3.85-6.47-5.03-6.47-5.03,0,0-14.09,1.06-25.97-.54-1.95.6-3.99.81-6.02.62.09-1.51-.42-2.99-1.43-4.12,0,0,5.46-3.63,4.03-6.43-.68-1.34-3.12-2.17-5.5-2.67,1.66-1.4,3.46-2.61,5.38-3.61,0,0-7.64-6.87-3.91-11.31,3.73-4.44,12.56-8.84,12.56-8.84,0,0,.37-3.35,1.99-4.22,0,0-.99,5.17,6.21,4.71,7.2-.46,17.45-4.71,17.45-4.71,0,0,19.42.54,23.35-2.45,0,0,4.71,4.02,8.16,4.71,3.45.69,1.94,16.23,1.94,16.23Z"/>
            <path class="cls-3" d="m439.9,254.27c-.5,3.48-1.74,7.54-2.99,14.67-1.24,7.13-5.47,31.7-7.54,38.77-2.07,7.08-3.23,19.39-2.12,25.35l2.64,6.3c-5.72-10.14-5.27-23.45-4.81-26.95.56-4.29,3.72-20.14,6.6-28.34s3.08-25.35,3.08-25.95-1.49,3.77-3.01,8.6-7.06,18.46-7.06,18.46c-.19-2.83,2.14-19.37,2.56-21.25s3.84-14.6,4.42-18.14c.58-3.54-2.22-7.54-2.93-10.41s-3.5-15.44-4.24-24.12c-.3-4.72-1.47-9.34-3.46-13.63.77,1.33,1.38,2.76,1.79,4.24,2.98.94,3.28,5.81,3.47,7,.88,5.34,7.03,27.49,9.76,31.35,2.73,3.85,4.32,10.57,3.83,14.04Z"/>
          </g>
        </g>
        <path class="cls-7" d="m386.63,424.35s-10.1-84.46-15.32-98.74c-5.21-14.29-12.08-61.52-12.08-61.52,0,0,15.87-1.27,20.68-1.32s11.02-4.65,11.02-4.65c-.53.94-1.72.36-2.61-5.41-.59-3.85-6.47-5.03-6.47-5.03,0,0-14.09,1.06-25.97-.54-2.88.91-5.97.91-8.85,0-4.33-1.57-5.2-3.26-2.83-5.55,0,0-3.36-4.4,8.13-10.65,0,0-7.64-6.87-3.91-11.31,3.73-4.44,12.58-8.87,12.58-8.87,0,0,.37-3.35,1.99-4.22s10.44-4.48,15.29-7.83,6.96-3.1,15.91-3.36,19.89-2.48,23.99-.62c3.19,1.45,4.67,7.14,4.67,7.14,2.98.94,3.28,5.81,3.47,7,.88,5.34,7.03,27.49,9.76,31.35,2.73,3.85,4.34,10.57,3.85,14.04s-1.74,7.54-2.99,14.67c-1.24,7.13-5.47,31.7-7.54,38.77s-3.23,19.39-2.12,25.35l31.42,74.77"/>
        <path class="cls-7" d="m344.2,241.6s2.48,3.36,11.06,1.99c8.58-1.37,18.85-9.94,18.85-9.94l6.15-2.61s7.83.87,10.69-.5"/>
        <path class="cls-7" d="m386.57,231.3s5.11,5.47,9.21,6.7"/>
        <path class="cls-7" d="m390.93,258.13c3.48-2.24,8.08-8.48,12.3-8.95"/>
        <path class="cls-7" d="m390.22,250.54c1.88-6.23,7.54-12.55,7.54-12.55.93-2.07,2.1-4.03,3.48-5.83,1.4-2.07,3.53-3.54,5.97-4.1,0,0-4.94-13.99-3.48-16.79"/>
        <path class="cls-7" d="m381.85,247.69s3.84-1.21,4.71-3.77"/>
        <path class="cls-7" d="m380.99,242.46s-.24,3.98-6.21,5.22"/>
        <path class="cls-7" d="m380.24,231.03s2.97-1.97,3.97-3.97"/>
        <path class="cls-7" d="m361.01,210.77s-1.07,2.99,3.38,4.23c4.45,1.24,16.38-.12,21.35-4.23,0,0,1.23-3.48.86-5.71"/>
        <path class="cls-7" d="m385.06,211.27s14.57-.5,15.69-.5,5.59-2.36,6.46-4.84"/>
        <path class="cls-7" d="m407.19,228.05s3.28,1.12,5.55.63"/>
        <path class="cls-7" d="m399.91,250.54s-.53-5.51,3.32-13.32"/>
        <path class="cls-7" d="m422.81,201.88c1.98,7.69,5.02,32.99,7.08,37.77,2.05,4.79,2.3,6.42.81,10.89-1.49,4.47-3.89,15.29-3.89,15.29"/>
        <path class="cls-20" d="m332.73,224.82s-4.13.77-5.52,3.01c0,0,1.22,1.88,6.2,1.39,4.99-.5-.68-4.39-.68-4.39Z"/>
        <path class="cls-2" d="m347.43,217.04l116.58-17.3,1.49,20.8-117.08,11.62-5.47-2.47-8.95.23c-1.72-1.55-2.09-4.11-.88-6.09l9.22-1.98,5.09-4.81Z"/>
        <g class="cls-24">
          <g>
            <path class="cls-20" d="m367.48,218.1l48.07-6.81c1.98-.28,3.82,1.1,4.1,3.08,0,.05.01.09.02.14l.09.94c.2,1.97-1.2,3.73-3.17,3.97l-48.15,5.85c-1.98.25-3.78-1.15-4.03-3.13,0-.04,0-.08-.01-.12h0c-.18-1.92,1.18-3.64,3.08-3.92Z"/>
            <path class="cls-15" d="m465.5,220.53l-117.08,11.62-5.47-2.47-8.95.23c-.48-.43-.86-.95-1.13-1.54l9.42-.32,4.15.38,16.3-1.37,4.77-8.94s4.18-.53,7.54,3.72c3.36,4.25,5.22,3.7,5.22,3.7l80.17-8.39.94-.94s-3.23-7.33,0-13.32c.81-1.5,1.74-2.1,2.69-2.09l1.43,19.73Z"/>
          </g>
        </g>
        <path class="cls-7" d="m347.43,217.04l116.58-17.3,1.49,20.8-117.08,11.62-5.47-2.47-8.95.23c-1.72-1.55-2.09-4.11-.88-6.09l9.22-1.98,5.09-4.81Z"/>
        <path class="cls-2" d="m464.01,199.73c8.08-.64,9.81,19.98,1.49,20.8-7.96.79-9.69-20.14-1.49-20.8Z"/>
        <g class="cls-27">
          <path class="cls-15" d="m465.5,220.53c-2.18.22-3.89-1.2-5.06-3.37l.94-.94s-3.23-7.33,0-13.32c.81-1.5,1.74-2.1,2.69-2.09,2.83,0,5.71,5.47,5.59,8.42l1.23.3c.44,5.17-1.2,10.59-5.38,11.01Z"/>
        </g>
        <path class="cls-7" d="m464.01,199.73c8.08-.64,9.81,19.98,1.49,20.8-7.96.79-9.69-20.14-1.49-20.8Z"/>
        <path class="cls-7" d="m347.43,217.04s-2.31,2.89-1.68,8.41c.21,2.45,1.14,4.78,2.67,6.71"/>
        <path class="cls-7" d="m342.34,221.87c-.85,2.59-.63,5.41.61,7.84"/>
        <path class="cls-7" d="m460.39,221.04c-7.96.83-9.51-19.24-1.37-20.56"/>
        <path class="cls-7" d="m464.17,201.03c6.4-.56,7.77,17.27,1.18,17.98-6.32.68-7.66-17.42-1.18-17.98Z"/>
        <path class="cls-7" d="m464.19,202.31s3.34,1.23,3.93,7.29c.59,6.06-2.83,7.94-2.83,7.94"/>
        <path class="cls-16" d="m390.93,264.96s-8.48.5-9.42,0c-.94-.5-6.22-10.44-6.47-13.54s-.74-13.05-.99-19.26c-.25-6.21-.25-15.91-11.93-13.85-5.22.94-6.1,5.86-7.83,16.96s-.12,14.04-1.37,28.22c-1.24,14.17.25,19.79,3.23,26.93s4.09,25.27,12.04,31.98c7.95,6.71,11.07,19.64,11.07,19.64"/>
        <g class="cls-22">
          <path class="cls-3" d="m370.14,229.31c-2.14.52-10.37.9-10.9,3.69s4.34,4.03,6.37,6.49c-.08,0-8.48,0-10.37,4.1-1.88,4.1,1.56,12.9,1.56,17.75s-4.22,14.54-.99,19.58c2.83,4.39,5.45,14.5,4.08,24.11-1.42-5.75-2.4-11.31-3.77-14.62-2.99-7.13-4.48-12.76-3.23-26.93s-.36-17.1,1.39-28.22c1.24-7.96,2.05-12.76,4.34-15.17h0c2.69-.58,5.72-.81,7.54.49,3.89,2.73,6.16,8.21,3.99,8.74Z"/>
        </g>
        <path class="cls-7" d="m390.93,264.96s-8.48.5-9.42,0c-.94-.5-6.22-10.44-6.47-13.54s-.74-13.05-.99-19.26c-.25-6.21-.25-15.91-11.93-13.85-5.22.94-6.1,5.86-7.83,16.96s-.12,14.04-1.37,28.22c-1.24,14.17.25,19.79,3.23,26.93s4.09,25.27,12.04,31.98c7.95,6.71,11.07,19.64,11.07,19.64"/>
        <path class="cls-7" d="m375.02,251.42s-.8-.25-1.27-5.1c-.31-2.89-2.02-5.44-4.57-6.83"/>
        <path class="cls-7" d="m358.24,239.49s-3.47.74-4.84,5.59"/>
      </g>
    </g>
  </g>
</svg>