<?xml version="1.0" encoding="UTF-8"?>
<svg id="Layer_1" data-name="Layer 1" xmlns="http://www.w3.org/2000/svg" xmlns:xlink="http://www.w3.org/1999/xlink" viewBox="0 0 512 263">
  <defs>
    <style>
      .cls-1 {
        opacity: .8;
      }

      .cls-1, .cls-2, .cls-3, .cls-4, .cls-5, .cls-6, .cls-7, .cls-8, .cls-9, .cls-10, .cls-11, .cls-12, .cls-13, .cls-14, .cls-15, .cls-16, .cls-17, .cls-18, .cls-19, .cls-20, .cls-21, .cls-22, .cls-23, .cls-24, .cls-25, .cls-26, .cls-27, .cls-28, .cls-29, .cls-30 {
        stroke-width: 0px;
      }

      .cls-1, .cls-2, .cls-3, .cls-5, .cls-10, .cls-15, .cls-16, .cls-19, .cls-21, .cls-23, .cls-24, .cls-26, .cls-27, .cls-30 {
        isolation: isolate;
      }

      .cls-1, .cls-2, .cls-5, .cls-10, .cls-16, .cls-18, .cls-21, .cls-23, .cls-27, .cls-30 {
        fill: #fff;
      }

      .cls-2 {
        opacity: .9;
      }

      .cls-3, .cls-9 {
        fill: #e6e6e6;
      }

      .cls-3, .cls-16 {
        opacity: .5;
      }

      .cls-4 {
        fill: #dd8c6a;
      }

      .cls-5, .cls-24 {
        opacity: .6;
      }

      .cls-31, .cls-19, .cls-23 {
        opacity: .2;
      }

      .cls-6 {
        fill: #5749ff;
      }

      .cls-7 {
        fill: #c13b37;
      }

      .cls-8 {
        fill: #ff8b7b;
      }

      .cls-10, .cls-32 {
        opacity: .7;
      }

      .cls-12 {
        fill: #e0e0e0;
      }

      .cls-13 {
        fill: #f5f5f5;
      }

      .cls-14 {
        fill: none;
      }

      .cls-15, .cls-21, .cls-33 {
        opacity: .3;
      }

      .cls-34 {
        clip-path: url(#clippath-1);
      }

      .cls-17 {
        fill: #de5753;
      }

      .cls-20 {
        fill: #fafafa;
      }

      .cls-22 {
        fill: #263238;
      }

      .cls-35 {
        clip-path: url(#clippath);
      }

      .cls-36, .cls-26, .cls-30 {
        opacity: .1;
      }

      .cls-25 {
        fill: #ba4d3c;
      }

      .cls-27 {
        opacity: .4;
      }

      .cls-28 {
        fill: #ebebeb;
      }

      .cls-29 {
        fill: #d00767;
      }
    </style>
    <clipPath id="clippath">
      <rect class="cls-14" y="-287.28" width="512" height="261.57" rx="42.76" ry="42.76"/>
    </clipPath>
    <clipPath id="clippath-1">
      <rect class="cls-14" y=".72" width="512" height="261.57" rx="42.76" ry="42.76"/>
    </clipPath>
  </defs>
  <g class="cls-35">
    <g id="freepik--background-simple--inject-2">
      <path class="cls-29" d="m398.97-137.56c-3.4,28.8-16.55,62.28-42.81,77.66C316.49-36.65,319.83-.9,242.36,14.62c-11.29,2.32-22.81,3.41-34.33,3.24-5.64-.1-11.27-.56-16.85-1.38-49.22-7.16-82.34-41.38-94.49-82.68-15.99-54.31,15.94-89.88,37.1-111.3,21.16-21.42,36.67-88.18,112.68-104.06,11.6-2.47,23.44-3.59,35.29-3.35,27.04.66,56.54,9.54,76.95,28.08,1.53,1.42,3.02,2.84,4.48,4.32,28.37,29.12,40.43,75.68,35.79,114.94Z"/>
      <path class="cls-10" d="m398.97-137.56c-3.4,28.8-16.55,62.28-42.81,77.66C316.49-36.65,319.83-.9,242.36,14.62c-11.29,2.32-22.81,3.41-34.33,3.24-5.64-.1-11.27-.56-16.85-1.38-49.22-7.16-82.34-41.38-94.49-82.68-15.99-54.31,15.94-89.88,37.1-111.3,21.16-21.42,36.67-88.18,112.68-104.06,11.6-2.47,23.44-3.59,35.29-3.35,27.04.66,56.54,9.54,76.95,28.08,1.53,1.42,3.02,2.84,4.48,4.32,28.37,29.12,40.43,75.68,35.79,114.94Z"/>
    </g>
  </g>
  <g class="cls-34">
    <g>
      <g id="freepik--background-complete--inject-62">
        <rect class="cls-12" x="337.22" y="121.68" width="72.06" height="128.68"/>
        <rect class="cls-12" x="337.22" y="121.68" width="72.06" height="128.68"/>
        <path class="cls-12" d="m410.57,120.39v131.26h12.87V120.39h-12.87Z"/>
        <path class="cls-28" d="m324.35,120.39v131.26h12.87V120.39h-12.87Z"/>
        <path class="cls-13" d="m323.06,120.39v131.26h88.79V120.39h-88.79Zm84.93,2.57v23.16h-82.36v-23.16h82.36Zm-82.36,74.64v-23.16h82.36v23.16h-82.36Zm82.36,2.6v23.14h-82.36v-23.16l82.36.02Zm-82.36-28.33v-23.17h82.36v23.16h-82.36Zm0,77.2v-23.16h82.36v23.16h-82.36Z"/>
        <rect class="cls-28" x="378.4" y="128.11" width="2.57" height="18.02"/>
        <rect class="cls-12" x="380.97" y="128.11" width="2.57" height="18.02"/>
        <rect class="cls-20" x="371.96" y="129.4" width="6.43" height="16.73"/>
        <rect class="cls-13" x="364.24" y="128.11" width="3.86" height="18.02"/>
        <rect class="cls-12" x="369.39" y="128.11" width="2.57" height="18.02"/>
        <rect class="cls-13" x="341.08" y="128.11" width="3.86" height="18.02"/>
        <rect class="cls-12" x="344.94" y="128.11" width="2.57" height="18.02"/>
        <rect class="cls-20" x="353.95" y="128.11" width="3.86" height="18.02"/>
        <rect class="cls-12" x="359.09" y="128.11" width="2.57" height="18.02"/>
        <rect class="cls-12" x="334.64" y="128.11" width="6.43" height="18.02"/>
        <rect class="cls-20" x="332.07" y="128.11" width="2.57" height="18.02"/>
        <rect class="cls-12" x="350.09" y="128.11" width="3.86" height="18.02"/>
        <rect class="cls-13" x="347.51" y="128.11" width="2.57" height="18.02"/>
        <rect class="cls-9" x="357.81" y="129.4" width="6.43" height="16.73"/>
        <rect class="cls-13" x="393.84" y="128.11" width="3.86" height="18.02"/>
        <rect class="cls-12" x="397.7" y="128.11" width="2.57" height="18.02"/>
        <rect class="cls-12" x="387.4" y="128.11" width="6.43" height="18.02"/>
        <rect class="cls-13" x="384.83" y="128.11" width="2.57" height="18.02"/>
        <rect class="cls-12" x="402.85" y="128.11" width="3.86" height="18.02"/>
        <rect class="cls-13" x="400.27" y="128.11" width="2.57" height="18.02"/>
        <rect class="cls-28" x="378.4" y="229.77" width="2.57" height="18.02"/>
        <rect class="cls-12" x="380.97" y="229.77" width="2.57" height="18.02"/>
        <rect class="cls-20" x="371.96" y="231.06" width="6.43" height="16.73"/>
        <rect class="cls-13" x="364.24" y="229.77" width="3.86" height="18.02"/>
        <rect class="cls-12" x="369.39" y="229.77" width="2.57" height="18.02"/>
        <rect class="cls-13" x="341.08" y="229.77" width="3.86" height="18.02"/>
        <rect class="cls-12" x="344.94" y="229.77" width="2.57" height="18.02"/>
        <rect class="cls-20" x="353.95" y="229.77" width="3.86" height="18.02"/>
        <rect class="cls-12" x="359.09" y="229.77" width="2.57" height="18.02"/>
        <rect class="cls-12" x="334.64" y="231.06" width="6.43" height="18.02"/>
        <rect class="cls-20" x="332.07" y="231.06" width="2.57" height="18.02"/>
        <rect class="cls-12" x="350.09" y="231.06" width="3.86" height="18.02"/>
        <rect class="cls-13" x="347.51" y="231.06" width="2.57" height="18.02"/>
        <rect class="cls-9" x="357.81" y="231.06" width="6.43" height="16.73"/>
        <rect class="cls-13" x="393.84" y="229.77" width="3.86" height="18.02"/>
        <rect class="cls-12" x="397.7" y="229.77" width="2.57" height="18.02"/>
        <rect class="cls-12" x="387.4" y="231.06" width="6.43" height="18.02"/>
        <rect class="cls-13" x="384.83" y="231.06" width="2.57" height="18.02"/>
        <rect class="cls-12" x="402.85" y="231.06" width="3.86" height="18.02"/>
        <rect class="cls-13" x="400.27" y="231.06" width="2.57" height="18.02"/>
        <rect class="cls-28" x="378.4" y="179.59" width="2.57" height="18.02"/>
        <rect class="cls-12" x="380.97" y="179.59" width="2.57" height="18.02"/>
        <rect class="cls-20" x="371.96" y="180.87" width="6.43" height="16.73"/>
        <rect class="cls-13" x="364.24" y="179.59" width="3.86" height="18.02"/>
        <rect class="cls-12" x="369.39" y="179.59" width="2.57" height="18.02"/>
        <rect class="cls-13" x="341.08" y="179.59" width="3.86" height="18.02"/>
        <rect class="cls-12" x="344.94" y="179.59" width="2.57" height="18.02"/>
        <rect class="cls-20" x="353.95" y="179.59" width="3.86" height="18.02"/>
        <rect class="cls-12" x="359.09" y="179.59" width="2.57" height="18.02"/>
        <rect class="cls-12" x="334.64" y="179.59" width="6.43" height="18.02"/>
        <rect class="cls-20" x="332.07" y="179.59" width="2.57" height="18.02"/>
        <rect class="cls-12" x="350.09" y="179.59" width="3.86" height="18.02"/>
        <rect class="cls-13" x="347.51" y="179.59" width="2.57" height="18.02"/>
        <rect class="cls-9" x="357.81" y="180.87" width="6.43" height="16.73"/>
        <rect class="cls-13" x="393.84" y="179.59" width="3.86" height="18.02"/>
        <rect class="cls-12" x="397.7" y="179.59" width="2.57" height="18.02"/>
        <rect class="cls-12" x="387.4" y="179.59" width="6.43" height="18.02"/>
        <rect class="cls-13" x="384.83" y="179.59" width="2.57" height="18.02"/>
        <rect class="cls-12" x="402.85" y="179.59" width="3.86" height="18.02"/>
        <rect class="cls-13" x="400.27" y="179.59" width="2.57" height="18.02"/>
        <rect class="cls-28" x="357.81" y="205.32" width="2.57" height="18.02"/>
        <rect class="cls-12" x="355.23" y="205.32" width="2.57" height="18.02"/>
        <rect class="cls-20" x="360.38" y="206.61" width="6.43" height="16.73"/>
        <rect class="cls-13" x="369.39" y="205.32" width="3.86" height="18.02"/>
        <rect class="cls-12" x="366.81" y="205.32" width="2.57" height="18.02"/>
        <rect class="cls-13" x="393.84" y="205.32" width="3.86" height="18.02"/>
        <rect class="cls-12" x="389.98" y="205.32" width="2.57" height="18.02"/>
        <rect class="cls-20" x="379.68" y="205.32" width="3.86" height="18.02"/>
        <rect class="cls-12" x="377.11" y="205.32" width="2.57" height="18.02"/>
        <rect class="cls-12" x="397.7" y="205.32" width="6.43" height="18.02"/>
        <rect class="cls-20" x="404.13" y="205.32" width="2.57" height="18.02"/>
        <rect class="cls-12" x="383.54" y="205.32" width="3.86" height="18.02"/>
        <rect class="cls-13" x="387.4" y="205.32" width="2.57" height="18.02"/>
        <rect class="cls-9" x="373.25" y="206.61" width="6.43" height="16.73"/>
        <rect class="cls-13" x="341.08" y="205.32" width="3.86" height="18.02"/>
        <rect class="cls-12" x="338.5" y="205.32" width="2.57" height="18.02"/>
        <rect class="cls-12" x="344.94" y="205.32" width="6.43" height="18.02"/>
        <rect class="cls-13" x="351.37" y="205.32" width="2.57" height="18.02"/>
        <rect class="cls-12" x="332.07" y="205.32" width="3.86" height="18.02"/>
        <rect class="cls-13" x="335.93" y="205.32" width="2.57" height="18.02"/>
        <rect class="cls-28" x="357.81" y="153.85" width="2.57" height="18.02"/>
        <rect class="cls-12" x="355.23" y="153.85" width="2.57" height="18.02"/>
        <rect class="cls-20" x="360.38" y="155.14" width="6.43" height="16.73"/>
        <rect class="cls-13" x="369.39" y="153.85" width="3.86" height="18.02"/>
        <rect class="cls-12" x="366.81" y="153.85" width="2.57" height="18.02"/>
        <rect class="cls-13" x="393.84" y="153.85" width="3.86" height="18.02"/>
        <rect class="cls-12" x="389.98" y="153.85" width="2.57" height="18.02"/>
        <rect class="cls-20" x="379.68" y="153.85" width="3.86" height="18.02"/>
        <rect class="cls-12" x="377.11" y="153.85" width="2.57" height="18.02"/>
        <rect class="cls-12" x="397.7" y="153.85" width="6.43" height="18.02"/>
        <rect class="cls-20" x="404.13" y="153.85" width="2.57" height="18.02"/>
        <rect class="cls-12" x="383.54" y="153.85" width="3.86" height="18.02"/>
        <rect class="cls-13" x="387.4" y="153.85" width="2.57" height="18.02"/>
        <rect class="cls-9" x="373.25" y="155.14" width="6.43" height="16.73"/>
        <rect class="cls-13" x="341.08" y="153.85" width="3.86" height="18.02"/>
        <rect class="cls-12" x="338.5" y="153.85" width="2.57" height="18.02"/>
        <rect class="cls-12" x="344.94" y="153.85" width="6.43" height="18.02"/>
        <rect class="cls-13" x="351.37" y="153.85" width="2.57" height="18.02"/>
        <rect class="cls-12" x="332.07" y="153.85" width="3.86" height="18.02"/>
        <rect class="cls-13" x="335.93" y="153.85" width="2.57" height="18.02"/>
        <rect class="cls-12" x="360.38" y="102.38" width="45.04" height="14.16"/>
        <rect class="cls-12" x="360.38" y="70.2" width="1.29" height="32.17"/>
        <rect class="cls-12" x="404.13" y="70.2" width="1.29" height="32.17"/>
        <g class="cls-32">
          <rect class="cls-18" x="360.38" y="102.38" width="43.75" height="14.16"/>
        </g>
        <rect class="cls-12" x="256.15" y="93.37" width="51.47" height="16.73"/>
        <g class="cls-32">
          <rect class="cls-18" x="256.15" y="93.37" width="50.19" height="15.44"/>
        </g>
      </g>
      <g id="freepik--book-shelf--inject-62">
        <rect class="cls-6" x="235.56" y="116.53" width="78.5" height="140.27"/>
        <rect class="cls-23" x="235.56" y="116.53" width="78.5" height="140.27"/>
        <path class="cls-6" d="m314.05,115.24v142.84h14.16V115.24h-14.16Z"/>
        <path class="cls-21" d="m314.05,115.24v142.84h14.16V115.24h-14.16Z"/>
        <path class="cls-6" d="m221.4,115.24v142.84h14.16V115.24h-14.16Z"/>
        <path class="cls-27" d="m221.4,115.24v142.84h14.16V115.24h-14.16Z"/>
        <path class="cls-6" d="m218.83,115.24v142.84h97.8V115.24h-97.8Zm93.94,1.25v25.77h-90.08v-25.74l90.08-.03Zm-90.08,82.39v-25.74h90.08v25.74h-90.08Zm90.08,2.58v25.73h-90.08v-25.74h90.08Zm-90.08-30.89v-25.74h90.08v25.74h-90.08Zm0,84.97v-25.78h90.08v25.74l-90.08.04Z"/>
        <path class="cls-5" d="m218.83,115.24v142.84h97.8V115.24h-97.8Zm93.94,1.25v25.77h-90.08v-25.74l90.08-.03Zm-90.08,82.39v-25.74h90.08v25.74h-90.08Zm90.08,2.58v25.73h-90.08v-25.74h90.08Zm-90.08-30.89v-25.74h90.08v25.74h-90.08Zm0,84.97v-25.78h90.08v25.74l-90.08.04Z"/>
        <rect class="cls-6" x="279.31" y="122.96" width="3.86" height="19.3"/>
        <rect class="cls-30" x="279.31" y="122.96" width="3.86" height="19.3"/>
        <rect class="cls-6" x="283.17" y="122.96" width="3.86" height="19.3"/>
        <rect class="cls-27" x="283.17" y="122.96" width="3.86" height="19.3"/>
        <rect class="cls-6" x="272.88" y="124.25" width="6.43" height="18.02"/>
        <rect class="cls-5" x="272.88" y="124.25" width="6.43" height="18.02"/>
        <rect class="cls-6" x="265.15" y="122.96" width="3.86" height="19.3"/>
        <rect class="cls-6" x="269.01" y="122.96" width="3.86" height="19.3"/>
        <rect class="cls-10" x="269.01" y="122.96" width="3.86" height="19.3"/>
        <rect class="cls-6" x="239.42" y="122.96" width="3.86" height="19.3"/>
        <rect class="cls-10" x="239.42" y="122.96" width="3.86" height="19.3"/>
        <rect class="cls-6" x="243.28" y="122.96" width="3.86" height="19.3"/>
        <rect class="cls-5" x="243.28" y="122.96" width="3.86" height="19.3"/>
        <rect class="cls-6" x="254.86" y="122.96" width="3.86" height="19.3"/>
        <rect class="cls-5" x="254.86" y="122.96" width="3.86" height="19.3"/>
        <rect class="cls-6" x="258.72" y="122.96" width="3.86" height="19.3"/>
        <rect class="cls-26" x="258.72" y="122.96" width="3.86" height="19.3"/>
        <rect class="cls-6" x="232.98" y="122.96" width="6.43" height="19.3"/>
        <rect class="cls-30" x="232.98" y="122.96" width="6.43" height="19.3"/>
        <rect class="cls-6" x="229.12" y="122.96" width="3.86" height="19.3"/>
        <rect class="cls-5" x="229.12" y="122.96" width="3.86" height="19.3"/>
        <rect class="cls-6" x="249.71" y="122.96" width="3.86" height="19.3"/>
        <rect class="cls-30" x="249.71" y="122.96" width="3.86" height="19.3"/>
        <rect class="cls-6" x="247.14" y="122.96" width="2.57" height="19.3"/>
        <rect class="cls-21" x="247.14" y="122.96" width="2.57" height="19.3"/>
        <rect class="cls-6" x="258.72" y="124.25" width="6.43" height="18.02"/>
        <rect class="cls-30" x="258.72" y="124.25" width="6.43" height="18.02"/>
        <rect class="cls-6" x="296.04" y="122.96" width="3.86" height="19.3"/>
        <rect class="cls-21" x="296.04" y="122.96" width="3.86" height="19.3"/>
        <rect class="cls-6" x="299.9" y="122.96" width="3.86" height="19.3"/>
        <rect class="cls-23" x="299.9" y="122.96" width="3.86" height="19.3"/>
        <rect class="cls-6" x="289.6" y="122.96" width="6.43" height="19.3"/>
        <rect class="cls-30" x="289.6" y="122.96" width="6.43" height="19.3"/>
        <rect class="cls-6" x="285.74" y="122.96" width="3.86" height="19.3"/>
        <rect class="cls-5" x="285.74" y="122.96" width="3.86" height="19.3"/>
        <rect class="cls-6" x="306.33" y="122.96" width="3.86" height="19.3"/>
        <rect class="cls-30" x="306.33" y="122.96" width="3.86" height="19.3"/>
        <rect class="cls-6" x="303.76" y="122.96" width="2.57" height="19.3"/>
        <rect class="cls-5" x="303.76" y="122.96" width="2.57" height="19.3"/>
        <rect class="cls-6" x="258.72" y="151.27" width="3.86" height="19.3"/>
        <rect class="cls-30" x="258.72" y="151.27" width="3.86" height="19.3"/>
        <rect class="cls-6" x="254.86" y="151.27" width="3.86" height="19.3"/>
        <rect class="cls-27" x="254.86" y="151.27" width="3.86" height="19.3"/>
        <rect class="cls-6" x="262.58" y="152.56" width="6.43" height="18.02"/>
        <rect class="cls-5" x="262.58" y="152.56" width="6.43" height="18.02"/>
        <rect class="cls-6" x="271.59" y="151.27" width="3.86" height="19.3"/>
        <rect class="cls-6" x="267.73" y="151.27" width="3.86" height="19.3"/>
        <rect class="cls-26" x="267.73" y="151.27" width="3.86" height="19.3"/>
        <rect class="cls-6" x="297.33" y="151.27" width="3.86" height="19.3"/>
        <rect class="cls-26" x="297.33" y="151.27" width="3.86" height="19.3"/>
        <rect class="cls-6" x="293.46" y="151.27" width="3.86" height="19.3"/>
        <rect class="cls-5" x="293.46" y="151.27" width="3.86" height="19.3"/>
        <rect class="cls-6" x="283.17" y="151.27" width="3.86" height="19.3"/>
        <rect class="cls-5" x="283.17" y="151.27" width="3.86" height="19.3"/>
        <rect class="cls-6" x="279.31" y="151.27" width="3.86" height="19.3"/>
        <rect class="cls-26" x="279.31" y="151.27" width="3.86" height="19.3"/>
        <rect class="cls-6" x="301.19" y="151.27" width="6.43" height="19.3"/>
        <rect class="cls-30" x="301.19" y="151.27" width="6.43" height="19.3"/>
        <rect class="cls-6" x="307.62" y="151.27" width="3.86" height="19.3"/>
        <rect class="cls-5" x="307.62" y="151.27" width="3.86" height="19.3"/>
        <rect class="cls-6" x="287.03" y="151.27" width="3.86" height="19.3"/>
        <rect class="cls-30" x="287.03" y="151.27" width="3.86" height="19.3"/>
        <rect class="cls-6" x="290.89" y="151.27" width="2.57" height="19.3"/>
        <rect class="cls-21" x="290.89" y="151.27" width="2.57" height="19.3"/>
        <rect class="cls-6" x="275.45" y="152.56" width="6.43" height="18.02"/>
        <rect class="cls-30" x="275.45" y="152.56" width="6.43" height="18.02"/>
        <rect class="cls-6" x="241.99" y="151.27" width="3.86" height="19.3"/>
        <rect class="cls-30" x="241.99" y="151.27" width="3.86" height="19.3"/>
        <rect class="cls-6" x="238.13" y="151.27" width="3.86" height="19.3"/>
        <rect class="cls-23" x="238.13" y="151.27" width="3.86" height="19.3"/>
        <rect class="cls-6" x="245.85" y="151.27" width="6.43" height="19.3"/>
        <rect class="cls-30" x="245.85" y="151.27" width="6.43" height="19.3"/>
        <rect class="cls-6" x="252.29" y="151.27" width="3.86" height="19.3"/>
        <rect class="cls-5" x="252.29" y="151.27" width="3.86" height="19.3"/>
        <rect class="cls-6" x="231.7" y="151.27" width="3.86" height="19.3"/>
        <rect class="cls-30" x="231.7" y="151.27" width="3.86" height="19.3"/>
        <rect class="cls-6" x="235.56" y="151.27" width="2.57" height="19.3"/>
        <rect class="cls-5" x="235.56" y="151.27" width="2.57" height="19.3"/>
        <rect class="cls-6" x="279.31" y="207.9" width="3.86" height="19.3"/>
        <rect class="cls-30" x="279.31" y="207.9" width="3.86" height="19.3"/>
        <rect class="cls-6" x="283.17" y="207.9" width="3.86" height="19.3"/>
        <rect class="cls-27" x="283.17" y="207.9" width="3.86" height="19.3"/>
        <rect class="cls-6" x="274.16" y="209.18" width="6.43" height="18.02"/>
        <rect class="cls-5" x="274.16" y="209.18" width="6.43" height="18.02"/>
        <rect class="cls-6" x="266.44" y="207.9" width="3.86" height="19.3"/>
        <rect class="cls-6" x="270.3" y="207.9" width="3.86" height="19.3"/>
        <rect class="cls-5" x="270.3" y="207.9" width="3.86" height="19.3"/>
        <rect class="cls-6" x="241.99" y="207.9" width="3.86" height="19.3"/>
        <rect class="cls-21" x="241.99" y="207.9" width="3.86" height="19.3"/>
        <rect class="cls-6" x="245.85" y="207.9" width="3.86" height="19.3"/>
        <rect class="cls-5" x="245.85" y="207.9" width="3.86" height="19.3"/>
        <rect class="cls-6" x="256.15" y="207.9" width="3.86" height="19.3"/>
        <rect class="cls-5" x="256.15" y="207.9" width="3.86" height="19.3"/>
        <rect class="cls-6" x="258.72" y="207.9" width="3.86" height="19.3"/>
        <rect class="cls-26" x="258.72" y="207.9" width="3.86" height="19.3"/>
        <rect class="cls-6" x="234.27" y="207.9" width="6.43" height="19.3"/>
        <rect class="cls-30" x="234.27" y="207.9" width="6.43" height="19.3"/>
        <rect class="cls-6" x="231.7" y="207.9" width="3.86" height="19.3"/>
        <rect class="cls-5" x="231.7" y="207.9" width="3.86" height="19.3"/>
        <rect class="cls-6" x="251" y="207.9" width="3.86" height="19.3"/>
        <rect class="cls-30" x="251" y="207.9" width="3.86" height="19.3"/>
        <rect class="cls-6" x="248.43" y="207.9" width="2.57" height="19.3"/>
        <rect class="cls-21" x="248.43" y="207.9" width="2.57" height="19.3"/>
        <rect class="cls-6" x="260.01" y="209.18" width="6.43" height="18.02"/>
        <rect class="cls-30" x="260.01" y="209.18" width="6.43" height="18.02"/>
        <rect class="cls-6" x="297.33" y="207.9" width="3.86" height="19.3"/>
        <rect class="cls-26" x="297.33" y="207.9" width="3.86" height="19.3"/>
        <rect class="cls-6" x="301.19" y="207.9" width="3.86" height="19.3"/>
        <rect class="cls-23" x="301.19" y="207.9" width="3.86" height="19.3"/>
        <rect class="cls-6" x="289.6" y="207.9" width="6.43" height="19.3"/>
        <rect class="cls-30" x="289.6" y="207.9" width="6.43" height="19.3"/>
        <rect class="cls-6" x="287.03" y="207.9" width="3.86" height="19.3"/>
        <rect class="cls-5" x="287.03" y="207.9" width="3.86" height="19.3"/>
        <rect class="cls-6" x="306.33" y="207.9" width="3.86" height="19.3"/>
        <rect class="cls-30" x="306.33" y="207.9" width="3.86" height="19.3"/>
        <rect class="cls-6" x="303.76" y="207.9" width="2.57" height="19.3"/>
        <rect class="cls-5" x="303.76" y="207.9" width="2.57" height="19.3"/>
        <rect class="cls-6" x="280.6" y="236.21" width="3.86" height="19.3"/>
        <rect class="cls-30" x="280.6" y="236.21" width="3.86" height="19.3"/>
        <rect class="cls-6" x="283.17" y="236.21" width="3.86" height="19.3"/>
        <rect class="cls-27" x="283.17" y="236.21" width="3.86" height="19.3"/>
        <rect class="cls-6" x="274.16" y="237.49" width="6.43" height="18.02"/>
        <rect class="cls-5" x="274.16" y="237.49" width="6.43" height="18.02"/>
        <rect class="cls-6" x="266.44" y="236.21" width="3.86" height="19.3"/>
        <rect class="cls-6" x="270.3" y="236.21" width="3.86" height="19.3"/>
        <rect class="cls-26" x="270.3" y="236.21" width="3.86" height="19.3"/>
        <rect class="cls-6" x="241.99" y="236.21" width="3.86" height="19.3"/>
        <rect class="cls-27" x="241.99" y="236.21" width="3.86" height="19.3"/>
        <rect class="cls-6" x="245.85" y="236.21" width="3.86" height="19.3"/>
        <rect class="cls-5" x="245.85" y="236.21" width="3.86" height="19.3"/>
        <rect class="cls-6" x="256.15" y="236.21" width="3.86" height="19.3"/>
        <rect class="cls-5" x="256.15" y="236.21" width="3.86" height="19.3"/>
        <rect class="cls-6" x="258.72" y="236.21" width="3.86" height="19.3"/>
        <rect class="cls-26" x="258.72" y="236.21" width="3.86" height="19.3"/>
        <rect class="cls-6" x="234.27" y="236.21" width="6.43" height="19.3"/>
        <rect class="cls-30" x="234.27" y="236.21" width="6.43" height="19.3"/>
        <rect class="cls-6" x="231.7" y="236.21" width="3.86" height="19.3"/>
        <rect class="cls-5" x="231.7" y="236.21" width="3.86" height="19.3"/>
        <rect class="cls-6" x="251" y="236.21" width="3.86" height="19.3"/>
        <rect class="cls-30" x="251" y="236.21" width="3.86" height="19.3"/>
        <rect class="cls-6" x="248.43" y="236.21" width="2.57" height="19.3"/>
        <rect class="cls-21" x="248.43" y="236.21" width="2.57" height="19.3"/>
        <rect class="cls-6" x="260.01" y="237.49" width="6.43" height="18.02"/>
        <rect class="cls-30" x="260.01" y="237.49" width="6.43" height="18.02"/>
        <rect class="cls-6" x="297.33" y="236.21" width="3.86" height="19.3"/>
        <rect class="cls-26" x="297.33" y="236.21" width="3.86" height="19.3"/>
        <rect class="cls-6" x="301.19" y="236.21" width="3.86" height="19.3"/>
        <rect class="cls-23" x="301.19" y="236.21" width="3.86" height="19.3"/>
        <rect class="cls-6" x="289.6" y="236.21" width="6.43" height="19.3"/>
        <rect class="cls-30" x="289.6" y="236.21" width="6.43" height="19.3"/>
        <rect class="cls-6" x="287.03" y="236.21" width="3.86" height="19.3"/>
        <rect class="cls-5" x="287.03" y="236.21" width="3.86" height="19.3"/>
        <rect class="cls-6" x="306.33" y="236.21" width="3.86" height="19.3"/>
        <rect class="cls-30" x="306.33" y="236.21" width="3.86" height="19.3"/>
        <rect class="cls-6" x="303.76" y="236.21" width="2.57" height="19.3"/>
        <rect class="cls-5" x="303.76" y="236.21" width="2.57" height="19.3"/>
        <rect class="cls-6" x="256.15" y="178.3" width="3.86" height="20.59"/>
        <rect class="cls-30" x="256.15" y="178.3" width="3.86" height="20.59"/>
        <rect class="cls-6" x="253.57" y="178.3" width="3.86" height="20.59"/>
        <rect class="cls-27" x="253.57" y="178.3" width="3.86" height="20.59"/>
        <rect class="cls-6" x="260.01" y="179.59" width="6.43" height="19.3"/>
        <rect class="cls-5" x="260.01" y="179.59" width="6.43" height="19.3"/>
        <rect class="cls-6" x="270.3" y="178.3" width="3.86" height="20.59"/>
        <rect class="cls-6" x="266.44" y="178.3" width="3.86" height="20.59"/>
        <rect class="cls-26" x="266.44" y="178.3" width="3.86" height="20.59"/>
        <rect class="cls-6" x="296.04" y="178.3" width="3.86" height="20.59"/>
        <rect class="cls-26" x="296.04" y="178.3" width="3.86" height="20.59"/>
        <rect class="cls-6" x="292.18" y="178.3" width="3.86" height="20.59"/>
        <rect class="cls-5" x="292.18" y="178.3" width="3.86" height="20.59"/>
        <rect class="cls-6" x="281.88" y="178.3" width="3.86" height="20.59"/>
        <rect class="cls-5" x="281.88" y="178.3" width="3.86" height="20.59"/>
        <rect class="cls-6" x="278.02" y="178.3" width="3.86" height="20.59"/>
        <rect class="cls-26" x="278.02" y="178.3" width="3.86" height="20.59"/>
        <rect class="cls-6" x="301.19" y="179.59" width="6.43" height="19.3"/>
        <rect class="cls-30" x="301.19" y="179.59" width="6.43" height="19.3"/>
        <rect class="cls-6" x="307.62" y="179.59" width="3.86" height="19.3"/>
        <rect class="cls-5" x="307.62" y="179.59" width="3.86" height="19.3"/>
        <rect class="cls-6" x="285.74" y="179.59" width="5.15" height="19.3"/>
        <rect class="cls-30" x="285.74" y="179.59" width="5.15" height="19.3"/>
        <rect class="cls-6" x="290.89" y="179.59" width="2.57" height="19.3"/>
        <rect class="cls-21" x="290.89" y="179.59" width="2.57" height="19.3"/>
        <rect class="cls-6" x="275.45" y="179.59" width="6.43" height="19.3"/>
        <rect class="cls-30" x="275.45" y="179.59" width="6.43" height="19.3"/>
        <rect class="cls-6" x="239.42" y="178.3" width="3.86" height="20.59"/>
        <rect class="cls-23" x="239.42" y="178.3" width="3.86" height="20.59"/>
        <rect class="cls-6" x="235.56" y="178.3" width="3.86" height="20.59"/>
        <rect class="cls-23" x="235.56" y="178.3" width="3.86" height="20.59"/>
        <rect class="cls-6" x="243.28" y="179.59" width="6.43" height="19.3"/>
        <rect class="cls-30" x="243.28" y="179.59" width="6.43" height="19.3"/>
        <rect class="cls-6" x="249.71" y="179.59" width="3.86" height="19.3"/>
        <rect class="cls-5" x="249.71" y="179.59" width="3.86" height="19.3"/>
        <rect class="cls-6" x="227.84" y="179.59" width="5.15" height="19.3"/>
        <rect class="cls-30" x="227.84" y="179.59" width="5.15" height="19.3"/>
        <rect class="cls-6" x="232.98" y="179.59" width="2.57" height="19.3"/>
        <rect class="cls-5" x="232.98" y="179.59" width="2.57" height="19.3"/>
        <rect class="cls-16" x="218.83" y="115.24" width="109.38" height="142.84"/>
        <rect class="cls-6" x="127.46" y="107.52" width="83.64" height="149.27"/>
        <rect class="cls-23" x="127.46" y="107.52" width="83.64" height="149.27"/>
        <path class="cls-6" d="m211.11,106.24v151.85h15.44V106.24h-15.44Z"/>
        <path class="cls-21" d="m211.11,106.24v151.85h15.44V106.24h-15.44Z"/>
        <path class="cls-6" d="m112.02,106.24v151.85h15.44V106.24h-15.44Z"/>
        <path class="cls-27" d="m112.02,106.24v151.85h15.44V106.24h-15.44Z"/>
        <path class="cls-6" d="m109.45,106.24v151.85h102.95V106.24h-102.95Zm99.09,2.57v27.02h-95.23v-27.02h95.23Zm-95.23,86.22v-27.02h95.23v27.02h-95.23Zm95.23,2.57v27.02h-95.23v-27.02h95.23Zm-95.23-32.17v-27.02h95.23v27.02h-95.23Zm0,90.05v-27h95.23v27.02l-95.23-.02Z"/>
        <path class="cls-5" d="m109.45,106.24v151.85h102.95V106.24h-102.95Zm99.09,2.57v27.02h-95.23v-27.02h95.23Zm-95.23,86.22v-27.02h95.23v27.02h-95.23Zm95.23,2.57v27.02h-95.23v-27.02h95.23Zm-95.23-32.17v-27.02h95.23v27.02h-95.23Zm0,90.05v-27h95.23v27.02l-95.23-.02Z"/>
        <rect class="cls-6" x="173.79" y="115.24" width="3.86" height="20.59"/>
        <rect class="cls-30" x="173.79" y="115.24" width="3.86" height="20.59"/>
        <rect class="cls-6" x="177.65" y="115.24" width="3.86" height="20.59"/>
        <rect class="cls-27" x="177.65" y="115.24" width="3.86" height="20.59"/>
        <rect class="cls-6" x="166.07" y="116.53" width="7.72" height="19.3"/>
        <rect class="cls-5" x="166.07" y="116.53" width="7.72" height="19.3"/>
        <rect class="cls-6" x="158.35" y="115.24" width="5.15" height="20.59"/>
        <rect class="cls-6" x="163.49" y="115.24" width="3.86" height="20.59"/>
        <rect class="cls-10" x="163.49" y="115.24" width="3.86" height="20.59"/>
        <rect class="cls-6" x="131.32" y="115.24" width="5.15" height="20.59"/>
        <rect class="cls-10" x="131.32" y="115.24" width="5.15" height="20.59"/>
        <rect class="cls-6" x="136.47" y="115.24" width="3.86" height="20.59"/>
        <rect class="cls-5" x="136.47" y="115.24" width="3.86" height="20.59"/>
        <rect class="cls-6" x="146.77" y="115.24" width="5.15" height="20.59"/>
        <rect class="cls-5" x="146.77" y="115.24" width="5.15" height="20.59"/>
        <rect class="cls-6" x="150.63" y="115.24" width="3.86" height="20.59"/>
        <rect class="cls-26" x="150.63" y="115.24" width="3.86" height="20.59"/>
        <rect class="cls-6" x="123.6" y="115.24" width="7.72" height="20.59"/>
        <rect class="cls-30" x="123.6" y="115.24" width="7.72" height="20.59"/>
        <rect class="cls-6" x="121.03" y="115.24" width="3.86" height="20.59"/>
        <rect class="cls-5" x="121.03" y="115.24" width="3.86" height="20.59"/>
        <rect class="cls-6" x="141.62" y="115.24" width="5.15" height="20.59"/>
        <rect class="cls-30" x="141.62" y="115.24" width="5.15" height="20.59"/>
        <rect class="cls-6" x="139.04" y="115.24" width="2.57" height="20.59"/>
        <rect class="cls-21" x="139.04" y="115.24" width="2.57" height="20.59"/>
        <rect class="cls-6" x="150.63" y="116.53" width="7.72" height="19.3"/>
        <rect class="cls-30" x="150.63" y="116.53" width="7.72" height="19.3"/>
        <rect class="cls-6" x="191.8" y="115.24" width="5.15" height="20.59"/>
        <rect class="cls-21" x="191.8" y="115.24" width="5.15" height="20.59"/>
        <rect class="cls-6" x="195.67" y="115.24" width="3.86" height="20.59"/>
        <rect class="cls-23" x="195.67" y="115.24" width="3.86" height="20.59"/>
        <rect class="cls-6" x="184.08" y="115.24" width="7.72" height="20.59"/>
        <rect class="cls-30" x="184.08" y="115.24" width="7.72" height="20.59"/>
        <rect class="cls-6" x="180.22" y="115.24" width="3.86" height="20.59"/>
        <rect class="cls-5" x="180.22" y="115.24" width="3.86" height="20.59"/>
        <rect class="cls-6" x="202.1" y="115.24" width="5.15" height="20.59"/>
        <rect class="cls-30" x="202.1" y="115.24" width="5.15" height="20.59"/>
        <rect class="cls-6" x="199.53" y="115.24" width="2.57" height="20.59"/>
        <rect class="cls-5" x="199.53" y="115.24" width="2.57" height="20.59"/>
        <rect class="cls-6" x="151.91" y="144.84" width="3.86" height="20.59"/>
        <rect class="cls-30" x="151.91" y="144.84" width="3.86" height="20.59"/>
        <rect class="cls-6" x="148.05" y="144.84" width="3.86" height="20.59"/>
        <rect class="cls-27" x="148.05" y="144.84" width="3.86" height="20.59"/>
        <rect class="cls-6" x="155.77" y="146.13" width="6.43" height="19.3"/>
        <rect class="cls-5" x="155.77" y="146.13" width="6.43" height="19.3"/>
        <rect class="cls-6" x="166.07" y="144.84" width="3.86" height="20.59"/>
        <rect class="cls-6" x="162.21" y="144.84" width="3.86" height="20.59"/>
        <rect class="cls-26" x="162.21" y="144.84" width="3.86" height="20.59"/>
        <rect class="cls-6" x="191.8" y="144.84" width="3.86" height="20.59"/>
        <rect class="cls-26" x="191.8" y="144.84" width="3.86" height="20.59"/>
        <rect class="cls-6" x="187.94" y="144.84" width="3.86" height="20.59"/>
        <rect class="cls-5" x="187.94" y="144.84" width="3.86" height="20.59"/>
        <rect class="cls-6" x="177.65" y="144.84" width="3.86" height="20.59"/>
        <rect class="cls-5" x="177.65" y="144.84" width="3.86" height="20.59"/>
        <rect class="cls-6" x="173.79" y="144.84" width="3.86" height="20.59"/>
        <rect class="cls-26" x="173.79" y="144.84" width="3.86" height="20.59"/>
        <rect class="cls-6" x="196.95" y="144.84" width="6.43" height="20.59"/>
        <rect class="cls-30" x="196.95" y="144.84" width="6.43" height="20.59"/>
        <rect class="cls-6" x="203.39" y="144.84" width="3.86" height="20.59"/>
        <rect class="cls-5" x="203.39" y="144.84" width="3.86" height="20.59"/>
        <rect class="cls-6" x="181.51" y="144.84" width="5.15" height="20.59"/>
        <rect class="cls-30" x="181.51" y="144.84" width="5.15" height="20.59"/>
        <rect class="cls-6" x="185.37" y="144.84" width="2.57" height="20.59"/>
        <rect class="cls-21" x="185.37" y="144.84" width="2.57" height="20.59"/>
        <rect class="cls-6" x="169.93" y="146.13" width="6.43" height="19.3"/>
        <rect class="cls-30" x="169.93" y="146.13" width="6.43" height="19.3"/>
        <rect class="cls-6" x="133.9" y="144.84" width="3.86" height="20.59"/>
        <rect class="cls-30" x="133.9" y="144.84" width="3.86" height="20.59"/>
        <rect class="cls-6" x="130.04" y="144.84" width="3.86" height="20.59"/>
        <rect class="cls-23" x="130.04" y="144.84" width="3.86" height="20.59"/>
        <rect class="cls-6" x="137.76" y="144.84" width="6.43" height="20.59"/>
        <rect class="cls-30" x="137.76" y="144.84" width="6.43" height="20.59"/>
        <rect class="cls-6" x="144.19" y="144.84" width="3.86" height="20.59"/>
        <rect class="cls-5" x="144.19" y="144.84" width="3.86" height="20.59"/>
        <rect class="cls-6" x="122.32" y="144.84" width="5.15" height="20.59"/>
        <rect class="cls-30" x="122.32" y="144.84" width="5.15" height="20.59"/>
        <rect class="cls-6" x="127.46" y="144.84" width="2.57" height="20.59"/>
        <rect class="cls-5" x="127.46" y="144.84" width="2.57" height="20.59"/>
        <rect class="cls-6" x="173.79" y="204.04" width="3.86" height="20.59"/>
        <rect class="cls-30" x="173.79" y="204.04" width="3.86" height="20.59"/>
        <rect class="cls-6" x="177.65" y="204.04" width="3.86" height="20.59"/>
        <rect class="cls-27" x="177.65" y="204.04" width="3.86" height="20.59"/>
        <rect class="cls-6" x="167.35" y="205.32" width="6.43" height="19.3"/>
        <rect class="cls-5" x="167.35" y="205.32" width="6.43" height="19.3"/>
        <rect class="cls-6" x="159.63" y="204.04" width="3.86" height="20.59"/>
        <rect class="cls-6" x="163.49" y="204.04" width="3.86" height="20.59"/>
        <rect class="cls-5" x="163.49" y="204.04" width="3.86" height="20.59"/>
        <rect class="cls-6" x="133.9" y="204.04" width="3.86" height="20.59"/>
        <rect class="cls-21" x="133.9" y="204.04" width="3.86" height="20.59"/>
        <rect class="cls-6" x="137.76" y="204.04" width="3.86" height="20.59"/>
        <rect class="cls-5" x="137.76" y="204.04" width="3.86" height="20.59"/>
        <rect class="cls-6" x="148.05" y="204.04" width="3.86" height="20.59"/>
        <rect class="cls-5" x="148.05" y="204.04" width="3.86" height="20.59"/>
        <rect class="cls-6" x="151.91" y="204.04" width="3.86" height="20.59"/>
        <rect class="cls-26" x="151.91" y="204.04" width="3.86" height="20.59"/>
        <rect class="cls-6" x="126.18" y="205.32" width="6.43" height="20.59"/>
        <rect class="cls-30" x="126.18" y="205.32" width="6.43" height="20.59"/>
        <rect class="cls-6" x="122.32" y="205.32" width="3.86" height="20.59"/>
        <rect class="cls-5" x="122.32" y="205.32" width="3.86" height="20.59"/>
        <rect class="cls-6" x="142.9" y="205.32" width="5.15" height="20.59"/>
        <rect class="cls-30" x="142.9" y="205.32" width="5.15" height="20.59"/>
        <rect class="cls-6" x="140.33" y="205.32" width="2.57" height="20.59"/>
        <rect class="cls-21" x="140.33" y="205.32" width="2.57" height="20.59"/>
        <rect class="cls-6" x="153.2" y="205.32" width="6.43" height="19.3"/>
        <rect class="cls-30" x="153.2" y="205.32" width="6.43" height="19.3"/>
        <rect class="cls-6" x="191.8" y="204.04" width="3.86" height="20.59"/>
        <rect class="cls-26" x="191.8" y="204.04" width="3.86" height="20.59"/>
        <rect class="cls-6" x="195.67" y="204.04" width="3.86" height="20.59"/>
        <rect class="cls-23" x="195.67" y="204.04" width="3.86" height="20.59"/>
        <rect class="cls-6" x="185.37" y="205.32" width="6.43" height="20.59"/>
        <rect class="cls-30" x="185.37" y="205.32" width="6.43" height="20.59"/>
        <rect class="cls-6" x="181.51" y="205.32" width="3.86" height="20.59"/>
        <rect class="cls-5" x="181.51" y="205.32" width="3.86" height="20.59"/>
        <rect class="cls-6" x="202.1" y="205.32" width="5.15" height="20.59"/>
        <rect class="cls-30" x="202.1" y="205.32" width="5.15" height="20.59"/>
        <rect class="cls-6" x="199.53" y="205.32" width="2.57" height="20.59"/>
        <rect class="cls-5" x="199.53" y="205.32" width="2.57" height="20.59"/>
        <rect class="cls-6" x="173.79" y="234.92" width="3.86" height="20.59"/>
        <rect class="cls-30" x="173.79" y="234.92" width="3.86" height="20.59"/>
        <rect class="cls-6" x="177.65" y="234.92" width="3.86" height="20.59"/>
        <rect class="cls-27" x="177.65" y="234.92" width="3.86" height="20.59"/>
        <rect class="cls-6" x="167.35" y="236.21" width="6.43" height="19.3"/>
        <rect class="cls-5" x="167.35" y="236.21" width="6.43" height="19.3"/>
        <rect class="cls-6" x="159.63" y="234.92" width="3.86" height="20.59"/>
        <rect class="cls-6" x="163.49" y="234.92" width="3.86" height="20.59"/>
        <rect class="cls-26" x="163.49" y="234.92" width="3.86" height="20.59"/>
        <rect class="cls-6" x="133.9" y="234.92" width="3.86" height="20.59"/>
        <rect class="cls-27" x="133.9" y="234.92" width="3.86" height="20.59"/>
        <rect class="cls-6" x="137.76" y="234.92" width="3.86" height="20.59"/>
        <rect class="cls-5" x="137.76" y="234.92" width="3.86" height="20.59"/>
        <rect class="cls-6" x="148.05" y="234.92" width="3.86" height="20.59"/>
        <rect class="cls-5" x="148.05" y="234.92" width="3.86" height="20.59"/>
        <rect class="cls-6" x="151.91" y="234.92" width="3.86" height="20.59"/>
        <rect class="cls-26" x="151.91" y="234.92" width="3.86" height="20.59"/>
        <rect class="cls-6" x="126.18" y="234.92" width="6.43" height="20.59"/>
        <rect class="cls-30" x="126.18" y="234.92" width="6.43" height="20.59"/>
        <rect class="cls-6" x="122.32" y="234.92" width="3.86" height="20.59"/>
        <rect class="cls-5" x="122.32" y="234.92" width="3.86" height="20.59"/>
        <rect class="cls-6" x="142.9" y="234.92" width="5.15" height="20.59"/>
        <rect class="cls-30" x="142.9" y="234.92" width="5.15" height="20.59"/>
        <rect class="cls-6" x="141.62" y="234.92" width="2.57" height="20.59"/>
        <rect class="cls-21" x="141.62" y="234.92" width="2.57" height="20.59"/>
        <rect class="cls-6" x="153.2" y="236.21" width="6.43" height="19.3"/>
        <rect class="cls-30" x="153.2" y="236.21" width="6.43" height="19.3"/>
        <rect class="cls-6" x="191.8" y="234.92" width="3.86" height="20.59"/>
        <rect class="cls-26" x="191.8" y="234.92" width="3.86" height="20.59"/>
        <rect class="cls-6" x="195.67" y="234.92" width="3.86" height="20.59"/>
        <rect class="cls-23" x="195.67" y="234.92" width="3.86" height="20.59"/>
        <rect class="cls-6" x="185.37" y="234.92" width="6.43" height="20.59"/>
        <rect class="cls-30" x="185.37" y="234.92" width="6.43" height="20.59"/>
        <rect class="cls-6" x="181.51" y="234.92" width="3.86" height="20.59"/>
        <rect class="cls-5" x="181.51" y="234.92" width="3.86" height="20.59"/>
        <rect class="cls-6" x="202.1" y="234.92" width="5.15" height="20.59"/>
        <rect class="cls-30" x="202.1" y="234.92" width="5.15" height="20.59"/>
        <rect class="cls-6" x="199.53" y="234.92" width="2.57" height="20.59"/>
        <rect class="cls-5" x="199.53" y="234.92" width="2.57" height="20.59"/>
        <rect class="cls-6" x="149.34" y="173.15" width="3.86" height="21.88"/>
        <rect class="cls-30" x="149.34" y="173.15" width="3.86" height="21.88"/>
        <rect class="cls-6" x="145.48" y="173.15" width="3.86" height="21.88"/>
        <rect class="cls-27" x="145.48" y="173.15" width="3.86" height="21.88"/>
        <rect class="cls-6" x="153.2" y="175.72" width="7.72" height="19.3"/>
        <rect class="cls-5" x="153.2" y="175.72" width="7.72" height="19.3"/>
        <rect class="cls-6" x="163.49" y="173.15" width="5.15" height="21.88"/>
        <rect class="cls-6" x="160.92" y="173.15" width="3.86" height="21.88"/>
        <rect class="cls-26" x="160.92" y="173.15" width="3.86" height="21.88"/>
        <rect class="cls-6" x="190.52" y="173.15" width="5.15" height="21.88"/>
        <rect class="cls-26" x="190.52" y="173.15" width="5.15" height="21.88"/>
        <rect class="cls-6" x="187.94" y="173.15" width="3.86" height="21.88"/>
        <rect class="cls-5" x="187.94" y="173.15" width="3.86" height="21.88"/>
        <rect class="cls-6" x="175.08" y="173.15" width="5.15" height="21.88"/>
        <rect class="cls-5" x="175.08" y="173.15" width="5.15" height="21.88"/>
        <rect class="cls-6" x="172.5" y="173.15" width="3.86" height="21.88"/>
        <rect class="cls-26" x="172.5" y="173.15" width="3.86" height="21.88"/>
        <rect class="cls-6" x="195.67" y="174.44" width="7.72" height="20.59"/>
        <rect class="cls-30" x="195.67" y="174.44" width="7.72" height="20.59"/>
        <rect class="cls-6" x="203.39" y="174.44" width="3.86" height="20.59"/>
        <rect class="cls-5" x="203.39" y="174.44" width="3.86" height="20.59"/>
        <rect class="cls-6" x="180.22" y="174.44" width="5.15" height="20.59"/>
        <rect class="cls-30" x="180.22" y="174.44" width="5.15" height="20.59"/>
        <rect class="cls-6" x="185.37" y="174.44" width="2.57" height="20.59"/>
        <rect class="cls-21" x="185.37" y="174.44" width="2.57" height="20.59"/>
        <rect class="cls-6" x="168.64" y="175.72" width="7.72" height="19.3"/>
        <rect class="cls-30" x="168.64" y="175.72" width="7.72" height="19.3"/>
        <rect class="cls-6" x="130.04" y="173.15" width="5.15" height="21.88"/>
        <rect class="cls-23" x="130.04" y="173.15" width="5.15" height="21.88"/>
        <rect class="cls-6" x="127.46" y="173.15" width="3.86" height="21.88"/>
        <rect class="cls-23" x="127.46" y="173.15" width="3.86" height="21.88"/>
        <rect class="cls-6" x="135.18" y="174.44" width="7.72" height="20.59"/>
        <rect class="cls-30" x="135.18" y="174.44" width="7.72" height="20.59"/>
        <rect class="cls-6" x="142.9" y="174.44" width="3.86" height="20.59"/>
        <rect class="cls-5" x="142.9" y="174.44" width="3.86" height="20.59"/>
        <rect class="cls-6" x="119.74" y="174.44" width="5.15" height="20.59"/>
        <rect class="cls-30" x="119.74" y="174.44" width="5.15" height="20.59"/>
        <rect class="cls-6" x="124.89" y="174.44" width="2.57" height="20.59"/>
        <rect class="cls-5" x="124.89" y="174.44" width="2.57" height="20.59"/>
        <rect class="cls-6" x="212.39" y="219.48" width="65.63" height="43.75"/>
        <rect class="cls-19" x="220.12" y="219.48" width="57.91" height="43.75"/>
        <path class="cls-6" d="m221.4,209.19v2.54c-.14.02-.23.15-.2.29.02.1.1.18.2-.27h2.58v-3.86h-2.58c-.13.84-.22.97-.2,1.1.02.1.1.18.2.2Z"/>
        <path class="cls-21" d="m221.4,209.19v2.54c-.14.02-.23.15-.2.29.02.1.1.18.2-.27h2.58v-3.86h-2.58c-.13.84-.22.97-.2,1.1.02.1.1.18.2.2Z"/>
        <rect class="cls-6" x="221.4" y="209.18" width="2.57" height="2.57"/>
        <rect class="cls-5" x="221.4" y="209.18" width="2.57" height="2.57"/>
        <path class="cls-6" d="m222.69,209.18h12.97c.54-.23.98.44.98,1.28s-.44,1.52-.98,1.3h-12.97v-2.57Z"/>
        <path class="cls-2" d="m222.69,209.18h12.97c.54-.23.98.44.98,1.28s-.44,1.52-.98,1.3h-12.97v-2.57Z"/>
        <path class="cls-6" d="m223.19,212.22c2.56,0,9.77.05,12.34,0,1.76,0,1.86-3.4.13-3.51-1.19-.09-3.64-.81-3.64-.81h-8.82s-.22.97-.2,1.1c.02.1.2.19.2.19h11.94c.57,0,.98,0,1.2.68s.13,1.77-.65,1.9c-.09,0-.18,0-.27,0h-12.22s-.22.13-.2.27c.02.1.1.18.2.2h0Z"/>
        <g class="cls-31">
          <path class="cls-18" d="m223.19,212.22c2.56,0,9.77.05,12.34,0,1.76,0,1.86-3.4.13-3.51-1.19-.09-3.64-.81-3.64-.81h-8.82s-.22.97-.2,1.1c.02.1.2.19.2.19h11.94c.57,0,.98,0,1.2.68s.13,1.77-.65,1.9c-.09,0-.18,0-.27,0h-12.22s-.22.13-.2.27c.02.1.1.18.2.2h0Z"/>
        </g>
        <path class="cls-6" d="m221.4,212.63v2.39c.31,0,.21.1.21.22,0,.12.1.22.22.38h2.14v-3.86h-2.14c-.12.47-.19.6-.15.73.02.07.08.12-.29.15Z"/>
        <path class="cls-21" d="m221.4,212.63v2.39c.31,0,.21.1.21.22,0,.12.1.22.22.38h2.14v-3.86h-2.14c-.12.47-.19.6-.15.73.02.07.08.12-.29.15Z"/>
        <rect class="cls-6" x="221.4" y="213.04" width="2.57" height="2.57"/>
        <rect class="cls-5" x="221.4" y="213.04" width="2.57" height="2.57"/>
        <path class="cls-6" d="m223.98,213.04h10.62c.45,0,.83.57.83,1.29s-.37,1.29-.83,1.29h-10.62v-2.57Z"/>
        <path class="cls-2" d="m223.98,213.04h10.62c.45,0,.83.57.83,1.29s-.37,1.29-.83,1.29h-10.62v-2.57Z"/>
        <path class="cls-6" d="m224.03,216.03c2.19,0,8.29.04,10.47,0,1.46,0,1.57-2.88.11-2.98-1.02-.07-2.07,0-3.09,0h-8.03s-.21-.73-.18-.6c.02.09.18.6.18.6h11c.57,0,.97,0,1.19.68s.13,1.74-.64,1.9h-11c-.11,0-.2.09-.2.2,0,.11.09.2.2.2Z"/>
        <path class="cls-6" d="m221.4,215.93v2.8c-1.06.03-1.16.17-1.13.31.02.11.11.2.22.43h3.49v-3.86h-3.49c-.15-.24-.28-.12-.28.04s.12.28.28.28h.91Z"/>
        <path class="cls-21" d="m221.4,215.93v2.8c-1.06.03-1.16.17-1.13.31.02.11.11.2.22.43h3.49v-3.86h-3.49c-.15-.24-.28-.12-.28.04s.12.28.28.28h.91Z"/>
        <rect class="cls-6" x="220.12" y="215.62" width="2.57" height="2.57"/>
        <rect class="cls-5" x="220.12" y="215.62" width="2.57" height="2.57"/>
        <path class="cls-6" d="m222.69,215.62h13.52c.6.02,1.08.77,1.08,1.69s-.48,1.66-1.08,2.17h-13.52v-3.86Z"/>
        <path class="cls-2" d="m222.69,215.62h13.52c.6.02,1.08.77,1.08,1.69s-.48,1.66-1.08,2.17h-13.52v-3.86Z"/>
        <path class="cls-6" d="m222.46,219.27c2.83,0,10.78.05,13.6,0,1.94,0,2.05-3.74.14-3.88-1.32-.09-3.98.23-3.98.23h-9.76s-.27-.1-.27.05c0,.15.27,1.24.27,1.24h13.22c.57,0,.98,0,1.2.67s.13,1.77-.65,1.9h-13.77s-.25-.58-.22-.43c.02.11.11.2.22.22h0Z"/>
        <g class="cls-31">
          <path class="cls-11" d="m222.46,219.27c2.83,0,10.78.05,13.6,0,1.94,0,2.05-3.74.14-3.88-1.32-.09-3.98.23-3.98.23h-9.76s-.27-.1-.27.05c0,.15.27,1.24.27,1.24h13.22c.57,0,.98,0,1.2.67s.13,1.77-.65,1.9h-13.77s-.25-.58-.22-.43c.02.11.11.2.22.22h0Z"/>
        </g>
        <path class="cls-6" d="m221.4,203.92v1.27c-.34,0-.34.24-.1.13h2.68v-1.29h-2.68c-.24-.34-.24-.11.1-.11Z"/>
        <path class="cls-21" d="m221.4,203.92v1.27c-.34,0-.34.24-.1.13h2.68v-1.29h-2.68c-.24-.34-.24-.11.1-.11Z"/>
        <rect class="cls-6" x="221.4" y="204.04" width="1.29" height="1.29"/>
        <rect class="cls-5" x="221.4" y="204.04" width="1.29" height="1.29"/>
        <path class="cls-6" d="m222.69,204.04h9.25c.42-.1.65.36.51.77-.08.24-.27.43-.51.51h-9.25v-1.29Z"/>
        <path class="cls-2" d="m222.69,204.04h9.25c.42-.1.65.36.51.77-.08.24-.27.43-.51.51h-9.25v-1.29Z"/>
        <path class="cls-6" d="m222.63,205.32h9.21s1.39-1.58.1-1.64c-.9-.05-2.72-.93-2.72-.93h-6.59v1.29h8.93s.72-.11.88.22c.17.31.06.7-.25.87-.07.04-.23-1.09-.23-1.09h-9.33s-.23,1.4,0,1.4v-.11Z"/>
        <g class="cls-31">
          <path class="cls-18" d="m222.63,205.32h9.21s1.39-1.58.1-1.64c-.9-.05-2.72-.93-2.72-.93h-6.59v1.29h8.93s.72-.11.88.22c.17.31.06.7-.25.87-.07.04-.23-1.09-.23-1.09h-9.33s-.23,1.4,0,1.4v-.11Z"/>
        </g>
        <path class="cls-6" d="m221.4,205.64v1.18s0,.22.22-.21h2.36v-1.29h-2.36c-.22.09-.22.32-.22.32Z"/>
        <path class="cls-21" d="m221.4,205.64v1.18s0,.22.22-.21h2.36v-1.29h-2.36c-.22.09-.22.32-.22.32Z"/>
        <rect class="cls-6" x="221.4" y="205.32" width="1.29" height="1.29"/>
        <rect class="cls-5" x="221.4" y="205.32" width="1.29" height="1.29"/>
        <path class="cls-6" d="m222.69,205.32h7.92c.36,0,.64.29.64.64s-.29.64-.64.64h-7.92v-1.29Z"/>
        <path class="cls-2" d="m222.69,205.32h7.92c.36,0,.64.29.64.64s-.29.64-.64.64h-7.92v-1.29Z"/>
        <path class="cls-6" d="m222.69,206.61h8.69c.44.46.82.12.84-.32.02-.44-.75-.97-.75-.97h-8.62c-.22.13,0,1.29,0,1.29h8.25s.67-.93.8-.62c.16.29.05.64-.23.8-.07.04-.14.06-.21-.18h-8.6c-.22.25-.16.48-.16.48v-.48Z"/>
        <path class="cls-6" d="m220.12,207.29v1.4c.25,0,.25.27.5.49h2.07v-2.57h-2.07c-.25.41-.25.68-.5.68Z"/>
        <path class="cls-21" d="m220.12,207.29v1.4c.25,0,.25.27.5.49h2.07v-2.57h-2.07c-.25.41-.25.68-.5.68Z"/>
        <rect class="cls-6" x="221.4" y="207.9" width="1.29" height="1.29"/>
        <rect class="cls-5" x="221.4" y="207.9" width="1.29" height="1.29"/>
        <path class="cls-6" d="m222.69,207.9h9.67c.46-.74.84-.37.84.1s-.37.84-.84,1.19h-9.67v-1.29Z"/>
        <path class="cls-2" d="m222.69,207.9h9.67c.46-.74.84-.37.84.1s-.37.84-.84,1.19h-9.67v-1.29Z"/>
        <path class="cls-6" d="m222.09,209.18h10.15s1.04-.48,1.13-1.02c.09-.53-.27-1.04-.8-1.13-.07-.01-.15-.02-.22-.01-.99-.04-2.99-.41-2.99-.41h-7.26,9.87c.42,0,.73,0,.89.34.17.32.05.71-.27.88-.07.04-.14.06-.21.07-.07,0-.14,0-.2,0h-10.07s-.25,1.07,0,1.07v.22Z"/>
        <g class="cls-31">
          <path class="cls-11" d="m222.09,209.18h10.15s1.04-.48,1.13-1.02c.09-.53-.27-1.04-.8-1.13-.07-.01-.15-.02-.22-.01-.99-.04-2.99-.41-2.99-.41h-7.26,9.87c.42,0,.73,0,.89.34.17.32.05.71-.27.88-.07.04-.14.06-.21.07-.07,0-.14,0-.2,0h-10.07s-.25,1.07,0,1.07v.22Z"/>
        </g>
        <rect class="cls-6" x="249.71" y="177.01" width="1.29" height="41.18"/>
        <rect class="cls-24" x="249.71" y="177.01" width="1.29" height="41.18"/>
        <polygon class="cls-6" points="263.38 189.88 236.84 189.88 236.84 180.01 237.51 179.59 263.87 179.59 263.87 189.21 263.38 189.88"/>
        <rect class="cls-16" x="238.13" y="179.59" width="27.02" height="10.29"/>
        <path class="cls-22" d="m241.97,187.81l.35-.88c.49.27,1.04.38,1.59.32.6-.06.95-.32.91-.66-.08-.75-2.39-.09-2.53-1.59-.1-.97.67-1.69,1.98-1.83.57-.08,1.15,0,1.67.22l-.32.88c-.41-.2-.87-.28-1.32-.22-.63.07-.97.36-.93.69.08.8,2.39.11,2.53,1.55.1.97-.68,1.7-2,1.84-.66.09-1.33-.02-1.93-.31Z"/>
        <path class="cls-22" d="m249.79,186.38l-2.19.25-.5,1.08-1.16.13,2.52-5.04,1.08-.12,1.67,4.58-1.08.12-.33-.99Zm-.27-.8l-.6-1.8-.91,1.94,1.51-.14Z"/>
        <path class="cls-22" d="m252.12,182.38l1.1-.12-.35,3.9,2.39-.26-.08.91-3.45.38.39-4.81Z"/>
        <path class="cls-22" d="m257.19,182.71l-.09,1.04,2.18-.24-.07.86-2.2.25-.09,1.11,2.56-.28-.09.89-3.64.4.42-4.78,3.55-.39-.09.89-2.46.25Z"/>
        <path class="cls-6" d="m239.42,216.02v2.8c-.5.03-.6.17-.57.31.02.11.11.2.22.34h2.92v-3.86h-2.92c-.15-.14-.27-.02-.27.13s.12.27.62.27Z"/>
        <path class="cls-21" d="m239.42,216.02v2.8c-.5.03-.6.17-.57.31.02.11.11.2.22.34h2.92v-3.86h-2.92c-.15-.14-.27-.02-.27.13s.12.27.62.27Z"/>
        <rect class="cls-6" x="239.42" y="215.62" width="2.57" height="2.57"/>
        <rect class="cls-5" x="239.42" y="215.62" width="2.57" height="2.57"/>
        <path class="cls-6" d="m240.7,215.62h14.09c.6.13,1.08.88,1.08,1.8s-.48,1.66-1.08,2.06h-14.09v-3.86Z"/>
        <path class="cls-2" d="m240.7,215.62h14.09c.6.13,1.08.88,1.08,1.8s-.48,1.66-1.08,2.06h-14.09v-3.86Z"/>
        <path class="cls-6" d="m241.04,219.36c2.83,0,10.78.06,13.6,0,1.94,0,2.04-3.74.14-3.88-1.32-.09-3.98.14-3.98.14h-9.76s-.27-.02-.27.13c0,.15.27,1.15.27,1.15h13.21c.57,0,.98,0,1.2.67s.13,1.77-.65,1.9c-.09,0-.18,0-.26,0h-13.5s-.25-.49-.22-.34c.02.11.11.2.22.22h0Z"/>
        <g class="cls-31">
          <path class="cls-11" d="m241.04,219.36c2.83,0,10.78.06,13.6,0,1.94,0,2.04-3.74.14-3.88-1.32-.09-3.98.14-3.98.14h-9.76s-.27-.02-.27.13c0,.15.27,1.15.27,1.15h13.21c.57,0,.98,0,1.2.67s.13,1.77-.65,1.9c-.09,0-.18,0-.26,0h-13.5s-.25-.49-.22-.34c.02.11.11.2.22.22h0Z"/>
        </g>
        <path class="cls-6" d="m240.7,209.78v2.33c-.8,0-.89.1-.89.22,0,.12.1.22.22.71h3.25v-3.86h-3.25c-.13.14-.23.24-.23.37s.1.23.9.23Z"/>
        <path class="cls-21" d="m240.7,209.78v2.33c-.8,0-.89.1-.89.22,0,.12.1.22.22.71h3.25v-3.86h-3.25c-.13.14-.23.24-.23.37s.1.23.9.23Z"/>
        <rect class="cls-6" x="239.42" y="209.18" width="2.57" height="2.57"/>
        <rect class="cls-5" x="239.42" y="209.18" width="2.57" height="2.57"/>
        <path class="cls-6" d="m241.99,209.18h10.58c.46,0,.83.58.83,1.29s-.37,1.29-.83,1.29h-10.58v-2.57Z"/>
        <path class="cls-2" d="m241.99,209.18h10.58c.46,0,.83.58.83,1.29s-.37,1.29-.83,1.29h-10.58v-2.57Z"/>
        <path class="cls-6" d="m242.12,212.14c2.18,0,8.31.04,10.49,0,1.48,0,1.57-2.88.1-2.96-1.02-.07-2.07,0-3.09,0h-7.96s-.22.29-.22.41c0,.12.22.88.22.88h10.93s.88-.65,1.08-.04.12,1.59-.59,1.71c-.08,0-.24-.39-.24-.39h-10.7c-.11,0-.21.09-.21.21,0,.11.09.21.21.21l-.03-.03Z"/>
        <g class="cls-31">
          <path class="cls-18" d="m242.12,212.14c2.18,0,8.31.04,10.49,0,1.48,0,1.57-2.88.1-2.96-1.02-.07-2.07,0-3.09,0h-7.96s-.22.29-.22.41c0,.12.22.88.22.88h10.93s.88-.65,1.08-.04.12,1.59-.59,1.71c-.08,0-.24-.39-.24-.39h-10.7c-.11,0-.21.09-.21.21,0,.11.09.21.21.21l-.03-.03Z"/>
        </g>
        <path class="cls-6" d="m240.7,212.86v2.16c.1,0,0,.09,0,.21,0,.11.09.2.21.39h2.36v-2.57h-2.36c-.11-.57-.19-.46-.16-.35.02.08.08.15-.05.16Z"/>
        <path class="cls-21" d="m240.7,212.86v2.16c.1,0,0,.09,0,.21,0,.11.09.2.21.39h2.36v-2.57h-2.36c-.11-.57-.19-.46-.16-.35.02.08.08.15-.05.16Z"/>
        <rect class="cls-6" x="240.7" y="213.04" width="1.29" height="2.57"/>
        <rect class="cls-5" x="240.7" y="213.04" width="1.29" height="2.57"/>
        <path class="cls-6" d="m241.99,213.04h10.58c.45,0,.8.58.8,1.29s-.37,1.28-.8,1.28h-10.58v-2.57Z"/>
        <path class="cls-2" d="m241.99,213.04h10.58c.45,0,.8.58.8,1.29s-.37,1.28-.8,1.28h-10.58v-2.57Z"/>
        <path class="cls-6" d="m241.99,215.43c2.61,0,8.73.04,10.9,0,1.49,0,1.59-2.88.1-2.99-1.02-.06-2.06,0-3.08-.69h-7.49c-.11.69-.21.78-.21.9,0,.11.21.39.21.39h10.11s.8-.19,1,.39.11,1.48-.54,1.59c-.07,0-.15,0-.22.59h-10.35c-.11-.59-.21-.5-.21-.38,0,.11-.23.21-.23.21h0Z"/>
        <path class="cls-6" d="m241.99,204.54v1.27c-.23,0-.23.25,0-.49h2.57v-1.29h-2.57c-.23.26-.23.5,0,.5Z"/>
        <path class="cls-21" d="m241.99,204.54v1.27c-.23,0-.23.25,0-.49h2.57v-1.29h-2.57c-.23.26-.23.5,0,.5Z"/>
        <rect class="cls-6" x="241.99" y="204.04" width="1.29" height="1.29"/>
        <rect class="cls-5" x="241.99" y="204.04" width="1.29" height="1.29"/>
        <path class="cls-6" d="m243.28,204.04h9.36c.42.52.65.97.51,1.39-.08.24-.27.43-.51-.1h-9.36v-1.29Z"/>
        <path class="cls-2" d="m243.28,204.04h9.36c.42.52.65.97.51,1.39-.08.24-.27.43-.51-.1h-9.36v-1.29Z"/>
        <path class="cls-6" d="m243.32,205.32h9.21s.93.48.99,0c.06-.48-.28-.93-.76-.99-.05,0-.09,0-.14,0-.9-.05-2.72-.29-2.72-.29h-6.59v1.29h8.94s.72-.76.88-.43c.17.31.06.7-.25.87-.07.04-.23-.44-.23-.44h-9.32s-.23.76,0,0h-.03Z"/>
        <g class="cls-31">
          <path class="cls-18" d="m243.32,205.32h9.21s.93.48.99,0c.06-.48-.28-.93-.76-.99-.05,0-.09,0-.14,0-.9-.05-2.72-.29-2.72-.29h-6.59v1.29h8.94s.72-.76.88-.43c.17.31.06.7-.25.87-.07.04-.23-.44-.23-.44h-9.32s-.23.76,0,0h-.03Z"/>
        </g>
        <path class="cls-6" d="m243.28,206.26v1.18c-.29,0-.29.22-.08.46h2.65v-1.29h-2.65c-.22-.58-.22-.35.08-.35Z"/>
        <path class="cls-21" d="m243.28,206.26v1.18c-.29,0-.29.22-.08.46h2.65v-1.29h-2.65c-.22-.58-.22-.35.08-.35Z"/>
        <rect class="cls-6" x="243.28" y="206.61" width="1.29" height="1.29"/>
        <rect class="cls-5" x="243.28" y="206.61" width="1.29" height="1.29"/>
        <path class="cls-6" d="m244.57,206.61h7.92c.36,0,.64.29.64.64s-.29.64-.64.64h-7.92v-1.29Z"/>
        <path class="cls-2" d="m244.57,206.61h7.92c.36,0,.64.29.64.64s-.29.64-.64.64h-7.92v-1.29Z"/>
        <path class="cls-6" d="m244.44,207.9h8.53s.84-.54.86-.99c.02-.45-.77-1.58-.77-1.58h-8.62c-.22.72,0,1.29,0,1.29h8.25s.67-.34.8-.03c.16.28.06.63-.21.79-.07.04-.22-.77-.22-.77h-8.61s-.22,1.06,0,1.06v.22Z"/>
        <path class="cls-6" d="m241.99,207.94v1.4c.32,0,.32.27.57,1.12h2v-2.57h-2c-.25-.22-.25.05-.57.05Z"/>
        <path class="cls-21" d="m241.99,207.94v1.4c.32,0,.32.27.57,1.12h2v-2.57h-2c-.25-.22-.25.05-.57.05Z"/>
        <rect class="cls-6" x="243.28" y="207.9" width="1.29" height="1.29"/>
        <rect class="cls-5" x="243.28" y="207.9" width="1.29" height="1.29"/>
        <path class="cls-6" d="m244.57,207.9h9.73c.46-.08.83.29.83.75s-.37.83-.83.53h-9.73v-1.29Z"/>
        <path class="cls-2" d="m244.57,207.9h9.73c.46-.08.83.29.83.75s-.37.83-.83.53h-9.73v-1.29Z"/>
        <path class="cls-6" d="m244.03,210.47h10.15s1.02-1.16,1.09-1.69-.31-1.02-.84-1.09c-.05,0-.09,0-.14,0-.99-.05-2.99.21-2.99.21h-7.26,9.88c.42,0,.73,0,.89.34.17.31.06.69-.24.87-.07.04-.15.07-.24.08h-10.28v1.29Z"/>
        <g class="cls-31">
          <path class="cls-11" d="m244.03,210.47h10.15s1.02-1.16,1.09-1.69-.31-1.02-.84-1.09c-.05,0-.09,0-.14,0-.99-.05-2.99.21-2.99.21h-7.26,9.88c.42,0,.73,0,.89.34.17.31.06.69-.24.87-.07.04-.15.07-.24.08h-10.28v1.29Z"/>
        </g>
        <path class="cls-6" d="m260.01,209.33v2.55c-.13.02-.22.15-.19.29.02.1.1.18.2.88h2.57v-3.86h-2.57c-.14-.35-.25-.23-.25-.1,0,.14.11.25.24.25Z"/>
        <path class="cls-21" d="m260.01,209.33v2.55c-.13.02-.22.15-.19.29.02.1.1.18.2.88h2.57v-3.86h-2.57c-.14-.35-.25-.23-.25-.1,0,.14.11.25.24.25Z"/>
        <rect class="cls-6" x="260.01" y="209.18" width="2.57" height="2.57"/>
        <rect class="cls-5" x="260.01" y="209.18" width="2.57" height="2.57"/>
        <path class="cls-6" d="m261.29,209.18h13.01c.53-.09.97.59.97,1.42s-.44,1.51-.97,1.15h-13.01v-2.57Z"/>
        <path class="cls-2" d="m261.29,209.18h13.01c.53-.09.97.59.97,1.42s-.44,1.51-.97,1.15h-13.01v-2.57Z"/>
        <path class="cls-6" d="m261.82,212.36c2.56,0,9.78.05,12.34,0,1.75,0,1.85-3.4.13-3.52-1.2-.08-3.64-.95-3.64-.95h-8.83s-.22,1.1-.2,1.24c.02.1.2.05.2.05h11.94c.57,0,.97,0,1.19.68s.14,1.77-.64,1.9h-12.49c-.13.15-.22.28-.2.41.02.1.1.18.2.2h0Z"/>
        <g class="cls-31">
          <path class="cls-18" d="m261.82,212.36c2.56,0,9.78.05,12.34,0,1.75,0,1.85-3.4.13-3.52-1.2-.08-3.64-.95-3.64-.95h-8.83s-.22,1.1-.2,1.24c.02.1.2.05.2.05h11.94c.57,0,.97,0,1.19.68s.14,1.77-.64,1.9h-12.49c-.13.15-.22.28-.2.41.02.1.1.18.2.2h0Z"/>
        </g>
        <path class="cls-6" d="m257.43,212.76v2.39c-.57.02-.65.14-.63.27.02.09.09.17.18.2h3.02v-3.86h-3.02c-.12.62-.18.75-.14.87.02.07.07.12.58.14Z"/>
        <path class="cls-21" d="m257.43,212.76v2.39c-.57.02-.65.14-.63.27.02.09.09.17.18.2h3.02v-3.86h-3.02c-.12.62-.18.75-.14.87.02.07.07.12.58.14Z"/>
        <rect class="cls-6" x="256.15" y="213.04" width="2.57" height="2.57"/>
        <rect class="cls-5" x="256.15" y="213.04" width="2.57" height="2.57"/>
        <path class="cls-6" d="m258.72,213.04h10.58c.46,0,.83.58.83,1.28s-.37,1.29-.83,1.29h-10.58v-2.57Z"/>
        <path class="cls-2" d="m258.72,213.04h10.58c.46,0,.83.58.83,1.28s-.37,1.29-.83,1.29h-10.58v-2.57Z"/>
        <path class="cls-6" d="m259.17,216.03c2.19,0,8.31.04,10.5,0,1.46,0,1.57-2.89.1-2.99-1.02-.07-2.07,0-3.09,0h-8.04s-.22-.63-.22-.5c0,.12.22.5.22.5h10.99c.57,0,.98,0,1.2.68s.13,1.74-.65,1.9c-.09,0-.17,0-.26,0h-10.75c-.12.02-.19.13-.17.25.02.09.08.15.17.17Z"/>
        <path class="cls-6" d="m260.01,216.07v2.8c-1.05,0-1.17.12-1.17.27,0,.15.12.27.27.33h3.47v-3.86h-3.47c-.15-.09-.27.03-.27.18s.12.27,1.17.27Z"/>
        <path class="cls-21" d="m260.01,216.07v2.8c-1.05,0-1.17.12-1.17.27,0,.15.12.27.27.33h3.47v-3.86h-3.47c-.15-.09-.27.03-.27.18s.12.27,1.17.27Z"/>
        <rect class="cls-6" x="258.72" y="215.62" width="2.57" height="2.57"/>
        <rect class="cls-5" x="258.72" y="215.62" width="2.57" height="2.57"/>
        <path class="cls-6" d="m261.29,215.62h13.53c.59.18,1.08.93,1.08,1.85s-.49,1.67-1.08,2.01h-13.53v-3.86Z"/>
        <path class="cls-2" d="m261.29,215.62h13.53c.59.18,1.08.93,1.08,1.85s-.49,1.67-1.08,2.01h-13.53v-3.86Z"/>
        <path class="cls-6" d="m261.07,219.41c2.83,0,10.78.05,13.6,0,1.94-.04,2.04-3.75.14-3.88-1.32-.1-3.98.08-3.98.08h-9.76s-.25.08-.22.23c.02.11.22,1.06.22,1.06h13.22c.57,0,.97,0,1.19.68s.13,1.77-.64,1.89c-.09,0-.18,0-.27,0h-13.5s-.27-.48-.27-.33c0,.15.12.27.27.27Z"/>
        <g class="cls-31">
          <path class="cls-11" d="m261.07,219.41c2.83,0,10.78.05,13.6,0,1.94-.04,2.04-3.75.14-3.88-1.32-.1-3.98.08-3.98.08h-9.76s-.25.08-.22.23c.02.11.22,1.06.22,1.06h13.22c.57,0,.97,0,1.19.68s.13,1.77-.64,1.89c-.09,0-.18,0-.27,0h-13.5s-.27-.48-.27-.33c0,.15.12.27.27.27Z"/>
        </g>
        <path class="cls-6" d="m262.58,204.07v1.27c-.3,0-.3.25-.07,0h2.65v-1.29h-2.65c-.23-.22-.23.03.07.03Z"/>
        <path class="cls-21" d="m262.58,204.07v1.27c-.3,0-.3.25-.07,0h2.65v-1.29h-2.65c-.23-.22-.23.03.07.03Z"/>
        <rect class="cls-6" x="262.58" y="204.04" width="1.29" height="1.29"/>
        <rect class="cls-5" x="262.58" y="204.04" width="1.29" height="1.29"/>
        <path class="cls-6" d="m263.87,204.04h9.29c.42.03.65.48.52.9-.08.25-.27.45-.52.39h-9.29v-1.29Z"/>
        <path class="cls-2" d="m263.87,204.04h9.29c.42.03.65.48.52.9-.08.25-.27.45-.52.39h-9.29v-1.29Z"/>
        <path class="cls-6" d="m263.85,206.61h9.21s.93-1.31.99-1.79c.06-.48-.28-.93-.76-.99-.05,0-.09,0-.14,0-.9-.04-2.72-1.07-2.72-1.07h-6.59v1.29h8.9c.43,0,.73,0,.9.34.17.31.06.7-.25.87-.07.04-.16.07-.24.08h-9.31s-.24.26,0,.26v1.03Z"/>
        <g class="cls-31">
          <path class="cls-18" d="m263.85,206.61h9.21s.93-1.31.99-1.79c.06-.48-.28-.93-.76-.99-.05,0-.09,0-.14,0-.9-.04-2.72-1.07-2.72-1.07h-6.59v1.29h8.9c.43,0,.73,0,.9.34.17.31.06.7-.25.87-.07.04-.16.07-.24.08h-9.31s-.24.26,0,.26v1.03Z"/>
        </g>
        <path class="cls-6" d="m260.01,205.78v1.18s0,.23.22-.35h2.35v-1.29h-2.35c-.21.23-.21.46-.22.46Z"/>
        <path class="cls-21" d="m260.01,205.78v1.18s0,.23.22-.35h2.35v-1.29h-2.35c-.21.23-.21.46-.22.46Z"/>
        <rect class="cls-6" x="260.01" y="205.32" width="1.29" height="1.29"/>
        <rect class="cls-5" x="260.01" y="205.32" width="1.29" height="1.29"/>
        <path class="cls-6" d="m261.29,205.32h7.92c.36,0,.64.29.64.64s-.29.64-.64.64h-7.92v-1.29Z"/>
        <path class="cls-2" d="m261.29,205.32h7.92c.36,0,.64.29.64.64s-.29.64-.64.64h-7.92v-1.29Z"/>
        <path class="cls-6" d="m261.47,207.9h8.53s.84-1.03.86-1.48c.02-.45-.77-1.09-.77-1.09h-8.62c-.22.23,0,1.29,0,1.29h8.25s.66-.83.8-.52c.16.29.05.64-.23.8-.06.04-.21-.28-.21-.28h-8.61s-.22.58,0,.58v.71Z"/>
        <path class="cls-6" d="m261.29,207.43v1.4c.27,0,.27.26.53.35h2.05v-2.57h-2.05c-.25.55-.25.83-.53.83Z"/>
        <path class="cls-21" d="m261.29,207.43v1.4c.27,0,.27.26.53.35h2.05v-2.57h-2.05c-.25.55-.25.83-.53.83Z"/>
        <rect class="cls-6" x="262.58" y="207.9" width="1.29" height="1.29"/>
        <rect class="cls-5" x="262.58" y="207.9" width="1.29" height="1.29"/>
        <path class="cls-6" d="m263.87,207.9h9.69c.46-.6.84-.22.84.24s-.37.84-.84,1.05h-9.69v-1.29Z"/>
        <path class="cls-2" d="m263.87,207.9h9.69c.46-.6.84-.22.84.24s-.37.84-.84,1.05h-9.69v-1.29Z"/>
        <path class="cls-6" d="m263.3,209.18h10.15s1.02-.39,1.09-.92c.07-.53-.31-1.02-.84-1.09-.05,0-.09,0-.14,0-.99-.05-2.99.73-2.99.73h-7.26,9.82s.8-.46.97-.09c.19.34.07.77-.27.95-.08.04-.16.07-.25.08-.07,0-.22-.94-.22-.94h-10.05s-.25,1.2,0,1.2v.08Z"/>
        <g class="cls-31">
          <path class="cls-11" d="m263.3,209.18h10.15s1.02-.39,1.09-.92c.07-.53-.31-1.02-.84-1.09-.05,0-.09,0-.14,0-.99-.05-2.99.73-2.99.73h-7.26,9.82s.8-.46.97-.09c.19.34.07.77-.27.95-.08.04-.16.07-.25.08-.07,0-.22-.94-.22-.94h-10.05s-.25,1.2,0,1.2v.08Z"/>
        </g>
      </g>
      <g id="freepik--character-2--inject-62">
        <path class="cls-6" d="m363.05,180.4l9.07,44,3.86,37.09,6.18-1.01s.36-18.64-1.45-38.12c-1.59-17.6-5.41-35.88-6.08-41.74l-2.45-3.98-4.55.74-4.58,3.03Z"/>
        <g class="cls-31">
          <path class="cls-11" d="m363.05,180.4l9.07,44,3.86,37.09,6.18-1.01s.36-18.64-1.45-38.12c-1.59-17.6-5.41-35.88-6.08-41.74l-2.45-3.98-4.55.74-4.58,3.03Z"/>
        </g>
        <path class="cls-6" d="m356.52,180.57l-.04,81.37h6s4.4-66.79,4.97-79.28l-1.71-4.36h-4.42l-4.8,2.28Z"/>
        <g class="cls-31">
          <path class="cls-11" d="m356.52,180.57l-.04,81.37h6s4.4-66.79,4.97-79.28l-1.71-4.36h-4.42l-4.8,2.28Z"/>
        </g>
        <path class="cls-4" d="m360.35,171.83c1.45-.15,2.89-.39,4.31-.72.64-.23,1.26-.52,1.83-.88l1.35.87s1.93,2.39.37,3.45c-1.55,1.06-7.83-.46-7.83-.46l-.03-2.25Z"/>
        <path class="cls-6" d="m358.29,171.21c.93-.17,1.89-.13,2.8.11-.31,1.05-.27,2.17.13,3.19l-2.84-.11-.1-3.19Z"/>
        <path class="cls-1" d="m358.29,171.21c.93-.17,1.89-.13,2.8.11-.31,1.05-.27,2.17.13,3.19l-2.84-.11-.1-3.19Z"/>
        <path class="cls-22" d="m352.8,149.65s-4.88.96-6.75,15.36c-.37,2.92-1.87,9.47,6.28,9.99l7.06-.16c-.46-1.26-.5-2.64-.14-3.93,0,0-5.03-1.29-8.16-2.21,0,0,1.66-7.96,3.23-9.01,0,0,.51-7.22-1.53-10.05Z"/>
        <path class="cls-22" d="m375.66,182.28c-.24-1.58-.35-3.18-.31-4.78.69-15.2.05-24.56-.18-27.22-.03-.47-.35-.87-.8-1.02-10.62-3.19-18.6-1-21.17-.1-.52.17-.85.68-.8,1.23.47,4.48,2.56,24.6,2.9,31.86.05,1.07,0,3.65,0,5.07,0,.58.41,1.08.98,1.17,2.39.41,8.31,1.15,10.12-.94.41-.46,1.12-.51,1.59-.11,1.12.83,2.51,1.2,3.89,1.01,1.28-.08,2.56-.22,3.83-.42.64-.12,1.06-.74.94-1.38,0-.02,0-.05-.02-.07-.34-1.27-.86-3.34-.99-4.28Z"/>
        <path class="cls-4" d="m366,147.69l-1.06-6.31-4.56-1.4v7.77l2.13,1.87,2.39-.11,1.59-1.77-.49-.06Z"/>
        <path class="cls-18" d="m367.14,148.02c0,.33-.34,8.68-1.04,20.56h0l-6.94-20.47.34-.07,3.93,1.95h1.19l2.21-2.02h0l.3.06Z"/>
        <polygon class="cls-6" points="360.08 147.42 364.22 149.51 362.48 151.81 359.17 147.63 360.08 147.42"/>
        <polygon class="cls-10" points="360.08 147.42 364.22 149.51 362.48 151.81 359.17 147.63 360.08 147.42"/>
        <polygon class="cls-6" points="366.81 147.53 366.81 147.54 365.44 151.81 363.8 149.64 363.7 149.51 363.76 149.44 365.97 147.39 366.5 147.48 366.54 147.49 366.81 147.53"/>
        <polygon class="cls-10" points="366.81 147.53 366.81 147.54 365.44 151.81 363.8 149.64 363.7 149.51 363.76 149.44 365.97 147.39 366.5 147.48 366.54 147.49 366.81 147.53"/>
        <rect class="cls-18" x="368.1" y="157.71" width="6.43" height="3.86"/>
        <path class="cls-26" d="m360.38,141.79c1.17,1.68,3.01,2.77,5.05,2.99l-.49-3.4-4.56-1.4v1.81Z"/>
        <path class="cls-4" d="m397.21,151.88c.65-1.22,1.9-2.02,3.28-2.09.86-.42,1.8-.65,2.76-.68l1.52,2.02s-1.59,2.73-4.13,2.49l-2.98.29-.45-2.03Z"/>
        <path class="cls-6" d="m395.52,152.39l1.35-1.31c1.24.89,2.1,2.23,2.39,3.73l-2.09.6-1.66-3.02Z"/>
        <path class="cls-1" d="m395.52,152.39l1.35-1.31c1.24.89,2.1,2.23,2.39,3.73l-2.09.6-1.66-3.02Z"/>
        <path class="cls-22" d="m395.21,152.08c-3.55,2-7.44,3.32-11.47,3.91-2.98-3.01-6.55-5.36-10.5-6.9v5.81s6.15,5.71,10.07,6.37c3.11.5,10.82-3.98,13.88-5.82-.4-1.26-1.08-2.42-1.98-3.38Z"/>
        <path class="cls-4" d="m357.93,136c.37,3.48.46,4.95,2.3,6.66,2.78,2.56,6.96,1.35,7.64-2.17.6-3.19-.12-8.33-3.6-9.56-2.48-.88-5.2.41-6.09,2.88-.26.7-.34,1.45-.25,2.19Z"/>
        <path class="cls-22" d="m363.53,136.66c0,.29.18.51.36.5s.33-.25.32-.53-.18-.51-.37-.5-.31.25-.31.53Z"/>
        <path class="cls-22" d="m366.73,136.51c0,.29.18.51.36.5s.33-.25.32-.53-.18-.51-.36-.5-.33.25-.32.53Z"/>
        <path class="cls-7" d="m365.77,137.08c.28.63.65,1.23,1.1,1.76-.28.22-.65.31-1,.24l-.1-2Z"/>
        <path class="cls-22" d="m362.17,135.94c.07.01.14-.02.18-.09.32-.44.8-.73,1.34-.8.09-.01.16-.1.14-.19,0,0,0,0,0,0-.01-.09-.09-.15-.18-.14h0c-.65.1-1.23.47-1.59,1.02-.04.08,0,.18.07.22h0l.05-.02Z"/>
        <path class="cls-22" d="m367.64,135.13c.06,0,.12-.02.16-.06.06-.06.06-.17,0-.23-.4-.37-.97-.5-1.5-.36-.08.02-.13.1-.11.18,0,0,0,0,0,.01h0c.03.08.11.13.2.11,0,0,0,0,0,0h0c.42-.09.85.02,1.17.3.02.02.04.04.07.06Z"/>
        <path class="cls-22" d="m366.26,139.63c-.12.44-.2.9-.25,1.35h-.24c-1.11.05-1.59-.29-1.88-.69-.12-.19-.19-.41-.21-.64-.02-.13-.02-.26,0-.39.69.27,1.44.4,2.18.36h.39Z"/>
        <path class="cls-18" d="m365.88,139.84l-.08.4c-.73.11-1.47-.01-2.12-.37-.02-.13-.02-.26,0-.39.7.28,1.45.4,2.2.36Z"/>
        <path class="cls-17" d="m365.77,141.2c-1.11.05-1.59-.29-1.88-.69.42,0,.84.06,1.23.19.26.1.49.27.65.5Z"/>
        <path class="cls-22" d="m358.79,140.7s2.43-4.7,1.29-5.89.05-1.47.05-1.47c7.47-.23,7.1-2.63,6.11-4.13-.57-.87-1.52-1.43-2.56-1.51h0c-.81,0-1.5.6-1.59,1.4h0s-7.96-.67-5.69,6.86c.69,1.63,1.49,3.22,2.39,4.75Z"/>
        <path class="cls-22" d="m363.51,138.95c.41.66,1.21.97,1.96.74.25-.06.43-.26.47-.51-.37-.06-.8.22-1.19.2s-1.06-.12-1.23-.43Z"/>
        <path class="cls-22" d="m368.33,138.95c-.41.66-1.21.97-1.96.74-.25-.05-.44-.26-.47-.51.36-.06.8.22,1.19.2s1.05-.12,1.23-.43Z"/>
        <path class="cls-4" d="m357.11,138.41c.25.61.73,1.1,1.34,1.36.8.33,1.32-.37,1.19-1.19s-.7-1.81-1.59-1.81c-.62.02-1.11.54-1.09,1.16,0,.17.05.34.13.49h.03Z"/>
      </g>
      <g id="freepik--Cashier--inject-62">
        <polygon class="cls-6" points="414.9 166.72 417.9 166.72 419.02 153.85 416.02 153.85 414.9 166.72"/>
        <polygon class="cls-15" points="414.9 166.72 417.9 166.72 419.02 153.85 416.02 153.85 414.9 166.72"/>
        <polygon class="cls-6" points="393.81 182.16 419.02 182.16 420.82 161.57 395.6 161.57 393.81 182.16"/>
        <polygon class="cls-19" points="396.61 182.16 418.69 182.16 420.26 164.14 398.19 164.14 396.61 182.16"/>
        <rect class="cls-22" x="404.13" y="170.58" width="7.72" height="7.72"/>
        <rect class="cls-23" x="404.13" y="170.58" width="7.72" height="7.72"/>
        <rect class="cls-22" x="404.13" y="177.01" width="7.72" height="7.72"/>
        <polygon class="cls-6" points="388.69 191.17 422.15 191.17 422.15 184.73 395.74 184.73 388.69 188.03 388.69 191.17"/>
        <rect class="cls-19" x="396.41" y="184.73" width="25.74" height="6.43"/>
        <polygon class="cls-6" points="405.97 156.42 425.67 156.24 426.33 148.7 406.64 148.88 405.97 156.42"/>
        <polygon class="cls-22" points="406.75 155.14 424.94 155.14 425.45 149.99 407.24 149.99 406.75 155.14"/>
        <rect class="cls-6" x="326.92" y="192.45" width="102.95" height="72.06"/>
        <g class="cls-31">
          <rect class="cls-11" x="326.92" y="192.45" width="102.95" height="72.06"/>
        </g>
      </g>
      <g id="freepik--character-1--inject-62">
        <path class="cls-22" d="m320.96,206.39s-.62,1.78-1.59,4.5c0,.02,0,.04,0,.06-.68,1.93-1.54,4.32-2.47,6.87-1.78,4.93-3.84,10.45-5.43,14.38-2.22,5.47-12.35,23.45-12.35,23.45l-5.89-2.66s9.76-20.64,11.64-27.08c2.49-8.51,3.31-21.22,6.44-30.41.29-.86.61-1.69.95-2.48,0,0,9.63,7.37,10.17,7.96s-1.47,5.42-1.47,5.42Z"/>
        <path class="cls-15" d="m318.46,202.36s.44,3.82.9,8.59c-.68,1.93-1.02-4.05-6.75-12.74,1.56,1.86,3.57,3.29,5.85,4.16Z"/>
        <path class="cls-15" d="m318.12,200.51l4.24,2.01-2.68,7.57s1.8-7.33-1.56-9.59Z"/>
        <polygon class="cls-8" points="294.48 252.87 292.93 256.21 295.73 257.93 297.68 254.42 294.48 252.87"/>
        <polygon class="cls-19" points="293.56 254.85 296.54 256.46 297.1 255.47 293.93 254.06 293.56 254.85"/>
        <polygon class="cls-6" points="293.53 251.09 300.75 254.12 299.09 256.35 292.78 253.56 293.53 251.09"/>
        <path class="cls-6" d="m296.3,258.48s-.02-.07,0-.1c.01-.03.04-.06.08-.06.06,0,1.59,0,2.06.43.08.09.14.2.14.32.02.14-.06.28-.18.35-.39.05-.79-.06-1.11-.29-.35-.19-.68-.41-.99-.65Zm-.26,0c.58.42,1.42.88,1.69.74.04,0,.09-.05.08-.18,0-.08-.03-.15-.09-.2l-.14-.1c-.49-.17-1.01-.25-1.54-.23v-.03Z"/>
        <path class="cls-6" d="m296.26,258.45s-.02-.06,0-.09c0,0,.61-.88,1.22-1,.18-.04.37,0,.52.1.2.14.21.29.17.38-.14.41-1.33.69-1.82.65h0s-.07-.02-.08-.06Zm1.07-.42c-.1-.05-.22-.07-.33-.05-.41.15-.76.43-1,.8.54,0,1.06-.19,1.48-.53,0,0,0-.09-.1-.18h-.05v-.05Z"/>
        <path class="cls-22" d="m296.22,257.85l-3.62-2c-.14-.07-.31-.04-.41.07l-2.28,2.59c-.21.22-.2.57.02.78,0,0,.01.01.02.02l.1.07c1.32.69,2.52,1.27,4.15,2.17,1.92,1.06,1.31,1.02,3.54,2.29,1.35.8,2.44-.65,1.91-1.04-2.45-1.78-2.29-2.73-2.79-4.24-.12-.31-.34-.56-.64-.72Z"/>
        <path class="cls-22" d="m328.29,144.56c.07.27,0,.53-.19.57s-.39-.15-.45-.41,0-.53.19-.57.37.14.45.41Z"/>
        <path class="cls-22" d="m327.69,144.14c.28,0,.52-.2.58-.48,0,.16-.04.32-.1.46-.07.14-.23.22-.39.18l-.09-.17Z"/>
        <path class="cls-25" d="m327.69,145.41l1.8,1.47c-.45.41-1.06.58-1.66.47l-.14-1.94Z"/>
        <path class="cls-8" d="m319.16,156.61s2.3-.61,1.59-4.91c0,0,2.01-1.32,3.61-.26,1.59,1.06-.61,4.44,1.32,5.42s-6.52-.25-6.52-.25Z"/>
        <path class="cls-19" d="m324.96,152.83l-1.59.28c.29.71.8,1.31,1.47,1.69.02-.65.14-1.35.12-1.97Z"/>
        <path class="cls-8" d="m317.68,146.02c.73,3.62.97,5.18,3.07,6.79,3.19,2.39,7.46.73,7.83-3.03.33-3.39-.93-8.76-4.71-9.71-2.7-.69-5.44.93-6.14,3.63,0,0,0,0,0,0-.2.76-.22,1.55-.05,2.32Z"/>
        <path class="cls-22" d="m327.96,142.7s-.07.07-.11.09c-.35.07-.64.31-.8.63-.03.07-.11.11-.18.08-.08-.03-.11-.11-.09-.19.2-.42.59-.72,1.04-.8.08-.02.15.03.17.1,0,0,0,0,0,0h0s-.02.06-.04.08Z"/>
        <path class="cls-6" d="m318.25,157l.41-1.09c.18-.48.65-.78,1.15-.75,1.96.13,6.63.51,7.34,1.17.54.5.88,1.17.96,1.9l-9.88-1.23Z"/>
        <g class="cls-32">
          <path class="cls-16" d="m318.25,157l.41-1.09c.18-.48.65-.78,1.15-.75,1.96.13,6.63.51,7.34,1.17.54.5.88,1.17.96,1.9l-9.88-1.23Z"/>
        </g>
        <path class="cls-6" d="m314.04,166.63l-4.87,4.25c-1.43,1.24-2.25,3.04-2.26,4.93-.05,4.27-.22,10.35-.22,10.35-1.1,1.11-3.33.46-3.33.46-1.25-4.88-1.36-9.98-.31-14.9,1.04-4.49,8.04-12.68,12.53-14.67.74-.32,1.51-.53,2.31-.64h.84l-4.34,10.44-.35-.23Z"/>
        <g class="cls-36">
          <path class="cls-11" d="m314.04,166.63l-4.87,4.25c-1.43,1.24-2.25,3.04-2.26,4.93-.05,4.27-.22,10.35-.22,10.35-1.1,1.11-3.33.46-3.33.46-1.25-4.88-1.36-9.98-.31-14.9,1.04-4.49,8.04-12.68,12.53-14.67.74-.32,1.51-.53,2.31-.64h.84l-4.34,10.44-.35-.23Z"/>
        </g>
        <path class="cls-6" d="m333.44,171.29c.54-2.02.46-4.16-.22-6.13-.23-.8-.25-1.59-.45-2.25-1.98-6.44-7.88-5.95-13.44-6.37-5.55-.42-5.91,2.31-5.36,9.33s1.51,18.32,1.51,18.32l15.4,3.03s.22-8.78,2.56-15.92Z"/>
        <path class="cls-22" d="m324.16,147.94c1.25,1.5,2.38,3.09,3.36,4.78,1.05,2.01-5.46,3.98-7.45,3.19-2.84-1.05,4.09-7.96,4.09-7.96Z"/>
        <path class="cls-22" d="m325.92,147.29s3.46-7.85-.19-9.09c-5.84-1.98-10.18.09-13.87,5.34-3.86,5.5-.3,9.52,5.49,11.78,7.73,3.02,8.15-3.65,7.45-6.67,0,0,.69-.11,1.12-1.36Z"/>
        <path class="cls-8" d="m325.17,145.78c.63.42,1.07,1.07,1.22,1.81.19.98-.71,1.4-1.59,1.07-.88-.33-1.86-1.17-1.66-2.13.16-.69.85-1.13,1.55-.97.17.04.34.12.48.22Z"/>
        <polygon class="cls-8" points="318.33 258.87 317.96 262.24 321.16 262.97 321.84 259.34 318.33 258.87"/>
        <polygon class="cls-19" points="321.55 260.87 321.71 260.01 318.24 259.7 318.13 260.72 321.55 260.87"/>
        <path class="cls-22" d="m323.2,258.08l-5.96-.07s2.52-19.95,2.68-28.54c.06-3.51,0-12.88-.56-18.48,0-.02,0-.05,0-.07-.46-4.78-.9-8.59-.9-8.59-2.27-.87-4.29-2.32-5.85-4.19-.61-.79-1.06-1.69-1.31-2.65-.12-.43-.19-.88-.22-1.33-.34-5.44,4.4-10.02,4.4-10.02l15.4,3.04s-.33,10.11-.54,13.48c-.42,6.8.25,19.58-.59,26.34-1.13,9.15-6.56,31.08-6.56,31.08Z"/>
        <polygon class="cls-6" points="316.37 256.96 324.18 257.5 323.32 260.15 316.46 259.54 316.37 256.96"/>
        <path class="cls-6" d="m321.83,263.3s-.06-.05-.06-.09c0-.04.02-.07.06-.08.06,0,1.5-.54,2.09-.27.11.05.2.14.25.25.07.13.04.29-.06.39-.36.17-.77.21-1.15.1-.38-.07-.76-.17-1.12-.3Zm.31-.07c.68.21,1.59.37,1.84.15,0,0,.06-.08,0-.2-.03-.07-.09-.13-.16-.15-.05-.02-.1-.04-.16-.05-.52-.01-1.03.07-1.52.25h0Z"/>
        <path class="cls-6" d="m321.78,263.21s-.02-.06,0-.08c0-.05.29-1.04.8-1.35.16-.09.34-.12.52-.07.24.06.29.21.29.31,0,.43-1.03,1.08-1.51,1.21h-.04s-.04,0-.06-.02Zm1.23-1.26c-.11-.02-.23,0-.33.06-.33.28-.58.65-.69,1.07.52-.2,1.21-.73,1.23-.99,0,0,0-.09-.16-.14h-.06Z"/>
        <path class="cls-22" d="m321.55,262.39l-4.09-.69c-.15-.03-.3.06-.36.2l-1.31,3.19c-.12.28.01.6.29.72h.11c1.47.22,2.8.37,4.63.68,2.16.37,1.59.53,4.1,1,1.53.29,2.1-1.41,1.47-1.59-2.91-.88-3.07-1.83-4.03-3.09-.22-.23-.51-.38-.83-.42Z"/>
        <path class="cls-19" d="m335.55,172.55c-1.76-2.07-2.64-5.48-4.4-7.55-.59-.68,1.32-3.7.56-4.19-2-1.29-5.9,2-5.43,4.24.34,1.65,4.95,7.23,9.28,7.49Z"/>
        <path class="cls-8" d="m351.59,173.98c0-.16,3.77-3.01,3.77-3.01l-.25,3.79-1.89,1.46s-1.25-.1-1.64-2.24Z"/>
        <path class="cls-8" d="m355.37,170.97l3.07.2-1.15,3.31-2.17.29s-1.07-2.3.25-3.79Z"/>
        <path class="cls-6" d="m325.77,162.55c1.39,2.24,2.86,4.32,4.44,6.37,1.61,2.07,3.34,4.05,5.18,5.91.47.48.97.94,1.47,1.39.69.65,1.5,1.16,2.39,1.49,1.49.49,3.04.74,4.61.73,2.8,0,5.58-.36,8.28-1.09.8-.22.2-.73,0-1.52-.15-.63-.44-1.38-1.11-1.39h.8c-2.47-.03-4.93-.22-7.37-.58-1.02-.15-2.01-.45-2.95-.88-.15-.08-.28-.17-.41-.28-.04-.03-.07-.07-.1-.11l-.22-.23c-.4-.43-.8-.85-1.18-1.31-1.59-1.79-3.03-3.75-4.45-5.73s-2.86-3.98-4.18-6.01h0c-.94-1.36-2.8-1.71-4.17-.8-1.4.84-1.86,2.66-1.01,4.07,0,0,.01.02.02.03l-.03-.06Z"/>
        <polygon class="cls-6" points="349.49 173.62 351.54 178.51 353.18 176.84 351.08 172.55 349.49 173.62"/>
        <polygon class="cls-16" points="349.49 173.62 351.54 178.51 353.18 176.84 351.08 172.55 349.49 173.62"/>
        <path class="cls-8" d="m306.23,186.97l1.3,1.81c.04.06.07.13.09.2l.56,2.6c.03.14,0,.29-.08.41l-.54.8c-.09.14-.24.23-.41.24l-3.13.23c-.3.02-.56-.21-.57-.51,0,0,0,0,0,0l-.17-3.35c-.01-.06-.01-.13,0-.19l.68-2.05c.07-.21.26-.36.48-.37l1.31-.06c.19-.01.38.08.49.25Z"/>
        <polygon class="cls-6" points="307.64 186.28 302.57 187.83 302.81 185.5 307.45 184.38 307.64 186.28"/>
        <polygon class="cls-16" points="307.64 186.28 302.57 187.83 302.81 185.5 307.45 184.38 307.64 186.28"/>
        <path class="cls-6" d="m364.24,182.03v2.44c-.24.02-.15.15-.17.28-.02.1-.09.17-.19-.02h-2.21v-3.86h2.21c.13.67.24.78.24.91s-.11.24-.24.24h.37Z"/>
        <path class="cls-21" d="m364.24,182.03v2.44c-.24.02-.15.15-.17.28-.02.1-.09.17-.19-.02h-2.21v-3.86h2.21c.13.67.24.78.24.91s-.11.24-.24.24h.37Z"/>
        <rect class="cls-6" x="361.67" y="182.16" width="2.57" height="2.57"/>
        <rect class="cls-5" x="361.67" y="182.16" width="2.57" height="2.57"/>
        <path class="cls-6" d="m361.67,182.16h-11.51c-.52-.36-.94.29-.94,1.1s.42,1.46.94,1.48h11.51v-2.57Z"/>
        <path class="cls-2" d="m361.67,182.16h-11.51c-.52-.36-.94.29-.94,1.1s.42,1.46.94,1.48h11.51v-2.57Z"/>
        <path class="cls-6" d="m362.17,184.94c-2.46,0-9.41.05-11.87,0-1.7,0-1.78-3.27-.13-3.38,1.15-.08,3.5-.69,3.5-.69h8.49s.22.84.19.97c-.02.1-.19.32-.19.32h-11.46c-.57,0-.98,0-1.2.68s-.13,1.77.65,1.89c.09,0,.18,0,.27,0h11.74s.22-.11.19.02c-.02.1-.09.17-.19.19Z"/>
        <g class="cls-31">
          <path class="cls-18" d="m362.17,184.94c-2.46,0-9.41.05-11.87,0-1.7,0-1.78-3.27-.13-3.38,1.15-.08,3.5-.69,3.5-.69h8.49s.22.84.19.97c-.02.1-.19.32-.19.32h-11.46c-.57,0-.98,0-1.2.68s-.13,1.77.65,1.89c.09,0,.18,0,.27,0h11.74s.22-.11.19.02c-.02.1-.09.17-.19.19Z"/>
        </g>
        <path class="cls-6" d="m362.95,185.37v2.26c.63.02.71.14.68.26-.02.09-.09.16-.18-.59h-3.08v-2.57h3.08c.13.16.24.26.24.4s-.11.24-.75.24Z"/>
        <path class="cls-21" d="m362.95,185.37v2.26c.63.02.71.14.68.26-.02.09-.09.16-.18-.59h-3.08v-2.57h3.08c.13.16.24.26.24.4s-.11.24-.75.24Z"/>
        <rect class="cls-6" x="361.67" y="184.73" width="2.57" height="2.57"/>
        <rect class="cls-5" x="361.67" y="184.73" width="2.57" height="2.57"/>
        <path class="cls-6" d="m361.67,184.73h-10.63c-.46,0-.83.57-.83,1.28s.37,1.29.83,1.29h10.63v-2.57Z"/>
        <path class="cls-2" d="m361.67,184.73h-10.63c-.46,0-.83.57-.83,1.28s.37,1.29.83,1.29h10.63v-2.57Z"/>
        <path class="cls-6" d="m361.58,187.72c-2.18,0-8.31.04-10.48,0-1.52,0-1.57-2.88-.11-2.99,1.02-.07,2.07,0,3.09,0h7.79s.2.3.18.42c-.02.09-.18.86-.18.86h-10.63s-.86-.69-1.06-.09-.11,1.55.57,1.66c.08,0,.24-.29.24-.29h10.59c.12.02.19.13.17.25-.02.09-.08.15-.17.17h0Z"/>
        <path class="cls-6" d="m364.24,188.51v2.69c.65.03.75.16.72.3-.02.11-.1.19-.21-.34h-3.08v-3.86h3.08c.15.67.27.79.27.94s-.12.27-.78.27Z"/>
        <path class="cls-21" d="m364.24,188.51v2.69c.65.03.75.16.72.3-.02.11-.1.19-.21-.34h-3.08v-3.86h3.08c.15.67.27.79.27.94s-.12.27-.78.27Z"/>
        <rect class="cls-6" x="361.67" y="188.59" width="2.57" height="2.57"/>
        <rect class="cls-5" x="361.67" y="188.59" width="2.57" height="2.57"/>
        <path class="cls-6" d="m362.95,188.59h-13.33c-.57-.34-1.04.38-1.04,1.25s.46,1.59,1.04,1.33h13.33v-2.57Z"/>
        <path class="cls-2" d="m362.95,188.59h-13.33c-.57-.34-1.04.38-1.04,1.25s.46,1.59,1.04,1.33h13.33v-2.57Z"/>
        <path class="cls-6" d="m362.86,192.45c-2.72-.71-10.35-.66-13.09-.71-1.86,0-1.96-3.6-.14-3.73,1.27-.09,3.86-.71,3.86-.71h9.36s.24.87.21,1.02c-.02.11-.21.27-.21.27h-12.66c-.57,0-.97,0-1.2.68s-.13,1.77.65,1.9c.09,0,.18,0,.27,0h12.97s.24.22.21.37c-.02.11-.21.92-.21.92h-.02Z"/>
        <g class="cls-31">
          <path class="cls-11" d="m362.86,192.45c-2.72-.71-10.35-.66-13.09-.71-1.86,0-1.96-3.6-.14-3.73,1.27-.09,3.86-.71,3.86-.71h9.36s.24.87.21,1.02c-.02.11-.21.27-.21.27h-12.66c-.57,0-.97,0-1.2.68s-.13,1.77.65,1.9c.09,0,.18,0,.27,0h12.97s.24.22.21.37c-.02.11-.21.92-.21.92h-.02Z"/>
        </g>
        <path class="cls-6" d="m364.24,176.96v1.24s-.04.24-.27.09h-2.3v-1.29h2.3c.23-.29.23-.05.27-.05Z"/>
        <path class="cls-21" d="m364.24,176.96v1.24s-.04.24-.27.09h-2.3v-1.29h2.3c.23-.29.23-.05.27-.05Z"/>
        <rect class="cls-6" x="362.95" y="177.01" width="1.29" height="1.29"/>
        <rect class="cls-5" x="362.95" y="177.01" width="1.29" height="1.29"/>
        <path class="cls-6" d="m362.95,177.01h-9.22c-.4-.13-.69.24-.65.64.04.34.31.62.65.65h9.22v-1.29Z"/>
        <path class="cls-2" d="m362.95,177.01h-9.22c-.4-.13-.69.24-.65.64.04.34.31.62.65.65h9.22v-1.29Z"/>
        <path class="cls-6" d="m362.69,179.59h-8.86s-.9-1.43-.96-1.89.26-.9.73-.96c.04,0,.09,0,.13,0,.87-.04,2.61-1,2.61-1h6.37v1.29h-8.57c-.42,0-.73,0-.89.34-.17.31-.07.7.24.87.08.04.16.07.25.08h8.94s.23.12,0,.12v1.16Z"/>
        <g class="cls-31">
          <path class="cls-18" d="m362.69,179.59h-8.86s-.9-1.43-.96-1.89.26-.9.73-.96c.04,0,.09,0,.13,0,.87-.04,2.61-1,2.61-1h6.37v1.29h-8.57c-.42,0-.73,0-.89.34-.17.31-.07.7.24.87.08.04.16.07.25.08h8.94s.23.12,0,.12v1.16Z"/>
        </g>
        <path class="cls-6" d="m364.24,178.61v1.13c-.37,0-.37.22-.58-.16h-1.99v-1.29h1.99c.21.1.21.31.58.31Z"/>
        <path class="cls-21" d="m364.24,178.61v1.13c-.37,0-.37.22-.58-.16h-1.99v-1.29h1.99c.21.1.21.31.58.31Z"/>
        <rect class="cls-6" x="361.67" y="178.3" width="1.29" height="1.29"/>
        <rect class="cls-5" x="361.67" y="178.3" width="1.29" height="1.29"/>
        <path class="cls-6" d="m362.25,178.3h-7.86c-.36,0-.64.29-.64.64s.29.64.64.64h7.89l-.03-1.29Z"/>
        <path class="cls-2" d="m362.25,178.3h-7.86c-.36,0-.64.29-.64.64s.29.64.64.64h7.89l-.03-1.29Z"/>
        <path class="cls-6" d="m362.47,180.87h-8.2s-.82-1.22-.84-1.66.31-.82.75-.84c.8-.04,2.39-.07,2.39-.07h5.87v1.29h-7.96s-.65-1-.8-.69c-.14.28-.02.61.26.75.05.03.17-.05.17-.05h8.3s.21.33,0,.33l.07.96Z"/>
        <path class="cls-6" d="m364.24,180.21v1.35c.63,0,.63.25.38-.68h-2.96v-1.29h2.96c.25.36.25.62-.38.62Z"/>
        <path class="cls-21" d="m364.24,180.21v1.35c.63,0,.63.25.38-.68h-2.96v-1.29h2.96c.25.36.25.62-.38.62Z"/>
        <rect class="cls-6" x="362.95" y="180.87" width="1.29" height="1.29"/>
        <rect class="cls-5" x="362.95" y="180.87" width="1.29" height="1.29"/>
        <path class="cls-6" d="m362.95,179.59h-9.62c-.44.48-.8.84-.8,1.28s.36.8.8,0h9.62v-1.29Z"/>
        <path class="cls-2" d="m362.95,179.59h-9.62c-.44.48-.8.84-.8,1.28s.36.8.8,0h9.62v-1.29Z"/>
        <path class="cls-6" d="m363.21,182.16h-9.76s-1-.61-1.09-1.12c-.09-.51.25-1,.76-1.09.07-.01.15-.02.22-.01.95-.04,2.88.93,2.88.93h6.98-9.47c-.43,0-.76,0-.89.34-.17.31-.06.71.26.88.07.04.14.06.22.07h9.88Z"/>
        <g class="cls-31">
          <path class="cls-11" d="m363.21,182.16h-9.76s-1-.61-1.09-1.12c-.09-.51.25-1,.76-1.09.07-.01.15-.02.22-.01.95-.04,2.88.93,2.88.93h6.98-9.47c-.43,0-.76,0-.89.34-.17.31-.06.71.26.88.07.04.14.06.22.07h9.88Z"/>
        </g>
      </g>
      <g id="freepik--Building--inject-62">
        <path class="cls-6" d="m92.72,46.17v223.49h350.02V31l-350.02,15.17Zm337.15,217.06H109.45V66.34h320.42v196.89Z"/>
        <path class="cls-21" d="m92.72,46.17v223.49h350.02V31l-350.02,15.17Zm337.15,217.06H109.45V66.34h320.42v196.89Z"/>
        <rect class="cls-6" x="278.02" y="49.61" width="7.72" height="217.48"/>
        <rect class="cls-21" x="278.02" y="49.61" width="7.72" height="217.48"/>
        <polygon class="cls-6" points="193.09 49.61 193.09 267.09 185.37 267.09 185.37 106.24 94.01 106.24 94.01 98.51 185.37 98.51 185.37 49.61 193.09 49.61"/>
        <polygon class="cls-21" points="193.09 49.61 193.09 267.09 185.37 267.09 185.37 106.24 94.01 106.24 94.01 98.51 185.37 98.51 185.37 49.61 193.09 49.61"/>
        <polygon class="cls-30" points="275.45 111.96 215.23 260.66 236.62 260.66 275.45 162.07 275.45 111.96"/>
        <polygon class="cls-30" points="274.16 59.91 274.16 91.6 205.09 259.37 193.09 259.37 193.09 237.22 255.16 89.57 255.18 89.51 260.78 75.38 260.87 75.16 261.07 74.66 261.09 74.59 261.15 74.43 264.26 66.59 266.91 59.91 274.16 59.91"/>
        <polygon class="cls-30" points="429.87 111.96 369.65 260.66 391.04 260.66 429.87 162.07 429.87 111.96"/>
        <polygon class="cls-30" points="429.87 59.91 429.87 91.6 360.7 259.37 339.35 259.37 410.86 89.51 416.47 75.38 416.56 75.16 419.96 66.59 422.61 59.91 429.87 59.91"/>
        <rect class="cls-3" x="109.45" y="102.38" width="75.92" height="163.43"/>
        <rect class="cls-15" x="114.59" y="170.58" width="6.43" height="27.02"/>
        <rect class="cls-9" x="113.31" y="168" width="6.43" height="27.02"/>
        <polygon class="cls-15" points="305.46 36.4 303.56 58.12 303.4 59.91 410.49 59.91 412.95 31.73 305.46 36.4"/>
        <polygon class="cls-6" points="410.76 26.93 410.91 25.16 305.61 25.16 304.54 37.34 302.68 58.62 304.45 58.62 407.99 58.62 410.26 32.75 410.76 26.93"/>
        <path class="cls-22" d="m328.73,43.78c0,2.2-1.95,3.26-4.63,3.26h-5.39l2.06-10.29h4.97c2.22,0,3.45.81,3.45,2.35.01,1.18-.73,2.24-1.84,2.63.86.3,1.43,1.14,1.38,2.05Zm-2.34.47c0-.78-.61-1.07-1.56-1.07h-2.92l-.5,2.57h2.84c1.34-.03,2.17-.54,2.17-1.53l-.02.03Zm-3.75-6.24l-.51,2.59h2.59c1.31,0,2.11-.53,2.11-1.55,0-.72-.59-1.03-1.61-1.03l-2.58-.02Z"/>
        <path class="cls-22" d="m329.82,43.52c-.03-2.46,1.94-4.48,4.4-4.51.09,0,.18,0,.28,0,2.39,0,3.9,1.36,3.9,3.46.03,2.45-1.93,4.47-4.38,4.51-.1,0-.2,0-.29,0-2.36,0-3.9-1.38-3.9-3.46Zm6.3-.93c.07-.88-.58-1.64-1.46-1.72-.1,0-.2,0-.29,0-1.28.02-2.3,1.07-2.28,2.35,0,.06,0,.12.01.19-.07.88.58,1.65,1.46,1.72.1,0,.21,0,.31,0,1.28-.02,2.29-1.08,2.27-2.35,0-.06,0-.13-.01-.19Z"/>
        <path class="cls-22" d="m339.23,43.52c-.03-2.46,1.94-4.48,4.4-4.5.09,0,.18,0,.27,0,2.39,0,3.9,1.36,3.9,3.46.03,2.45-1.93,4.47-4.38,4.51-.1,0-.2,0-.29,0-2.36,0-3.89-1.38-3.89-3.46Zm6.29-.93c.07-.88-.58-1.64-1.46-1.72-.1,0-.2,0-.29,0-1.28.02-2.3,1.07-2.28,2.35,0,.06,0,.12.01.19-.07.88.58,1.65,1.46,1.72.1,0,.21,0,.31,0,1.28-.02,2.29-1.08,2.27-2.35,0-.06,0-.13-.01-.19Z"/>
        <path class="cls-22" d="m354.27,42.68l2.65,4.36h-2.71l-1.77-2.9-1.32,1.1-.36,1.81h-2.16l2.05-10.29h2.22l-1.19,5.42,3.71-2.85h2.91l-4.03,3.36Z"/>
        <path class="cls-22" d="m357.39,45.92l.95-1.79c.97.69,2.13,1.06,3.32,1.05,1.28,0,2.09-.45,2.09-1.18,0-1.59-4.99-.75-4.99-3.98,0-2.07,1.82-3.41,4.6-3.41,1.22-.04,2.42.26,3.48.86l-.88,1.78c-.81-.53-1.76-.81-2.73-.8-1.35,0-2.14.52-2.14,1.23,0,1.66,4.99.8,4.99,3.89,0,2.08-1.84,3.42-4.64,3.42-1.42.05-2.83-.32-4.04-1.08Z"/>
        <path class="cls-22" d="m375.65,42.02c0,.3-.04.6-.1.89l-.83,4.13h-2.17l.81-3.99c.04-.17.06-.34.05-.51,0-.77-.41-1.19-1.28-1.19-1.11-.04-2.04.81-2.12,1.91l-.77,3.79h-2.14l2.05-10.29h2.17l-.7,3.51c.65-.52,1.47-.79,2.3-.77,1.62-.02,2.72.86,2.72,2.53Z"/>
        <path class="cls-22" d="m377.12,43.52c-.03-2.46,1.94-4.48,4.4-4.5.09,0,.18,0,.27,0,2.39,0,3.9,1.36,3.9,3.46.03,2.45-1.93,4.47-4.38,4.51-.1,0-.2,0-.29,0-2.36,0-3.89-1.38-3.89-3.46Zm6.29-.93c.07-.88-.58-1.64-1.46-1.72-.1,0-.2,0-.29,0-1.28.02-2.3,1.07-2.28,2.35,0,.06,0,.12.01.19-.07.88.58,1.65,1.46,1.72.1,0,.21,0,.31,0,1.28-.02,2.29-1.08,2.27-2.35,0-.06,0-.13-.01-.19h0Z"/>
        <path class="cls-22" d="m395.51,42.6c.11,2.32-1.69,4.29-4.01,4.4-.06,0-.12,0-.18,0-.96.09-1.89-.34-2.45-1.12l-.78,3.74h-2.2l2.06-10.29h2.1l-.16.78c.64-.57,1.48-.88,2.34-.86,1.77-.04,3.23,1.36,3.27,3.13,0,.08,0,.15,0,.23Zm-2.16.58c.07-.88-.58-1.65-1.46-1.72-.1,0-.21,0-.31,0-1.28.02-2.29,1.07-2.27,2.35,0,.07,0,.13.01.2-.07.88.58,1.64,1.46,1.72.1,0,.2,0,.29,0,1.28-.02,2.3-1.07,2.28-2.35,0-.06,0-.12-.01-.19h0Z"/>
        <path class="cls-6" d="m398.44,23.88h-89.49s2.07-10.86,3.26-11.15c1.19-.29,16.39-12.22,33.24-5.51,3.69,1.47,6.37,2.56,8.26,3.38,1.9-.8,4.57-1.91,8.25-3.38,16.86-6.71,32.07,5.3,33.25,5.57s3.23,11.09,3.23,11.09Z"/>
        <path class="cls-5" d="m398.45,23.88h-89.5l.05-.26c.33-1.68,2.13-10.62,3.19-10.85.07-.02.14-.05.21-.09,2.13-1.04,16.82-11.95,33.03-5.44,3.69,1.47,6.37,2.56,8.25,3.38,1.91-.8,4.57-1.91,8.25-3.38,16.89-6.74,32.11,5.28,33.28,5.55s3.25,11.09,3.25,11.09Z"/>
        <path class="cls-6" d="m408.66,23.88h-90.58s2.09-11,3.3-11.25c1.2-.25,16.59-10.74,33.62-3.93,3.73,1.48,8.35,7.24,8.35,7.24,0,0,4.63-5.76,8.35-7.24,17.07-6.82,32.45,3.68,33.66,3.93s3.29,11.25,3.29,11.25Z"/>
        <path class="cls-1" d="m408.66,23.88h-90.58s2.09-11,3.3-11.25c1.2-.25,16.59-10.74,33.62-3.93,3.73,1.48,8.35,7.24,8.35,7.24,0,0,4.63-5.76,8.35-7.24,17.07-6.82,32.45,3.68,33.66,3.93s3.29,11.25,3.29,11.25Z"/>
        <polygon class="cls-6" points="363.78 19.95 360.9 25.16 367.71 25.16 363.78 19.95"/>
        <g class="cls-33">
          <polygon class="cls-11" points="363.78 19.95 360.9 25.16 367.71 25.16 363.78 19.95"/>
        </g>
        <path class="cls-26" d="m321.47,13.58c-.63,1.28-1.14,2.63-1.5,4.01-.87,3.43-1.79,7.57-1.79,7.57h-9.45l.05-.27c.35-1.74,2.21-10.98,3.29-11.22.08-.02.15-.05.21-.09h9.18Z"/>
        <path class="cls-22" d="m412.12,27.9l-44.38,1.12-.1-.09c-1.88-1.83-4.72-1.83-6.6,0l-.1.09h-57.29l.86-5.15h56.42c1.91-1.96,4.89-1.96,6.81,0l43.29-.07,1.1,4.1Z"/>
        <path class="cls-6" d="m367.75,17.09s6.96-7.96,15.41-6.52c-.03,0-5.95-.74-15.41,6.52Z"/>
        <path class="cls-27" d="m367.75,17.09s6.96-7.96,15.41-6.52c-.03,0-5.95-.74-15.41,6.52Z"/>
        <path class="cls-6" d="m351.12,20.77s-9.32-5.07-16.72-.72c0,0,5.29-2.76,16.72.72Z"/>
        <path class="cls-27" d="m351.12,20.77s-9.32-5.07-16.72-.72c0,0,5.29-2.76,16.72.72Z"/>
        <path class="cls-6" d="m359.93,18.03s-7.45-7.55-15.79-5.54c0,0,5.86-1.11,15.79,5.54Z"/>
        <path class="cls-27" d="m359.93,18.03s-7.45-7.55-15.79-5.54c0,0,5.86-1.11,15.79,5.54Z"/>
        <path class="cls-6" d="m378.81,16.97s9.3-5.12,16.72-.8c0-.02-5.3-2.76-16.72.8Z"/>
        <path class="cls-27" d="m378.81,16.97s9.3-5.12,16.72-.8c0-.02-5.3-2.76-16.72.8Z"/>
        <path class="cls-6" d="m286.83,34.17c-.22,0-.41-.18-.41-.4,0-.23.17-.43.4-.44l11.95-.52c.23.03.39.25.36.48-.03.19-.17.33-.36.36l-11.95.52h.02Z"/>
        <path class="cls-6" d="m204.87,37.82c-.22,0-.4-.18-.41-.4,0-.23.17-.42.4-.43,0,0,0,0,0,0l75.35-3.27c.22.07.35.3.29.52-.04.12-.13.22-.25.27l-75.35,3.27-.02.04Z"/>
        <path class="cls-6" d="m113.97,89.68h0c-3.92,0-7.09-3.16-7.09-7.06v-22.71h14.16v22.72c0,3.88-3.16,7.03-7.06,7.05Z"/>
        <path class="cls-6" d="m128.11,89.68h0c-3.91,0-7.08-3.16-7.08-7.06v-22.71h14.16v22.72c0,3.9-3.17,7.05-7.08,7.05Z"/>
        <path class="cls-16" d="m128.11,89.68h0c-3.91,0-7.08-3.16-7.08-7.06v-22.71h14.16v22.72c0,3.9-3.17,7.05-7.08,7.05Z"/>
        <path class="cls-6" d="m142.26,89.68h0c-3.91,0-7.08-3.16-7.08-7.06v-22.71h14.16v22.72c0,3.9-3.17,7.05-7.08,7.05Z"/>
        <path class="cls-6" d="m156.42,89.68h0c-3.91,0-7.08-3.16-7.08-7.06v-22.71h14.16v22.72c0,3.9-3.17,7.05-7.08,7.05Z"/>
        <path class="cls-16" d="m156.42,89.68h0c-3.91,0-7.08-3.16-7.08-7.06v-22.71h14.16v22.72c0,3.9-3.17,7.05-7.08,7.05Z"/>
        <path class="cls-6" d="m170.57,89.68h0c-3.91,0-7.08-3.16-7.08-7.06v-22.71h14.16v22.72c0,3.9-3.17,7.05-7.08,7.05Z"/>
        <path class="cls-6" d="m184.71,89.51h0c-3.9,0-7.06-3.14-7.06-7.02v-22.57h14.16v22.59c0,3.88-3.18,7.02-7.07,7.01,0,0-.02,0-.02,0Z"/>
        <path class="cls-16" d="m184.71,89.51h0c-3.9,0-7.06-3.14-7.06-7.02v-22.57h14.16v22.59c0,3.88-3.18,7.02-7.07,7.01,0,0-.02,0-.02,0Z"/>
        <path class="cls-6" d="m198.88,89.68h0c-3.91,0-7.08-3.16-7.08-7.06v-22.71h14.16v22.72c0,3.9-3.17,7.05-7.08,7.05Z"/>
        <path class="cls-6" d="m213.04,89.68h0c-3.91,0-7.08-3.16-7.08-7.06v-22.71h14.16v22.72c0,3.9-3.17,7.05-7.08,7.05Z"/>
        <path class="cls-16" d="m213.04,89.68h0c-3.91,0-7.08-3.16-7.08-7.06v-22.71h14.16v22.72c0,3.9-3.17,7.05-7.08,7.05Z"/>
        <path class="cls-6" d="m227.19,89.68h0c-3.91,0-7.08-3.16-7.08-7.06v-22.71h14.16v22.72c0,3.9-3.17,7.05-7.08,7.05Z"/>
        <path class="cls-6" d="m241.35,89.68h0c-3.91,0-7.08-3.16-7.08-7.06v-22.71h14.16v22.72c0,3.9-3.17,7.05-7.08,7.05Z"/>
        <path class="cls-16" d="m241.35,89.68h0c-3.91,0-7.08-3.16-7.08-7.06v-22.71h14.16v22.72c0,3.9-3.17,7.05-7.08,7.05Z"/>
        <path class="cls-6" d="m254.22,89.68h0c-3.91,0-7.08-3.16-7.08-7.06v-22.71h14.16v22.72c0,3.9-3.17,7.05-7.08,7.05Z"/>
        <path class="cls-6" d="m268.37,89.68h0c-3.91,0-7.08-3.16-7.08-7.06v-22.71h14.16v22.72c0,3.9-3.17,7.05-7.08,7.05Z"/>
        <path class="cls-16" d="m268.37,89.68h0c-3.91,0-7.08-3.16-7.08-7.06v-22.71h14.16v22.72c0,3.9-3.17,7.05-7.08,7.05Z"/>
        <path class="cls-6" d="m282.53,89.68h0c-3.91,0-7.08-3.16-7.08-7.06v-22.71h14.16v22.72c0,3.9-3.17,7.05-7.08,7.05Z"/>
        <path class="cls-6" d="m296.68,89.68h0c-3.91,0-7.08-3.16-7.08-7.06v-22.71h14.16v22.72c0,3.9-3.17,7.05-7.08,7.05Z"/>
        <path class="cls-16" d="m296.66,89.51h0c-3.9,0-7.06-3.14-7.06-7.02v-22.57h14.16v22.59c0,3.88-3.18,7.02-7.07,7.01,0,0-.02,0-.02,0Z"/>
        <path class="cls-6" d="m310.84,89.68h0c-3.91,0-7.08-3.16-7.08-7.06v-22.71h14.16v22.72c0,3.9-3.17,7.05-7.08,7.05Z"/>
        <path class="cls-6" d="m324.99,89.68h0c-3.91,0-7.08-3.16-7.08-7.06v-22.71h14.16v22.72c0,3.9-3.17,7.05-7.08,7.05Z"/>
        <path class="cls-16" d="m324.99,89.68h0c-3.91,0-7.08-3.16-7.08-7.06v-22.71h14.16v22.72c0,3.9-3.17,7.05-7.08,7.05Z"/>
        <path class="cls-6" d="m339.15,89.68h0c-3.91,0-7.08-3.16-7.08-7.06v-22.71h14.16v22.72c0,3.9-3.17,7.05-7.08,7.05Z"/>
        <path class="cls-6" d="m353.3,89.68h0c-3.91,0-7.08-3.16-7.08-7.06v-22.71h14.16v22.72c0,3.9-3.17,7.05-7.08,7.05Z"/>
        <path class="cls-16" d="m353.3,89.68h0c-3.91,0-7.08-3.16-7.08-7.06v-22.71h14.16v22.72c0,3.9-3.17,7.05-7.08,7.05Z"/>
        <path class="cls-6" d="m367.46,89.68h0c-3.91,0-7.08-3.16-7.08-7.06v-22.71h14.16v22.72c0,3.9-3.17,7.05-7.08,7.05Z"/>
        <path class="cls-6" d="m381.61,89.68h0c-3.91,0-7.08-3.16-7.08-7.06v-22.71h14.16v22.72c0,3.9-3.17,7.05-7.08,7.05Z"/>
        <path class="cls-16" d="m381.61,89.68h0c-3.91,0-7.08-3.16-7.08-7.06v-22.71h14.16v22.72c0,3.9-3.17,7.05-7.08,7.05Z"/>
        <path class="cls-6" d="m395.77,89.68h0c-3.91,0-7.08-3.16-7.08-7.06v-22.71h14.16v22.72c0,3.9-3.17,7.05-7.08,7.05Z"/>
        <path class="cls-6" d="m408.64,89.68h0c-3.91,0-7.08-3.16-7.08-7.06v-22.71h14.16v22.72c0,3.9-3.17,7.05-7.08,7.05Z"/>
        <path class="cls-16" d="m408.64,89.68h0c-3.91,0-7.08-3.16-7.08-7.06v-22.71h14.16v22.72c0,3.9-3.17,7.05-7.08,7.05Z"/>
        <path class="cls-6" d="m422.79,89.68h0c-3.91,0-7.08-3.16-7.08-7.06v-22.71h14.16v22.72c0,3.9-3.17,7.05-7.08,7.05Z"/>
      </g>
    </g>
  </g>
</svg>